<svg width="94" height="89" viewBox="0 0 94 89" fill="none" xmlns="http://www.w3.org/2000/svg">
<circle opacity="0.1" cx="46.9163" cy="44.5" r="44.5" fill="#D81E05"/>
<line x1="0.5" y1="86.0808" x2="92.9299" y2="86.0808" stroke="#3F3F3F" stroke-linecap="round"/>
<path d="M23.1755 38.4404C23.7396 42.0362 21.2895 45.4028 17.6938 45.9668C14.098 46.5309 10.7314 44.0808 10.1674 40.4851C9.60337 36.8893 12.0534 33.5227 15.6491 32.9587C19.2273 32.3947 22.6115 34.8447 23.1755 38.4404Z" fill="#737373"/>
<g opacity="0.1">
<path d="M15.6313 32.9563C12.0356 33.5203 9.58556 36.8869 10.1496 40.4827C10.1496 40.4827 14.75 39.9715 15.5608 37.9445C16.3716 35.9527 15.6313 32.9563 15.6313 32.9563Z" fill="#B1B1B1"/>
</g>
<path d="M21.4834 38.5975C21.9064 41.3296 20.038 43.903 17.306 44.326C14.5739 44.749 12.0005 42.8807 11.5774 40.1486C11.1544 37.4166 13.0228 34.8431 15.7549 34.4201C18.5045 33.9971 21.0603 35.8654 21.4834 38.5975Z" fill="#E0E0E0"/>
<path d="M21.6596 38.7861C22.0826 41.4829 20.2495 44.021 17.5527 44.4441C14.8559 44.8671 12.3177 43.034 11.8947 40.3372C11.4716 37.6404 13.3048 35.1022 16.0016 34.6792C18.716 34.2385 21.2366 36.0893 21.6596 38.7861Z" fill="#F5F5F5"/>
<path d="M16.9011 39.0995L16.7073 37.848C16.9364 37.8304 17.1655 37.8657 17.3947 37.9185C17.5886 37.989 17.7296 38.0595 17.7296 38.0595L17.7472 38.0243L17.8706 37.5484L17.9058 37.4426L17.6414 37.2487L17.5357 37.3192C17.236 37.2311 16.9188 37.1606 16.5839 37.1959L16.4781 36.5084L16.2313 36.3674L16.2666 36.5437L15.967 36.5966L16.0727 37.3016C15.1209 37.5484 14.7507 38.1653 14.8565 38.7998C14.9975 39.6635 15.7554 39.7693 16.4781 39.8222L16.672 41.056C16.1961 41.0912 15.7026 40.9855 15.3677 40.774L15.1914 41.4438C15.5615 41.6729 16.1785 41.7787 16.7954 41.7258L16.8835 42.237L16.6367 42.2722L16.9011 42.3956L17.4123 42.3075L17.3065 41.62C18.2584 41.3733 18.6461 40.7564 18.5404 40.1218C18.3994 39.2405 17.6238 39.1524 16.9011 39.0995ZM16.3724 39.0466C16.0022 38.9937 15.7026 38.9056 15.6673 38.606C15.6321 38.3416 15.7731 38.0772 16.1961 37.9362L16.3724 39.0466ZM17.2008 40.9326L17.0245 39.8398C17.4123 39.8927 17.7119 39.9808 17.7472 40.2981C17.8001 40.5625 17.6414 40.7916 17.2008 40.9326Z" fill="#E0E0E0"/>
<path d="M17.0596 41.4827L17.1653 42.1702L16.6542 42.2583L16.5484 41.5709C15.9315 41.6237 15.3146 41.518 14.9444 41.2888L15.1207 40.6191C15.4556 40.8129 15.9491 40.9187 16.425 40.9011L16.2311 39.6672C15.5261 39.6144 14.7505 39.5086 14.6095 38.6449C14.5038 38.0104 14.8739 37.3935 15.8257 37.1467L15.72 36.4416L16.2311 36.3535L16.3369 37.0409C16.7952 36.9881 17.2887 37.0586 17.6589 37.2172L17.5002 37.887C17.1477 37.746 16.7776 37.6931 16.4427 37.7107L16.6366 38.9622C17.3416 39.0151 18.1348 39.1208 18.2758 39.9845C18.3992 40.6014 18.029 41.2183 17.0596 41.4827ZM16.143 38.9093L15.9668 37.7989C15.5437 37.9399 15.3851 38.1866 15.438 38.4687C15.4732 38.7683 15.7729 38.8564 16.143 38.9093ZM17.5179 40.1608C17.465 39.8611 17.183 39.7554 16.7952 39.7025L16.9714 40.7953C17.4121 40.6719 17.5707 40.4252 17.5179 40.1608Z" fill="#737373"/>
<path d="M11.5954 43.385C11.5954 43.385 11.5778 43.3673 11.5601 43.3321C11.5249 43.2968 11.5073 43.244 11.4544 43.1911C11.4015 43.1382 11.3486 43.0501 11.2957 42.9619C11.2429 42.8738 11.1724 42.768 11.1019 42.6623C11.0666 42.6094 11.0314 42.5389 10.9961 42.486C10.9608 42.4155 10.9256 42.345 10.8903 42.2921C10.8198 42.1511 10.767 41.9925 10.6965 41.8339C10.5731 41.499 10.4673 41.1288 10.3792 40.741C10.3087 40.3356 10.2734 39.9655 10.2558 39.613C10.2558 39.4367 10.2558 39.2781 10.2734 39.1194C10.2734 39.0489 10.2734 38.9608 10.2911 38.8903C10.2911 38.8198 10.3087 38.7493 10.3087 38.6788C10.3263 38.5554 10.3439 38.432 10.3616 38.3262C10.3792 38.2205 10.3968 38.1324 10.4144 38.0619C10.4321 37.9914 10.4497 37.9385 10.4497 37.9032C10.4673 37.868 10.4673 37.8503 10.4673 37.8503C10.4673 37.8503 10.4673 37.868 10.4673 37.9032C10.4673 37.9385 10.4497 38.009 10.4321 38.0619C10.4144 38.1324 10.3968 38.2205 10.3792 38.3262C10.3616 38.432 10.3439 38.5554 10.3263 38.6788C10.3263 38.7493 10.3087 38.8198 10.3087 38.8903C10.3087 38.9608 10.3087 39.0313 10.2911 39.1194C10.2734 39.2781 10.2911 39.4367 10.2911 39.613C10.3087 39.9655 10.3439 40.3356 10.4144 40.741C10.5026 41.1288 10.6083 41.499 10.7317 41.8339C10.8022 41.9925 10.8551 42.1511 10.9256 42.2921C10.9608 42.3626 10.9961 42.4331 11.0137 42.486C11.049 42.5565 11.0842 42.6094 11.1195 42.6623C11.1724 42.7857 11.2429 42.8738 11.2957 42.9619C11.3486 43.0501 11.4015 43.1206 11.4368 43.1911C11.472 43.244 11.5073 43.2968 11.5249 43.3321C11.5954 43.3673 11.5954 43.385 11.5954 43.385Z" fill="#B1B1B1"/>
<path d="M15.1384 39.0843C15.1384 39.0843 15.0679 39.0491 14.9798 38.9609C14.8917 38.8728 14.7859 38.7142 14.7683 38.5203C14.7507 38.3264 14.8035 38.1501 14.874 38.0444C14.9445 37.9386 14.9974 37.8857 15.015 37.8857C15.015 37.8857 14.9622 37.9562 14.9093 38.062C14.8564 38.1678 14.8035 38.344 14.8212 38.5203C14.8388 38.6965 14.9269 38.8552 15.015 38.9433C15.0855 39.0314 15.1561 39.0667 15.1384 39.0843Z" fill="#B1B1B1"/>
<path d="M15.949 37.0018C15.9314 37.0018 15.9138 36.9137 15.8962 36.808C15.8785 36.7022 15.8785 36.5964 15.8962 36.5964C15.9138 36.5964 15.9314 36.6846 15.949 36.7903C15.9667 36.9137 15.9667 37.0018 15.949 37.0018Z" fill="#B1B1B1"/>
<path d="M16.1962 34.2273C16.1962 34.2273 16.1433 34.245 16.0375 34.245C15.9847 34.245 15.9318 34.2626 15.8437 34.2626C15.7731 34.2802 15.685 34.2802 15.5969 34.2978C15.5088 34.3155 15.403 34.3331 15.2972 34.3507C15.1915 34.3684 15.0857 34.4036 14.9623 34.4389C14.7332 34.5094 14.4688 34.5975 14.222 34.7209C13.9753 34.8443 13.7285 34.9853 13.5346 35.1087C13.4289 35.1792 13.3407 35.2497 13.2526 35.3202C13.1645 35.3907 13.094 35.4435 13.0235 35.5141C12.953 35.5669 12.9001 35.6374 12.8472 35.6903C12.7943 35.7432 12.7414 35.7784 12.7062 35.8313C12.6357 35.9018 12.6004 35.9547 12.5828 35.9371C12.5828 35.9371 12.6181 35.8842 12.6886 35.8137C12.7238 35.7784 12.7591 35.7256 12.8119 35.6727C12.8648 35.6198 12.9177 35.5669 12.9882 35.4964C13.0587 35.4259 13.1292 35.373 13.2174 35.3025C13.3055 35.232 13.3936 35.1615 13.4994 35.091C13.7109 34.95 13.94 34.809 14.1868 34.6856C14.4512 34.5622 14.698 34.4741 14.9271 34.4036C15.0505 34.3684 15.1562 34.3331 15.262 34.3155C15.3677 34.2978 15.4735 34.2802 15.5616 34.2626C15.6498 34.245 15.7379 34.245 15.8084 34.2273C15.8789 34.2273 15.9494 34.2097 16.0023 34.2097C16.1257 34.2273 16.1962 34.2273 16.1962 34.2273Z" fill="#B1B1B1"/>
<path d="M18.4168 45.5239C18.4168 45.5239 18.3816 45.5415 18.311 45.5768C18.2405 45.612 18.1348 45.6473 17.9938 45.6825C17.7294 45.7707 17.3416 45.8412 16.9186 45.8588C16.4956 45.8764 16.1078 45.8412 15.8258 45.7883C15.6847 45.7707 15.579 45.7354 15.5085 45.7178C15.438 45.7002 15.3851 45.6825 15.3851 45.6825C15.3851 45.6825 15.4204 45.6825 15.5085 45.7002C15.579 45.7178 15.7024 45.7354 15.8258 45.753C16.1078 45.7883 16.4779 45.8235 16.901 45.8059C17.324 45.7883 17.7118 45.7178 17.9762 45.6297C18.1172 45.5944 18.2229 45.5592 18.2934 45.5415C18.3816 45.5239 18.4168 45.5063 18.4168 45.5239Z" fill="#B1B1B1"/>
<path d="M12.5829 67.9322C11.4196 67.3329 10.0448 67.2448 8.74044 67.4739C8.03539 67.5973 7.31271 67.7912 6.83681 68.32C6.3609 68.8487 6.27277 69.7653 6.81918 70.206C7.13645 70.4703 7.59473 70.5056 8.01776 70.5056C9.04008 70.488 10.1505 70.3117 10.9613 70.9286C11.4196 71.2812 11.7369 71.8628 12.2833 72.0215C12.8297 72.1977 13.429 71.8628 13.7286 71.3869C14.0107 70.8934 14.0283 70.2941 13.8873 69.7301C13.9049 69.7301 13.7639 68.5315 12.5829 67.9322Z" fill="#E8505B"/>
<path d="M15.262 62.7702C14.5393 63.7925 13.1645 63.4576 12.5123 62.8231C11.8602 62.2062 11.5958 61.2896 11.349 60.4435C10.785 58.4694 10.2209 56.4071 10.6263 54.4154C10.7497 53.8161 10.9789 53.2168 11.4019 52.7762C11.8249 52.3355 12.4771 52.0711 13.0587 52.2297C13.7638 52.406 14.1868 53.0934 14.5041 53.7456C15.4207 55.6668 15.9142 57.782 15.9318 59.9148C15.9318 60.9018 15.8261 61.9418 15.262 62.7702Z" fill="#E8505B"/>
<path d="M17.2186 64.2307C16.4431 63.3142 16.302 61.9746 16.6369 60.8113C16.9895 59.6656 17.765 58.6785 18.664 57.8853C19.7215 56.9511 20.9554 56.2108 22.2949 55.7526C22.8237 55.5763 23.3701 55.4177 23.9166 55.4705C24.463 55.5234 25.027 55.8054 25.2914 56.299C25.6792 57.0216 25.309 57.903 24.9036 58.6256C24.1986 59.8947 23.4054 61.1109 22.5241 62.2566C21.819 63.1732 20.9906 64.0897 19.9154 64.4951C18.8226 64.9182 17.6945 64.8653 17.1305 64.1074" fill="#EBEBEB"/>
<path d="M15.297 78.1383C15.2794 78.1383 15.2618 77.9797 15.2265 77.6801C15.1913 77.3452 15.156 76.9221 15.1032 76.411C15.0503 75.8822 14.9621 75.2477 14.8211 74.5602C14.6801 73.8728 14.451 73.1325 14.1513 72.3746C13.8517 71.6167 13.4639 70.9469 13.0409 70.4005C12.6002 69.854 12.1067 69.4486 11.6308 69.2195C11.1549 68.9904 10.7319 68.8846 10.4322 68.8493C10.1326 68.8141 9.97394 68.7965 9.97394 68.7788C9.97394 68.7612 10.1326 68.7612 10.4498 68.7788C10.7495 68.7965 11.1901 68.867 11.6837 69.0961C12.1772 69.3253 12.7236 69.713 13.1819 70.2771C13.6402 70.8411 14.028 71.5285 14.3452 72.3041C14.6449 73.0796 14.874 73.8199 15.015 74.525C15.156 75.23 15.2265 75.8646 15.2618 76.411C15.297 76.9398 15.3147 77.3804 15.3323 77.6801C15.3147 77.9797 15.3147 78.1383 15.297 78.1383Z" fill="#3F3F3F"/>
<path d="M15.2269 77.1705C15.2269 77.1705 15.2092 77.1 15.2092 76.959C15.2092 76.8004 15.2092 76.5889 15.2092 76.3421C15.2092 75.8133 15.2092 75.0378 15.174 74.0859C15.1211 72.1823 14.9625 70.1201 14.6452 67.2294C14.3455 64.5149 13.9401 61.3422 13.5171 59.2799C13.429 58.804 13.3409 58.3986 13.2527 58.0285C13.1646 57.6583 13.0941 57.3411 13.0236 57.0767C12.9707 56.8299 12.9178 56.636 12.8826 56.4774C12.8473 56.3364 12.8473 56.2659 12.8473 56.2659C12.8473 56.2659 12.8826 56.3364 12.9178 56.4598C12.9707 56.6184 13.0236 56.8123 13.0941 57.0414C13.1646 57.3058 13.2527 57.6055 13.3409 57.9756C13.429 58.3458 13.5347 58.7688 13.6405 59.2271C14.0635 61.0954 14.5042 63.7041 14.8215 66.5948C15.1387 69.5031 15.2797 72.1294 15.2974 74.0507C15.315 75.0025 15.2797 75.7781 15.2621 76.3068C15.2445 76.5536 15.2269 76.7651 15.2269 76.9238C15.2269 77.1 15.2269 77.1705 15.2269 77.1705Z" fill="#3F3F3F"/>
<path d="M15.2091 72.0706C15.1915 72.0706 15.1915 71.8415 15.2091 71.4361C15.2267 71.0307 15.2972 70.4314 15.403 69.6911C15.5264 68.9684 15.7026 68.1047 15.967 67.1529C16.0904 66.7299 16.3548 65.6899 17.0246 64.1565C17.9059 62.0766 19.1045 60.3668 20.1444 59.3093C20.3912 59.0272 20.6556 58.8334 20.8847 58.6218C20.9905 58.5337 21.0963 58.428 21.202 58.3574C21.3078 58.2869 21.3959 58.2164 21.484 58.1636C21.8189 57.9344 22.0128 57.811 22.0304 57.811C22.0657 57.8463 21.2725 58.3222 20.2502 59.3974C19.2455 60.4726 18.0822 62.1647 17.2185 64.227C16.725 65.355 16.3901 66.3421 16.1433 67.2058C15.8613 68.14 15.685 68.986 15.544 69.7087C15.403 70.4314 15.3325 71.0307 15.2796 71.4361C15.2444 71.8415 15.2267 72.0706 15.2091 72.0706Z" fill="#B1B1B1"/>
<path d="M20.7614 77.4585L20.2502 84.4561H11.2609L10.7497 77.4585H20.7614Z" fill="#B1B1B1"/>
<path d="M21.625 74.7078H9.67448V77.4574H21.625V74.7078Z" fill="#B1B1B1"/>
<path d="M21.6252 84.1912V84.9491H21.0611H9.88614V84.1912H21.6252Z" fill="#EBEBEB"/>
<path d="M20.5147 86.2854L21.0611 84.9458H10.3091L10.9437 86.2854H20.5147Z" fill="#B1B1B1"/>
<path d="M10.9259 79.7426C10.9259 79.7426 10.9435 79.7603 10.9611 79.8131C10.9964 79.866 11.0493 79.9189 11.1021 79.9894C11.2255 80.148 11.4018 80.3772 11.6309 80.6592L11.6486 80.6944L11.6662 80.6592C12.0011 80.2009 12.4417 79.6016 12.9529 78.879H12.8824C13.2702 79.4254 13.6932 80.0247 14.1515 80.6768L14.1867 80.7297L14.2396 80.6768C14.7155 80.1128 15.2091 79.5135 15.7378 78.8966H15.6497C15.6673 78.9318 15.7026 78.9671 15.7378 79.0023C16.1961 79.584 16.6544 80.148 17.0774 80.6768L17.1303 80.7297L17.1656 80.6768C17.6238 80.0247 18.0469 79.4254 18.4346 78.879H18.3641C18.9811 79.584 19.5098 80.2009 19.9152 80.6592L19.9505 80.6944L19.9681 80.6592C20.1796 80.3067 20.3383 80.0423 20.4617 79.8308C20.5145 79.7426 20.5498 79.6721 20.585 79.6193C20.6203 79.5664 20.6203 79.5487 20.6203 79.5487C20.6203 79.5487 20.6027 79.5664 20.5674 79.6193C20.5322 79.6721 20.4793 79.7426 20.4264 79.8308C20.303 80.0247 20.1268 80.289 19.9152 80.6416H19.9681C19.5627 80.1657 19.0516 79.5664 18.4346 78.8437L18.3994 78.7908L18.3641 78.8437C17.9764 79.3901 17.5533 79.9894 17.0951 80.6239H17.1832C16.7602 80.0952 16.3019 79.5311 15.8436 78.9318C15.8083 78.8966 15.7907 78.8613 15.7555 78.8261L15.7202 78.7732L15.685 78.8261C15.1562 79.4606 14.6626 80.0599 14.1867 80.6239H14.2749C13.8166 79.9718 13.3759 79.3725 12.9882 78.8437L12.9529 78.7908L12.9176 78.8437C12.4065 79.5664 11.9835 80.1833 11.6662 80.6416H11.7191C11.4899 80.3596 11.3137 80.148 11.1727 79.9894C11.1198 79.9189 11.0669 79.866 11.0316 79.8131C10.9435 79.7603 10.9259 79.7426 10.9259 79.7426Z" fill="#F5F5F5"/>
<path d="M10.6264 77.4233C10.6264 77.4585 12.8825 77.4762 15.6498 77.4762C18.4348 77.4762 20.6733 77.4585 20.6733 77.4233C20.6733 77.388 18.4171 77.3704 15.6498 77.3704C12.8825 77.3528 10.6264 77.388 10.6264 77.4233Z" fill="#F5F5F5"/>
<path d="M10.1682 85.0211C10.1682 85.0564 12.6182 85.074 15.6323 85.074C18.6464 85.074 21.0964 85.0564 21.0964 85.0211C21.0964 84.9859 18.6464 84.9683 15.6323 84.9683C12.6182 84.9683 10.1682 85.0035 10.1682 85.0211Z" fill="#F5F5F5"/>
<path d="M77.3489 46.8376C83.1998 46.5106 87.6778 41.5024 87.3508 35.6515C87.0238 29.8006 82.0156 25.3226 76.1647 25.6496C70.3138 25.9766 65.8358 30.9848 66.1628 36.8357C66.4898 42.6866 71.498 47.1646 77.3489 46.8376Z" fill="#D81E05"/>
<g opacity="0.1">
<path d="M75.1035 25.7561C69.3044 26.6727 65.3562 32.1192 66.2727 37.9005C66.2727 37.9005 73.6934 37.0545 74.9977 33.8113C76.302 30.5857 75.1035 25.7561 75.1035 25.7561Z" fill="white"/>
</g>
<path d="M84.551 34.855C85.2561 39.2615 82.242 43.386 77.8355 44.0911C73.4289 44.7961 69.3044 41.7821 68.5993 37.3755C67.8943 32.969 70.9084 28.8444 75.3149 28.1394C79.7215 27.452 83.846 30.4484 84.551 34.855Z" fill="#D81E05"/>
<g opacity="0.2">
<path d="M84.551 34.855C85.2561 39.2615 82.242 43.386 77.8355 44.0911C73.4289 44.7961 69.3044 41.7821 68.5993 37.3755C67.8943 32.969 70.9084 28.8444 75.3149 28.1394C79.7215 27.452 83.846 30.4484 84.551 34.855Z" fill="black"/>
</g>
<path d="M84.833 35.1477C85.5204 39.4838 82.5592 43.573 78.2231 44.2604C73.8871 44.9479 69.7978 41.9867 69.1104 37.6506C68.423 33.3146 71.3842 29.2253 75.7202 28.5379C80.0563 27.8328 84.1279 30.794 84.833 35.1477Z" fill="#D81E05"/>
<g opacity="0.2">
<path d="M84.833 35.1477C85.5204 39.4838 82.5592 43.573 78.2231 44.2604C73.8871 44.9479 69.7978 41.9867 69.1104 37.6506C68.423 33.3146 71.3842 29.2253 75.7202 28.5379C80.0563 27.8328 84.1279 30.794 84.833 35.1477Z" fill="white"/>
</g>
<path d="M77.1652 35.6508L76.848 33.6414C76.848 33.6414 76.848 33.6414 76.8656 33.6414C77.2181 33.6238 77.6059 33.659 77.9761 33.7472C78.2933 33.8529 78.5225 33.9763 78.5225 33.9763L78.5401 33.9058L78.734 33.1302L78.7869 32.954L78.3638 32.6367L78.2052 32.7425C77.7293 32.5838 77.2005 32.4957 76.6893 32.5486L76.5131 31.4381L76.1253 31.209L76.1782 31.491L75.7023 31.5615L75.8785 32.6896C74.3451 33.0774 73.7458 34.0821 73.9044 35.1044C74.1159 36.4968 75.3674 36.6555 76.5131 36.7612L76.8304 38.753C76.0548 38.8059 75.2616 38.6296 74.7152 38.3123L74.4332 39.3875C75.0149 39.7577 76.0195 39.9163 77.0066 39.8282L77.1476 40.6566L76.7598 40.7271L77.1829 40.921L77.9937 40.7976L77.8174 39.6872C79.3509 39.2818 79.9678 38.2771 79.8092 37.2724C79.58 35.8975 78.3109 35.7389 77.1652 35.6508ZM76.3192 35.5627C75.7199 35.4921 75.244 35.3335 75.1735 34.8576C75.103 34.417 75.3498 34.0115 76.0372 33.7824L76.3192 35.5627ZM77.6412 38.612L77.3591 36.8494C77.9761 36.9199 78.452 37.0785 78.5401 37.572C78.593 38.0127 78.3462 38.4005 77.6412 38.612Z" fill="#D81E05"/>
<g opacity="0.3">
<path d="M77.1652 35.6508L76.848 33.6414C76.848 33.6414 76.848 33.6414 76.8656 33.6414C77.2181 33.6238 77.6059 33.659 77.9761 33.7472C78.2933 33.8529 78.5225 33.9763 78.5225 33.9763L78.5401 33.9058L78.734 33.1302L78.7869 32.954L78.3638 32.6367L78.2052 32.7425C77.7293 32.5838 77.2005 32.4957 76.6893 32.5486L76.5131 31.4381L76.1253 31.209L76.1782 31.491L75.7023 31.5615L75.8785 32.6896C74.3451 33.0774 73.7458 34.0821 73.9044 35.1044C74.1159 36.4968 75.3674 36.6555 76.5131 36.7612L76.8304 38.753C76.0548 38.8059 75.2616 38.6296 74.7152 38.3123L74.4332 39.3875C75.0149 39.7577 76.0195 39.9163 77.0066 39.8282L77.1476 40.6566L76.7598 40.7271L77.1829 40.921L77.9937 40.7976L77.8174 39.6872C79.3509 39.2818 79.9678 38.2771 79.8092 37.2724C79.58 35.8975 78.3109 35.7389 77.1652 35.6508ZM76.3192 35.5627C75.7199 35.4921 75.244 35.3335 75.1735 34.8576C75.103 34.417 75.3498 34.0115 76.0372 33.7824L76.3192 35.5627ZM77.6412 38.612L77.3591 36.8494C77.9761 36.9199 78.452 37.0785 78.5401 37.572C78.593 38.0127 78.3462 38.4005 77.6412 38.612Z" fill="black"/>
</g>
<path d="M77.4297 39.4984L77.606 40.6088L76.7952 40.7322L76.6189 39.6218C75.6319 39.7099 74.6272 39.5512 74.0455 39.1811L74.3275 38.1059C74.874 38.4232 75.6671 38.5994 76.4427 38.5466L76.1254 36.5548C74.9797 36.4667 73.7283 36.2904 73.5167 34.8979C73.3581 33.8756 73.9574 32.8709 75.4909 32.4831L75.3146 31.3551L76.1254 31.2317L76.3017 32.3421C77.042 32.2716 77.8352 32.3598 78.4168 32.6242L78.1701 33.6994C77.5884 33.4702 77.0067 33.3997 76.4779 33.4173L76.7952 35.4267C77.9409 35.5149 79.21 35.6735 79.4215 37.066C79.5801 38.0883 78.9632 39.0753 77.4297 39.4984ZM75.9315 35.3562L75.6495 33.576C74.9621 33.8051 74.7153 34.2105 74.7858 34.6512C74.8563 35.1271 75.3322 35.2681 75.9315 35.3562ZM78.1524 37.3656C78.0819 36.8721 77.606 36.7134 76.9715 36.6429L77.2535 38.4055C77.9585 38.1764 78.2229 37.7886 78.1524 37.3656Z" fill="#D81E05"/>
<path d="M78.082 44.3516C78.082 44.3516 78.0996 44.3516 78.1525 44.334C78.2054 44.3163 78.2583 44.3163 78.3464 44.2987C78.4345 44.2811 78.5403 44.2635 78.646 44.2282C78.7694 44.193 78.9104 44.1753 79.0514 44.1225C79.2101 44.0696 79.3687 44.0167 79.5626 43.9638C79.6507 43.9462 79.7565 43.8933 79.8446 43.8581C79.9504 43.8228 80.0385 43.7699 80.1443 43.7171C80.25 43.6642 80.3558 43.6289 80.4615 43.576C80.5673 43.5232 80.6731 43.4527 80.7964 43.3998C80.9022 43.3293 81.0256 43.2764 81.149 43.2059C81.2547 43.1354 81.3781 43.0473 81.5015 42.9591C81.9774 42.6419 82.4357 42.2012 82.894 41.7077C82.9997 41.5843 83.1055 41.4433 83.2112 41.3023C83.2641 41.2318 83.317 41.1613 83.3699 41.0908C83.4227 41.0202 83.4756 40.9497 83.5109 40.8616C83.599 40.703 83.7224 40.562 83.8105 40.4033C83.8986 40.2447 83.9868 40.0684 84.0749 39.9098L84.1454 39.7864C84.163 39.7512 84.1807 39.6983 84.1983 39.663C84.2335 39.5749 84.2688 39.4868 84.304 39.3986C84.3393 39.3105 84.3746 39.2224 84.4098 39.1342C84.4451 39.0461 84.4627 38.9404 84.4979 38.8522C84.5508 38.6583 84.6213 38.4645 84.6742 38.2706C84.7095 38.0767 84.7447 37.8652 84.7976 37.6713C84.921 36.8605 84.9386 35.9968 84.7976 35.1331C84.6566 34.2694 84.3746 33.4586 84.0044 32.7183C83.8987 32.5421 83.8105 32.3658 83.7048 32.1895C83.599 32.0133 83.4756 31.8546 83.3699 31.696C83.317 31.6079 83.2641 31.5374 83.1936 31.4492C83.1231 31.3787 83.0702 31.3082 82.9997 31.2201C82.9292 31.1496 82.8763 31.0791 82.8058 31.0086C82.7706 30.9733 82.7529 30.9381 82.7177 30.9028L82.6119 30.7971C82.4709 30.6737 82.3475 30.5327 82.2065 30.4093C82.0655 30.2859 81.9245 30.1801 81.7835 30.0568C81.713 30.0039 81.6425 29.951 81.572 29.8981C81.5015 29.8452 81.431 29.7924 81.3605 29.7571C81.2195 29.669 81.0785 29.5632 80.9375 29.4751C80.3558 29.1578 79.7741 28.8758 79.2277 28.7172C79.0867 28.6819 78.9633 28.629 78.8223 28.5938C78.6989 28.5585 78.5579 28.5409 78.4345 28.5057C78.3111 28.488 78.1878 28.4528 78.0644 28.4352C77.941 28.3999 77.8352 28.3999 77.7119 28.3999C77.6061 28.3823 77.4827 28.3823 77.377 28.3646C77.2712 28.347 77.1654 28.347 77.0773 28.347C76.8834 28.347 76.7072 28.347 76.5485 28.347C76.3899 28.347 76.2489 28.3646 76.1255 28.3646C76.0021 28.3823 75.8964 28.3823 75.8082 28.3999C75.7201 28.3999 75.6672 28.4175 75.6143 28.4175C75.5791 28.4175 75.5438 28.4175 75.5438 28.4175C75.5438 28.4175 75.5615 28.4175 75.6143 28.3999C75.6672 28.3999 75.7201 28.3823 75.8082 28.3823C75.8964 28.3646 76.0021 28.3646 76.1255 28.347C76.2489 28.3294 76.3899 28.3118 76.5485 28.3118C76.7072 28.3118 76.8834 28.3118 77.0773 28.3118C77.1831 28.3118 77.2712 28.3118 77.377 28.3294C77.4827 28.347 77.5885 28.347 77.7119 28.3646C77.8176 28.3823 77.941 28.3823 78.0644 28.3999C78.1878 28.4175 78.3111 28.4528 78.4345 28.4704C78.5579 28.5057 78.6989 28.5057 78.8223 28.5585C78.9457 28.5938 79.0867 28.629 79.2277 28.6819C79.7917 28.8406 80.3558 29.1049 80.9551 29.4398C81.0961 29.528 81.2371 29.6337 81.3957 29.7219C81.4662 29.7747 81.5367 29.81 81.6249 29.8629C81.6954 29.9158 81.7659 29.9686 81.8364 30.0391C81.9774 30.1449 82.1184 30.2683 82.2594 30.3917C82.4004 30.515 82.5238 30.6561 82.6648 30.7794L82.7706 30.8852C82.8058 30.9204 82.8411 30.9557 82.8587 30.9909C82.9292 31.0615 82.9821 31.132 83.0526 31.2201C83.1231 31.2906 83.176 31.3611 83.2465 31.4492C83.317 31.5197 83.3699 31.6079 83.4227 31.696C83.5285 31.8546 83.6519 32.0309 83.7576 32.1895C83.8634 32.3658 83.9515 32.5421 84.0573 32.7359C84.4274 33.4762 84.7095 34.3047 84.8505 35.1684C84.9738 36.0497 84.9738 36.9133 84.8328 37.7242C84.7976 37.9357 84.7447 38.1296 84.7095 38.3234C84.6566 38.5173 84.5861 38.7112 84.5332 38.9051C84.4979 38.9932 84.4803 39.099 84.4451 39.1871C84.4098 39.2753 84.3746 39.3634 84.3393 39.4515C84.3041 39.5396 84.2688 39.6278 84.2335 39.7159C84.2159 39.7688 84.1983 39.804 84.1807 39.8569L84.1102 39.9803C84.022 40.1566 83.9339 40.3152 83.8458 40.4738C83.7576 40.6325 83.6519 40.7911 83.5461 40.9321C83.4932 41.0026 83.4404 41.0908 83.4051 41.1613C83.3522 41.2318 83.2994 41.3023 83.2465 41.3728C83.1407 41.5138 83.035 41.6372 82.9292 41.7782C82.4709 42.2717 81.995 42.7124 81.5191 43.0296C81.3957 43.1178 81.29 43.1883 81.1666 43.2764C81.0608 43.3469 80.9375 43.4174 80.8141 43.4703C80.7083 43.5408 80.5849 43.5937 80.4792 43.6466C80.3734 43.7171 80.2677 43.7523 80.1619 43.7876C80.0561 43.8404 79.9504 43.8757 79.8623 43.9109C79.7565 43.9462 79.6684 43.9991 79.5802 44.0167C79.3863 44.0696 79.2277 44.1225 79.0691 44.1753C78.9104 44.2282 78.7694 44.2458 78.646 44.2811C78.5227 44.2987 78.4169 44.334 78.3464 44.334C78.2583 44.3516 78.2054 44.3692 78.1525 44.3692C78.0996 44.3516 78.082 44.3516 78.082 44.3516Z" fill="#263238"/>
<path d="M68.6167 42.588C68.6167 42.588 68.5991 42.5704 68.5462 42.5175C68.5109 42.4647 68.4404 42.3942 68.3875 42.306C68.317 42.2179 68.2289 42.0945 68.1408 41.9535C68.0526 41.8125 67.9469 41.6539 67.8411 41.46C67.7883 41.3718 67.7354 41.2661 67.6825 41.1603C67.6296 41.0546 67.5767 40.9488 67.5239 40.843C67.4005 40.6139 67.3123 40.3671 67.2066 40.1027C67.0127 39.574 66.8188 38.9747 66.6954 38.3401C66.572 37.7056 66.5192 37.071 66.5015 36.507C66.5015 36.225 66.5015 35.9606 66.5192 35.7138C66.5192 35.5904 66.5368 35.4671 66.5368 35.3437C66.5544 35.2203 66.5544 35.1145 66.5721 35.0088C66.5897 34.7973 66.6249 34.6034 66.6602 34.4447C66.6954 34.2685 66.7131 34.1275 66.7483 34.0217C66.7836 33.916 66.8012 33.8278 66.8188 33.7573C66.8364 33.7044 66.8364 33.6692 66.8541 33.6692C66.8541 33.6692 66.8541 33.7044 66.8364 33.7573C66.8188 33.8278 66.8012 33.916 66.7836 34.0217C66.7659 34.1451 66.7307 34.2861 66.7131 34.4447C66.6954 34.6034 66.6602 34.7973 66.6426 35.0088C66.6249 35.1145 66.6249 35.2203 66.6073 35.3437C66.5897 35.4671 66.5897 35.5728 66.5897 35.6962C66.572 35.943 66.572 36.2074 66.5897 36.4894C66.6073 37.0534 66.6778 37.6703 66.8012 38.3049C66.9246 38.9394 67.1185 39.5387 67.3123 40.0499C67.4181 40.3143 67.5062 40.561 67.6296 40.7902C67.6825 40.8959 67.7354 41.0193 67.7883 41.1074C67.8411 41.2132 67.894 41.3013 67.9469 41.4071C68.035 41.601 68.1408 41.7596 68.2289 41.9006C68.317 42.0416 68.3875 42.165 68.458 42.2708C68.5286 42.3589 68.5638 42.447 68.6167 42.4999C68.5991 42.5528 68.6167 42.588 68.6167 42.588Z" fill="white"/>
<path d="M74.3277 35.642C74.3277 35.642 74.2043 35.5891 74.0633 35.4481C73.9223 35.3071 73.7636 35.0427 73.7108 34.7255C73.6755 34.4082 73.7636 34.1262 73.8694 33.9499C73.9752 33.7736 74.0809 33.6855 74.0809 33.7031C74.0985 33.7208 74.0104 33.8089 73.9223 33.9852C73.8341 34.1614 73.746 34.4258 73.7989 34.7255C73.8341 35.0251 73.9752 35.2719 74.0985 35.4129C74.2219 35.5539 74.3277 35.6244 74.3277 35.642Z" fill="white"/>
<path d="M75.6143 32.3111C75.5966 32.3111 75.5438 32.1701 75.5261 31.9938C75.4909 31.8176 75.4909 31.6589 75.5085 31.6589C75.5261 31.6589 75.579 31.7999 75.5966 31.9762C75.6319 32.1525 75.6495 32.2935 75.6143 32.3111Z" fill="white"/>
<path d="M76.0019 27.8199C76.0019 27.8199 75.9138 27.8375 75.7375 27.8551C75.6494 27.8551 75.5613 27.8728 75.4379 27.8904C75.3145 27.908 75.1911 27.9256 75.0325 27.9433C74.8915 27.9609 74.7328 27.9961 74.5566 28.0314C74.3803 28.0666 74.204 28.1195 74.0102 28.1724C73.64 28.2958 73.2346 28.4368 72.8116 28.6307C72.4062 28.8246 72.036 29.0537 71.7011 29.2652C71.5425 29.371 71.3838 29.4767 71.2605 29.6001C71.1195 29.7059 70.9961 29.8116 70.8903 29.9174C70.7669 30.0055 70.6788 30.1113 70.5907 30.1818C70.5025 30.2699 70.432 30.3404 70.3792 30.3933C70.2558 30.5167 70.2029 30.5696 70.1853 30.5696C70.1853 30.5696 70.2381 30.4991 70.3439 30.3757C70.3968 30.3052 70.4673 30.2347 70.5554 30.1465C70.6435 30.0584 70.7317 29.9703 70.8374 29.8645C70.9432 29.7588 71.0666 29.653 71.2076 29.5472C71.3486 29.4415 71.4896 29.3181 71.6482 29.2123C71.9831 28.9832 72.3533 28.7717 72.7587 28.5602C73.1641 28.3663 73.5871 28.2076 73.9573 28.1019C74.1512 28.049 74.3274 27.9961 74.5037 27.9609C74.6799 27.9256 74.8386 27.8904 74.9796 27.8728C75.1206 27.8551 75.2616 27.8375 75.385 27.8199C75.5084 27.8022 75.6141 27.8022 75.6846 27.8022C75.8962 27.8199 76.0019 27.8199 76.0019 27.8199Z" fill="white"/>
<path d="M79.6153 45.9954C79.6153 45.9954 79.5448 46.0306 79.4391 46.0835C79.3157 46.1364 79.157 46.1892 78.9279 46.2598C78.4872 46.3831 77.888 46.5241 77.1829 46.5594C76.4955 46.5947 75.8609 46.5418 75.4203 46.4536C75.1912 46.4184 75.0149 46.3655 74.8915 46.3303C74.7681 46.295 74.6976 46.2774 74.6976 46.2774C74.6976 46.2774 74.7681 46.2774 74.8915 46.3126C75.0149 46.3303 75.1912 46.3655 75.4203 46.4008C75.8609 46.4713 76.4779 46.5241 77.1653 46.4889C77.8527 46.4536 78.452 46.3303 78.8927 46.2245C79.1042 46.1716 79.2804 46.1187 79.4038 46.0835C79.5448 46.013 79.6153 45.9954 79.6153 45.9954Z" fill="white"/>
<path d="M87.2476 34.5885C87.2476 34.5885 87.23 34.5356 87.2124 34.4122C87.1947 34.3065 87.1595 34.1302 87.1066 33.9187C87.0185 33.478 86.8422 32.8435 86.5073 32.0679C86.3311 31.6802 86.1372 31.2571 85.8728 30.8165C85.6084 30.3758 85.2911 29.9175 84.9033 29.4593C84.1278 28.5427 83.1055 27.6261 81.7659 26.9035C81.0961 26.5509 80.3734 26.2513 79.5802 26.0221C78.787 25.8106 77.941 25.6696 77.0597 25.652C76.1784 25.6344 75.2618 25.7049 74.3452 25.934C73.887 26.0398 73.4287 26.1808 72.9704 26.357C72.5121 26.5333 72.0715 26.7448 71.6308 26.974C69.8858 27.9258 68.3347 29.4593 67.3477 31.3981C67.1009 31.874 66.8894 32.3852 66.7131 32.8964C66.5368 33.4251 66.3958 33.9539 66.3077 34.5003C66.1138 35.6108 66.1314 36.7565 66.2901 37.8846C66.484 39.0126 66.8365 40.1055 67.3477 41.0925C67.471 41.3393 67.612 41.5861 67.7531 41.8152C67.9117 42.0443 68.0527 42.2735 68.229 42.5026C68.5639 42.9433 68.9164 43.3663 69.3042 43.7365C70.8376 45.2699 72.7941 46.2394 74.733 46.6095C75.2266 46.6977 75.7025 46.7682 76.196 46.7858C76.6719 46.8034 77.1654 46.8034 77.6237 46.7682C78.5579 46.6977 79.4568 46.4861 80.3029 46.1865C81.1313 45.8869 81.9069 45.4991 82.5943 45.0408C83.2817 44.5825 83.881 44.0714 84.4098 43.5249C85.4497 42.4321 86.1548 41.2335 86.5954 40.1231C86.8246 39.5767 86.9832 39.0303 87.089 38.5367C87.2124 38.0432 87.2652 37.5673 87.3181 37.1619C87.3886 36.3158 87.3534 35.6637 87.3181 35.223C87.3005 34.9939 87.2652 34.8352 87.2652 34.7295C87.2652 34.6413 87.2476 34.5885 87.2476 34.5885C87.2476 34.5885 87.2829 34.8176 87.3357 35.2583C87.3886 35.6989 87.4239 36.3511 87.3534 37.1971C87.3181 37.6202 87.2476 38.0785 87.1419 38.5896C87.0361 39.0831 86.8775 39.6296 86.6483 40.1936C86.2077 41.304 85.5026 42.5203 84.4627 43.6131C83.9515 44.1595 83.3346 44.6883 82.6472 45.1289C81.9598 45.5872 81.1842 45.9926 80.3558 46.2746C79.5097 46.5743 78.6108 46.7858 77.659 46.8563C77.1831 46.9092 76.7072 46.9092 76.2136 46.8915C75.7201 46.8739 75.2266 46.8034 74.7507 46.7153C72.7941 46.3451 70.82 45.3581 69.2689 43.8246C68.8811 43.4368 68.5286 43.0314 68.1937 42.5731C68.0174 42.344 67.8764 42.1149 67.7178 41.8857C67.5768 41.6389 67.4358 41.4098 67.3124 41.1454C66.7836 40.1407 66.4311 39.0479 66.2548 37.9022C66.0786 36.7565 66.0786 35.6108 66.2725 34.5003C66.3606 33.9363 66.5016 33.4075 66.6779 32.8787C66.8541 32.3499 67.0656 31.8388 67.3124 31.3629C68.3171 29.424 69.8682 27.8905 71.6308 26.9211C72.0715 26.6743 72.5121 26.4804 72.9704 26.3042C73.4287 26.1279 73.887 25.9869 74.3452 25.8811C75.2618 25.6696 76.196 25.5815 77.0773 25.5991C77.9762 25.6167 78.8223 25.7578 79.6155 25.9869C80.4087 26.216 81.149 26.5157 81.8188 26.8682C83.1583 27.5909 84.1983 28.5251 84.9562 29.4416C85.344 29.8999 85.6613 30.3758 85.9257 30.8165C86.19 31.2571 86.3839 31.6802 86.5602 32.0679C86.8775 32.8435 87.0537 33.478 87.1419 33.9187C87.23 34.3593 87.2476 34.5885 87.2476 34.5885Z" fill="#263238"/>
<path d="M72.6704 86.2259C72.6704 86.2259 76.6363 87.0014 77.0593 80.8323C77.4824 74.6631 78.3108 64.8101 78.3108 64.8101H70.3614L63.4519 81.7488L67.9113 85.0802L72.6704 86.2259Z" fill="#B1B1B1"/>
<path d="M39.2688 33.0474C37.7882 33.118 36.3957 35.5856 36.2195 36.9252L30.2618 81.2374C29.8917 83.9519 32.236 86.3138 35.2324 86.2609H65.6023C67.1887 86.2609 68.493 85.1681 68.6516 83.7227L73.6399 36.0968C73.8161 34.4047 72.3003 32.9593 70.4319 33.0298L39.2688 33.0474Z" fill="white"/>
<path d="M68.8807 80.8328L66.2192 86.2264H72.7409C72.7409 86.2264 68.3167 85.5566 68.8807 80.8328Z" fill="white"/>
<path d="M53.123 45.5068H36.5896L37.3299 36.6584H53.7399L53.123 45.5068Z" fill="#FF725E"/>
<path d="M69.4271 38.7035C69.4271 38.7211 66.4659 38.7387 62.8173 38.7387C59.1687 38.7387 56.2075 38.7211 56.2075 38.7035C56.2075 38.6858 59.1687 38.6682 62.8173 38.6682C66.4835 38.6682 69.4447 38.6858 69.4271 38.7035Z" fill="#263238"/>
<path d="M69.3391 40.2923C69.3391 40.31 66.3779 40.3276 62.7293 40.3276C59.0807 40.3276 56.1195 40.31 56.1195 40.2923C56.1195 40.2747 59.0807 40.2571 62.7293 40.2571C66.3779 40.2571 69.3391 40.2747 69.3391 40.2923Z" fill="#263238"/>
<path d="M69.2509 41.8812C69.2509 41.8988 66.2897 41.9165 62.6235 41.9165C58.9749 41.9165 55.996 41.8988 56.0137 41.8812C56.0137 41.8636 58.9749 41.8459 62.6411 41.8459C66.2897 41.8459 69.2509 41.8636 69.2509 41.8812Z" fill="#263238"/>
<path d="M63.875 43.462C63.875 43.4796 62.0771 43.4973 59.8738 43.4973C57.6706 43.4973 55.8903 43.4796 55.8903 43.462C55.8903 43.4444 57.6882 43.4268 59.8914 43.4268C62.0947 43.4268 63.875 43.4444 63.875 43.462Z" fill="#263238"/>
<path d="M69.4447 47.3089C69.4447 47.3266 62.0946 47.3442 53.0348 47.3442C43.9749 47.3442 36.6248 47.3266 36.6424 47.3089C36.6424 47.2913 43.9925 47.2737 53.0524 47.2737C62.0946 47.2737 69.4447 47.2913 69.4447 47.3089Z" fill="#263238"/>
<path d="M69.3743 48.2944C69.3743 48.312 62.0946 48.3296 53.1405 48.3296C44.1688 48.3296 36.9068 48.312 36.9068 48.2944C36.9068 48.2767 44.1688 48.2591 53.1405 48.2591C62.1123 48.2415 69.3743 48.2591 69.3743 48.2944Z" fill="#263238"/>
<path d="M69.1804 51.749H36.2723L36.4309 49.863H69.2861L69.1804 51.749Z" fill="#E0E0E0"/>
<path d="M67.8056 69.0733H34.4921L34.6508 67.1873H67.9114L67.8056 69.0733Z" fill="#E0E0E0"/>
<path d="M48.8045 59.7705H35.6201L35.7611 57.8845H48.9455L48.8045 59.7705Z" fill="#E0E0E0"/>
<path d="M68.352 59.7705H51.8539L51.9773 57.8845H68.4578L68.352 59.7705Z" fill="#E0E0E0"/>
<path d="M55.1675 53.4259C55.1675 53.4435 50.9372 53.4611 45.7199 53.4611C40.5025 53.4611 36.2723 53.4435 36.2723 53.4259C36.2723 53.4083 40.5025 53.3906 45.7199 53.3906C50.9372 53.3906 55.1675 53.4083 55.1675 53.4259Z" fill="#263238"/>
<path d="M68.8102 54.9007C68.8102 54.9184 61.4954 54.936 52.4707 54.936C43.4461 54.936 36.1313 54.9184 36.1313 54.9007C36.1313 54.8831 43.4461 54.8655 52.4707 54.8655C61.4954 54.8655 68.8102 54.8831 68.8102 54.9007Z" fill="#263238"/>
<path d="M68.7222 56.3148C68.7222 56.3324 61.3897 56.35 52.3651 56.35C43.3228 56.35 36.008 56.3324 36.008 56.3148C36.008 56.2972 43.3405 56.2795 52.3651 56.2795C61.4073 56.2795 68.7222 56.2972 68.7222 56.3148Z" fill="#263238"/>
<path d="M48.6106 60.9144C48.6106 60.932 45.6494 60.9497 42.0007 60.9497C38.3521 60.9497 35.4085 60.932 35.4085 60.9144C35.4085 60.8968 38.3697 60.8792 42.0184 60.8792C45.667 60.8792 48.6106 60.8968 48.6106 60.9144Z" fill="#263238"/>
<path d="M48.5049 62.3757C48.5049 62.3933 45.5966 62.4109 42.0009 62.4109C38.4051 62.4109 35.4968 62.3933 35.5144 62.3757C35.5144 62.358 38.4228 62.3404 42.0185 62.3404C45.5966 62.3228 48.5049 62.3404 48.5049 62.3757Z" fill="#263238"/>
<path d="M48.3462 63.8395C48.3462 63.8571 45.4027 63.8747 41.7893 63.8747C38.1583 63.8747 35.2324 63.8571 35.2324 63.8395C35.2324 63.8218 38.1759 63.8042 41.7893 63.8042C45.4203 63.8042 48.3462 63.8218 48.3462 63.8395Z" fill="#263238"/>
<path d="M48.2405 65.2677C48.2405 65.2853 45.2969 65.3029 41.6659 65.3029C38.0349 65.3029 35.109 65.2853 35.109 65.2677C35.109 65.25 38.0525 65.2324 41.6835 65.2324C45.3145 65.2324 48.2405 65.25 48.2405 65.2677Z" fill="#263238"/>
<path d="M68.0172 61.2682C68.0172 61.2859 64.9502 61.3035 61.1782 61.3035C57.4062 61.3035 54.3392 61.2859 54.3392 61.2682C54.3392 61.2506 57.4062 61.233 61.1782 61.233C64.9502 61.2154 68.0172 61.233 68.0172 61.2682Z" fill="#263238"/>
<path d="M53.2464 61.724C53.2464 61.724 53.2464 61.6182 53.2464 61.4596C53.2464 61.301 53.264 61.0718 53.2816 60.8074L53.3169 60.8427C53.0349 60.8427 52.7176 60.8427 52.3827 60.8427C52.3651 60.8427 52.4708 60.7722 52.418 60.8074V60.8251V60.8603V60.9308C52.418 60.9661 52.418 61.0189 52.4003 61.0542C52.4003 61.1423 52.3827 61.2128 52.3827 61.301C52.3651 61.4596 52.3651 61.6006 52.3475 61.7416L52.3122 61.7064C52.5942 61.7064 52.8234 61.724 52.982 61.724C53.1583 61.7064 53.2464 61.724 53.2464 61.724C53.2464 61.724 53.1583 61.7416 52.9996 61.7416C52.841 61.7416 52.5942 61.7592 52.3122 61.7592H52.2769V61.724C52.2769 61.583 52.2946 61.442 52.3122 61.2833C52.3122 61.2128 52.3298 61.1247 52.3298 61.0366C52.3298 61.0013 52.3298 60.9484 52.3298 60.9132V60.8427V60.8074V60.7898C52.2946 60.8251 52.3827 60.7369 52.3651 60.7546C52.7 60.7546 53.0349 60.7546 53.2993 60.7546H53.3345V60.7898C53.3169 61.0718 53.2816 61.3186 53.264 61.4772C53.264 61.6359 53.264 61.724 53.2464 61.724Z" fill="#263238"/>
<path d="M67.9114 63.0255C67.9114 63.0431 64.8445 63.0607 61.0548 63.0607C57.2652 63.0607 54.2159 63.0431 54.2159 63.0255C54.2159 63.0079 57.2828 62.9902 61.0725 62.9902C64.8445 62.9902 67.9114 63.0079 67.9114 63.0255Z" fill="#263238"/>
<path d="M53.123 63.5023C53.123 63.5023 53.123 63.3966 53.123 63.2379C53.123 63.0793 53.1406 62.8502 53.1582 62.5858L53.1935 62.621C52.9115 62.621 52.5942 62.621 52.2593 62.621C52.2417 62.621 52.3474 62.5505 52.2945 62.5858V62.6034V62.6386V62.7091C52.2945 62.7444 52.2945 62.7973 52.2769 62.8325C52.2769 62.9207 52.2593 62.9912 52.2593 63.0793C52.2417 63.2379 52.2417 63.3789 52.224 63.5199L52.1888 63.4847C52.4708 63.4847 52.6999 63.5023 52.8586 63.5023C53.0348 63.4847 53.123 63.4847 53.123 63.5023C53.123 63.5023 53.0348 63.5199 52.8762 63.5199C52.7176 63.5199 52.4708 63.5376 52.1888 63.5376H52.1535V63.5023C52.1535 63.3613 52.1712 63.2203 52.1888 63.0617C52.1888 62.9912 52.2064 62.903 52.2064 62.8149C52.2064 62.7796 52.2064 62.7268 52.2064 62.6915V62.621V62.5858V62.5681C52.1712 62.6034 52.2593 62.5152 52.2417 62.5329C52.5766 62.5329 52.9115 62.5329 53.1759 62.5329H53.2111V62.5681C53.1935 62.8501 53.1582 63.0969 53.1406 63.2556C53.1406 63.4142 53.1406 63.5023 53.123 63.5023Z" fill="#263238"/>
<path d="M67.8055 64.8116C67.8055 64.8292 64.7385 64.8469 60.9489 64.8469C57.1592 64.8469 54.0923 64.8292 54.0923 64.8116C54.0923 64.794 57.1592 64.7764 60.9489 64.7764C64.7385 64.7764 67.8055 64.794 67.8055 64.8116Z" fill="#263238"/>
<path d="M52.9995 65.2706C52.9995 65.2706 52.9995 65.1649 52.9995 65.0062C52.9995 64.8476 53.0171 64.6185 53.0347 64.3541L53.07 64.3893C52.788 64.3893 52.4707 64.3893 52.1182 64.3893C52.1006 64.3893 52.2063 64.3188 52.1534 64.3541V64.3717V64.4069V64.4774C52.1534 64.5127 52.1534 64.5656 52.1358 64.6008C52.1358 64.689 52.1182 64.7595 52.1182 64.8476C52.1006 65.0062 52.1006 65.1472 52.0829 65.2883L52.0477 65.253C52.3297 65.253 52.5588 65.2706 52.7175 65.2706C52.9114 65.2706 52.9995 65.2706 52.9995 65.2706C52.9995 65.2706 52.9114 65.2883 52.7527 65.2883C52.5941 65.2883 52.3473 65.3059 52.0477 65.3059H52.0124V65.2706C52.0124 65.1296 52.03 64.9886 52.0477 64.83C52.0477 64.7595 52.0653 64.6713 52.0653 64.5832C52.0653 64.548 52.0653 64.4951 52.0653 64.4598V64.3893V64.3541V64.3364C52.03 64.3717 52.1182 64.2836 52.1006 64.3012C52.4354 64.3012 52.7703 64.3012 53.0524 64.3012H53.0876V64.3364C53.07 64.6185 53.0347 64.8652 53.0171 65.0239C53.0171 65.2001 53.0171 65.2883 52.9995 65.2706Z" fill="#263238"/>
<path d="M67.3296 72.9527C67.3296 72.9704 59.9795 72.988 50.9196 72.988C41.8598 72.988 34.5273 72.9704 34.5273 72.9527C34.5273 72.9351 41.8774 72.9175 50.9372 72.9175C59.9795 72.9175 67.3296 72.9351 67.3296 72.9527Z" fill="#263238"/>
<path d="M67.1887 75.1401C67.1887 75.1577 59.8386 75.1753 50.7611 75.1753C41.6836 75.1753 34.3335 75.1577 34.3335 75.1401C34.3335 75.1224 41.6836 75.1048 50.7611 75.1048C59.8386 75.0872 67.1887 75.1048 67.1887 75.1401Z" fill="#263238"/>
<path d="M67.0653 77.3202C67.0653 77.3378 59.6976 77.3554 50.6201 77.3554C41.525 77.3554 34.1749 77.3378 34.1749 77.3202C34.1749 77.3025 41.5426 77.2849 50.6201 77.2849C59.6976 77.2849 67.0653 77.3025 67.0653 77.3202Z" fill="#263238"/>
<path d="M37.7353 79.5808C37.7177 79.5808 37.8587 77.6066 38.0526 75.1566C38.2465 72.7066 38.4227 70.7324 38.4403 70.7324C38.458 70.7324 38.317 72.7066 38.1231 75.1566C37.9292 77.6066 37.7529 79.5808 37.7353 79.5808Z" fill="#263238"/>
<path d="M48.9279 79.3177C48.9102 79.3177 49.016 77.4317 49.1923 75.105C49.3509 72.7784 49.5095 70.8748 49.5271 70.8748C49.5448 70.8748 49.439 72.7608 49.2628 75.105C49.1041 77.4317 48.9455 79.3177 48.9279 79.3177Z" fill="#263238"/>
<path d="M60.667 79.7225C60.6493 79.7225 60.7551 77.766 60.8961 75.3688C61.0547 72.9716 61.1957 71.0151 61.2134 71.0151C61.231 71.0151 61.1252 72.9716 60.9842 75.3688C60.8256 77.766 60.6846 79.7225 60.667 79.7225Z" fill="#263238"/>
<path d="M59.6975 81.4669C59.6975 81.4845 53.9161 81.5021 46.7951 81.5021C39.6741 81.5021 33.8928 81.4845 33.8928 81.4669C33.8928 81.4493 39.6741 81.4316 46.7951 81.4316C53.9161 81.4316 59.6975 81.4493 59.6975 81.4669Z" fill="#263238"/>
<path d="M59.6094 82.7323C59.6094 82.7499 53.828 82.7675 46.6894 82.7675C39.5507 82.7675 33.7694 82.7499 33.7694 82.7323C33.7694 82.7146 39.5507 82.697 46.6894 82.697C53.828 82.697 59.6094 82.7146 59.6094 82.7323Z" fill="#263238"/>
<path d="M45.4555 84.0043C45.4555 84.022 42.8116 84.0396 39.5684 84.0396C36.3252 84.0396 33.6813 84.022 33.6813 84.0043C33.6813 83.9867 36.3252 83.9691 39.5684 83.9691C42.8116 83.9514 45.4555 83.9691 45.4555 84.0043Z" fill="#263238"/>
<path d="M40.8375 39.8156H39.3921L39.445 39.1282H43.1289L43.076 39.8156H41.6307L41.3486 43.4642H40.5378L40.8375 39.8156Z" fill="white"/>
<path d="M46.1077 42.4754H43.922L43.4109 43.4801H42.5824L44.8738 39.144H45.667L47.3063 43.4801H46.4602L46.1077 42.4754ZM45.8785 41.8408L45.2087 39.9372L44.2569 41.8408H45.8785Z" fill="white"/>
<path d="M50.3909 43.4642L49.3333 41.825L48.0466 43.4642H47.13L48.9103 41.2609L47.5354 39.1282H48.452L49.4567 40.6793L50.6729 39.1282H51.5542L49.8797 41.2257L51.3603 43.4642H50.3909Z" fill="white"/>
<path d="M58.0407 33.0115L54.4097 71.3132C54.1981 73.4636 55.8726 75.3143 58.0407 75.3143C59.8561 75.3143 61.4073 73.9747 61.654 72.1592L65.4436 33.0115H58.0407Z" fill="#B1B1B1"/>
<path d="M23.8988 17.8894C22.8236 17.8894 21.9247 18.7002 21.8013 19.7578L16.5663 69.3226C16.1962 72.2838 18.1527 75.4036 21.1315 75.3508H54.2864L60.4379 20.1984C60.5789 18.9822 59.6624 17.8894 58.4285 17.8894H23.8988Z" fill="white"/>
<path d="M54.7446 70.5217L54.2863 75.2455L57.9702 75.3689L58.781 75.2455C58.7986 75.2455 54.1982 75.2455 54.7446 70.5217Z" fill="white"/>
<path d="M64.9854 38.7404C64.9854 38.7404 65.0383 32.7475 70.2556 33.0119H65.3203L64.9854 38.7404Z" fill="#B1B1B1"/>
<path d="M70.0618 33.012C70.0618 33.012 69.9913 33.012 69.8503 33.012C69.7798 33.012 69.6916 33.012 69.5859 33.012C69.4801 33.012 69.3567 33.0296 69.2157 33.0296C68.9337 33.0648 68.5988 33.1177 68.211 33.2411C67.8233 33.3645 67.4002 33.5584 66.9772 33.8756C66.5542 34.1929 66.1664 34.6336 65.8315 35.1976C65.5142 35.744 65.2675 36.4138 65.1088 37.1365C65.0736 37.3128 65.0383 37.5066 65.0207 37.7005C65.0031 37.8944 64.9855 38.0883 64.9678 38.2822C64.9326 38.6876 64.8797 39.093 64.8444 39.516C64.7563 40.3621 64.6682 41.261 64.58 42.1952C63.8221 49.7216 62.7822 60.1034 61.6188 71.5781C61.5836 71.9306 61.566 72.3007 61.4778 72.6533C61.4073 73.0058 61.2663 73.3583 61.0724 73.6579C60.7023 74.2749 60.103 74.7508 59.4685 75.0328C58.8163 75.3324 58.1112 75.4382 57.4062 75.4206C56.7188 75.4206 56.0313 75.4206 55.3439 75.4206C52.6295 75.4206 50.0032 75.4206 47.5003 75.4206C42.5121 75.4206 37.9998 75.4206 34.2278 75.4029C30.4557 75.4029 27.3888 75.3853 25.2736 75.3853C27.3888 75.3853 30.4381 75.3853 34.2278 75.3677C37.9998 75.3677 42.5121 75.3677 47.5003 75.3501C50.0032 75.3501 52.6295 75.3501 55.3439 75.3501C56.0313 75.3501 56.7011 75.3501 57.4062 75.3501C58.0936 75.3677 58.7987 75.2619 59.4156 74.9623C60.0501 74.6803 60.6142 74.222 60.9843 73.6227C61.1606 73.3231 61.3016 72.9882 61.3721 72.6533C61.4426 72.3007 61.4602 71.9482 61.5131 71.5957C62.6764 60.121 63.734 49.7392 64.5095 42.2128C64.5977 41.2786 64.7034 40.3797 64.7916 39.5337C64.8268 39.1106 64.8797 38.7052 64.9149 38.2998C64.9326 38.1059 64.9502 37.8944 64.9678 37.7182C64.9855 37.5243 65.0207 37.3304 65.056 37.1541C65.2146 36.4138 65.4614 35.744 65.7786 35.1976C66.1135 34.6336 66.5189 34.1929 66.9243 33.8756C67.3474 33.5584 67.788 33.3645 68.1758 33.2411C68.5636 33.1177 68.9161 33.0648 69.1805 33.0296C69.3215 33.0296 69.4449 33.012 69.5506 33.012C69.6564 33.012 69.7445 33.012 69.815 33.012C69.9913 33.012 70.0618 33.012 70.0618 33.012Z" fill="#263238"/>
<path d="M21.7836 19.5997L21.484 22.5433L60.1734 22.6314L60.4555 20.0933C60.6141 18.8594 59.6623 17.7842 58.4108 17.7842H23.8811C22.8059 17.7666 21.9246 18.5598 21.7836 19.5997Z" fill="#E0E0E0"/>
<path d="M25.0973 21.1153C25.6717 21.1153 26.1373 20.6497 26.1373 20.0753C26.1373 19.501 25.6717 19.0354 25.0973 19.0354C24.523 19.0354 24.0574 19.501 24.0574 20.0753C24.0574 20.6497 24.523 21.1153 25.0973 21.1153Z" fill="#D81E05"/>
<path d="M28.1467 21.1153C28.721 21.1153 29.1866 20.6497 29.1866 20.0753C29.1866 19.501 28.721 19.0354 28.1467 19.0354C27.5723 19.0354 27.1067 19.501 27.1067 20.0753C27.1067 20.6497 27.5723 21.1153 28.1467 21.1153Z" fill="#D81E05"/>
<path d="M31.2136 21.1153C31.7879 21.1153 32.2535 20.6497 32.2535 20.0753C32.2535 19.501 31.7879 19.0354 31.2136 19.0354C30.6392 19.0354 30.1736 19.501 30.1736 20.0753C30.1736 20.6497 30.6392 21.1153 31.2136 21.1153Z" fill="#D81E05"/>
<path d="M39.357 32.9963H22.8236L23.5463 24.1479H39.9739L39.357 32.9963Z" fill="#D81E05"/>
<path d="M55.6611 26.1918C55.6611 26.2095 52.6999 26.2271 49.0513 26.2271C45.4027 26.2271 42.4415 26.2095 42.4415 26.1918C42.4415 26.1742 45.4027 26.1566 49.0513 26.1566C52.6999 26.1389 55.6611 26.1566 55.6611 26.1918Z" fill="#263238"/>
<path d="M55.5731 27.7799C55.5731 27.7975 52.6119 27.8151 48.9633 27.8151C45.3146 27.8151 42.3534 27.7975 42.3534 27.7799C42.3534 27.7623 45.3146 27.7446 48.9633 27.7446C52.6119 27.7446 55.5731 27.7623 55.5731 27.7799Z" fill="#263238"/>
<path d="M55.4672 29.3646C55.4672 29.3822 52.506 29.3999 48.8398 29.3999C45.1911 29.3999 42.2123 29.3822 42.2299 29.3646C42.2299 29.347 45.1911 29.3293 48.8574 29.3293C52.506 29.3293 55.4672 29.347 55.4672 29.3646Z" fill="#263238"/>
<path d="M50.109 30.9493C50.109 30.9669 48.3111 30.9846 46.1078 30.9846C43.9046 30.9846 42.1243 30.9669 42.1243 30.9493C42.1243 30.9317 43.9222 30.9141 46.1255 30.9141C48.3287 30.9141 50.109 30.9317 50.109 30.9493Z" fill="#263238"/>
<path d="M55.6612 34.7929C55.6612 34.8105 48.3111 34.8282 39.2513 34.8282C30.1914 34.8282 22.8413 34.8105 22.8589 34.7929C22.8589 34.7753 30.209 34.7576 39.2689 34.7576C48.3287 34.74 55.6612 34.7576 55.6612 34.7929Z" fill="#263238"/>
<path d="M55.6083 35.7604C55.6083 35.778 48.3287 35.7956 39.3746 35.7956C30.4029 35.7956 23.1409 35.778 23.1409 35.7604C23.1409 35.7427 30.4029 35.7251 39.3746 35.7251C48.3464 35.7251 55.6083 35.7427 55.6083 35.7604Z" fill="#263238"/>
<path d="M55.3968 39.2366H22.4887L22.6474 37.3506H55.5202L55.3968 39.2366Z" fill="#E0E0E0"/>
<path d="M54.0219 56.5425H20.7261L20.8671 54.6565H54.1453L54.0219 56.5425Z" fill="#E0E0E0"/>
<path d="M35.0386 47.2376H21.8366L21.9953 45.3516H35.1796L35.0386 47.2376Z" fill="#E0E0E0"/>
<path d="M54.5684 47.2376H38.0703L38.2113 45.3516H54.6918L54.5684 47.2376Z" fill="#E0E0E0"/>
<path d="M41.4016 40.9081C41.4016 40.9258 37.1713 40.9434 31.9539 40.9434C26.7366 40.9434 22.5063 40.9258 22.5063 40.9081C22.5063 40.8905 26.7366 40.8729 31.9539 40.8729C37.1713 40.8553 41.4016 40.8729 41.4016 40.9081Z" fill="#263238"/>
<path d="M55.0266 42.3922C55.0266 42.4098 47.7118 42.4274 38.6871 42.4274C29.6625 42.4274 22.3477 42.4098 22.3477 42.3922C22.3477 42.3746 29.6625 42.3569 38.6871 42.3569C47.7118 42.3569 55.0266 42.3746 55.0266 42.3922Z" fill="#263238"/>
<path d="M54.9561 43.7997C54.9561 43.8173 47.6236 43.8349 38.599 43.8349C29.5567 43.8349 22.2419 43.8173 22.2419 43.7997C22.2419 43.782 29.5744 43.7644 38.599 43.7644C47.6236 43.7644 54.9561 43.782 54.9561 43.7997Z" fill="#263238"/>
<path d="M34.8446 48.4017C34.8446 48.4193 31.8834 48.437 28.2348 48.437C24.5862 48.437 21.6426 48.4193 21.6426 48.4017C21.6426 48.3841 24.6038 48.3665 28.2524 48.3665C31.8834 48.3665 34.8446 48.3841 34.8446 48.4017Z" fill="#263238"/>
<path d="M34.739 49.8463C34.739 49.8639 31.8306 49.8815 28.2349 49.8815C24.6392 49.8815 21.7308 49.8639 21.7485 49.8463C21.7485 49.8287 24.6568 49.811 28.2525 49.811C31.8306 49.811 34.739 49.8287 34.739 49.8463Z" fill="#263238"/>
<path d="M34.5802 51.3257C34.5802 51.3433 31.6366 51.361 28.0233 51.361C24.3923 51.361 21.4663 51.3433 21.4663 51.3257C21.4663 51.3081 24.4099 51.2904 28.0233 51.2904C31.6366 51.2728 34.5802 51.3081 34.5802 51.3257Z" fill="#263238"/>
<path d="M34.4746 52.755C34.4746 52.7726 31.531 52.7902 27.9 52.7902C24.269 52.7902 21.343 52.7726 21.343 52.755C21.343 52.7374 24.2866 52.7197 27.9176 52.7197C31.531 52.7197 34.4746 52.7374 34.4746 52.755Z" fill="#263238"/>
<path d="M54.2335 48.7367C54.2335 48.7543 51.1665 48.7719 47.3945 48.7719C43.6225 48.7719 40.5555 48.7543 40.5555 48.7367C40.5555 48.719 43.6225 48.7014 47.3945 48.7014C51.1841 48.7014 54.2335 48.719 54.2335 48.7367Z" fill="#263238"/>
<path d="M39.4803 49.1971C39.4803 49.1971 39.4803 49.0914 39.4803 48.9327C39.4803 48.7741 39.4979 48.545 39.5156 48.2806L39.5508 48.3158C39.2688 48.3158 38.9515 48.3158 38.6166 48.3158C38.599 48.3158 38.7048 48.2453 38.6519 48.2806V48.2982V48.3335V48.404C38.6519 48.4392 38.6519 48.4921 38.6343 48.5273C38.6343 48.6155 38.6166 48.686 38.6166 48.7741C38.599 48.9327 38.599 49.0738 38.5814 49.2148L38.5461 49.1795C38.8282 49.1795 39.0573 49.1971 39.2159 49.1971C39.3746 49.1971 39.4803 49.1971 39.4803 49.1971C39.4803 49.1971 39.3922 49.2148 39.2336 49.2148C39.0749 49.2148 38.8282 49.2324 38.5461 49.2324H38.5109V49.1971C38.5109 49.0561 38.5285 48.9151 38.5461 48.7565C38.5461 48.686 38.5638 48.5978 38.5638 48.5097C38.5638 48.4745 38.5638 48.4216 38.5638 48.3863V48.3158V48.2806V48.263C38.5285 48.2982 38.6166 48.2101 38.599 48.2277C38.9339 48.2277 39.2688 48.2277 39.5332 48.2277H39.5685V48.263C39.5508 48.545 39.5156 48.7917 39.4979 48.9504C39.4979 49.1266 39.4803 49.2148 39.4803 49.1971Z" fill="#263238"/>
<path d="M54.1278 50.515C54.1278 50.5326 51.0608 50.5502 47.2712 50.5502C43.4815 50.5502 40.4322 50.5326 40.4322 50.515C40.4322 50.4974 43.4992 50.4797 47.2888 50.4797C51.0608 50.4797 54.1278 50.4974 54.1278 50.515Z" fill="#263238"/>
<path d="M39.357 50.9735C39.357 50.9735 39.357 50.8677 39.357 50.7091C39.357 50.5505 39.3747 50.3213 39.3923 50.0569L39.4275 50.0922C39.1455 50.0922 38.8283 50.0922 38.4934 50.0922C38.4757 50.0922 38.5815 50.0217 38.5286 50.0569V50.0746V50.1098V50.1803C38.5286 50.2156 38.5286 50.2685 38.511 50.3037C38.511 50.3918 38.4934 50.4623 38.4934 50.5505C38.4757 50.7091 38.4757 50.8501 38.4581 50.9911L38.4229 50.9559C38.7049 50.9559 38.934 50.9735 39.0927 50.9735C39.2513 50.9735 39.357 50.9735 39.357 50.9735C39.357 50.9735 39.2689 50.9911 39.1103 50.9911C38.9516 50.9911 38.7049 51.0088 38.4229 51.0088H38.3876V50.9735C38.3876 50.8325 38.4052 50.6915 38.4229 50.5329C38.4229 50.4623 38.4405 50.3742 38.4405 50.2861C38.4405 50.2508 38.4405 50.198 38.4405 50.1627V50.0922V50.0569V50.0393C38.4052 50.0746 38.4934 49.9864 38.4757 50.0041C38.8106 50.0041 39.1455 50.0041 39.4099 50.0041H39.4452V50.0393C39.4275 50.3213 39.3923 50.5681 39.3747 50.7267C39.3747 50.8854 39.357 50.9735 39.357 50.9735Z" fill="#263238"/>
<path d="M54.022 52.2922C54.022 52.3098 50.955 52.3274 47.1654 52.3274C43.3757 52.3274 40.3088 52.3098 40.3088 52.2922C40.3088 52.2745 43.3757 52.2569 47.1654 52.2569C50.955 52.2393 54.022 52.2569 54.022 52.2922Z" fill="#263238"/>
<path d="M39.2336 52.7518C39.2336 52.7518 39.2336 52.6461 39.2336 52.4874C39.2336 52.3288 39.2512 52.0997 39.2688 51.8353L39.3041 51.8705C39.0221 51.8705 38.7048 51.8705 38.3523 51.8705C38.3347 51.8705 38.4404 51.8 38.3875 51.8353V51.8529V51.8881V51.9586C38.3875 51.9939 38.3875 52.0468 38.3699 52.082C38.3699 52.1702 38.3523 52.2407 38.3523 52.3288C38.3347 52.4874 38.3347 52.6284 38.317 52.7695L38.2818 52.7342C38.5638 52.7342 38.7929 52.7518 38.9516 52.7518C39.1278 52.7342 39.2336 52.7518 39.2336 52.7518C39.2336 52.7518 39.1455 52.7695 38.9868 52.7695C38.8282 52.7695 38.5814 52.7871 38.2818 52.7871H38.2465V52.7518C38.2465 52.6108 38.2641 52.4698 38.2818 52.3112C38.2818 52.2407 38.2994 52.1525 38.2994 52.0644C38.2994 52.0292 38.2994 51.9763 38.2994 51.941V51.8705V51.8353V51.8176C38.2641 51.8529 38.3523 51.7648 38.3347 51.7824C38.6695 51.7824 39.0044 51.7824 39.2865 51.7824H39.3217V51.8176C39.3041 52.0997 39.2688 52.3464 39.2512 52.5051C39.2512 52.6637 39.2336 52.7518 39.2336 52.7518Z" fill="#263238"/>
<path d="M53.1582 66.9795C53.1582 66.9795 53.1582 66.9266 53.1582 66.8209C53.1582 66.7151 53.1759 66.5741 53.1759 66.3802C53.1935 65.9924 53.2288 65.4108 53.264 64.6705C53.3521 63.1722 53.4755 60.9866 53.6341 58.2193L53.6518 58.2369C46.1254 58.2369 34.2101 58.2545 20.8142 58.2545L20.8671 58.2193C20.6203 61.2334 20.3735 64.1593 20.1444 66.9619L20.1091 66.9266C29.5568 66.9266 37.8058 66.9442 43.7106 66.9442C46.6542 66.9442 49.0161 66.9442 50.6377 66.9619C51.4485 66.9619 52.083 66.9619 52.5061 66.9619C52.7176 66.9619 52.8762 66.9619 52.982 66.9619C53.1054 66.9795 53.1582 66.9795 53.1582 66.9795C53.1582 66.9795 53.1054 66.9795 52.9996 66.9795C52.8939 66.9795 52.7352 66.9795 52.5237 66.9795C52.1007 66.9795 51.4838 66.9795 50.673 66.9795C49.0513 66.9795 46.6894 66.9795 43.7459 66.9971C37.8411 66.9971 29.5744 67.0148 20.1268 67.0148H20.0915V66.9795C20.3207 64.1769 20.5674 61.2334 20.8142 58.2369V58.2017H20.8494C34.2453 58.2017 46.1607 58.2193 53.687 58.2193H53.7047V58.2369C53.5284 61.0042 53.405 63.1899 53.3169 64.6881C53.264 65.4284 53.2287 66.0101 53.2111 66.3978C53.1935 66.5917 53.1935 66.7327 53.1759 66.8385C53.1582 66.9443 53.1582 66.9795 53.1582 66.9795Z" fill="#263238"/>
<path d="M53.546 60.4398C53.546 60.4574 46.1959 60.475 37.136 60.475C28.0762 60.475 20.7437 60.4574 20.7437 60.4398C20.7437 60.4222 28.0938 60.4045 37.1537 60.4045C46.2135 60.4045 53.546 60.4222 53.546 60.4398Z" fill="#263238"/>
<path d="M53.4226 62.6107C53.4226 62.6283 46.0725 62.6459 36.995 62.6459C27.9175 62.6459 20.5674 62.6283 20.5674 62.6107C20.5674 62.5931 27.9175 62.5754 36.995 62.5754C46.0725 62.5754 53.4226 62.5931 53.4226 62.6107Z" fill="#263238"/>
<path d="M53.2817 64.8138C53.2817 64.8314 45.9139 64.8491 36.8364 64.8491C27.7413 64.8491 20.3912 64.8314 20.3912 64.8138C20.3912 64.7962 27.759 64.7786 36.8364 64.7786C45.9315 64.7786 53.2817 64.7962 53.2817 64.8138Z" fill="#263238"/>
<path d="M23.9516 67.0683C23.934 67.0683 24.075 65.0942 24.2689 62.6441C24.4627 60.1941 24.639 58.22 24.6566 58.22C24.6743 58.22 24.5333 60.1941 24.3394 62.6441C24.1455 65.0766 23.9692 67.0683 23.9516 67.0683Z" fill="#263238"/>
<path d="M35.1443 66.8052C35.1266 66.8052 35.2324 64.9192 35.4087 62.5926C35.5673 60.2659 35.7259 58.3623 35.7435 58.3623C35.7612 58.3623 35.6554 60.2483 35.4792 62.5926C35.3205 64.9016 35.1619 66.8052 35.1443 66.8052Z" fill="#263238"/>
<path d="M46.901 67.1917C46.8834 67.1917 46.9891 65.2352 47.1301 62.838C47.2888 60.4409 47.4298 58.4844 47.4474 58.4844C47.465 58.4844 47.3593 60.4409 47.2183 62.838C47.0596 65.2528 46.9186 67.1917 46.901 67.1917Z" fill="#263238"/>
<path d="M45.914 68.9531C45.914 68.9707 40.1326 68.9883 33.0116 68.9883C25.8906 68.9883 20.1092 68.9707 20.1092 68.9531C20.1092 68.9354 25.8906 68.9178 33.0116 68.9178C40.1502 68.9002 45.9316 68.9178 45.914 68.9531Z" fill="#263238"/>
<path d="M45.8434 70.2057C45.8434 70.2233 40.062 70.2409 32.9234 70.2409C25.7848 70.2409 20.0034 70.2233 20.0034 70.2057C20.0034 70.188 25.7848 70.1704 32.9234 70.1704C40.062 70.1704 45.8434 70.188 45.8434 70.2057Z" fill="#263238"/>
<path d="M31.672 71.4708C31.672 71.4884 29.0281 71.5061 25.7849 71.5061C22.5417 71.5061 19.8977 71.4884 19.8977 71.4708C19.8977 71.4532 22.5417 71.4355 25.7849 71.4355C29.0457 71.4355 31.672 71.4532 31.672 71.4708Z" fill="#263238"/>
<path d="M33.3639 38.5109C33.3639 38.5285 31.2135 38.5638 28.552 38.5638C25.8904 38.5638 23.74 38.5461 23.74 38.5109C23.74 38.4933 25.8904 38.458 28.552 38.458C31.2135 38.4756 33.3639 38.4933 33.3639 38.5109Z" fill="#263238"/>
<path d="M21.149 75.2435C21.149 75.2435 21.0257 75.2435 20.7613 75.2259C20.6908 75.2259 20.6203 75.2259 20.5498 75.2083C20.4793 75.1906 20.3911 75.173 20.2854 75.1554C20.0915 75.1377 19.8976 75.0672 19.6508 74.9791C19.1925 74.8029 18.6461 74.5032 18.1173 73.992C17.6062 73.4809 17.1303 72.7582 16.813 71.8769C16.7425 71.6478 16.672 71.4186 16.6191 71.1719C16.6015 71.0485 16.5662 70.9251 16.5486 70.8017C16.531 70.6783 16.5134 70.5549 16.5134 70.4139C16.4957 70.2906 16.4957 70.1495 16.4957 70.0085C16.4957 69.8675 16.4781 69.7441 16.4957 69.6031C16.5134 69.4621 16.5134 69.3211 16.531 69.1801C16.5486 69.0391 16.5662 68.8981 16.5839 68.7571C16.7072 67.6114 16.8306 66.3775 16.9716 65.0556C17.2537 62.394 17.5709 59.3623 17.9235 56.031C18.6285 49.333 19.4746 41.366 20.3911 32.5176C20.6203 30.2967 20.867 28.0406 21.1138 25.7139C21.2372 24.5506 21.3606 23.3873 21.4839 22.2063C21.5544 21.607 21.6073 21.0254 21.6778 20.4261C21.7131 20.1264 21.7307 19.8268 21.7836 19.5271C21.8365 19.2275 21.9422 18.9279 22.1185 18.6635C22.2947 18.3991 22.5239 18.1876 22.7707 18.0289C23.035 17.8703 23.3347 17.7645 23.652 17.7293C23.8106 17.7116 23.9692 17.7116 24.1102 17.7116H24.5685C24.8682 17.7116 25.1854 17.7116 25.4851 17.7116C26.7189 17.7116 27.9528 17.7116 29.2042 17.7116C31.7071 17.7116 34.2453 17.7116 36.8011 17.7116C41.9303 17.7116 46.9538 17.7116 51.801 17.7116C53.0172 17.7116 54.2158 17.7116 55.3967 17.7116C55.996 17.7116 56.5777 17.7116 57.177 17.7116C57.4766 17.7116 57.7586 17.7116 58.0583 17.7116C58.3403 17.7116 58.6576 17.694 58.9396 17.7821C59.5213 17.9232 60.0148 18.3462 60.2792 18.8573C60.4202 19.1217 60.4907 19.4038 60.5083 19.7034C60.5259 20.003 60.4731 20.2851 60.4554 20.5671C60.3321 21.6952 60.2087 22.8232 60.0853 23.9161C59.0982 32.7644 58.1993 40.7314 57.459 47.4118C56.7011 54.0921 56.1018 59.5033 55.6787 63.2577C55.4672 65.1261 55.3086 66.5714 55.1852 67.5585C55.1323 68.052 55.0795 68.4222 55.0618 68.6866C55.0266 68.9333 55.0089 69.0743 55.0089 69.0743C55.0089 69.0743 55.0266 68.951 55.0442 68.6866C55.0795 68.4398 55.1147 68.052 55.1676 67.5585C55.2733 66.5714 55.432 65.1261 55.6435 63.2577C56.0489 59.521 56.6482 54.1097 57.3885 47.4118C58.1288 40.7314 59.0101 32.7644 59.9972 23.9161C60.1205 22.8056 60.2439 21.6952 60.3673 20.5671C60.4026 20.2851 60.4378 20.003 60.4202 19.721C60.4026 19.439 60.3321 19.157 60.2087 18.9102C59.9619 18.3991 59.486 18.0113 58.922 17.8703C58.6399 17.7998 58.3579 17.8174 58.0583 17.8174C57.7586 17.8174 57.4766 17.8174 57.177 17.8174C56.5953 17.8174 55.996 17.8174 55.3967 17.8174C54.2158 17.8174 53.0172 17.8174 51.801 17.8174C46.9538 17.8174 41.9479 17.8174 36.8011 17.8174C34.2277 17.8174 31.6895 17.8174 29.2042 17.8174C27.9528 17.8174 26.7189 17.8174 25.4851 17.8174C25.1854 17.8174 24.8682 17.8174 24.5685 17.8174H24.1102C23.9516 17.8174 23.8106 17.8174 23.652 17.835C23.3523 17.8703 23.0703 17.976 22.8235 18.1347C22.5768 18.2933 22.3476 18.5048 22.189 18.7516C22.0304 18.9984 21.9246 19.2804 21.8717 19.58C21.8365 19.8797 21.8012 20.1793 21.766 20.479C21.6955 21.0782 21.6426 21.6775 21.5721 22.2592C21.4487 23.4402 21.3253 24.6035 21.2019 25.7668C20.9552 28.0758 20.7084 30.3496 20.4793 32.5705C19.5451 41.4189 18.699 49.3859 17.994 56.0838C17.6414 59.4328 17.3242 62.4645 17.0245 65.1084C16.8835 66.4304 16.7425 67.6819 16.6367 68.8099C16.6191 68.951 16.6015 69.092 16.5839 69.233C16.5662 69.374 16.5662 69.515 16.5486 69.6384C16.531 69.7794 16.531 69.9028 16.5486 70.0438C16.5486 70.1848 16.5486 70.3082 16.5662 70.4316C16.5839 70.5549 16.6015 70.6959 16.6015 70.8193C16.6191 70.9427 16.6544 71.0661 16.672 71.1895C16.7072 71.4362 16.7954 71.6654 16.8659 71.8945C17.1655 72.7935 17.6414 73.4985 18.1526 74.0097C18.6638 74.5208 19.2102 74.8205 19.6684 75.0144C19.8976 75.0849 20.1091 75.173 20.303 75.1906C20.3911 75.2083 20.4793 75.2259 20.5498 75.2435C20.6203 75.2611 20.6908 75.2611 20.7613 75.2611C21.008 75.2259 21.149 75.2435 21.149 75.2435Z" fill="#263238"/>
<path d="M71.1721 64.8449C71.1721 64.8449 71.2074 64.8449 71.2955 64.8449C71.3836 64.8449 71.507 64.8449 71.6657 64.8449C72.0006 64.8449 72.4765 64.8449 73.0934 64.8272C74.3272 64.8096 76.1427 64.8096 78.3812 64.792H78.4165V64.8272C78.2579 67.2773 78.064 70.309 77.7996 73.7108C77.6762 75.4206 77.5352 77.2008 77.3589 79.0692C77.2708 80.0034 77.1827 80.9552 77.0593 81.9246C77.024 82.1714 76.9711 82.4005 76.9359 82.6473C76.8654 82.8941 76.8125 83.1232 76.742 83.3524C76.5834 83.8283 76.3719 84.2866 76.0898 84.7096C75.8254 85.115 75.4905 85.4851 75.0851 85.7319C74.715 86.0139 74.2743 86.1726 73.8337 86.2607C73.393 86.3312 72.9347 86.3312 72.4941 86.2607C71.6128 86.1197 70.8196 85.6966 70.1851 85.0974C69.5681 84.4981 69.1804 83.7225 68.9865 82.9117C68.7926 82.1185 68.775 81.3077 68.8278 80.5322C68.8631 80.1444 68.8984 79.7566 68.9512 79.3865C68.9865 79.0163 69.0394 78.6462 69.0746 78.276C69.1627 77.5533 69.2332 76.8307 69.3214 76.1609C69.48 74.786 69.621 73.517 69.7444 72.3536C70.0088 70.027 70.2203 68.1586 70.3789 66.8719C70.4495 66.2197 70.52 65.7262 70.5552 65.3913C70.5728 65.215 70.5905 65.0916 70.6081 65.0035C70.6257 64.9154 70.6257 64.8801 70.6257 64.8801C70.6257 64.8801 70.6257 64.933 70.6081 65.0035C70.5905 65.0916 70.5905 65.215 70.5728 65.3913C70.5376 65.7262 70.4847 66.2373 70.4142 66.8719C70.2732 68.1586 70.0617 70.0446 69.8149 72.3536C69.6915 73.517 69.5505 74.786 69.3919 76.1609C69.3214 76.8483 69.2332 77.5533 69.1627 78.276C69.1275 78.6462 69.0746 79.0163 69.0394 79.3865C69.0041 79.7566 68.9512 80.1444 68.916 80.5322C68.8631 81.3077 68.8807 82.1009 69.0746 82.8941C69.2685 83.6696 69.6563 84.4276 70.2556 85.0268C70.8549 85.6085 71.648 86.0139 72.5117 86.1549C72.9347 86.2254 73.3754 86.2431 73.8161 86.1549C74.2567 86.0844 74.6621 85.9082 75.0323 85.6438C75.4024 85.4146 75.7373 85.0621 76.0017 84.6567C76.2837 84.2513 76.4776 83.793 76.6362 83.3347C76.7244 83.1056 76.7773 82.8588 76.8301 82.6297C76.883 82.3829 76.9359 82.1538 76.9535 81.907C77.0945 80.9552 77.1827 80.0034 77.2708 79.0692C77.4471 77.2008 77.5881 75.403 77.7114 73.7108C77.9758 70.309 78.1874 67.2949 78.346 64.8272L78.3812 64.8625C76.1251 64.8625 74.3272 64.8801 73.0934 64.8801C72.4765 64.8801 72.0006 64.8801 71.6657 64.8801C71.507 64.8801 71.3836 64.8801 71.2955 64.8801C71.2074 64.8625 71.1721 64.8449 71.1721 64.8449Z" fill="#263238"/>
<path d="M31.0373 75.5454C31.0373 75.5454 31.0373 75.5983 31.0197 75.6864C31.0021 75.7745 30.9844 75.8979 30.9668 76.0742C30.9139 76.4267 30.861 76.9203 30.7729 77.5724C30.6848 78.2246 30.579 79.0178 30.4556 79.9343C30.4028 80.3926 30.3146 80.8861 30.2618 81.4149C30.2089 81.9261 30.2618 82.4901 30.438 83.0542C30.7905 84.1646 31.6719 85.2046 32.9233 85.7686C33.5402 86.0506 34.2453 86.2269 34.9679 86.2269C35.6906 86.2445 36.4485 86.2269 37.2241 86.2269C40.3263 86.2269 43.7282 86.2269 47.2887 86.2269C54.4273 86.2269 60.8961 86.2445 65.5846 86.2445C67.9289 86.2445 69.8149 86.2621 71.1369 86.2621C71.789 86.2621 72.3002 86.2621 72.6527 86.2621C72.829 86.2621 72.9524 86.2621 73.0405 86.2621C72.9524 86.2621 72.8114 86.2621 72.6527 86.2621C72.3002 86.2621 71.8067 86.2621 71.1369 86.2621C69.8325 86.2621 67.9289 86.2621 65.5846 86.2798C60.8961 86.2798 54.4273 86.2798 47.2887 86.2974C43.7105 86.2974 40.3087 86.2974 37.2241 86.2974C36.4485 86.2974 35.6906 86.2974 34.9679 86.2798C34.2276 86.2621 33.5226 86.0859 32.8881 85.8038C31.619 85.2222 30.72 84.1646 30.3675 83.0365C30.1913 82.4725 30.1384 81.9085 30.1913 81.3797C30.2441 80.8509 30.3323 80.3574 30.3851 79.8991C30.5085 78.9825 30.6143 78.1893 30.7024 77.5372C30.7905 76.885 30.861 76.3915 30.9139 76.0389C30.9316 75.8627 30.9492 75.7393 30.9668 75.6512C31.0197 75.5807 31.0373 75.5454 31.0373 75.5454Z" fill="#263238"/>
<path d="M70.6258 64.8475C70.6258 64.8475 70.6258 64.8122 70.6258 64.7594C70.6258 64.6889 70.6435 64.6184 70.6435 64.495C70.6611 64.2658 70.6963 63.9309 70.7316 63.5079C70.8197 62.6442 70.9431 61.3928 71.1017 59.8593C71.419 56.7747 71.8597 52.5268 72.3532 47.8206C72.6 45.4763 72.8467 43.2378 73.0582 41.1931C73.164 40.1708 73.2698 39.2014 73.3755 38.3025C73.4284 37.8442 73.4637 37.4211 73.5165 36.9981C73.5342 36.7866 73.5694 36.5751 73.587 36.3812C73.6047 36.2754 73.6047 36.1873 73.6223 36.0816C73.6223 35.9758 73.6223 35.8877 73.6399 35.7995C73.6223 35.4118 73.5165 35.0592 73.3579 34.7596C73.1993 34.4599 72.9877 34.1956 72.7586 34.0017C72.3003 33.5963 71.8068 33.3671 71.4014 33.2437C71.1899 33.1732 71.0136 33.138 70.8373 33.1027C70.6787 33.0851 70.5377 33.0499 70.4143 33.0499C70.3086 33.0499 70.2204 33.0322 70.1499 33.0322C70.2204 33.0322 70.2909 33.0322 70.4143 33.0322C70.5201 33.0322 70.6611 33.0499 70.8373 33.0851C70.996 33.1204 71.1899 33.1556 71.4014 33.2261C71.8068 33.3495 72.3179 33.5786 72.7762 33.984C73.0054 34.1779 73.2169 34.4423 73.3931 34.7596C73.5694 35.0592 73.6752 35.4294 73.6928 35.8348C73.6928 35.9405 73.6928 36.0287 73.6752 36.1344C73.6752 36.2402 73.6575 36.3283 73.6399 36.4341C73.6223 36.628 73.6047 36.8395 73.5694 37.051C73.5342 37.474 73.4813 37.9147 73.4284 38.3553C73.3403 39.2543 73.2345 40.2237 73.1288 41.246C72.9172 43.2907 72.6881 45.5292 72.4413 47.8735C71.9478 52.5797 71.4895 56.8276 71.1546 59.9122C70.9784 61.4456 70.855 62.6971 70.7492 63.5608C70.6963 63.9838 70.6611 64.3187 70.6435 64.5478C70.6258 64.6536 70.6258 64.7417 70.6082 64.8122C70.6258 64.8299 70.6258 64.8475 70.6258 64.8475Z" fill="#263238"/>
<path d="M31.3606 28.2167L31.4607 27.2939C31.6263 27.3249 31.7818 27.3933 31.934 27.4742C32.0579 27.5609 32.1443 27.6376 32.1443 27.6376L32.1635 27.616L32.3411 27.3025L32.3861 27.2343L32.2357 27.0469L32.1475 27.0767C31.9521 26.9575 31.7408 26.8474 31.4971 26.8088L31.5526 26.3021L31.4046 26.1555L31.3962 26.2869L31.174 26.2675L31.1151 26.7867C30.3945 26.7809 30.0154 27.1474 29.9699 27.6167C29.9059 28.2549 30.4224 28.4735 30.924 28.648L30.8272 29.5583C30.4836 29.493 30.1543 29.3245 29.9573 29.1112L29.7055 29.552C29.9241 29.7844 30.3407 29.9763 30.7875 30.0559L30.7529 30.4345L30.5716 30.4126L30.7353 30.5501L31.1139 30.5847L31.1694 30.078C31.8901 30.0838 32.2816 29.7206 32.3271 29.2514C32.3945 28.6007 31.8622 28.3912 31.3606 28.2167ZM30.9963 28.0789C30.7442 27.9713 30.5488 27.852 30.5807 27.6332C30.6059 27.4394 30.7559 27.2789 31.0821 27.2594L30.9963 28.0789ZM31.225 29.5712L31.3075 28.7642C31.572 28.8751 31.7674 28.9944 31.7322 29.2257C31.7194 29.4229 31.5637 29.555 31.225 29.5712Z" fill="white"/>
</svg>
