<svg width="243" height="209" viewBox="0 0 243 209" fill="none" xmlns="http://www.w3.org/2000/svg">
<circle opacity="0.1" cx="103.5" cy="103.5" r="103.5" fill="#D81E05"/>
<line x1="5.5" y1="183.715" x2="236.5" y2="183.715" stroke="#3F3F3F" stroke-linecap="round"/>
<path d="M25.0156 92.3557C25.0156 92.3557 20.062 93.2312 23.2612 103.994C26.4088 114.757 28.9888 120.268 28.9888 120.268C28.9888 120.268 29.4532 122.739 27.4408 122.688C25.4284 122.688 21.352 121.195 20.062 123.409C18.7204 125.675 20.062 128.301 23.2612 131.031C26.4604 133.709 33.3232 139.888 33.9424 140.455C34.5616 141.021 35.026 142.206 33.6844 142.412C32.3428 142.618 22.5904 141.845 22.4872 146.429C22.384 151.063 32.6008 157.089 33.6844 157.758C34.768 158.428 34.9744 158.994 34.768 159.612C34.5616 160.23 31.3108 159.663 28.5244 159.56C25.738 159.457 22.5388 159.818 22.6936 162.496C22.8484 165.174 28.318 171.765 43.798 176.246L51.0736 177.842L56.2336 172.383C66.5536 160.075 67.4308 151.578 66.0892 149.261C64.7476 146.943 61.858 148.437 59.5876 150.085C57.3688 151.733 54.9952 153.999 54.4276 153.587C53.9116 153.175 53.7568 152.608 54.2728 151.424C54.7888 150.239 59.8972 139.579 57.2656 135.768C54.5824 131.958 46.9456 138.034 45.7072 138.601C44.4688 139.167 44.2108 137.931 44.4172 137.107C44.6236 136.283 46.8424 127.374 48.0292 123.357C49.216 119.341 48.8548 116.405 46.4812 115.272C44.1592 114.191 41.5792 117.693 39.928 118.774C38.2768 119.907 37.2964 117.59 37.2964 117.59C37.2964 117.59 36.3676 111.564 32.962 100.853C29.608 90.1413 24.9124 92.2527 24.9124 92.2527" fill="#B1B1B1"/>
<path d="M51.1252 179.696C48.7 171.817 44.572 157.758 41.0116 145.656C37.3996 133.606 34.1488 122.688 31.7752 114.809C30.5884 110.895 29.608 107.702 28.9372 105.488C28.6276 104.406 28.318 103.531 28.1632 102.964C28.06 102.655 28.0084 102.449 27.9568 102.295C27.9052 102.14 27.9052 102.089 27.9052 102.089C27.9052 102.089 27.9568 102.14 28.0084 102.295C28.06 102.449 28.1116 102.655 28.2148 102.964C28.4212 103.531 28.6792 104.406 29.0404 105.488C29.7628 107.702 30.7432 110.843 31.9816 114.809C34.4068 122.688 37.7092 133.606 41.2696 145.656C44.8816 157.707 48.958 171.817 51.3316 179.696" fill="white"/>
<path d="M25.6864 125.726C25.6864 125.726 25.8412 125.778 26.1508 125.984C26.4604 126.138 26.8732 126.396 27.4408 126.705C28.5244 127.323 29.9692 128.25 31.5172 129.28C33.0652 130.31 34.4584 131.237 35.542 131.958C36.0064 132.267 36.4192 132.524 36.7804 132.782C37.09 132.988 37.2448 133.091 37.2448 133.091C37.2448 133.091 37.0384 133.039 36.7804 132.833C36.4708 132.679 36.058 132.421 35.4904 132.112C34.4068 131.443 33.0136 130.516 31.414 129.486C29.866 128.456 28.4212 127.529 27.3376 126.859C26.8732 126.55 26.4604 126.293 26.0992 126.087C25.8412 125.881 25.6864 125.778 25.6864 125.726Z" fill="white"/>
<path d="M37.864 132.73C37.8124 132.679 39.5668 129.64 41.7856 125.881C44.0044 122.122 45.862 119.135 45.9136 119.135C45.9652 119.186 44.2108 122.225 41.992 125.984C39.7732 129.743 37.9156 132.73 37.864 132.73Z" fill="white"/>
<path d="M42.5596 151.475C42.5596 151.475 42.6628 151.321 42.9208 151.063C43.2304 150.806 43.5916 150.445 44.0044 150.033C44.9332 149.158 46.1716 147.973 47.5648 146.583C48.9064 145.193 50.0932 143.905 50.9704 142.978C51.3832 142.515 51.6928 142.154 52.0024 141.845C52.2604 141.588 52.3636 141.433 52.4152 141.433C52.4152 141.433 52.312 141.588 52.1056 141.897C51.8992 142.154 51.5896 142.566 51.1768 143.081C50.3512 144.06 49.216 145.347 47.8228 146.738C46.4812 148.128 45.1912 149.312 44.2108 150.136C43.7464 150.548 43.3336 150.909 43.0756 151.115C42.7144 151.372 42.5596 151.527 42.5596 151.475Z" fill="white"/>
<path d="M30.124 147.613C30.124 147.613 30.3304 147.613 30.64 147.716C31.0012 147.819 31.4656 147.922 31.9816 148.076C33.1168 148.385 34.6648 148.849 36.3676 149.364C38.0704 149.879 39.6184 150.342 40.7536 150.703C41.2696 150.857 41.734 151.012 42.0952 151.115C42.4048 151.218 42.5596 151.269 42.5596 151.321C42.5596 151.321 42.3532 151.321 42.0436 151.218C41.6824 151.115 41.218 151.012 40.702 150.857C39.5668 150.548 38.0188 150.085 36.316 149.57C34.6132 149.055 33.0652 148.591 31.93 148.231C31.414 148.076 30.9496 147.922 30.5884 147.819C30.3304 147.664 30.124 147.613 30.124 147.613Z" fill="white"/>
<path d="M32.1364 164.71C32.1364 164.71 32.3428 164.762 32.7556 164.865C33.22 164.968 33.7876 165.122 34.4584 165.328C35.9032 165.74 37.9156 166.307 40.0828 166.925C42.3016 167.543 44.2624 168.161 45.7072 168.573C46.378 168.779 46.9456 168.985 47.41 169.088C47.8228 169.242 48.0292 169.294 48.0292 169.294C48.0292 169.294 47.8228 169.242 47.41 169.139C46.9456 169.036 46.378 168.882 45.7072 168.676C44.2624 168.264 42.25 167.697 40.0828 167.079C37.864 166.461 35.9032 165.843 34.4584 165.431C33.7876 165.225 33.22 165.019 32.7556 164.916C32.3944 164.813 32.1364 164.71 32.1364 164.71Z" fill="white"/>
<path d="M47.7196 169.088C47.7196 169.088 47.8744 168.882 48.184 168.573C48.5452 168.212 48.958 167.749 49.5256 167.234C50.6608 166.101 52.2088 164.504 53.86 162.702C55.5112 160.899 57.0076 159.252 58.0396 158.016C58.5556 157.449 58.9684 156.934 59.278 156.574C59.5876 156.213 59.7424 156.059 59.7424 156.059C59.7424 156.059 59.5876 156.265 59.3296 156.625C59.0716 156.986 58.6588 157.501 58.1428 158.119C57.1108 159.354 55.666 161.054 54.0148 162.856C52.3636 164.659 50.764 166.204 49.6288 167.337C49.0612 167.903 48.5968 168.315 48.2356 168.624C47.926 168.933 47.7712 169.088 47.7196 169.088Z" fill="white"/>
<path d="M216.761 168.676C216.761 168.676 216.813 168.573 216.864 168.418C216.968 168.264 217.071 168.006 217.226 167.697C217.535 167.079 217.896 166.101 218.206 164.813C218.877 162.238 219.083 158.273 218.103 153.638C217.638 151.269 216.916 148.797 216.039 146.12C215.162 143.442 214.13 140.609 213.304 137.571C212.478 134.533 211.808 131.185 211.962 127.735C212.066 124.233 213.098 120.783 214.284 117.332C215.42 113.882 216.606 110.483 216.968 107.084C217.38 103.685 216.658 100.338 215.058 97.6085C213.562 94.8276 211.653 92.4587 210.26 90.0383C208.815 87.6179 207.938 85.0945 207.37 82.7256C206.286 78.0393 206.648 74.074 207.164 71.4476C207.731 68.8212 208.35 67.4822 208.35 67.4822C208.35 67.4822 208.35 67.5852 208.299 67.7397C208.247 67.9457 208.144 68.2032 208.041 68.5122C207.834 69.1817 207.576 70.2116 207.318 71.4991C206.854 74.1255 206.493 78.0393 207.628 82.7256C208.196 85.043 209.073 87.5149 210.518 89.9353C211.911 92.3557 213.82 94.7246 215.368 97.5055C216.968 100.286 217.742 103.737 217.329 107.187C216.968 110.637 215.781 114.088 214.646 117.538C213.51 120.989 212.478 124.439 212.375 127.838C212.272 131.237 212.891 134.533 213.717 137.571C214.542 140.609 215.574 143.442 216.4 146.12C217.277 148.797 218 151.321 218.464 153.69C219.393 158.428 219.135 162.393 218.412 164.968C218.051 166.255 217.638 167.234 217.329 167.852C217.174 168.161 217.071 168.367 216.968 168.573C216.813 168.624 216.761 168.676 216.761 168.676Z" fill="#263238"/>
<path d="M212.117 92.3557C212.117 92.3557 209.228 83.1891 214.388 77.7818C214.594 77.5758 214.904 77.6788 214.955 77.9363C215.265 79.4813 215.574 84.0646 212.117 92.3557Z" fill="#E8505B"/>
<path d="M213.872 80.8202C213.923 80.8202 213.82 81.4897 213.665 82.5196C213.459 83.7041 213.252 85.043 212.994 86.588C212.736 88.0814 212.53 89.4718 212.375 90.6563C212.22 91.6862 212.117 92.3557 212.066 92.3557C212.014 92.3557 212.014 91.6862 212.117 90.6563C212.22 89.6263 212.375 88.1844 212.633 86.588C212.891 84.9915 213.149 83.6011 213.407 82.5711C213.665 81.4897 213.82 80.8202 213.872 80.8202Z" fill="#263238"/>
<path d="M215.523 113.985C215.523 113.985 217.277 104.509 224.346 102.192C224.604 102.089 224.811 102.346 224.759 102.604C224.295 104.046 222.437 108.269 215.523 113.985Z" fill="#E8505B"/>
<path d="M222.437 104.612C222.489 104.664 222.076 105.179 221.457 106.003C220.734 106.93 219.909 108.063 218.98 109.299C218.051 110.534 217.226 111.616 216.503 112.594C215.884 113.418 215.471 113.985 215.471 113.933C215.42 113.933 215.729 113.315 216.297 112.44C216.864 111.564 217.69 110.38 218.67 109.093C219.651 107.805 220.58 106.672 221.25 105.9C221.921 105.076 222.386 104.612 222.437 104.612Z" fill="#263238"/>
<path d="M213.614 137.725C213.614 137.725 212.53 128.147 218.619 123.872C218.825 123.718 219.135 123.872 219.135 124.13C219.135 125.675 218.567 130.258 213.614 137.725Z" fill="#E8505B"/>
<path d="M217.484 126.756C217.535 126.756 217.329 127.374 216.968 128.404C216.555 129.537 216.09 130.825 215.574 132.267C215.058 133.709 214.594 134.996 214.181 136.129C213.82 137.107 213.614 137.725 213.562 137.725C213.51 137.725 213.665 137.056 213.923 136.077C214.233 135.047 214.697 133.709 215.213 132.164C215.781 130.67 216.297 129.331 216.71 128.353C217.174 127.323 217.432 126.705 217.484 126.756Z" fill="#263238"/>
<path d="M218.928 161.569C218.928 161.569 218.206 151.99 224.45 147.922C224.656 147.767 224.966 147.922 224.966 148.179C224.862 149.724 224.14 154.308 218.928 161.569Z" fill="#E8505B"/>
<path d="M223.211 150.754C223.263 150.754 223.005 151.372 222.644 152.351C222.179 153.432 221.663 154.72 221.096 156.162C220.528 157.604 220.012 158.891 219.548 159.972C219.135 160.951 218.928 161.569 218.877 161.517C218.825 161.517 218.98 160.848 219.29 159.869C219.599 158.891 220.115 157.501 220.734 156.007C221.354 154.514 221.921 153.175 222.386 152.248C222.85 151.321 223.16 150.754 223.211 150.754Z" fill="#263238"/>
<path d="M207.989 84.2706C207.989 84.2706 199.424 79.8417 199.269 72.3745C199.269 72.1171 199.527 71.9626 199.785 72.1171C201.075 72.9925 204.584 75.9794 207.989 84.2706Z" fill="#E8505B"/>
<path d="M201.075 74.9495C201.126 74.898 201.539 75.4129 202.158 76.2884C202.829 77.2669 203.655 78.3483 204.584 79.6358C205.461 80.8717 206.286 82.0047 207.009 82.9316C207.628 83.7556 208.041 84.2706 207.989 84.3221C207.938 84.3736 207.473 83.9101 206.802 83.0861C206.132 82.2622 205.254 81.1292 204.274 79.8418C203.345 78.5543 202.52 77.3184 201.952 76.4429C201.333 75.5159 201.023 74.9495 201.075 74.9495Z" fill="#263238"/>
<path d="M217.174 103.994C217.174 103.994 208.402 100.08 207.783 92.6647C207.783 92.4072 208.041 92.2012 208.247 92.3557C209.537 93.1282 213.252 95.9606 217.174 103.994Z" fill="#E8505B"/>
<path d="M209.692 95.0851C209.744 95.0336 210.156 95.5486 210.827 96.3726C211.601 97.2995 212.478 98.381 213.407 99.5654C214.388 100.75 215.265 101.831 216.039 102.707C216.71 103.531 217.122 103.994 217.071 104.046C217.019 104.097 216.555 103.634 215.832 102.861C215.11 102.089 214.13 101.007 213.149 99.7714C212.117 98.5355 211.24 97.4025 210.621 96.5271C210.002 95.6516 209.64 95.1366 209.692 95.0851Z" fill="#263238"/>
<path d="M212.117 125.984C212.117 125.984 206.08 118.517 208.918 111.616C209.021 111.358 209.331 111.358 209.486 111.564C210.26 112.852 212.272 117.023 212.117 125.984Z" fill="#E8505B"/>
<path d="M209.486 114.654C209.537 114.654 209.692 115.272 209.95 116.302C210.208 117.435 210.518 118.826 210.827 120.319C211.137 121.813 211.446 123.151 211.704 124.336C211.962 125.366 212.066 125.984 212.014 125.984C211.962 125.984 211.756 125.366 211.446 124.387C211.137 123.357 210.776 121.967 210.466 120.422C210.105 118.877 209.847 117.435 209.692 116.405C209.537 115.324 209.434 114.654 209.486 114.654Z" fill="#263238"/>
<path d="M218.103 151.836C218.103 151.836 209.382 147.767 208.866 140.352C208.866 140.094 209.124 139.94 209.331 140.043C210.672 140.867 214.336 143.751 218.103 151.836Z" fill="#E8505B"/>
<path d="M210.776 142.824C210.827 142.772 211.24 143.287 211.911 144.111C212.633 145.038 213.51 146.12 214.439 147.304C215.42 148.488 216.245 149.57 217.019 150.497C217.69 151.321 218.103 151.836 218.051 151.836C218 151.887 217.535 151.424 216.813 150.651C216.09 149.879 215.162 148.746 214.181 147.51C213.201 146.274 212.324 145.09 211.704 144.214C211.085 143.39 210.724 142.875 210.776 142.824Z" fill="#263238"/>
<path d="M235.492 114.036C235.492 114.036 235.492 114.088 235.492 114.242C235.492 114.397 235.492 114.603 235.492 114.86C235.492 115.427 235.44 116.199 235.389 117.178C235.286 119.238 235.131 122.07 234.924 125.52C234.305 129.022 232.551 132.833 230.126 136.592C228.371 139.373 226.565 141.845 224.966 144.214C223.366 146.532 222.024 148.694 221.096 150.6C220.167 152.505 219.599 154.153 219.29 155.286C219.135 155.853 219.032 156.316 218.98 156.625C218.928 156.934 218.877 157.089 218.877 157.089C218.877 157.089 218.877 156.934 218.928 156.625C218.98 156.316 219.083 155.853 219.186 155.286C219.444 154.102 219.96 152.454 220.889 150.497C221.818 148.54 223.16 146.377 224.708 144.008C226.256 141.639 228.113 139.167 229.868 136.386C232.241 132.679 233.996 128.868 234.666 125.417C234.924 122.019 235.131 119.135 235.234 117.075C235.337 116.096 235.389 115.324 235.44 114.757C235.44 114.5 235.492 114.294 235.492 114.139C235.44 114.088 235.492 114.036 235.492 114.036Z" fill="#263238"/>
<path d="M230.28 135.923C230.28 135.923 233.996 127.065 229.352 121.246C229.197 121.04 228.887 121.092 228.784 121.349C228.371 122.791 227.597 127.374 230.28 135.923Z" fill="#E8505B"/>
<path d="M229.61 124.284C229.661 124.284 229.764 124.902 229.919 125.984C230.074 127.014 230.177 128.456 230.332 130.052C230.435 131.649 230.487 133.091 230.487 134.172C230.487 135.202 230.435 135.871 230.384 135.871C230.332 135.871 230.28 135.202 230.229 134.172C230.126 132.988 230.074 131.597 229.971 130.104C229.868 128.559 229.764 127.168 229.661 126.035C229.61 124.954 229.558 124.284 229.61 124.284Z" fill="#263238"/>
<g opacity="0.3">
<path d="M230.28 135.923C230.28 135.923 233.996 127.065 229.352 121.246C229.197 121.04 228.887 121.092 228.784 121.349C228.371 122.791 227.597 127.374 230.28 135.923Z" fill="black"/>
</g>
<path d="M218.825 157.295C218.825 157.295 221.766 148.128 216.658 142.721C216.503 142.515 216.142 142.618 216.09 142.875C215.832 144.42 215.471 149.003 218.825 157.295Z" fill="#E8505B"/>
<path d="M217.226 145.811C217.277 145.811 217.432 146.429 217.638 147.458C217.845 148.488 218.103 149.93 218.361 151.527C218.619 153.123 218.774 154.565 218.877 155.595C218.98 156.625 218.98 157.295 218.928 157.295C218.877 157.295 218.774 156.677 218.619 155.595C218.464 154.411 218.258 153.072 218 151.527C217.793 150.033 217.535 148.643 217.38 147.458C217.226 146.429 217.174 145.811 217.226 145.811Z" fill="#263238"/>
<g opacity="0.3">
<path d="M218.825 157.295C218.825 157.295 221.766 148.128 216.658 142.721C216.503 142.515 216.142 142.618 216.09 142.875C215.832 144.42 215.471 149.003 218.825 157.295Z" fill="black"/>
</g>
<path d="M234.976 125.057C234.976 125.057 242.871 119.547 242.097 112.131C242.045 111.873 241.787 111.77 241.581 111.925C240.394 112.955 237.298 116.405 234.976 125.057Z" fill="#E8505B"/>
<g opacity="0.3">
<path d="M234.976 125.057C234.976 125.057 242.871 119.547 242.097 112.131C242.045 111.873 241.787 111.77 241.581 111.925C240.394 112.955 237.298 116.405 234.976 125.057Z" fill="black"/>
</g>
<path d="M240.652 114.912C240.704 114.912 240.446 115.53 239.981 116.508C239.517 117.435 238.898 118.774 238.124 120.165C237.35 121.555 236.627 122.842 236.06 123.718C235.492 124.593 235.079 125.108 235.079 125.108C235.028 125.057 235.337 124.49 235.853 123.615C236.421 122.585 237.092 121.349 237.814 120.01C238.536 118.671 239.207 117.435 239.775 116.405C240.291 115.427 240.6 114.86 240.652 114.912Z" fill="#263238"/>
<path d="M222.024 148.231C222.024 148.231 231.519 146.738 234.099 139.734C234.202 139.476 233.944 139.219 233.738 139.322C232.241 139.785 227.907 141.485 222.024 148.231Z" fill="#E8505B"/>
<g opacity="0.3">
<path d="M222.024 148.231C222.024 148.231 231.519 146.738 234.099 139.734C234.202 139.476 233.944 139.219 233.738 139.322C232.241 139.785 227.907 141.485 222.024 148.231Z" fill="black"/>
</g>
<path d="M231.57 141.588C231.622 141.639 231.106 142.051 230.28 142.721C229.455 143.39 228.32 144.266 226.978 145.193C225.688 146.12 224.45 146.944 223.572 147.458C222.695 148.025 222.076 148.282 222.076 148.282C222.024 148.231 222.592 147.87 223.469 147.252C224.45 146.583 225.585 145.759 226.823 144.884C228.062 144.008 229.197 143.184 230.177 142.515C231.003 141.948 231.57 141.588 231.57 141.588Z" fill="#263238"/>
<path d="M210.776 165.74L213.459 183.61L224.398 183.558L228.062 165.74H210.776Z" fill="#737373"/>
<path d="M226.462 172.641C226.462 172.641 226.41 172.692 226.359 172.692C226.307 172.744 226.204 172.795 226.049 172.847C225.791 172.95 225.378 173.156 224.811 173.207C224.243 173.259 223.572 173.259 222.798 173.001C222.024 172.744 221.25 172.28 220.631 171.456C220.373 171.045 220.167 170.53 220.115 169.963C220.064 169.397 220.27 168.727 220.838 168.418C221.405 168.109 222.128 168.212 222.644 168.573C223.211 168.933 223.521 169.551 223.676 170.221C223.83 170.89 223.83 171.559 223.83 172.229C223.779 172.898 223.676 173.619 223.366 174.289C223.108 174.958 222.695 175.576 222.076 176.091C221.508 176.555 220.786 176.915 219.96 176.967C219.186 177.018 218.412 176.709 217.793 176.349C217.174 175.937 216.606 175.422 216.142 174.855C215.678 174.289 215.368 173.619 215.316 172.898C215.265 172.177 215.523 171.456 216.09 170.993C216.658 170.53 217.484 170.581 218 170.89C218.567 171.199 219.032 171.714 219.135 172.332C219.341 173.568 218.619 174.649 217.742 175.164C216.864 175.679 215.884 175.679 215.11 175.525C214.336 175.37 213.717 175.061 213.252 174.804C212.788 174.546 212.427 174.289 212.22 174.083C212.014 173.928 211.859 173.825 211.859 173.774C211.859 173.774 212.014 173.825 212.22 174.031C212.478 174.186 212.788 174.443 213.304 174.701C213.768 174.958 214.388 175.216 215.162 175.37C215.884 175.473 216.813 175.473 217.638 174.958C218.464 174.495 219.083 173.465 218.877 172.383C218.774 171.868 218.412 171.354 217.896 171.096C217.38 170.839 216.71 170.839 216.245 171.199C215.781 171.559 215.574 172.229 215.574 172.847C215.626 173.465 215.936 174.134 216.348 174.649C216.761 175.164 217.329 175.679 217.896 176.04C218.516 176.4 219.186 176.658 219.909 176.606C220.631 176.555 221.302 176.246 221.818 175.782C222.334 175.319 222.747 174.752 223.005 174.083C223.263 173.465 223.366 172.795 223.418 172.126C223.469 171.457 223.418 170.787 223.314 170.169C223.16 169.551 222.85 168.985 222.386 168.676C221.921 168.367 221.302 168.264 220.838 168.521C220.373 168.779 220.167 169.345 220.218 169.809C220.218 170.324 220.425 170.787 220.683 171.199C221.199 171.971 222.024 172.486 222.695 172.744C223.418 173.001 224.088 173.053 224.656 172.95C225.946 172.95 226.462 172.589 226.462 172.641Z" fill="#263238"/>
<path d="M63.7672 173.568C58.1428 173.001 40.186 172.589 34.6132 173.619C29.092 174.598 22.6936 179.645 20.32 184.176C17.6368 189.223 18.1012 198.905 22.3324 203.025C26.5636 207.145 34.1488 205.909 40.3924 206.784C46.636 207.66 53.0344 207.351 59.3812 207.196C99.1648 206.166 139.258 211.264 178.629 205.857C183.634 205.188 189 204.158 192.509 200.965C196.431 197.411 197.205 192.107 197.772 187.215C198.237 183.352 198.546 179.078 195.966 175.937C194.264 173.877 191.529 172.641 188.691 172.126C193.283 166.513 195.554 162.393 195.812 157.604C196.224 149.158 194.006 142.875 193.49 134.532C192.974 126.19 192.974 117.641 195.399 109.608C196.895 104.715 199.114 98.8959 195.76 95.0336C193.851 92.8192 190.703 92.1497 187.762 91.6862C152.932 86.0215 117.38 85.9185 82.1884 88.4419C78.0088 88.7509 73.3132 89.3173 70.63 92.5102C68.4112 95.0851 68.1016 98.7414 68.4628 102.089C68.8756 105.436 69.9592 108.681 70.2172 112.079C71.7136 127.992 49.0096 155.286 63.7672 173.568Z" fill="#E8505B"/>
<g opacity="0.5">
<path d="M63.7672 173.568C58.1428 173.001 40.186 172.589 34.6132 173.619C29.092 174.598 22.6936 179.645 20.32 184.176C17.6368 189.223 18.1012 198.905 22.3324 203.025C26.5636 207.145 34.1488 205.909 40.3924 206.784C46.636 207.66 53.0344 207.351 59.3812 207.196C99.1648 206.166 139.258 211.264 178.629 205.857C183.634 205.188 189 204.158 192.509 200.965C196.431 197.411 197.205 192.107 197.772 187.215C198.237 183.352 198.546 179.078 195.966 175.937C194.264 173.877 191.529 172.641 188.691 172.126C193.283 166.513 195.554 162.393 195.812 157.604C196.224 149.158 194.006 142.875 193.49 134.532C192.974 126.19 192.974 117.641 195.399 109.608C196.895 104.715 199.114 98.8959 195.76 95.0336C193.851 92.8192 190.703 92.1497 187.762 91.6862C152.932 86.0215 117.38 85.9185 82.1884 88.4419C78.0088 88.7509 73.3132 89.3173 70.63 92.5102C68.4112 95.0851 68.1016 98.7414 68.4628 102.089C68.8756 105.436 69.9592 108.681 70.2172 112.079C71.7136 127.992 49.0096 155.286 63.7672 173.568Z" fill="white"/>
</g>
<path d="M70.9912 92.1497C70.9912 92.1497 71.6104 91.7892 72.7972 91.2743C73.984 90.7593 75.79 90.0383 78.2668 89.6263C80.7436 89.2143 83.788 89.1113 87.2968 88.9053C90.8056 88.7509 94.8304 88.5449 99.268 88.3904C108.143 88.0814 118.721 87.9269 130.434 88.0299C142.148 88.1329 155.048 88.5449 168.567 89.3688C170.27 89.4718 171.921 89.5748 173.624 89.6778C175.275 89.7808 176.978 89.8838 178.577 90.1928C180.177 90.5018 181.828 91.0168 183.17 91.9952C183.84 92.4587 184.408 93.0767 184.924 93.7461C185.388 94.4156 185.75 95.1366 186.008 95.9091C186.524 97.454 186.627 99.0504 186.524 100.647C186.369 102.243 186.008 103.737 185.595 105.23C185.182 106.724 184.666 108.166 184.305 109.608C183.892 111.049 183.582 112.491 183.273 113.933C182.138 119.65 181.828 125.263 182.189 130.464C182.344 133.039 182.705 135.562 183.118 137.931C183.582 140.3 184.15 142.566 184.666 144.678C185.801 148.952 186.73 152.866 187.04 156.368C187.349 159.869 187.04 162.959 186.42 165.328C186.111 166.513 185.698 167.543 185.337 168.418C184.924 169.294 184.511 169.963 184.15 170.53C183.944 170.787 183.789 171.044 183.686 171.25C183.531 171.456 183.428 171.611 183.273 171.714C183.376 171.559 183.479 171.405 183.634 171.199C183.789 170.993 183.944 170.735 184.098 170.478C184.46 169.912 184.821 169.242 185.234 168.367C185.595 167.491 186.008 166.461 186.317 165.277C186.936 162.908 187.246 159.818 186.885 156.316C186.575 152.814 185.595 148.9 184.46 144.626C183.892 142.463 183.324 140.249 182.86 137.88C182.396 135.511 182.086 132.988 181.88 130.413C181.518 125.211 181.776 119.598 182.963 113.83C183.273 112.388 183.582 110.946 183.995 109.505C184.356 108.063 184.872 106.621 185.285 105.127C185.698 103.634 186.059 102.14 186.162 100.595C186.266 99.0504 186.162 97.454 185.646 95.9606C185.388 95.2396 185.027 94.5186 184.614 93.8491C184.15 93.2312 183.582 92.6647 182.963 92.1497C181.673 91.2228 180.074 90.7078 178.474 90.3988C176.874 90.0898 175.223 89.9868 173.52 89.8838C171.869 89.7808 170.166 89.6778 168.464 89.5748C154.944 88.7509 142.044 88.3389 130.331 88.2359C118.618 88.1329 108.04 88.2874 99.1648 88.5449C94.7272 88.6994 90.7024 88.8538 87.1936 89.0083C83.6848 89.1628 80.6404 89.2658 78.2152 89.6778C75.79 90.0898 73.9324 90.7593 72.7456 91.2743C72.1264 91.5317 71.7136 91.7377 71.404 91.8922C71.146 92.0467 70.9912 92.1497 70.9912 92.1497Z" fill="#263238"/>
<path d="M198.082 190.356C198.082 190.356 197.927 190.408 197.618 190.459C197.308 190.562 196.844 190.665 196.276 190.82C195.089 191.129 193.386 191.541 191.168 192.107C190.032 192.365 188.794 192.674 187.452 193.034C186.111 193.343 184.614 193.652 183.015 194.013C179.816 194.682 176.204 195.557 172.179 196.227C170.166 196.587 168.051 196.999 165.832 197.36C164.748 197.566 163.613 197.72 162.426 197.875C161.291 198.029 160.104 198.235 158.918 198.39C157.731 198.544 156.492 198.75 155.306 198.956C154.686 199.059 154.067 199.162 153.448 199.214C152.829 199.265 152.21 199.368 151.539 199.42C149.01 199.729 146.379 200.038 143.644 200.347C132.86 201.428 120.94 202.201 108.453 202.355C95.914 202.407 83.9944 201.84 73.21 200.913C70.5268 200.656 67.8952 200.398 65.3152 200.089C64.696 200.038 64.0252 199.935 63.406 199.883C62.7868 199.832 62.1676 199.729 61.5484 199.626C60.31 199.471 59.1232 199.317 57.8848 199.162C56.698 199.008 55.5112 198.853 54.376 198.699C53.2408 198.544 52.1056 198.39 50.9704 198.235C48.7516 197.875 46.636 197.514 44.6236 197.205C40.5472 196.587 36.9352 195.763 33.736 195.145C32.1364 194.837 30.64 194.528 29.2984 194.27C27.9568 193.961 26.7184 193.652 25.5832 193.395C23.3644 192.88 21.61 192.468 20.4232 192.21C21.61 192.468 23.3644 192.88 25.5832 193.343C26.7184 193.601 27.9568 193.858 29.2984 194.167C30.64 194.476 32.1364 194.734 33.736 195.043C36.9352 195.66 40.5472 196.433 44.6236 197.051C46.636 197.36 48.7516 197.72 50.9704 198.081C52.054 198.287 53.1892 198.39 54.376 198.544C55.5112 198.699 56.698 198.853 57.8848 199.008C59.0716 199.162 60.31 199.317 61.5484 199.471C62.1676 199.574 62.7868 199.626 63.406 199.729C64.0252 199.78 64.6444 199.832 65.3152 199.935C67.8952 200.192 70.4752 200.45 73.21 200.707C83.9944 201.634 95.914 202.201 108.453 202.098C120.94 201.943 132.86 201.171 143.644 200.089C146.327 199.78 148.959 199.471 151.487 199.162C152.106 199.111 152.777 199.008 153.396 198.956C154.016 198.853 154.635 198.75 155.254 198.699C156.492 198.493 157.679 198.338 158.866 198.184C160.053 198.029 161.24 197.823 162.375 197.669C163.51 197.514 164.645 197.36 165.78 197.154C167.999 196.742 170.115 196.381 172.127 196.021C176.152 195.351 179.764 194.528 182.963 193.858C184.563 193.498 186.059 193.24 187.401 192.931C188.742 192.622 189.981 192.313 191.116 192.004C193.335 191.489 195.089 191.026 196.224 190.768C196.792 190.614 197.256 190.511 197.566 190.459C197.927 190.356 198.082 190.356 198.082 190.356Z" fill="#263238"/>
<path d="M63.7672 173.568C63.7672 173.568 63.8704 173.568 64.0768 173.568C64.2832 173.568 64.5928 173.619 65.0056 173.619C65.8312 173.671 67.0696 173.774 68.6176 173.877C70.1656 173.98 72.0748 174.134 74.3452 174.237C76.564 174.34 79.0924 174.546 81.9304 174.649C84.7168 174.752 87.8128 174.907 91.1152 175.01C92.7664 175.061 94.4692 175.113 96.2236 175.164C97.978 175.216 99.784 175.216 101.642 175.267C109.072 175.37 117.225 175.319 125.79 175.113C142.922 174.701 158.402 173.825 169.599 173.207C175.172 172.898 179.712 172.641 182.86 172.435C184.408 172.332 185.646 172.28 186.472 172.229C186.885 172.229 187.194 172.177 187.401 172.177C187.607 172.177 187.71 172.177 187.71 172.177C187.71 172.177 187.607 172.177 187.401 172.229C187.194 172.229 186.885 172.28 186.472 172.28C185.646 172.332 184.408 172.435 182.86 172.538C179.712 172.744 175.172 173.001 169.599 173.362C158.402 174.031 142.922 174.958 125.79 175.37C117.225 175.576 109.072 175.576 101.642 175.473C99.784 175.422 97.978 175.422 96.2236 175.37C94.4692 175.319 92.7664 175.267 91.1152 175.216C87.8128 175.113 84.7684 174.958 81.9304 174.855C79.144 174.752 76.6156 174.546 74.3452 174.392C72.1264 174.237 70.2172 174.083 68.6176 173.98C67.0696 173.877 65.8312 173.774 65.0056 173.671C64.5928 173.619 64.2832 173.619 64.0768 173.568C63.8704 173.619 63.7672 173.568 63.7672 173.568Z" fill="#263238"/>
<path d="M163.871 204.312C163.768 204.312 163.665 202.767 163.097 200.965C162.581 199.162 161.859 197.772 161.91 197.772C161.962 197.772 162.168 198.081 162.426 198.647C162.684 199.214 163.046 199.986 163.304 200.913C163.562 201.84 163.716 202.664 163.768 203.282C163.871 203.9 163.871 204.261 163.871 204.312Z" fill="#263238"/>
<path d="M168.412 202.149C168.309 202.149 168.309 200.862 167.741 199.368C167.225 197.875 166.4 196.896 166.451 196.845C166.503 196.793 167.432 197.772 167.999 199.317C168.567 200.81 168.464 202.201 168.412 202.149Z" fill="#263238"/>
<path d="M179.816 148.746C179.816 148.643 181.106 149.055 182.602 148.643C184.098 148.282 185.027 147.304 185.079 147.407C185.079 147.407 184.924 147.716 184.511 148.025C184.098 148.334 183.479 148.746 182.705 148.952C181.931 149.158 181.209 149.158 180.693 149.055C180.125 148.9 179.816 148.746 179.816 148.746Z" fill="#263238"/>
<path d="M179.506 142.566C179.558 142.515 180.435 142.978 181.673 143.236C182.86 143.545 183.892 143.545 183.892 143.648C183.892 143.699 182.86 143.802 181.57 143.493C180.383 143.184 179.506 142.618 179.506 142.566Z" fill="#263238"/>
<path d="M143.747 67.0188C144.47 65.6283 145.656 64.3924 147.153 63.8259C148.649 63.2594 150.455 63.4654 151.642 64.4954C152.829 65.5253 153.242 67.4822 152.313 68.8212C154.377 68.4092 156.596 69.5421 157.473 71.4476C158.35 73.353 157.782 75.7734 156.183 77.1123C154.583 78.3998 152.055 78.4513 150.352 77.2153C150.094 78.3998 149.268 79.3782 148.133 79.8417C146.998 80.2537 145.708 80.0477 144.728 79.3268C142.354 77.4728 142.922 73.147 140.238 71.7051" fill="#263238"/>
<path d="M141.89 73.971C143.85 71.9625 144.831 68.9757 144.366 66.1433C144.315 65.7828 144.212 65.3708 144.366 65.0103C144.676 64.3924 145.605 64.3924 146.172 64.8043C146.688 65.2678 146.843 65.9888 146.946 66.6583C147.153 68.4607 146.998 70.3661 146.43 72.117C146.172 72.7865 145.914 73.5075 145.398 74.074C144.934 74.6404 144.212 75.0009 143.489 75.0524C142.715 75.0524 142.096 74.6919 141.89 73.971Z" fill="#D81E05"/>
<path d="M140.29 46.9346C139.31 44.2052 134.614 41.8878 132.086 40.4973C128.267 38.4374 124.758 39.0039 122.694 41.0123C118.721 37.8709 113.458 34.9356 108.608 36.3775C103.757 37.8194 99.9388 42.9692 100.971 47.913C101.59 50.8484 103.706 53.4233 103.706 56.3587C103.706 58.4186 102.674 60.2725 101.9 62.1264C101.126 63.9804 100.506 66.1948 101.332 68.0487C102.106 69.7996 103.912 70.8296 104.944 72.426C105.77 73.7135 106.028 75.3099 106.544 76.7519C108.556 82.1076 115.058 84.8885 120.682 83.7556C126.306 82.6226 130.847 78.2453 133.324 73.0955C135.801 67.9457 136.523 62.1264 136.626 56.4102" fill="#263238"/>
<path d="M119.237 45.8531C114.026 45.1321 109.278 48.8915 108.762 54.1443C108.143 60.3755 107.627 68.2032 108.246 72.9925C109.433 82.2621 116.502 83.6526 116.502 83.6526C116.502 83.6526 116.451 87.1029 116.348 91.1198C116.244 96.4755 120.424 101.007 125.79 101.316C131.57 101.677 136.42 97.042 136.42 91.2742L136.214 51.0029" fill="#FFBE9D"/>
<path d="M116.451 83.6526C116.451 83.6526 122.694 84.1161 128.99 80.6142C128.99 80.6142 125.636 87.0514 116.399 85.9185L116.451 83.6526Z" fill="#EB996E"/>
<path d="M122.282 55.0712C122.385 55.4317 123.675 55.2772 125.171 55.5347C126.668 55.7407 127.854 56.2042 128.061 55.8952C128.164 55.7407 127.958 55.4317 127.493 55.0712C127.029 54.7107 126.255 54.4017 125.378 54.2473C124.5 54.1443 123.675 54.2473 123.107 54.4532C122.488 54.6077 122.23 54.9167 122.282 55.0712Z" fill="#263238"/>
<path d="M110.465 55.7407C110.672 56.0497 111.549 55.7407 112.632 55.7922C113.716 55.7922 114.593 56.0497 114.8 55.7407C114.903 55.5862 114.748 55.2772 114.387 55.0197C114.026 54.7108 113.355 54.5048 112.632 54.5048C111.91 54.5048 111.291 54.7623 110.878 55.0197C110.517 55.3287 110.362 55.6377 110.465 55.7407Z" fill="#263238"/>
<path d="M121.92 65.4738C121.92 65.6798 122.075 65.7828 122.282 65.7828C122.488 65.7828 122.591 65.6283 122.591 65.4223C122.591 65.2163 122.436 65.1133 122.23 65.1133C122.075 65.1133 121.92 65.2678 121.92 65.4738Z" fill="#EB996E"/>
<path d="M112.323 64.1349C112.323 64.3409 112.478 64.4439 112.684 64.4439C112.89 64.4439 112.994 64.2894 112.994 64.0834C112.994 63.8774 112.839 63.7744 112.632 63.7744C112.426 63.7744 112.323 63.9289 112.323 64.1349Z" fill="#EB996E"/>
<path d="M110.465 65.0618C110.465 65.2678 110.62 65.3708 110.826 65.3708C111.033 65.3708 111.136 65.2163 111.136 65.0103C111.136 64.8043 110.981 64.7014 110.775 64.7014C110.62 64.7529 110.465 64.9073 110.465 65.0618Z" fill="#EB996E"/>
<path d="M109.846 63.6714C109.846 63.8774 110.001 63.9804 110.207 63.9804C110.414 63.9804 110.517 63.8259 110.517 63.6199C110.517 63.4139 110.362 63.3109 110.156 63.3109C109.949 63.3109 109.846 63.5169 109.846 63.6714Z" fill="#EB996E"/>
<path d="M123.52 66.9158C123.52 67.1217 123.675 67.2247 123.881 67.2247C124.088 67.2247 124.191 67.0702 124.191 66.8643C124.191 66.6583 124.036 66.5553 123.83 66.5553C123.675 66.5553 123.52 66.7098 123.52 66.9158Z" fill="#EB996E"/>
<path d="M124.758 65.5253C124.758 65.7313 124.913 65.8343 125.12 65.8343C125.326 65.8343 125.429 65.6798 125.429 65.4738C125.429 65.2678 125.274 65.1648 125.068 65.1648C124.913 65.1648 124.758 65.3193 124.758 65.5253Z" fill="#EB996E"/>
<path d="M119.65 44.4112C120.734 51.7239 126.41 58.1611 133.53 60.1695C131.363 63.5169 133.014 69.6966 133.118 74.8979C133.221 79.7387 133.272 81.1292 136.472 83.4981C139.103 84.0131 140.342 76.9063 142.199 74.8464C144.057 72.7865 145.811 70.3146 145.605 67.5337C145.502 66.2463 144.934 65.0103 144.831 63.7229C144.728 62.281 145.14 60.8905 145.347 59.4486C146.276 53.1658 142.818 46.5741 137.246 43.4842C131.673 40.3943 124.449 40.8578 119.134 44.3597" fill="#263238"/>
<path d="M144.624 63.0019C144.624 63.0019 144.728 62.8989 144.831 62.7444C144.986 62.5384 145.14 62.2809 145.244 61.8175C145.45 60.9935 145.295 59.6545 144.573 58.2641C144.212 57.5431 143.696 56.8737 143.025 56.2557C142.354 55.6377 141.632 55.0197 140.754 54.4533C139.877 53.8868 138.897 53.4233 137.813 53.1143C136.73 52.8053 135.594 52.5478 134.459 52.2904C133.324 52.0329 132.189 51.7754 131.105 51.4664C130.073 51.1574 129.041 50.7454 128.164 50.2819C126.358 49.4065 124.81 48.325 123.675 47.3466C122.488 46.3681 121.662 45.4411 121.095 44.7717C120.837 44.4627 120.63 44.2052 120.476 43.9992C120.321 43.8447 120.269 43.7417 120.269 43.7417C120.269 43.7417 120.321 43.8447 120.476 44.0507C120.63 44.2567 120.785 44.5142 121.095 44.8232C121.611 45.4926 122.436 46.4196 123.623 47.4495C124.81 48.4795 126.306 49.561 128.164 50.4364C129.093 50.8999 130.073 51.3119 131.157 51.6209C132.24 51.9814 133.376 52.1874 134.511 52.4448C135.646 52.7023 136.781 52.9083 137.865 53.2688C138.897 53.5778 139.877 54.0413 140.754 54.5563C141.632 55.0712 142.354 55.6892 143.025 56.3072C143.696 56.9252 144.212 57.5946 144.573 58.2641C145.295 59.6031 145.45 60.8905 145.295 61.7145C144.986 62.6414 144.624 63.0019 144.624 63.0019Z" fill="#455A64"/>
<path d="M120.321 43.7417C120.321 43.7417 120.372 43.8447 120.527 43.9477C120.682 44.1022 120.888 44.3082 121.146 44.5657C121.662 45.0806 122.488 45.8016 123.572 46.6256C124.655 47.3981 125.997 48.325 127.7 48.943C128.525 49.252 129.454 49.4065 130.434 49.561C131.415 49.7155 132.395 49.8185 133.376 49.9729C135.388 50.1789 137.349 50.4364 139.052 50.9514C140.754 51.4664 142.148 52.2389 143.18 53.0628C144.212 53.8868 144.882 54.7622 145.244 55.4317C145.398 55.7407 145.553 55.9982 145.605 56.2042C145.656 56.4102 145.708 56.4617 145.708 56.4617C145.708 56.4617 145.708 56.3587 145.605 56.1527C145.553 55.9467 145.45 55.6892 145.295 55.3287C144.986 54.6593 144.315 53.7323 143.283 52.9083C142.251 52.0329 140.806 51.2604 139.103 50.7454C137.4 50.2304 135.44 49.9729 133.427 49.7155C132.395 49.6125 131.415 49.458 130.486 49.355C129.557 49.2005 128.628 49.046 127.803 48.737C126.152 48.1705 124.81 47.2951 123.726 46.5226C122.643 45.7501 121.817 45.0291 121.25 44.5142C120.992 44.2567 120.785 44.1022 120.63 43.9477C120.372 43.7932 120.321 43.7417 120.321 43.7417Z" fill="#455A64"/>
<path d="M109.691 36.0685C109.691 36.12 110.465 36.12 111.755 36.3775C112.065 36.429 112.426 36.532 112.736 36.6865C113.097 36.7895 113.458 36.944 113.871 37.0985C114.645 37.4589 115.47 37.9224 116.244 38.4889C117.018 39.0554 117.689 39.7249 118.257 40.3428C118.515 40.6518 118.773 40.9608 118.979 41.2698C119.186 41.5788 119.392 41.8878 119.547 42.1453C120.166 43.2267 120.424 43.9992 120.476 43.9992C120.476 43.9992 120.424 43.7932 120.321 43.4842C120.269 43.3297 120.166 43.1237 120.063 42.8662C119.96 42.6602 119.856 42.3512 119.702 42.0938C119.547 41.8363 119.392 41.5273 119.134 41.2183C118.928 40.9093 118.67 40.6003 118.412 40.2398C117.844 39.5704 117.173 38.9524 116.399 38.3344C115.625 37.7679 114.8 37.3044 113.974 36.944C113.561 36.7895 113.2 36.635 112.839 36.532C112.478 36.429 112.116 36.326 111.807 36.2745C111.497 36.1715 111.188 36.1715 110.93 36.12C110.672 36.0685 110.465 36.0685 110.259 36.0685C109.898 36.017 109.691 36.017 109.691 36.0685Z" fill="#455A64"/>
<path d="M104.325 71.3446C104.325 71.3446 104.325 71.2931 104.273 71.2416C104.222 71.1901 104.17 71.0871 104.067 71.0356C103.912 70.8296 103.602 70.5721 103.344 70.1601C103.035 69.7481 102.674 69.2846 102.467 68.6152C102.364 68.3062 102.312 67.8942 102.364 67.5337C102.416 67.1217 102.519 66.7612 102.725 66.3493C103.138 65.5768 103.86 64.9073 104.48 64.0319C105.099 63.2079 105.666 62.2294 106.131 61.0965C106.595 60.015 106.905 58.7791 107.008 57.4916C107.163 56.2042 107.06 54.8652 106.956 53.5263C106.905 52.1873 106.905 50.8484 107.163 49.6125C107.472 48.3765 108.092 47.295 108.814 46.4196C109.588 45.5441 110.465 44.8746 111.394 44.4112C112.323 43.9477 113.303 43.7417 114.18 43.6902C115.935 43.5872 117.38 44.0507 118.257 44.4627C118.721 44.6687 119.031 44.8746 119.237 45.0291C119.34 45.0806 119.444 45.1321 119.495 45.1836C119.547 45.2351 119.598 45.2351 119.598 45.2351C119.598 45.2351 119.186 44.8231 118.308 44.4112C117.431 43.9477 115.986 43.4842 114.18 43.5872C113.303 43.6387 112.323 43.8447 111.342 44.3082C110.362 44.7716 109.433 45.4411 108.659 46.3681C107.885 47.2435 107.266 48.3765 106.956 49.6639C106.647 50.9514 106.647 52.2903 106.698 53.6293C106.75 54.9682 106.853 56.3072 106.75 57.5431C106.647 58.8306 106.337 60.015 105.873 61.0965C105.46 62.1779 104.892 63.1564 104.273 63.9804C103.654 64.8043 102.932 65.5253 102.519 66.2978C102.312 66.7098 102.158 67.1217 102.158 67.5337C102.106 67.9457 102.209 68.3062 102.312 68.6667C102.519 69.3361 102.932 69.8511 103.241 70.2116C103.551 70.5721 103.86 70.8811 104.015 71.0356C104.118 71.1386 104.17 71.1901 104.222 71.2416C104.273 71.3446 104.325 71.3446 104.325 71.3446Z" fill="#455A64"/>
<path d="M144.16 63.5684C144.16 63.5684 144.212 63.5684 144.263 63.5169C144.315 63.4654 144.418 63.4139 144.521 63.3624C144.779 63.2079 145.089 63.0019 145.502 62.6414C146.276 61.972 147.359 60.736 147.978 58.9336C148.598 57.1312 148.598 54.6593 147.411 52.3933C146.843 51.2604 145.914 50.2304 144.779 49.4065C143.644 48.5825 142.302 48.016 140.909 47.6555C139.516 47.2951 138.071 47.0891 136.678 47.0376C135.285 46.9346 133.995 46.9346 132.705 46.8831C131.466 46.8316 130.28 46.7801 129.144 46.6256C128.061 46.4711 127.029 46.2136 126.152 45.9046C124.346 45.2866 123.056 44.4112 122.282 43.6387C121.92 43.2782 121.611 42.9692 121.456 42.7117C121.353 42.6087 121.301 42.5058 121.25 42.4543C121.198 42.4028 121.198 42.3513 121.198 42.3513C121.198 42.3513 121.456 42.8662 122.23 43.6387C123.004 44.4112 124.294 45.3381 126.1 45.9561C126.977 46.2651 128.009 46.5226 129.144 46.6771C130.28 46.8316 131.466 46.9346 132.705 46.9861C135.233 47.0891 138.02 47.0376 140.806 47.7585C142.199 48.119 143.541 48.6855 144.624 49.458C145.76 50.2304 146.585 51.2604 147.204 52.3419C148.391 54.5563 148.391 56.9767 147.824 58.7276C147.256 60.53 146.172 61.7145 145.398 62.4354C144.986 62.7959 144.676 63.0534 144.418 63.2079C144.315 63.2594 144.212 63.3624 144.16 63.3624C144.212 63.5169 144.16 63.5684 144.16 63.5684Z" fill="#263238"/>
<path d="M110.465 61.457C110.62 61.6115 111.497 60.9935 112.787 60.9935C114.077 60.9935 115.006 61.663 115.109 61.5085C115.161 61.457 115.058 61.148 114.645 60.839C114.232 60.53 113.561 60.221 112.787 60.221C112.013 60.221 111.342 60.4785 110.93 60.7875C110.568 61.0965 110.414 61.354 110.465 61.457Z" fill="#263238"/>
<path d="M123.468 61.663C123.623 61.8174 124.5 61.1995 125.79 61.1995C127.08 61.1995 128.009 61.8689 128.112 61.7144C128.164 61.663 128.061 61.354 127.648 61.045C127.235 60.736 126.564 60.427 125.79 60.427C125.016 60.427 124.346 60.6845 123.933 60.9935C123.572 61.3025 123.417 61.56 123.468 61.663Z" fill="#263238"/>
<path d="M118.67 69.2847C118.67 69.2332 117.896 69.0787 116.606 68.8727C116.296 68.8212 115.986 68.7697 115.935 68.5637C115.883 68.3062 115.986 67.9972 116.193 67.5852C116.502 66.8128 116.864 65.9888 117.225 65.1133C118.618 61.6115 119.65 58.7276 119.495 58.6761C119.34 58.6246 118.102 61.4055 116.709 64.9073C116.348 65.7828 116.038 66.6068 115.728 67.3792C115.574 67.7397 115.367 68.1517 115.522 68.6667C115.625 68.9242 115.832 69.0787 116.038 69.1302C116.244 69.1817 116.451 69.1817 116.606 69.2332C117.896 69.3362 118.67 69.3877 118.67 69.2847Z" fill="#263238"/>
<path d="M119.134 72.3745C119.598 71.7565 120.424 71.4476 121.198 71.5506C121.766 71.6021 122.282 71.911 122.643 72.3745C122.952 72.838 123.004 73.456 122.694 73.868C122.333 74.3314 121.611 74.4344 120.992 74.2799C120.372 74.0739 119.856 73.662 119.392 73.3015C119.237 73.1985 119.134 73.0955 119.031 72.941C118.928 72.7865 118.928 72.5805 119.031 72.4775" fill="#EB996E"/>
<path d="M122.385 70.2631C122.178 70.2631 122.127 71.6021 120.94 72.5805C119.753 73.559 118.257 73.353 118.257 73.559C118.257 73.662 118.566 73.8165 119.186 73.868C119.805 73.9195 120.682 73.7135 121.404 73.147C122.127 72.5805 122.488 71.7566 122.54 71.1901C122.643 70.6236 122.488 70.2631 122.385 70.2631Z" fill="#263238"/>
<path d="M111.652 156.471L97.5136 161.26L96.3784 164.762C96.3784 164.762 56.956 150.6 54.1696 149.106C51.3832 147.613 36.9868 144.317 32.2396 156.11C28.2148 166.049 36.1612 175.988 48.8548 181.602C61.5484 187.163 86.11 189.584 86.11 189.584L102.312 192.365L138.123 192.828C148.701 192.983 158.814 188.399 165.677 180.366C171.302 173.825 177.132 166.358 178.268 162.496C180.435 154.977 178.474 145.193 167.225 144.266C155.976 143.339 137.71 156.162 137.71 156.162L130.796 154.256L111.652 156.471Z" fill="#263238"/>
<path d="M110.568 179.387C110.568 179.387 110.568 179.284 110.62 179.13C110.672 178.975 110.672 178.718 110.517 178.409C110.259 177.842 109.33 177.276 108.143 176.967C105.718 175.988 102.054 174.443 97.72 172.332C93.3856 170.221 88.3804 167.491 83.014 164.607C79.144 162.547 75.4288 160.539 71.9716 158.891C68.5144 157.243 65.4184 155.801 62.7352 154.771C62.0644 154.514 61.4452 154.256 60.826 153.999C60.2068 153.793 59.6392 153.587 59.1232 153.381C58.6072 153.175 58.0912 153.02 57.6268 152.814C57.1624 152.66 56.7496 152.505 56.3368 152.402C55.5628 152.145 54.9952 151.939 54.5824 151.836C54.376 151.784 54.2212 151.733 54.118 151.681C54.2212 151.733 54.376 151.733 54.5824 151.836C54.9952 151.939 55.6144 152.145 56.3884 152.351C56.8012 152.454 57.214 152.608 57.6784 152.763C58.1428 152.917 58.6588 153.123 59.1748 153.278C59.7424 153.484 60.31 153.69 60.9292 153.896C61.5484 154.102 62.1676 154.359 62.8384 154.668C65.5216 155.698 68.6692 157.089 72.1264 158.788C75.5836 160.436 79.2988 162.393 83.1688 164.504C88.5352 167.388 93.5404 170.118 97.8748 172.28C102.209 174.443 105.821 175.988 108.246 177.018C109.485 177.327 110.362 177.894 110.62 178.563C110.775 178.872 110.723 179.13 110.672 179.284C110.568 179.284 110.568 179.387 110.568 179.387Z" fill="#455A64"/>
<path d="M163.252 146.789C163.252 146.789 163.2 146.789 163.097 146.84C162.994 146.84 162.839 146.892 162.633 146.892C162.22 146.943 161.601 146.995 160.827 147.201C159.279 147.51 157.112 148.282 154.686 149.776C153.448 150.497 152.21 151.372 150.92 152.402C149.63 153.432 148.34 154.617 147.05 155.956C144.521 158.685 141.632 161.62 138.381 164.453C136.781 165.895 135.13 167.234 133.479 168.418C131.828 169.603 130.176 170.684 128.37 171.302C126.564 171.868 124.81 172.074 123.159 172.332C121.508 172.589 120.011 172.847 118.67 173.31C117.328 173.774 116.193 174.289 115.264 174.907C114.335 175.525 113.716 176.297 113.355 176.967C112.994 177.636 112.89 178.254 112.839 178.666C112.89 178.254 112.942 177.636 113.303 176.915C113.664 176.194 114.284 175.422 115.212 174.804C116.141 174.134 117.328 173.568 118.67 173.104C120.011 172.641 121.559 172.383 123.21 172.126C124.862 171.868 126.616 171.662 128.37 171.044C130.125 170.427 131.776 169.345 133.376 168.161C135.027 166.976 136.626 165.637 138.226 164.195C141.425 161.363 144.366 158.479 146.895 155.698C148.185 154.359 149.526 153.175 150.816 152.145C152.106 151.115 153.396 150.239 154.635 149.518C157.06 148.076 159.279 147.304 160.827 147.046C161.601 146.84 162.22 146.84 162.633 146.789C162.839 146.789 162.994 146.789 163.097 146.737C163.2 146.789 163.252 146.789 163.252 146.789Z" fill="#455A64"/>
<path d="M114.284 175.164C114.284 175.164 114.18 174.958 114.026 174.495C113.922 174.289 113.922 174.031 113.819 173.671C113.768 173.362 113.716 173.001 113.664 172.589C113.561 171.765 113.561 170.839 113.561 169.757C113.613 168.676 113.664 167.543 113.871 166.307C114.18 163.886 114.8 161.723 115.419 160.23C115.574 159.869 115.728 159.509 115.883 159.251C116.038 158.994 116.193 158.737 116.296 158.531C116.554 158.17 116.709 157.964 116.76 157.964C116.76 157.964 116.657 158.17 116.399 158.582C116.296 158.788 116.193 159.045 116.038 159.303C115.883 159.56 115.78 159.921 115.625 160.281C115.058 161.775 114.49 163.938 114.18 166.358C114.026 167.543 113.922 168.727 113.871 169.809C113.871 170.89 113.871 171.817 113.922 172.589C114.026 174.186 114.335 175.113 114.284 175.164Z" fill="#455A64"/>
<path d="M110.568 179.387C110.568 179.387 137.246 186.082 138.329 186.442C139.929 186.957 139.826 192.828 137.297 192.777C136.11 192.777 116.967 193.961 114.542 193.858C112.116 193.755 105.512 191.335 105.512 191.335L109.536 181.808L110.568 179.387Z" fill="#D81E05"/>
<path d="M121.817 189.223C121.972 189.223 122.075 187.833 122.901 186.339C123.726 184.846 124.81 183.97 124.707 183.867C124.655 183.764 123.365 184.537 122.488 186.133C121.662 187.73 121.714 189.223 121.817 189.223Z" fill="#263238"/>
<path d="M119.031 188.039C119.186 188.039 119.392 186.803 120.063 185.412C120.734 184.022 121.559 183.043 121.456 182.94C121.404 182.838 120.372 183.764 119.65 185.206C118.979 186.7 118.928 188.039 119.031 188.039Z" fill="#263238"/>
<path d="M116.399 187.369C116.554 187.369 116.399 186.03 116.967 184.537C117.483 183.044 118.463 182.117 118.36 182.014C118.308 181.911 117.122 182.735 116.554 184.382C115.986 186.03 116.296 187.421 116.399 187.369Z" fill="#263238"/>
<path d="M116.812 183.97C116.864 183.97 117.07 183.249 117.07 182.014C117.07 181.396 116.967 180.675 116.76 179.851C116.657 179.439 116.502 179.027 116.348 178.615C116.244 178.409 116.141 178.151 115.883 177.997C115.625 177.791 115.161 177.842 114.954 178.048C114.696 178.254 114.645 178.563 114.593 178.821C114.593 179.078 114.542 179.284 114.593 179.542C114.593 180.005 114.696 180.417 114.8 180.829C115.006 181.653 115.367 182.323 115.677 182.838C116.296 183.919 116.864 184.434 116.915 184.382C116.967 184.331 116.502 183.713 115.986 182.683C115.728 182.168 115.419 181.499 115.264 180.726C115.161 180.366 115.109 179.954 115.109 179.542C115.109 179.13 115.109 178.615 115.316 178.409C115.419 178.306 115.574 178.306 115.677 178.357C115.78 178.46 115.883 178.615 115.986 178.821C116.141 179.233 116.296 179.593 116.399 179.954C116.606 180.726 116.76 181.396 116.812 182.014C116.864 183.198 116.76 183.97 116.812 183.97Z" fill="#263238"/>
<path d="M116.76 183.713C116.76 183.661 116.141 183.455 115.058 183.455C114.542 183.455 113.871 183.558 113.2 183.713C112.839 183.816 112.478 183.919 112.116 184.125C111.755 184.331 111.394 184.846 111.549 185.361C111.652 185.876 112.116 186.185 112.529 186.288C112.942 186.391 113.355 186.339 113.716 186.236C114.438 186.03 115.006 185.67 115.419 185.361C116.244 184.691 116.657 184.176 116.606 184.125C116.554 184.073 116.09 184.537 115.212 185.103C114.8 185.412 114.232 185.721 113.613 185.824C113.303 185.876 112.942 185.927 112.632 185.824C112.323 185.721 112.065 185.515 111.962 185.206C111.858 184.897 112.065 184.64 112.323 184.434C112.581 184.228 112.942 184.125 113.252 184.022C113.922 183.816 114.49 183.713 115.006 183.661C116.09 183.661 116.76 183.764 116.76 183.713Z" fill="#263238"/>
<path d="M125.894 189.429C126.048 189.429 125.894 188.296 126.358 187.009C126.822 185.773 127.7 185 127.596 184.897C127.545 184.794 126.461 185.464 125.945 186.854C125.429 188.245 125.79 189.481 125.894 189.429Z" fill="#263238"/>
<path d="M107.421 191.026C107.421 191.077 107.782 191.232 108.453 191.489C109.124 191.747 110.156 192.056 111.446 192.313C113.974 192.88 117.638 193.189 121.559 193.034C125.532 192.88 129.093 192.622 131.673 192.468C132.911 192.365 133.943 192.313 134.717 192.21C135.44 192.159 135.852 192.107 135.852 192.056C135.852 192.004 135.44 192.004 134.717 192.004C133.892 192.004 132.86 192.056 131.621 192.107C128.938 192.21 125.378 192.365 121.508 192.519C117.534 192.674 113.974 192.416 111.446 191.953C108.969 191.592 107.472 190.974 107.421 191.026Z" fill="#263238"/>
<path d="M106.647 191.644C106.698 191.695 107.421 191.283 108.608 190.717C109.794 190.15 111.6 189.532 113.613 189.79C115.625 190.047 117.07 191.335 117.999 192.262C118.928 193.189 119.495 193.807 119.547 193.807C119.598 193.755 119.134 193.086 118.205 192.056C117.741 191.541 117.173 190.974 116.399 190.459C115.677 189.944 114.696 189.481 113.613 189.378C111.446 189.12 109.588 189.841 108.401 190.459C107.266 191.077 106.647 191.644 106.647 191.644Z" fill="#263238"/>
<path d="M133.272 192.21C133.324 192.159 133.066 191.85 132.86 191.232C132.653 190.614 132.447 189.738 132.602 188.76C132.756 187.781 133.221 187.009 133.634 186.494C134.046 185.979 134.356 185.721 134.356 185.67C134.356 185.618 133.943 185.824 133.479 186.339C133.014 186.803 132.447 187.678 132.292 188.708C132.137 189.738 132.344 190.717 132.653 191.335C132.911 191.953 133.221 192.21 133.272 192.21Z" fill="#263238"/>
<path d="M173.262 168.573C173.262 168.573 173.211 168.676 173.004 168.933C172.85 169.191 172.592 169.5 172.282 169.912C171.972 170.324 171.611 170.89 171.147 171.456C170.682 172.023 170.115 172.692 169.496 173.465C168.876 174.186 168.154 174.958 167.38 175.782C166.606 176.606 165.729 177.379 164.8 178.254C162.891 179.902 160.724 181.705 158.298 183.25C155.822 184.846 153.396 186.185 151.074 187.215C148.752 188.245 146.585 189.017 144.779 189.532C143.85 189.79 143.025 189.996 142.251 190.15C141.477 190.305 140.858 190.408 140.342 190.459C139.826 190.511 139.413 190.562 139.103 190.614C138.845 190.665 138.69 190.665 138.69 190.665C138.69 190.665 138.845 190.614 139.103 190.562C139.413 190.511 139.826 190.459 140.342 190.408C140.858 190.305 141.528 190.202 142.251 190.047C142.973 189.841 143.85 189.687 144.728 189.378C146.585 188.863 148.701 188.039 150.971 187.009C153.242 185.979 155.718 184.64 158.144 183.043C160.569 181.447 162.736 179.696 164.645 178.1C165.574 177.224 166.451 176.452 167.225 175.628C167.999 174.804 168.722 174.083 169.341 173.362C169.96 172.641 170.528 171.971 170.992 171.405C171.456 170.839 171.869 170.272 172.179 169.86C172.488 169.448 172.746 169.139 172.953 168.882C173.159 168.727 173.262 168.573 173.262 168.573Z" fill="#455A64"/>
<path d="M105.202 176.091C105.15 176.091 104.738 175.473 104.015 174.443C103.293 173.413 102.158 172.074 100.816 170.684C99.4228 169.345 98.0812 168.212 97.0492 167.491C96.0172 166.77 95.3464 166.307 95.398 166.307C95.398 166.307 95.6044 166.358 95.914 166.564C96.2236 166.719 96.688 167.028 97.204 167.388C98.2876 168.109 99.6808 169.191 101.022 170.581C102.416 171.971 103.499 173.362 104.222 174.392C104.583 174.907 104.841 175.37 105.047 175.679C105.15 175.937 105.202 176.091 105.202 176.091Z" fill="#455A64"/>
<path d="M137.4 161.363C137.4 161.414 136.833 161.775 135.904 162.496C134.975 163.217 133.788 164.247 132.602 165.586C131.466 166.925 130.589 168.264 130.022 169.242C129.454 170.221 129.144 170.89 129.093 170.89C129.093 170.89 129.144 170.736 129.248 170.427C129.351 170.118 129.557 169.706 129.815 169.191C130.331 168.161 131.208 166.77 132.395 165.431C133.582 164.092 134.82 163.062 135.749 162.393C136.214 162.032 136.626 161.826 136.884 161.672C137.246 161.466 137.4 161.363 137.4 161.363Z" fill="#455A64"/>
<path d="M144.16 153.226C151.332 147.458 164.903 144.729 164.903 144.729C164.903 144.729 164.129 118.517 162.117 106.466C162.065 106.157 162.014 105.9 161.962 105.591C160.104 96.3211 151.848 90.7078 142.457 89.4203L136.11 88.5449L117.328 89.2144L105.873 92.6647C105.873 92.6647 92.302 95.7031 90.238 114.706C88.174 133.348 85.7488 148.746 86.11 154.256C86.368 158.119 89.98 160.899 91.9408 161.363C93.7468 161.775 96.0172 162.135 97.978 161.002C97.3072 162.238 96.8428 163.474 96.7396 164.607H108.195L117.173 156.728L125.378 162.599L136.368 157.964L143.954 152.814M104.944 152.454V152.402C106.234 146.068 106.389 144.214 106.389 144.214C106.389 144.214 99.6292 143.339 100.713 134.378L101.745 126.602L108.504 149.209C108.504 149.261 106.956 150.497 104.944 152.454Z" fill="#D81E05"/>
<g opacity="0.2">
<path d="M128.783 143.751L130.899 138.446C128.577 137.468 127.751 137.416 125.223 137.107C118.515 136.283 111.549 138.137 106.079 142.103L107.472 146.068H107.524C108.401 146.377 109.846 146.326 110.672 146.12C111.549 145.914 112.478 145.656 113.355 145.914C114.49 146.223 115.316 147.201 116.348 147.767C118.412 148.952 121.404 148.076 122.54 146.017C123.004 145.141 123.468 143.905 124.449 143.957C124.965 143.957 125.326 144.317 125.739 144.626C126.926 145.656 128.112 146.686 129.299 147.767C130.744 149.003 132.137 150.291 133.685 151.424C135.491 152.763 137.555 153.947 139.774 153.844C141.993 153.793 142.096 151.63 142.096 151.63L128.783 143.751Z" fill="black"/>
</g>
<path d="M116.399 88.6479L116.09 94.0551C115.986 95.9091 116.244 97.8145 116.915 99.5139L123.52 116.714C123.52 116.714 122.488 106.672 126.771 102.964C131.002 99.2564 136.368 99.6169 136.42 93.9007C136.42 92.9222 136.42 86.6909 136.42 86.6909L127.287 84.8885L116.399 88.6479Z" fill="#FFBE9D"/>
<path d="M150.197 91.4288C150.197 91.4288 150.094 91.4803 149.836 91.6348C149.578 91.7377 149.268 91.9437 148.856 92.2012C148.03 92.7162 146.998 93.6947 146.069 95.1881C145.14 96.6815 144.366 98.6385 144.263 100.956C144.212 102.089 144.315 103.325 144.418 104.561C144.521 105.797 144.676 107.136 144.779 108.423C145.295 113.727 145.914 118.568 146.379 122.019C146.585 123.769 146.792 125.16 146.946 126.138C146.998 126.602 147.05 126.962 147.101 127.271C147.153 127.529 147.153 127.683 147.153 127.683C147.153 127.683 147.101 127.529 147.05 127.323C146.998 127.065 146.946 126.705 146.843 126.19C146.688 125.211 146.43 123.821 146.172 122.07C145.656 118.62 145.037 113.779 144.521 108.475C144.366 107.136 144.263 105.848 144.16 104.612C144.057 103.376 143.954 102.14 144.005 100.956C144.16 98.6385 144.986 96.5786 145.914 95.1366C146.895 93.6432 147.978 92.7162 148.804 92.2012C149.217 91.9437 149.578 91.7892 149.836 91.6862C150.094 91.4803 150.197 91.4288 150.197 91.4288Z" fill="#263238"/>
<path d="M147.772 154.565C147.772 154.565 147.72 154.565 147.669 154.514C147.566 154.462 147.514 154.462 147.359 154.411C147.101 154.308 146.74 154.153 146.224 153.896C145.244 153.432 143.85 152.711 142.148 151.733C138.742 149.827 133.995 147.098 128.68 143.905L128.577 143.854L128.628 143.751C129.248 142.257 129.867 140.712 130.538 139.167C131.208 137.571 131.828 136.026 132.395 134.532C132.705 133.76 132.963 133.039 133.221 132.318C133.376 131.958 133.479 131.597 133.582 131.237C133.634 131.082 133.685 130.876 133.737 130.722C133.737 130.619 133.788 130.567 133.788 130.464C133.788 130.413 133.788 130.361 133.788 130.361V130.31C133.788 130.31 133.788 130.361 133.84 130.361L133.943 130.104C136.265 131.134 138.278 132.215 140.135 133.245C141.941 134.275 143.541 135.15 144.882 135.871C146.224 136.592 147.308 137.107 148.03 137.468C148.391 137.622 148.649 137.777 148.856 137.88C149.062 137.983 149.165 138.034 149.165 138.034C149.165 138.034 149.062 137.983 148.856 137.931C148.649 137.828 148.34 137.725 147.978 137.571C147.204 137.21 146.121 136.695 144.779 136.026C143.438 135.356 141.838 134.429 139.98 133.451C138.174 132.473 136.11 131.391 133.788 130.361L133.892 130.104C133.943 130.104 133.995 130.155 133.995 130.207V130.258C133.995 130.31 133.995 130.31 133.995 130.361C133.995 130.413 133.995 130.464 133.995 130.516C133.995 130.619 133.943 130.722 133.943 130.825C133.892 131.031 133.84 131.185 133.788 131.391C133.685 131.752 133.53 132.112 133.427 132.473C133.169 133.194 132.911 133.966 132.602 134.687C132.034 136.18 131.415 137.725 130.744 139.322C130.073 140.867 129.454 142.412 128.835 143.905L128.783 143.751C134.098 146.995 138.794 149.724 142.199 151.681C143.902 152.66 145.244 153.381 146.224 153.896C146.688 154.153 147.05 154.308 147.308 154.462C147.411 154.514 147.514 154.565 147.566 154.617C147.772 154.514 147.772 154.565 147.772 154.565Z" fill="#263238"/>
<path d="M101.538 126.602C101.538 126.602 101.435 126.344 101.332 125.881C101.229 125.417 101.126 124.696 100.971 123.821C100.713 122.07 100.455 119.65 100.352 116.972C100.3 114.294 100.403 111.873 100.558 110.122C100.661 109.247 100.713 108.526 100.816 108.063C100.868 107.599 100.919 107.29 100.971 107.29C100.971 107.29 100.971 107.548 100.919 108.063C100.868 108.526 100.816 109.247 100.764 110.122C100.661 111.873 100.558 114.294 100.61 116.972C100.713 119.65 100.919 122.07 101.126 123.769C101.229 124.645 101.332 125.366 101.384 125.829C101.538 126.344 101.59 126.602 101.538 126.602Z" fill="#263238"/>
<path d="M100.455 130.928C100.455 130.928 100.3 131.185 99.9904 131.597C99.6292 132.061 99.1648 132.627 98.5972 133.297C97.4104 134.79 95.7592 136.747 94.0048 138.91C92.2504 141.073 90.5992 143.081 89.4124 144.523C88.8448 145.193 88.3804 145.759 88.0192 146.223C87.7096 146.634 87.5032 146.84 87.5032 146.84C87.5032 146.84 87.658 146.583 87.9676 146.171C88.2772 145.759 88.7416 145.141 89.3092 144.42C90.4444 142.927 92.044 140.918 93.85 138.755C95.656 136.541 97.3072 134.584 98.5456 133.194C99.1648 132.473 99.6292 131.906 99.9904 131.546C100.248 131.134 100.403 130.928 100.455 130.928Z" fill="#263238"/>
<path d="M105.615 147.613C105.615 147.613 105.615 147.87 105.615 148.282C105.615 148.488 105.563 148.746 105.512 149.055C105.46 149.364 105.408 149.673 105.305 150.033C105.15 150.754 104.892 151.63 104.531 152.557C104.17 153.484 103.654 154.462 103.035 155.441C102.416 156.419 101.745 157.243 101.022 157.964C100.352 158.685 99.6808 159.251 99.0616 159.715C98.752 159.972 98.494 160.127 98.236 160.281C97.978 160.436 97.7716 160.59 97.5652 160.693C97.204 160.899 96.9976 161.002 96.9976 161.002C96.946 160.951 97.7716 160.487 98.9584 159.56C99.526 159.097 100.197 158.479 100.868 157.81C101.538 157.089 102.209 156.265 102.828 155.286C103.448 154.308 103.912 153.381 104.273 152.454C104.634 151.527 104.892 150.703 105.099 149.982C105.512 148.488 105.563 147.613 105.615 147.613Z" fill="#263238"/>
<path d="M137.452 87.9784C137.452 87.9784 137.504 88.0814 137.658 88.3389C137.762 88.5964 137.968 88.9054 138.174 89.3688C138.536 90.2958 139.052 91.6862 139.361 93.4372C139.671 95.1881 139.774 97.351 139.413 99.7199C139.103 102.089 138.278 104.612 136.884 106.981C136.626 107.393 136.368 107.754 136.11 108.166C135.852 108.526 135.543 108.887 135.285 109.247L135.233 109.35L135.13 109.299C133.066 108.063 130.641 108.011 128.732 108.732C127.751 109.093 126.977 109.659 126.306 110.225C125.636 110.792 125.068 111.461 124.707 112.079C123.933 113.367 123.726 114.603 123.623 115.427C123.52 116.251 123.572 116.714 123.52 116.714C123.52 116.714 123.52 116.611 123.52 116.354C123.52 116.148 123.52 115.787 123.52 115.375C123.572 114.551 123.778 113.264 124.552 111.925C124.965 111.255 125.481 110.586 126.152 109.968C126.822 109.35 127.648 108.784 128.628 108.423C130.538 107.702 133.118 107.702 135.233 108.99L135.078 109.041C135.336 108.681 135.594 108.32 135.904 107.96C136.162 107.599 136.42 107.187 136.626 106.827C138.02 104.509 138.845 101.986 139.155 99.6684C139.516 97.351 139.464 95.1881 139.155 93.4372C138.897 91.6862 138.432 90.2958 138.071 89.3688C137.916 88.9054 137.71 88.5449 137.607 88.2874C137.504 88.0814 137.452 87.9784 137.452 87.9784Z" fill="#263238"/>
<path d="M122.436 114.397C122.436 114.397 122.385 114.294 122.282 114.088C122.178 113.882 122.024 113.573 121.869 113.212C121.508 112.44 120.992 111.358 120.321 110.071C119.598 108.784 118.721 107.239 117.431 105.797C116.76 105.127 115.986 104.406 115.006 103.943C114.077 103.479 112.994 103.17 111.858 103.119C111.394 103.119 110.981 103.119 110.568 103.17H110.414V103.016C110.723 100.904 111.291 98.9475 111.858 97.248C112.426 95.4971 113.045 94.0037 113.613 92.7677C114.18 91.5318 114.748 90.5533 115.109 89.9353C115.316 89.6263 115.47 89.3688 115.625 89.2144C115.728 89.0599 115.832 88.9569 115.832 88.9569C115.832 88.9569 115.625 89.3173 115.212 89.9353C114.851 90.6048 114.335 91.5318 113.768 92.8192C113.2 94.0552 112.632 95.6001 112.065 97.2995C111.497 98.999 110.981 100.956 110.672 103.016L110.517 102.861C110.93 102.861 111.394 102.81 111.858 102.81C112.994 102.861 114.129 103.17 115.109 103.685C116.09 104.2 116.864 104.87 117.586 105.591C118.928 107.084 119.805 108.629 120.476 109.968C121.146 111.307 121.611 112.388 121.972 113.161C122.127 113.521 122.23 113.83 122.333 114.036C122.436 114.294 122.436 114.397 122.436 114.397Z" fill="#263238"/>
<g opacity="0.2">
<path d="M123.52 116.354C124.088 114.551 124.81 113.882 125.79 112.955C126.771 112.028 128.112 111.307 129.454 111.41C130.589 111.461 131.673 112.079 132.808 112.079C134.15 112.131 135.388 111.358 136.368 110.483C140.548 106.878 141.89 100.441 139.516 95.4971C139.722 100.389 138.123 105.333 135.027 109.144C132.602 107.754 129.454 107.857 127.132 109.35C124.81 110.843 123.365 113.676 123.52 116.354Z" fill="black"/>
</g>
<path d="M147.05 127.117C147.05 127.117 147.101 127.374 147.204 127.838C147.256 128.353 147.359 129.022 147.462 129.795C147.669 131.443 147.978 133.76 148.288 136.283C148.34 136.747 148.391 137.21 148.443 137.674L148.34 137.571C150.558 138.034 152.313 138.961 153.5 139.785C154.067 140.197 154.532 140.558 154.841 140.815C155.151 141.073 155.254 141.227 155.254 141.227C155.202 141.279 154.583 140.661 153.396 139.94C152.21 139.167 150.455 138.292 148.288 137.88H148.185V137.777C148.133 137.313 148.082 136.85 148.03 136.386C147.72 133.863 147.462 131.546 147.308 129.898C147.204 129.125 147.153 128.456 147.101 127.941C147.05 127.374 147.05 127.117 147.05 127.117Z" fill="#263238"/>
<path d="M130.847 150.445C130.847 150.445 130.744 150.497 130.589 150.548C130.383 150.6 130.125 150.651 129.815 150.754C129.144 150.909 128.164 151.115 126.926 151.269C124.449 151.578 120.992 151.733 117.173 151.218C115.264 150.96 113.51 150.548 111.91 150.085C111.136 149.827 110.362 149.621 109.691 149.312C109.02 149.003 108.453 148.54 108.092 148.025C107.73 147.51 107.524 146.943 107.421 146.48C107.266 146.017 107.214 145.553 107.163 145.244C107.111 144.884 107.111 144.626 107.06 144.42C107.06 144.214 107.06 144.163 107.06 144.163C107.06 144.163 107.111 144.523 107.266 145.244C107.318 145.605 107.421 146.017 107.576 146.48C107.73 146.943 107.937 147.458 108.298 147.973C108.659 148.488 109.175 148.9 109.846 149.158C110.517 149.415 111.291 149.621 112.065 149.879C113.664 150.342 115.419 150.703 117.276 150.96C121.043 151.475 124.5 151.372 126.977 151.115C128.216 150.96 129.196 150.806 129.867 150.703C130.176 150.651 130.434 150.6 130.641 150.548C130.744 150.445 130.847 150.445 130.847 150.445Z" fill="#263238"/>
<path d="M120.114 151.269C120.114 151.321 119.753 151.424 119.237 151.733C118.721 152.042 118.05 152.557 117.586 153.329C117.07 154.102 116.864 154.926 116.812 155.492C116.76 156.11 116.812 156.471 116.76 156.471C116.76 156.471 116.606 156.11 116.606 155.492C116.606 154.874 116.812 153.999 117.328 153.175C117.844 152.351 118.566 151.836 119.134 151.527C119.702 151.269 120.063 151.269 120.114 151.269Z" fill="#263238"/>
<path d="M122.643 116.251C122.643 116.251 122.694 116.354 122.694 116.611C122.746 116.869 122.746 117.229 122.798 117.641C122.901 118.517 123.004 119.856 123.107 121.452C123.314 124.645 123.52 129.125 123.365 134.069C123.314 136.541 123.21 138.858 123.004 141.021C122.849 143.133 122.591 145.09 122.178 146.635C121.766 148.179 121.095 149.364 120.579 150.136C120.321 150.497 120.114 150.754 119.908 150.96C119.753 151.115 119.65 151.218 119.65 151.218C119.65 151.218 119.96 150.857 120.476 150.085C120.94 149.312 121.559 148.179 121.972 146.635C122.385 145.09 122.643 143.184 122.746 141.073C122.901 138.961 123.004 136.592 123.056 134.172C123.159 129.28 123.056 124.799 122.849 121.607C122.746 120.01 122.643 118.723 122.591 117.796C122.54 117.384 122.54 117.023 122.54 116.766C122.643 116.405 122.643 116.251 122.643 116.251Z" fill="#263238"/>
<path d="M99.268 113.47C99.268 113.521 97.3588 113.779 94.9336 113.933C92.56 114.139 90.5992 114.191 90.5992 114.139C90.5992 114.088 92.5084 113.83 94.9336 113.676C97.3072 113.521 99.268 113.418 99.268 113.47Z" fill="white"/>
<path d="M121.611 122.739C121.043 122.842 120.269 122.945 119.289 122.997C118.308 123.1 117.122 123.1 115.832 123.1C114.542 123.048 113.097 122.945 111.6 122.739C110.104 122.533 108.711 122.225 107.421 121.916C106.182 121.555 105.047 121.246 104.118 120.886C103.19 120.525 102.467 120.216 101.951 120.01C101.435 119.753 101.177 119.65 101.177 119.598C101.177 119.598 101.487 119.701 102.003 119.907C102.519 120.113 103.241 120.371 104.17 120.731C105.099 121.04 106.234 121.401 107.472 121.71C108.711 122.019 110.156 122.328 111.6 122.533C113.097 122.739 114.49 122.842 115.832 122.894C117.122 122.945 118.308 122.945 119.289 122.894C120.269 122.842 121.043 122.791 121.611 122.739Z" fill="white"/>
<path d="M144.16 114.86C144.16 114.86 143.902 115.066 143.438 115.324C142.973 115.633 142.251 115.993 141.322 116.457C140.445 116.92 139.31 117.384 138.071 117.847C136.833 118.311 135.44 118.774 133.943 119.135C132.447 119.495 131.002 119.753 129.712 119.959C128.37 120.113 127.184 120.216 126.203 120.268C125.223 120.319 124.397 120.319 123.83 120.268C123.262 120.268 122.952 120.216 122.952 120.216C122.952 120.216 123.262 120.165 123.83 120.165C124.397 120.165 125.223 120.113 126.203 120.062C127.184 120.01 128.37 119.907 129.712 119.701C131.002 119.495 132.447 119.238 133.943 118.877C135.44 118.517 136.833 118.053 138.071 117.641C139.31 117.178 140.393 116.714 141.322 116.302C142.251 115.89 142.973 115.53 143.438 115.272C143.902 115.015 144.16 114.86 144.16 114.86Z" fill="white"/>
<path d="M161.446 104.2C161.446 104.2 161.188 104.252 160.775 104.303C160.311 104.355 159.692 104.406 158.918 104.458C157.37 104.612 155.202 104.973 152.88 105.642C150.558 106.312 148.546 107.136 147.101 107.805C146.379 108.114 145.811 108.423 145.398 108.629C144.986 108.835 144.779 108.938 144.779 108.938C144.779 108.938 144.986 108.784 145.347 108.578C145.708 108.32 146.276 108.011 146.998 107.702C148.391 106.981 150.455 106.106 152.777 105.488C155.099 104.818 157.318 104.509 158.866 104.406C159.64 104.355 160.311 104.303 160.724 104.303C161.188 104.149 161.446 104.149 161.446 104.2Z" fill="white"/>
<path d="M163.768 125.778C163.768 125.778 163.51 125.778 163.097 125.726C162.684 125.675 162.014 125.623 161.291 125.572C159.743 125.469 157.576 125.417 155.254 125.572C152.88 125.726 150.765 126.087 149.268 126.396C148.494 126.55 147.875 126.705 147.462 126.808C147.05 126.911 146.792 126.962 146.792 126.911C146.792 126.911 146.998 126.808 147.411 126.705C147.824 126.55 148.443 126.396 149.217 126.241C150.713 125.881 152.88 125.52 155.254 125.314C157.628 125.16 159.795 125.211 161.343 125.366C162.117 125.417 162.736 125.52 163.149 125.572C163.562 125.726 163.768 125.778 163.768 125.778Z" fill="white"/>
<path d="M147.462 151.321C147.411 151.321 147.669 150.548 147.927 149.364C148.185 148.128 148.443 146.429 148.443 144.523C148.443 142.618 148.133 140.918 147.875 139.682C147.566 138.446 147.308 137.725 147.359 137.725C147.359 137.725 147.462 137.88 147.566 138.24C147.72 138.549 147.875 139.064 148.03 139.682C148.391 140.918 148.701 142.618 148.701 144.575C148.701 146.48 148.443 148.231 148.133 149.467C147.978 150.085 147.824 150.548 147.72 150.909C147.566 151.115 147.514 151.321 147.462 151.321Z" fill="white"/>
<path d="M97.8232 133.4C97.8232 133.451 97.2556 133.451 96.3268 133.503C95.398 133.554 94.1596 133.709 92.7664 133.915C91.3732 134.172 90.1348 134.481 89.2576 134.738C88.3804 134.996 87.8128 135.202 87.8128 135.15C87.8128 135.099 88.3288 134.893 89.206 134.584C90.0832 134.275 91.3216 133.915 92.7148 133.657C94.108 133.4 95.398 133.297 96.3268 133.297C97.2556 133.297 97.8232 133.348 97.8232 133.4Z" fill="white"/>
<path d="M101.435 154.977C101.435 154.977 101.384 154.977 101.229 154.977C101.126 154.977 100.919 154.977 100.661 154.977C100.197 154.926 99.4744 154.823 98.6488 154.565C96.9976 154.102 94.7272 152.814 93.1792 150.6C91.6312 148.385 91.27 145.811 91.4248 144.111C91.4764 143.236 91.6312 142.515 91.786 142.051C91.8376 141.794 91.9408 141.639 91.9924 141.536C92.044 141.433 92.044 141.33 92.0956 141.382C92.1472 141.382 91.7344 142.412 91.6828 144.163C91.5796 145.862 91.9924 148.334 93.4888 150.497C94.9852 152.66 97.1524 153.896 98.8036 154.411C100.352 154.977 101.435 154.926 101.435 154.977Z" fill="white"/>
<path d="M113.148 158.376C113.148 158.428 110.93 157.964 108.246 157.295C105.563 156.625 103.396 156.007 103.396 155.956C103.396 155.904 105.615 156.368 108.298 157.037C111.033 157.707 113.2 158.325 113.148 158.376Z" fill="white"/>
<path d="M140.703 153.329C140.703 153.329 140.496 153.484 140.032 153.69C139.619 153.896 138.948 154.205 138.174 154.565C136.575 155.286 134.356 156.162 131.776 156.883C129.248 157.655 126.874 158.119 125.12 158.428C124.242 158.582 123.572 158.685 123.056 158.737C122.591 158.788 122.282 158.788 122.282 158.788C122.282 158.788 122.54 158.737 123.004 158.634C123.468 158.531 124.191 158.428 125.016 158.273C126.719 157.964 129.041 157.398 131.621 156.677C134.15 155.904 136.42 155.08 138.02 154.411C138.845 154.102 139.464 153.793 139.929 153.638C140.445 153.381 140.703 153.278 140.703 153.329Z" fill="white"/>
<path d="M122.436 138.652C122.436 138.652 122.23 138.755 121.817 138.858C121.404 138.961 120.837 139.116 120.166 139.219C118.773 139.476 116.76 139.734 114.542 139.682C112.323 139.682 110.362 139.425 108.969 139.116C108.246 138.961 107.679 138.858 107.318 138.704C106.905 138.601 106.698 138.549 106.698 138.498C106.698 138.498 106.905 138.498 107.318 138.601C107.73 138.704 108.298 138.807 108.969 138.91C110.362 139.167 112.323 139.373 114.542 139.373C116.709 139.373 118.67 139.167 120.114 138.961C120.837 138.858 121.404 138.755 121.766 138.704C122.178 138.652 122.436 138.601 122.436 138.652Z" fill="white"/>
<path d="M130.538 138.704C130.538 138.755 130.176 138.91 129.609 139.116C128.99 139.322 128.164 139.528 127.184 139.579C126.203 139.631 125.326 139.579 124.707 139.476C124.088 139.373 123.726 139.27 123.726 139.219C123.726 139.116 125.274 139.476 127.184 139.322C129.041 139.167 130.486 138.652 130.538 138.704Z" fill="white"/>
<path d="M112.632 94.4671C112.632 94.5186 111.91 94.5701 110.723 94.7761C109.536 94.9821 107.937 95.2911 106.182 95.8576C104.428 96.4241 102.88 97.042 101.796 97.557C100.713 98.072 100.042 98.4325 100.042 98.381C100.042 98.381 100.197 98.278 100.455 98.072C100.764 97.9175 101.177 97.66 101.693 97.4025C102.777 96.836 104.325 96.1666 106.079 95.6516C107.834 95.0851 109.485 94.7761 110.672 94.6216C111.291 94.5701 111.755 94.5186 112.116 94.4671C112.426 94.4156 112.632 94.4156 112.632 94.4671Z" fill="white"/>
<path d="M116.09 96.4756C116.141 96.4756 115.832 97.866 115.212 99.5139C114.593 101.162 113.922 102.398 113.819 102.398C113.768 102.346 114.335 101.059 114.954 99.4624C115.574 97.8145 116.038 96.4756 116.09 96.4756Z" fill="white"/>
<path d="M132.292 100.286C132.395 100.286 132.034 102.037 131.776 104.149C131.518 106.312 131.518 108.063 131.415 108.063C131.363 108.063 131.363 107.599 131.363 106.93C131.363 106.209 131.415 105.23 131.518 104.149C131.621 103.067 131.828 102.089 131.982 101.419C132.137 100.698 132.24 100.286 132.292 100.286Z" fill="white"/>
<path d="M138.484 100.441C138.381 100.441 138.123 99.5654 137.504 98.587C136.936 97.6085 136.265 96.939 136.317 96.836C136.368 96.7845 137.142 97.4025 137.762 98.4325C138.381 99.4624 138.536 100.441 138.484 100.441Z" fill="white"/>
<path d="M102.054 133.915C102.364 132.215 102.312 130.516 102.003 128.816C101.796 127.838 101.642 126.756 101.745 125.778C101.9 124.748 102.777 123.666 103.809 123.718L105.666 131.031L102.054 133.915Z" fill="#FFBE9D"/>
<path d="M102.003 116.611L108.556 142.463L121.353 141.124L116.451 115.478C116.296 114.809 115.728 114.345 115.006 114.345L103.293 114.86C102.416 114.912 101.796 115.736 102.003 116.611Z" fill="#263238"/>
<path d="M116.709 122.739C116.709 122.739 116.606 122.482 116.502 121.967C116.348 121.401 116.193 120.731 115.986 119.856C115.78 118.98 115.522 117.899 115.264 116.766C115.212 116.611 115.212 116.457 115.161 116.354C115.109 116.251 115.006 116.096 114.903 116.045C114.8 115.942 114.645 115.89 114.542 115.89C114.438 115.839 114.232 115.89 114.077 115.89C113.406 115.89 112.736 115.942 112.065 115.993C109.278 116.096 106.75 116.199 104.944 116.199C104.067 116.199 103.344 116.251 102.777 116.251C102.261 116.251 102.003 116.251 102.003 116.251C102.003 116.251 102.261 116.199 102.777 116.148C103.344 116.096 104.067 116.096 104.944 116.045C106.75 115.942 109.278 115.839 112.065 115.736C112.736 115.736 113.458 115.684 114.077 115.684C114.232 115.684 114.387 115.633 114.593 115.684C114.748 115.736 114.954 115.787 115.058 115.89C115.212 115.993 115.316 116.148 115.367 116.302C115.419 116.457 115.47 116.611 115.47 116.766C115.728 117.95 115.935 118.98 116.141 119.907C116.296 120.783 116.451 121.452 116.606 122.018C116.709 122.43 116.76 122.739 116.709 122.739Z" fill="#455A64"/>
<path d="M109.64 117.332C109.485 117.126 109.227 116.817 108.866 116.972C108.711 116.972 108.453 117.229 108.453 117.487C108.453 117.744 108.608 118.002 108.814 118.105C109.072 118.208 109.33 118.208 109.536 118.002C109.691 117.899 109.743 117.59 109.64 117.332Z" fill="#FAFAFA"/>
<path d="M109.588 125.211C109.278 125.314 102.674 129.074 102.674 129.074L99.268 132.936C99.268 132.936 98.0812 135.15 99.268 138.498C100.455 141.845 102.209 142.927 106.131 143.751L113.458 142.257L118.618 139.064L117.07 133.245L112.013 137.313L109.124 137.828L108.659 136.901L112.787 134.532L119.289 129.074L117.276 126.859L111.291 130.722L106.182 133.245L106.905 131.134L112.839 126.344C112.839 126.344 113.252 124.13 109.588 125.211Z" fill="#FFBE9D"/>
<path d="M110.104 121.607C110.104 121.607 111.497 120.731 113.871 121.607C116.244 122.482 119.34 123.821 119.34 123.821L123.881 124.902L123.314 123.821C123.314 123.821 118.876 124.439 118.979 121.246H121.662L123.933 119.959L128.628 124.181L130.744 129.486L133.634 131.7L130.073 140.712L122.591 139.476L116.193 140.146L112.839 137.674L112.323 134.378L109.02 131.288C109.02 131.288 108.556 129.692 110.001 129.486C111.446 129.28 115.109 132.576 115.109 132.576L118.618 132.524C118.618 132.524 119.186 131.958 118.67 131.649C118.154 131.34 107.576 126.705 107.06 125.572C106.544 124.439 106.028 123.718 107.06 123.357C108.092 122.997 109.794 123.512 109.794 123.512C109.794 123.512 109.33 121.916 110.104 121.607Z" fill="#FFBE9D"/>
<path d="M118.979 127.632C118.928 127.683 116.812 126.808 114.284 125.675C111.704 124.542 109.64 123.563 109.691 123.46C109.743 123.409 111.858 124.284 114.387 125.417C116.915 126.55 118.979 127.529 118.979 127.632Z" fill="#EB996E"/>
<path d="M121.404 135.768C121.404 135.768 121.25 135.871 120.888 135.974C120.527 136.077 120.063 136.232 119.444 136.386C118.824 136.541 118.05 136.644 117.225 136.644C116.348 136.644 115.419 136.438 114.542 136.026C112.736 135.202 111.497 133.863 110.672 132.885C110.259 132.421 109.949 132.009 109.743 131.7C109.536 131.391 109.433 131.237 109.433 131.237C109.485 131.185 110.001 131.803 110.826 132.73C111.704 133.657 112.942 134.944 114.645 135.768C115.522 136.18 116.399 136.386 117.225 136.386C118.05 136.386 118.824 136.283 119.444 136.18C120.63 135.974 121.404 135.768 121.404 135.768Z" fill="#EB996E"/>
<path d="M133.634 131.649C133.634 131.649 133.582 131.597 133.427 131.494C133.272 131.391 133.118 131.237 132.86 131.082C132.344 130.722 131.621 130.155 130.692 129.434C130.125 128.044 129.402 126.293 128.577 124.13V124.181C127.184 122.945 125.584 121.555 123.83 120.01H123.933C123.21 120.422 122.488 120.834 121.662 121.298H121.611C120.785 121.298 119.856 121.298 118.928 121.298L119.031 121.195C119.082 121.658 119.082 122.121 119.34 122.482C119.598 122.842 119.96 123.151 120.372 123.357C121.25 123.718 122.282 123.769 123.262 123.666H123.365L123.417 123.718C123.572 124.027 123.778 124.439 123.984 124.799L124.088 125.057L123.83 125.005C122.385 124.645 120.837 124.284 119.289 123.924C117.896 123.306 116.399 122.688 114.903 122.122C114.129 121.813 113.355 121.504 112.581 121.401C111.807 121.298 110.93 121.349 110.207 121.71C109.949 121.813 109.898 122.122 109.898 122.43C109.898 122.739 110.001 123.1 110.104 123.409L110.156 123.666L109.898 123.615C109.382 123.46 108.866 123.409 108.35 123.357C107.834 123.357 107.266 123.357 106.905 123.666C106.698 123.821 106.698 124.027 106.75 124.284C106.802 124.542 106.956 124.799 107.06 125.005C107.214 125.263 107.266 125.52 107.421 125.675C107.627 125.829 107.834 126.035 108.092 126.138C110.001 127.323 112.013 128.25 113.974 129.228C114.954 129.692 115.935 130.155 116.915 130.619C117.38 130.825 117.896 131.082 118.36 131.288L118.721 131.443C118.824 131.494 118.979 131.597 119.082 131.752C119.186 131.906 119.134 132.112 119.082 132.215C119.031 132.37 118.928 132.473 118.824 132.576L118.773 132.627H118.721C117.534 132.627 116.348 132.679 115.212 132.679H115.161L115.109 132.627C114.026 131.649 112.89 130.722 111.652 130.052C111.033 129.743 110.362 129.383 109.794 129.64C109.485 129.743 109.278 130.001 109.227 130.31C109.124 130.619 109.175 130.928 109.227 131.237L109.175 131.185C110.31 132.267 111.446 133.297 112.478 134.275L112.529 134.327V134.378C112.684 135.511 112.89 136.592 113.045 137.674L112.994 137.622C114.18 138.498 115.264 139.322 116.348 140.094H116.296C118.773 139.837 120.888 139.631 122.694 139.476C125.068 139.888 126.977 140.197 128.267 140.403C128.886 140.506 129.351 140.609 129.712 140.661C129.867 140.712 129.97 140.712 130.073 140.712C130.176 140.712 130.176 140.764 130.176 140.764C130.176 140.764 130.125 140.764 130.073 140.764C129.97 140.764 129.867 140.712 129.712 140.712C129.351 140.661 128.886 140.609 128.267 140.506C126.977 140.3 125.12 139.991 122.694 139.631C120.888 139.837 118.773 140.043 116.296 140.3H116.244H116.193C115.161 139.528 114.026 138.704 112.839 137.828H112.787V137.777C112.632 136.695 112.478 135.614 112.271 134.481L112.323 134.532C111.291 133.554 110.156 132.524 109.02 131.443V131.391C108.917 131.031 108.917 130.67 109.02 130.31C109.072 130.155 109.175 129.949 109.278 129.795C109.433 129.64 109.588 129.537 109.743 129.486C110.104 129.331 110.517 129.383 110.826 129.486C111.188 129.589 111.497 129.743 111.807 129.949C113.045 130.67 114.18 131.546 115.316 132.576L115.212 132.524C116.348 132.524 117.534 132.473 118.721 132.473L118.618 132.524C118.773 132.37 118.928 132.112 118.824 131.958C118.773 131.803 118.463 131.752 118.205 131.597C117.741 131.391 117.225 131.134 116.76 130.928C115.78 130.464 114.8 130.001 113.819 129.537C111.858 128.61 109.846 127.632 107.885 126.447C107.627 126.293 107.421 126.138 107.214 125.932C107.111 125.829 107.008 125.675 106.956 125.572L106.802 125.211C106.698 124.954 106.544 124.696 106.492 124.439C106.44 124.284 106.44 124.13 106.44 123.975C106.44 123.821 106.595 123.666 106.698 123.563C107.214 123.203 107.834 123.203 108.35 123.203C108.917 123.254 109.433 123.357 109.949 123.46L109.794 123.615C109.691 123.254 109.588 122.894 109.588 122.533C109.588 122.327 109.588 122.173 109.691 121.967C109.743 121.761 109.898 121.607 110.104 121.555C110.93 121.143 111.807 121.092 112.632 121.195C113.51 121.298 114.284 121.658 115.006 121.916C116.554 122.482 117.999 123.1 119.444 123.718C121.043 124.078 122.591 124.49 123.984 124.799L123.83 124.954C123.623 124.593 123.417 124.181 123.262 123.872L123.365 123.924C122.333 124.027 121.301 123.975 120.372 123.563C119.908 123.357 119.495 123.048 119.237 122.585C118.928 122.173 118.928 121.658 118.876 121.195V121.092H118.979C119.908 121.092 120.837 121.092 121.662 121.092H121.611C122.385 120.628 123.159 120.216 123.881 119.804L123.933 119.753L123.984 119.804C125.739 121.349 127.287 122.791 128.68 124.027C129.506 126.138 130.228 127.941 130.744 129.331C131.673 130.052 132.395 130.619 132.911 130.979C133.169 131.185 133.324 131.288 133.479 131.391C133.582 131.597 133.634 131.649 133.634 131.649Z" fill="#EB996E"/>
</svg>
