<svg width="121" height="74" viewBox="0 0 121 74" fill="none" xmlns="http://www.w3.org/2000/svg">
<path d="M26.1451 66.1825C29.7822 63.1778 30.2566 58.0991 29.7558 53.632C29.6768 52.8875 29.6768 52.0898 29.2814 51.4516C28.8597 50.8134 27.99 50.4412 27.3574 50.8134C26.8303 51.1325 26.6195 51.7973 26.3559 52.3557C25.9869 53.1002 25.4335 53.7383 24.7219 54.1904C24.2738 54.4829 23.694 54.669 23.1932 54.4563C22.508 54.1638 22.3762 53.2597 22.3235 52.5152C22.218 51.1325 22.1126 49.7498 22.0072 48.3406C21.9545 47.596 21.9018 46.8249 21.6119 46.1602C21.3219 45.4688 20.7421 44.8573 20.0305 44.7243C19.2925 44.5914 18.4491 45.07 18.3701 45.8145C18.3437 46.1336 18.4228 46.4261 18.4228 46.7452C18.4228 47.0642 18.3174 47.4099 18.0275 47.5163C17.7375 47.6226 17.4213 47.4365 17.1841 47.2504C16.3407 46.559 15.7608 45.6284 15.181 44.7243C14.6012 43.7937 14.0477 42.863 13.2834 42.0919C12.5191 41.3208 11.4912 40.7624 10.4106 40.789C9.33 40.8156 8.24941 41.5601 8.06492 42.6503C7.88042 43.7139 8.59203 44.7243 9.33 45.522C10.4369 46.692 11.702 47.729 13.0725 48.5267C13.3097 48.6862 13.5997 48.8458 13.7051 49.1117C13.9159 49.5903 13.4679 50.1221 12.9935 50.3348C12.44 50.5741 11.8338 50.5475 11.254 50.6805C10.6742 50.7868 10.068 51.1059 9.88347 51.6643C9.64627 52.462 10.3315 53.2065 11.0168 53.6586C12.3609 54.5892 13.8632 55.3071 15.4446 55.7326C15.998 55.8921 16.6042 56.0251 17.0786 56.3707C17.553 56.7164 17.8693 57.3546 17.6585 57.913C17.4213 58.4714 16.7624 58.6841 16.1825 58.6309C15.6027 58.5777 15.0492 58.3118 14.4958 58.1523C13.4415 57.8598 12.1237 58.0193 11.5175 58.9766C11.1222 59.5881 11.1486 60.4124 11.4385 61.0772C11.702 61.7419 12.2028 62.3003 12.7299 62.8321C14.5221 64.6137 16.7624 65.9963 19.2135 66.6079C21.6382 67.1929 23.8521 67.2461 26.1451 66.1825Z" fill="#B1B1B1"/>
<path d="M26.4877 69.5061C26.1714 67.7512 25.618 65.6772 24.7746 63.4702C23.9312 61.2632 22.7979 58.9233 21.5328 56.5036C21.2165 55.8921 20.9003 55.3071 20.584 54.7221C20.2677 54.1371 19.9514 53.5521 19.6352 53.0203C18.9763 51.9301 18.2383 50.9197 17.5267 49.9891C16.8151 49.0584 16.0771 48.2075 15.4182 47.4098C14.733 46.6121 14.1004 45.8676 13.4679 45.2295C12.2292 43.9531 11.1222 43.0225 10.3315 42.4109C9.93619 42.1184 9.61992 41.8791 9.40908 41.7462C9.30365 41.6664 9.22458 41.6132 9.17187 41.5866C9.22458 41.6398 9.30365 41.693 9.40908 41.7728C9.61992 41.9323 9.93619 42.145 10.3315 42.4641C11.1222 43.0757 12.2292 44.0063 13.4415 45.2826C14.0477 45.9208 14.7066 46.6653 15.3655 47.463C16.0508 48.2607 16.7624 49.1116 17.474 50.0688C18.1856 50.9995 18.9236 52.0099 19.5825 53.1001C19.9251 53.6585 20.215 54.2169 20.5313 54.8019C20.8475 55.3868 21.1638 55.9718 21.4801 56.5834C22.7452 59.0031 23.8785 61.343 24.7219 63.5234C25.5653 65.7304 26.1451 67.7778 26.4614 69.5327" fill="#E0E0E0"/>
<path d="M19.5825 53.0205C19.5825 53.0205 19.6088 52.9141 19.6352 52.7014C19.6615 52.4887 19.6879 52.1962 19.6879 51.8239C19.7406 51.0794 19.7669 50.0424 19.7933 48.899C19.8197 47.7557 19.8724 46.7187 19.9251 45.9741C19.9514 45.6019 19.9778 45.3094 20.0042 45.0967C20.0305 44.884 20.0305 44.7776 20.0305 44.7776C20.0305 44.7776 20.0042 44.884 19.9778 45.0967C19.9514 45.3094 19.8987 45.6019 19.8724 45.9741C19.7933 46.7187 19.7406 47.7557 19.7142 48.899C19.6879 50.0424 19.6615 51.0528 19.6615 51.8239C19.6615 52.1962 19.6352 52.4887 19.6352 52.7014C19.5825 52.8875 19.5825 53.0205 19.5825 53.0205Z" fill="#E0E0E0"/>
<path d="M9.83075 52.0099C9.83075 52.0099 9.85711 52.0099 9.93617 52.0099C10.0152 52.0099 10.1207 52.0099 10.2261 52.0099C10.4633 52.0099 10.8323 52.0099 11.2803 52.0099C12.1764 52.0365 13.3888 52.0897 14.7329 52.2493C16.0771 52.3822 17.2895 52.5683 18.1856 52.7279C18.6336 52.8076 18.9763 52.8874 19.2135 52.914C19.3189 52.9406 19.4243 52.9406 19.5034 52.9672C19.5561 52.9672 19.6088 52.9938 19.6088 52.9672C19.6088 52.9672 19.5824 52.9406 19.5034 52.9406C19.4243 52.914 19.3452 52.8874 19.2135 52.8608C18.9763 52.8076 18.6336 52.7279 18.1856 52.6215C17.3158 52.4354 16.1035 52.2493 14.7329 52.1163C13.3888 51.9834 12.1501 51.9302 11.254 51.9302C10.8059 51.9302 10.4369 51.9302 10.1997 51.9568C10.0943 51.9568 9.98888 51.9834 9.90982 51.9834C9.85711 52.0099 9.83075 52.0099 9.83075 52.0099Z" fill="#E0E0E0"/>
<path d="M24.6428 63.3107C24.6428 63.3107 24.6691 63.2575 24.6955 63.1777C24.7219 63.0713 24.7746 62.965 24.8273 62.8054C24.9327 62.4864 25.0908 62.0343 25.2753 61.4759C25.6443 60.3326 26.1187 58.7638 26.6195 57.0088C27.1202 55.2539 27.5683 53.6585 27.9109 52.5151C28.0954 51.9567 28.2272 51.5047 28.3326 51.159C28.3853 50.9995 28.4117 50.8931 28.438 50.7868C28.4644 50.707 28.4644 50.6538 28.4644 50.6538C28.4644 50.6538 28.438 50.707 28.4117 50.7868C28.3853 50.8931 28.3326 50.9995 28.2799 51.159C28.1745 51.4781 28.0163 51.9301 27.8318 52.4885C27.4629 53.6319 26.9885 55.2007 26.4877 56.9556C25.9869 58.7106 25.5389 60.306 25.1963 61.4494C25.0118 62.0077 24.88 62.4598 24.7746 62.8054C24.7219 62.965 24.6955 63.0713 24.6691 63.1777C24.6428 63.2575 24.6164 63.3107 24.6428 63.3107Z" fill="#E0E0E0"/>
<path d="M11.5175 60.2529C11.5175 60.2529 11.5703 60.2795 11.6493 60.2795C11.7548 60.3061 11.8865 60.3327 12.0183 60.3593C12.3609 60.4391 12.8353 60.5454 13.4152 60.6784C14.6012 60.9443 16.2353 61.3431 18.0275 61.7951C19.8197 62.2472 21.4801 62.6194 22.6661 62.8853C23.2723 63.0183 23.7467 63.1247 24.0893 63.1778C24.2475 63.2044 24.3792 63.231 24.4847 63.2576C24.5637 63.2842 24.6164 63.2842 24.6164 63.2842C24.6164 63.2842 24.5637 63.2576 24.4847 63.2576C24.3792 63.231 24.2475 63.2044 24.1157 63.1778C23.773 63.0981 23.2986 62.9917 22.7188 62.8587C21.5328 62.5928 19.8987 62.194 18.1065 61.742C16.3143 61.2899 14.6539 60.9177 13.4679 60.6518C12.8617 60.5188 12.3873 60.4125 12.0447 60.3593C11.8865 60.3327 11.7548 60.3061 11.6493 60.2795C11.5703 60.2529 11.5175 60.2529 11.5175 60.2529Z" fill="#E0E0E0"/>
<path d="M116.23 41.959C116.23 41.959 114.991 40.7359 112.592 43.8203C110.194 46.9048 109.14 48.7395 109.14 48.7395C109.14 48.7395 108.534 49.3776 108.138 48.7926C107.743 48.2343 107.321 46.7452 106.452 46.825C105.529 46.9048 105.055 47.8088 104.949 49.2713C104.844 50.7337 104.449 53.9245 104.422 54.217C104.396 54.5095 104.159 54.8818 103.816 54.5361C103.473 54.1904 101.76 51.2655 100.442 52.1696C99.1246 53.0736 99.4409 57.1951 99.4672 57.6471C99.4936 58.0992 99.3882 58.2587 99.151 58.3385C98.9401 58.3916 98.4394 57.3546 97.9122 56.5569C97.3851 55.7326 96.6471 54.8818 95.9092 55.4933C95.1976 56.0783 94.4333 58.9766 96.2518 64.268L97.2533 66.6611L99.8362 67.0334C105.397 67.4854 107.98 66.023 108.349 65.1721C108.745 64.3212 107.717 63.7894 106.821 63.4969C105.898 63.1778 104.791 62.9651 104.791 62.7524C104.791 62.5131 104.923 62.3536 105.371 62.2738C105.819 62.194 109.851 61.4761 110.379 59.9605C110.906 58.4448 107.664 57.4876 107.269 57.2483C106.847 57.009 107.163 56.6899 107.427 56.5835C107.69 56.4772 110.668 55.3072 112.039 54.8286C113.41 54.35 114.174 53.6586 114.016 52.7546C113.858 51.8771 112.355 51.8505 111.723 51.6112C111.09 51.3719 111.538 50.6274 111.538 50.6274C111.538 50.6274 113.041 49.1383 115.413 46.0273C117.758 42.8897 116.23 41.9856 116.23 41.9856" fill="#B1B1B1"/>
<path d="M114.068 44.7244C114.068 44.7244 114.068 44.751 114.016 44.8041C113.989 44.8573 113.937 44.9105 113.884 44.9903C113.752 45.1498 113.594 45.4157 113.357 45.7082C112.909 46.3464 112.224 47.2238 111.38 48.3406C109.72 50.5476 107.374 53.5788 104.765 56.9292C102.182 60.2795 99.8362 63.2842 98.1231 65.4912C97.2797 66.5814 96.5944 67.4588 96.12 68.097C95.8828 68.3895 95.6983 68.6288 95.5666 68.8149C95.5139 68.8947 95.4611 68.9479 95.4084 69.001C95.3821 69.0542 95.3557 69.0542 95.3557 69.0542C95.3557 69.0542 95.3557 69.0276 95.4084 68.9745C95.4348 68.9213 95.4875 68.8681 95.5402 68.7883C95.672 68.6288 95.8301 68.3629 96.0673 68.0704C96.5154 67.4322 97.2006 66.5548 98.044 65.438C99.7044 63.231 102.05 60.1998 104.659 56.8494C107.242 53.4991 109.588 50.4944 111.301 48.2874C112.144 47.1972 112.83 46.3198 113.304 45.6816C113.541 45.3891 113.726 45.1498 113.858 44.9637C113.91 44.8839 113.963 44.8307 114.016 44.7775C114.042 44.7244 114.068 44.7244 114.068 44.7244Z" fill="#E0E0E0"/>
<path d="M106.926 48.8989C106.952 48.8989 106.979 49.1648 107.031 49.5903C107.058 50.0157 107.11 50.6273 107.137 51.292C107.163 51.9302 107.163 52.5152 107.19 52.9938C107.19 53.4192 107.216 53.6851 107.19 53.6851C107.163 53.6851 107.137 53.4192 107.084 52.9938C107.058 52.5684 107.031 51.9568 107.005 51.292C106.979 50.6539 106.952 50.0955 106.952 49.5903C106.9 49.1914 106.9 48.8989 106.926 48.8989Z" fill="#E0E0E0"/>
<path d="M107.4 53.7917C107.4 53.7651 108.613 53.6321 110.115 53.4992C111.617 53.3662 112.856 53.3131 112.856 53.3397C112.856 53.3662 111.644 53.4992 110.141 53.6321C108.613 53.7385 107.4 53.8183 107.4 53.7917Z" fill="#E0E0E0"/>
<path d="M103.025 58.9234C103.025 58.8968 103.289 58.95 103.737 59.0298C104.159 59.1095 104.765 59.2159 105.424 59.3223C106.083 59.4286 106.689 59.5084 107.11 59.5616C107.532 59.6148 107.822 59.6679 107.822 59.6679C107.822 59.6945 107.558 59.6945 107.11 59.6414C106.662 59.6148 106.056 59.535 105.397 59.4286C104.738 59.3223 104.132 59.1893 103.711 59.083C103.262 59.0032 102.999 58.9234 103.025 58.9234Z" fill="#E0E0E0"/>
<path d="M101.628 54.5894C101.655 54.5894 101.734 54.8287 101.892 55.2009C102.024 55.5732 102.208 56.105 102.419 56.7166C102.604 57.3015 102.788 57.8333 102.893 58.2322C102.999 58.631 103.078 58.8703 103.052 58.8703C103.025 58.8703 102.946 58.631 102.788 58.2588C102.656 57.8865 102.472 57.3547 102.261 56.7431C102.076 56.1582 101.892 55.6264 101.787 55.2275C101.681 54.8553 101.628 54.5894 101.628 54.5894Z" fill="#E0E0E0"/>
<path d="M97.2006 58.6309C97.227 58.6309 97.3324 58.9233 97.5169 59.4286C97.7014 59.9072 97.9386 60.5985 98.2022 61.343C98.4657 62.0876 98.7029 62.7789 98.8611 63.2841C99.0192 63.7893 99.0983 64.0818 99.0983 64.1084C99.0719 64.1084 98.9665 63.8159 98.782 63.3107C98.5975 62.8055 98.3603 62.1407 98.0967 61.3962C97.8332 60.6517 97.596 59.9604 97.4378 59.4552C97.2797 58.9499 97.1743 58.6309 97.2006 58.6309Z" fill="#E0E0E0"/>
<path d="M99.0719 63.9491C99.0719 63.9225 99.4145 63.9756 99.968 64.0554C100.521 64.1352 101.286 64.2681 102.103 64.3745C102.946 64.4809 103.711 64.5606 104.264 64.6404C104.817 64.6936 105.16 64.7468 105.16 64.7733C105.16 64.7999 104.817 64.7999 104.264 64.7468C103.711 64.7202 102.946 64.6404 102.103 64.534C101.259 64.4277 100.495 64.2947 99.968 64.1884C99.4145 64.0554 99.0719 63.9756 99.0719 63.9491Z" fill="#E0E0E0"/>
<path d="M37.3727 52.1963L29.4132 44.1395L33.4193 36.7209C37.4254 31.5624 45.8857 31.8815 45.8857 31.8815C45.8857 31.8815 51.6576 31.3231 58.3784 32.6526C65.0991 33.9821 64.572 38.4758 64.572 38.4758L65.4681 55.1212L66.4433 68.6555L41.6424 69.1607L37.3727 52.1963Z" fill="#D81E05"/>
<path d="M50.7351 68.3895L28.5171 68.6554C23.1668 68.7086 19.6088 63.1247 21.9018 58.2587L31.4162 40.47L40.061 46.373L34.1573 58.7373L52.1583 59.0564L50.7351 68.3895Z" fill="#D81E05"/>
<path d="M63.7813 35.7637L81.5979 63.5502L71.1873 64.2416C71.1873 64.2416 64.9673 54.3501 65.1255 54.5628C65.389 54.9351 63.7813 35.7637 63.7813 35.7637Z" fill="#D81E05"/>
<path d="M39.6129 47.9685C39.6129 47.9685 39.6129 47.9153 39.6393 47.8356C39.6656 47.7292 39.692 47.5962 39.7447 47.4367C39.8238 47.091 39.9556 46.5858 40.061 45.9477C40.1928 45.3095 40.3245 44.565 40.4036 43.7141C40.4827 42.8632 40.5354 41.9326 40.4036 40.9753C40.2718 40.0181 39.9028 39.1406 39.4812 38.4227C39.0595 37.7048 38.5851 37.0932 38.1634 36.6146C37.7417 36.1359 37.3463 35.7903 37.0828 35.551C36.8192 35.3117 36.6611 35.2053 36.6611 35.1787C36.6611 35.1787 36.7138 35.2053 36.7929 35.2585C36.8719 35.3117 36.9773 35.3914 37.1091 35.4978C37.399 35.7105 37.7944 36.0562 38.2161 36.5348C38.6641 36.9868 39.1385 37.5984 39.5866 38.3429C40.0083 39.0874 40.3773 39.9649 40.5354 40.9487C40.6672 41.9326 40.6145 42.8632 40.509 43.7141C40.4036 44.565 40.2718 45.3095 40.1401 45.9477C40.0083 46.5858 39.8765 47.091 39.7711 47.4367C39.7184 47.6228 39.692 47.7558 39.6393 47.8356C39.6393 47.9153 39.6129 47.9685 39.6129 47.9685Z" fill="#263238"/>
<path d="M38.9013 48.9258C38.9013 48.9258 38.8486 49.0853 38.7432 49.3246C38.6378 49.5905 38.4796 49.9362 38.2688 50.3882C37.8735 51.2923 37.2936 52.542 36.6347 53.8981C35.9758 55.2542 35.3433 56.4773 34.8952 57.3548C34.658 57.7803 34.4735 58.1525 34.3418 58.3918C34.21 58.6311 34.1309 58.7641 34.1309 58.7641C34.1309 58.7641 34.1836 58.6311 34.3154 58.3652C34.4472 58.0993 34.6317 57.7537 34.8425 57.3282C35.2906 56.4242 35.8968 55.201 36.5557 53.8715C37.2146 52.5154 37.7944 51.2923 38.2161 50.3882C38.4269 49.9628 38.5851 49.6171 38.7168 49.3246C38.8223 49.0587 38.9013 48.9258 38.9013 48.9258Z" fill="#263238"/>
<path d="M50.7351 68.3897C50.7351 68.3897 50.7351 68.3631 50.7351 68.3365C50.7351 68.3099 50.7351 68.2567 50.7351 68.2035C50.7351 68.0706 50.7615 67.911 50.7878 67.6717C50.8406 67.1931 50.9196 66.5284 50.9987 65.6775C51.1832 63.9491 51.4731 61.5294 51.7894 58.6843L51.8421 58.7641C49.839 58.7641 47.6251 58.7641 45.2795 58.7641C40.799 58.7641 36.7401 58.7375 33.7883 58.7375C32.3387 58.7375 31.1263 58.7109 30.3093 58.7109C31.1527 58.7109 32.3387 58.7109 33.7883 58.6843C36.7401 58.6843 40.799 58.6843 45.2795 58.6577C47.6251 58.6577 49.839 58.6577 51.8421 58.6577H51.9212V58.7375C51.5785 61.5826 51.2886 64.0023 51.0778 65.7307C50.9723 66.5815 50.8933 67.2463 50.8142 67.7249C50.7878 67.9376 50.7615 68.1238 50.7351 68.2567C50.7351 68.3099 50.7088 68.3631 50.7088 68.3897C50.7351 68.3631 50.7351 68.3897 50.7351 68.3897Z" fill="#263238"/>
<path d="M34.3154 58.9236C34.289 58.9236 34.1573 58.7109 33.8673 58.3652C33.6038 58.0195 33.1821 57.5675 32.6813 57.1421C32.1806 56.7166 31.6534 56.3709 31.2845 56.1582C30.9155 55.9455 30.6519 55.8391 30.6519 55.8126C30.6519 55.786 30.9155 55.8657 31.3108 56.0785C31.7062 56.2646 32.2333 56.5837 32.7604 57.0357C33.2875 57.4877 33.6828 57.9398 33.9464 58.312C34.21 58.6577 34.3154 58.9236 34.3154 58.9236Z" fill="#263238"/>
<path d="M65.837 60.6785C65.837 60.6785 65.8107 60.5987 65.8107 60.4392C65.7843 60.2796 65.758 60.0669 65.7316 59.7744C65.6789 59.1894 65.5998 58.3651 65.4944 57.3281C65.3099 55.2807 65.0991 52.409 64.9146 49.2714C64.7301 46.1337 64.5983 43.262 64.5193 41.188C64.4929 40.151 64.4665 39.3267 64.4402 38.7417C64.4402 38.4492 64.4402 38.2365 64.4402 38.077C64.4402 37.9174 64.4402 37.8376 64.4402 37.8376C64.4402 37.8376 64.4402 37.9174 64.4665 38.077C64.4665 38.2365 64.4929 38.4758 64.4929 38.7417C64.5193 39.3267 64.572 40.1776 64.5983 41.188C64.7037 43.262 64.8355 46.1071 65.02 49.2448C65.2045 52.3824 65.389 55.2541 65.5471 57.3015C65.6262 58.312 65.6789 59.1628 65.7316 59.7478C65.758 60.0137 65.758 60.253 65.7843 60.4126C65.8371 60.5987 65.837 60.6785 65.837 60.6785Z" fill="#263238"/>
<path d="M45.9911 45.5753C45.9911 45.5753 45.9911 45.4423 46.0174 45.203C46.0438 44.9371 46.0965 44.618 46.1492 44.1926C46.2546 43.3151 46.4128 42.1186 46.5973 40.7093L46.7027 40.7625C46.1756 41.1347 45.5957 41.5336 44.9896 41.959C44.3834 42.3845 43.8035 42.8099 43.2501 43.1822L43.1183 43.2619L43.1446 43.1024C43.3555 41.7197 43.54 40.5232 43.6718 39.6723C43.7508 39.2734 43.8035 38.9278 43.8299 38.6884C43.8826 38.4491 43.8826 38.3428 43.909 38.3428C43.909 38.3428 43.909 38.4757 43.8826 38.715C43.8563 38.9543 43.8035 39.3 43.7508 39.7255C43.619 40.6029 43.4609 41.7995 43.2764 43.1822L43.171 43.129C43.6981 42.7567 44.3043 42.3313 44.9105 41.9058C45.5167 41.4804 46.0965 41.0815 46.6236 40.7093L46.7554 40.6295L46.729 40.7891C46.5182 42.1717 46.3601 43.3683 46.2283 44.2458C46.1756 44.6712 46.1229 44.9903 46.0701 45.2562C46.0174 45.4423 46.0174 45.5753 45.9911 45.5753Z" fill="#E0E0E0"/>
<path d="M55.9272 46.6391C55.9272 46.6391 55.8218 46.5593 55.6637 46.3732C55.4792 46.187 55.2683 45.9477 54.9784 45.6286C54.3722 44.9905 53.5552 44.0864 52.6328 43.0494L52.7382 43.0228C52.6855 43.6876 52.6328 44.3789 52.5537 45.1234C52.501 45.868 52.4219 46.5859 52.3692 47.2506V47.4102L52.2638 47.3038C51.3413 46.2668 50.5506 45.3627 49.9708 44.698C49.7073 44.3789 49.47 44.1396 49.3119 43.9269C49.1538 43.7408 49.0747 43.661 49.1011 43.6344C49.1011 43.6344 49.2065 43.7142 49.3646 43.9003C49.5491 44.0864 49.76 44.3257 50.0499 44.6448C50.6297 45.283 51.4467 46.187 52.3692 47.224L52.2638 47.2506C52.3165 46.5859 52.3692 45.868 52.4483 45.1234C52.501 44.3789 52.58 43.6876 52.6328 43.0228V42.8633L52.7382 42.9696C53.6606 44.0067 54.4777 44.9107 55.0575 45.5755C55.3211 45.8945 55.5583 46.1339 55.7164 46.3466C55.8482 46.5327 55.9272 46.6391 55.9272 46.6391Z" fill="#E0E0E0"/>
<path d="M60.9085 46.2932C60.9085 46.2932 60.8558 46.3996 60.724 46.6123C60.5922 46.825 60.4077 47.1175 60.1969 47.4632C59.7225 48.2077 59.0636 49.2181 58.3256 50.4147L58.2729 50.3083C58.9055 50.2019 59.6171 50.069 60.3287 49.9626C61.0666 49.8297 61.7519 49.7233 62.4108 49.617L62.5689 49.5904L62.4899 49.7233C61.7255 50.8933 61.0403 51.8771 60.5659 52.6216C60.3287 52.9673 60.1442 53.2332 60.0124 53.4459C59.8806 53.6321 59.8016 53.7384 59.8016 53.7384C59.8016 53.7384 59.8543 53.6321 59.9861 53.4193C60.1178 53.2066 60.3023 52.9141 60.5132 52.5685C60.9876 51.8239 61.6465 50.8135 62.3844 49.6436L62.4372 49.7499C61.7783 49.8563 61.093 49.9892 60.355 50.1222C59.6434 50.2551 58.9318 50.3615 58.2993 50.4678L58.1411 50.4944L58.2202 50.3615C58.9845 49.1915 59.6434 48.1811 60.1442 47.4366C60.3814 47.0909 60.5659 46.7984 60.6977 46.6123C60.8294 46.373 60.9085 46.2932 60.9085 46.2932Z" fill="#E0E0E0"/>
<path d="M54.2668 51.4517C54.2668 51.4517 54.2141 51.5581 54.0823 51.7708C53.9506 51.9835 53.7661 52.276 53.5552 52.6217C53.0808 53.3662 52.4219 54.3766 51.6839 55.5732L51.6312 55.4668C52.2638 55.3605 52.9754 55.2275 53.687 55.1212C54.425 54.9882 55.1102 54.8819 55.7691 54.7755L55.9272 54.7489L55.8482 54.8819C55.0839 56.0518 54.3986 57.0356 53.9242 57.7802C53.687 58.1258 53.5025 58.3917 53.3707 58.6045C53.2389 58.7906 53.1599 58.8969 53.1599 58.8969C53.1599 58.8969 53.2126 58.7906 53.3444 58.5779C53.4761 58.3651 53.6606 58.0727 53.8715 57.727C54.3459 56.9825 55.0048 55.972 55.7428 54.8021L55.7955 54.9084C55.1366 55.0148 54.4513 55.1478 53.7133 55.2807C53.0017 55.4137 52.2901 55.52 51.6576 55.6264L51.4995 55.653L51.5785 55.52C52.3428 54.3501 53.0017 53.3396 53.5025 52.5951C53.7397 52.2494 53.9242 51.957 54.056 51.7708C54.1878 51.5315 54.2668 51.4252 54.2668 51.4517Z" fill="#E0E0E0"/>
<path d="M68.6044 46.2136C68.6044 46.2136 68.5517 46.32 68.4199 46.5327C68.2882 46.7454 68.1037 47.0379 67.8928 47.3836C67.4184 48.1281 66.7595 49.1385 66.0216 50.3351L65.9688 50.2287C66.6014 50.1224 67.313 49.9894 68.0246 49.883C68.7626 49.7501 69.4478 49.6437 70.1067 49.5374L70.2649 49.5108L70.1858 49.6437C69.4215 50.8137 68.7362 51.7975 68.2618 52.542C68.0246 52.8877 67.8401 53.1536 67.7083 53.3663C67.5766 53.5525 67.4975 53.6588 67.4975 53.6588C67.4975 53.6588 67.5502 53.5525 67.682 53.3397C67.8138 53.127 67.9982 52.8345 68.2091 52.4889C68.6835 51.7443 69.3424 50.7339 70.0804 49.564L70.1331 49.6703C69.4742 49.7767 68.7889 49.9096 68.051 50.0426C67.3394 50.1755 66.6277 50.2819 65.9952 50.3883L65.8371 50.4148L65.9161 50.2819C66.6805 49.1119 67.3394 48.1015 67.8401 47.357C68.0773 47.0113 68.2618 46.7188 68.3936 46.5327C68.5254 46.32 68.6044 46.2136 68.6044 46.2136Z" fill="#E0E0E0"/>
<path d="M35.027 41.9592C35.027 41.9592 34.9743 42.0656 34.8425 42.2783C34.7107 42.491 34.5263 42.7835 34.3154 43.1292C33.841 43.8737 33.1821 44.8841 32.4441 46.0807L32.3914 45.9743C33.024 45.868 33.7356 45.735 34.4472 45.6287C35.1851 45.4957 35.8704 45.3893 36.5293 45.283L36.6874 45.2564L36.6084 45.3893C35.844 46.5593 35.1588 47.5431 34.6844 48.2877C34.4472 48.6333 34.2627 48.8992 34.1309 49.1119C33.9991 49.2981 33.9201 49.4044 33.9201 49.4044C33.9201 49.4044 33.9728 49.2981 34.1046 49.0854C34.2363 48.8726 34.4208 48.5801 34.6317 48.2345C35.1061 47.4899 35.765 46.4795 36.5029 45.3096L36.5557 45.4159C35.8968 45.5223 35.2115 45.6552 34.4735 45.7882C33.7619 45.9211 33.0503 46.0275 32.4178 46.1339L32.2596 46.1605L32.3387 46.0275C33.103 44.8575 33.7619 43.8471 34.2627 43.1026C34.4999 42.7569 34.6844 42.4644 34.8162 42.2783C34.9479 42.0656 35.027 41.9592 35.027 41.9592Z" fill="#E0E0E0"/>
<path d="M24.6164 61.8484C24.6164 61.8484 24.6955 61.9282 24.8536 62.1143C25.0117 62.3005 25.2226 62.5664 25.4862 62.8854C26.0396 63.5768 26.8039 64.5074 27.6737 65.5976L27.5683 65.6242C27.6737 64.9861 27.7528 64.2681 27.8582 63.5502C27.9636 62.8057 28.069 62.0877 28.1745 61.4496L28.2008 61.29L28.3062 61.423C29.1496 62.5132 29.8876 63.4704 30.4411 64.1618C30.6783 64.4808 30.8891 64.7733 31.0473 64.9595C31.179 65.1456 31.2581 65.2519 31.2581 65.2519C31.2581 65.2519 31.179 65.1722 31.0209 64.986C30.8628 64.7999 30.6519 64.534 30.3884 64.2149C29.8349 63.5236 29.0969 62.593 28.2272 61.5028L28.3326 61.4762C28.2272 62.1409 28.1217 62.8323 28.0163 63.5768C27.9109 64.2947 27.8055 65.0126 27.7 65.6508L27.6737 65.8103L27.5683 65.704C26.6985 64.6138 25.9606 63.6566 25.4071 62.9652C25.1435 62.6461 24.959 62.3536 24.8009 62.1675C24.6691 61.9548 24.5901 61.8484 24.6164 61.8484Z" fill="#E0E0E0"/>
<path d="M48.3895 48.9789C48.3895 48.9789 48.2577 49.0055 48.0205 49.0321C47.7569 49.0587 47.4406 49.0853 47.0189 49.1119C46.1492 49.1651 44.9368 49.2714 43.5663 49.3778L43.619 49.2714C44.0934 49.7234 44.5942 50.2021 45.1477 50.7073C45.6748 51.2125 46.2019 51.7177 46.6763 52.1697L46.7817 52.2761H46.6236C45.2531 52.3559 44.0407 52.409 43.171 52.4622C42.7493 52.4888 42.433 52.4888 42.1695 52.5154C41.9323 52.5154 41.8005 52.5154 41.8005 52.5154C41.8005 52.5154 41.9323 52.4888 42.1695 52.4622C42.433 52.4356 42.7493 52.409 43.171 52.3824C44.0407 52.3293 45.2267 52.2495 46.6236 52.1431L46.5709 52.2495C46.0965 51.7975 45.5694 51.2923 45.0423 50.787C44.5151 50.2818 43.988 49.8032 43.54 49.3512L43.4345 49.2448H43.5927C44.9895 49.1651 46.1756 49.0853 47.0453 49.0321C47.467 49.0055 47.7833 49.0055 48.0468 48.9789C48.284 48.9523 48.3895 48.9523 48.3895 48.9789Z" fill="#E0E0E0"/>
<path d="M42.5648 62.3804C42.5648 62.3804 42.6702 62.4601 42.802 62.6463C42.9601 62.8324 43.1973 63.0983 43.4609 63.4174C44.0407 64.0821 44.805 65.0128 45.7011 66.103L45.5957 66.1296C45.6748 65.4914 45.7539 64.7735 45.8593 64.0555C45.9647 63.311 46.0438 62.5931 46.1228 61.9283L46.1492 61.7688L46.2546 61.8752C47.1244 62.9653 47.8887 63.896 48.4422 64.5873C48.7057 64.9064 48.9166 65.1723 49.0747 65.385C49.2065 65.5712 49.2855 65.6775 49.2855 65.6775C49.2855 65.6775 49.2065 65.5978 49.0483 65.4116C48.8902 65.2255 48.6794 64.9596 48.3894 64.6405C47.836 63.9758 47.0716 63.0451 46.1755 61.9815L46.281 61.9549C46.2019 62.6197 46.0965 63.3376 46.0174 64.0821C45.912 64.8001 45.8329 65.518 45.7539 66.1562L45.7275 66.3157L45.6221 66.2093C44.726 65.1191 43.9617 64.1885 43.4082 63.4971C43.1446 63.1781 42.9338 62.9122 42.7756 62.6994C42.6439 62.4867 42.5648 62.3804 42.5648 62.3804Z" fill="#E0E0E0"/>
<path d="M32.1279 52.542C32.1279 52.542 31.9961 52.5686 31.7589 52.5952C31.4953 52.6218 31.179 52.6484 30.7573 52.6749C29.8876 52.7281 28.6752 52.8345 27.3047 52.9408L27.3574 52.8345C27.8318 53.2865 28.3326 53.7651 28.8861 54.2703C29.4132 54.7756 29.9403 55.2808 30.4147 55.7328L30.5201 55.8392H30.362C28.9915 55.9189 27.7791 55.9721 26.9094 56.0253C26.4877 56.0519 26.1714 56.0519 25.9079 56.0785C25.6707 56.0785 25.5389 56.0785 25.5389 56.0785C25.5389 56.0785 25.6707 56.0519 25.9079 56.0253C26.1714 55.9987 26.4877 55.9721 26.9094 55.9455C27.7791 55.8923 28.9651 55.8126 30.362 55.7062L30.3093 55.8126C29.8349 55.3605 29.3078 54.8553 28.7807 54.3501C28.2535 53.8449 27.7264 53.3663 27.2784 52.9143L27.1729 52.8079H27.3311C28.7279 52.7281 29.914 52.6484 30.7837 52.5952C31.2054 52.5686 31.5217 52.5686 31.7852 52.542C31.9961 52.542 32.1279 52.542 32.1279 52.542Z" fill="#E0E0E0"/>
<path d="M41.0889 62.0613C41.0889 62.0613 40.9571 62.0879 40.7199 62.1145C40.4563 62.1411 40.14 62.1676 39.7183 62.1942C38.8486 62.2474 37.6362 62.3538 36.2657 62.4601L36.3184 62.3538C36.7928 62.8058 37.2936 63.2844 37.8471 63.7896C38.3742 64.2948 38.9013 64.8001 39.3757 65.2521L39.4811 65.3584H39.323C37.9525 65.4382 36.7401 65.4914 35.8704 65.5446C35.4487 65.5712 35.1324 65.5712 34.8689 65.5978C34.6317 65.5978 34.4999 65.5978 34.4999 65.5978C34.4999 65.5978 34.6317 65.5712 34.8689 65.5446C35.1324 65.518 35.4487 65.4914 35.8704 65.4648C36.7401 65.4116 37.9261 65.3319 39.323 65.2255L39.2703 65.3319C38.7959 64.8798 38.2688 64.3746 37.7417 63.8694C37.2145 63.3642 36.6874 62.8856 36.2394 62.4335L36.1339 62.3272H36.2921C37.6889 62.2474 38.875 62.1676 39.7447 62.1145C40.1664 62.0879 40.4827 62.0879 40.7462 62.0613C40.9571 62.0613 41.0889 62.0613 41.0889 62.0613Z" fill="#E0E0E0"/>
<path d="M61.3302 37.8376C61.3302 37.8376 61.1984 37.8642 60.9612 37.8907C60.6977 37.9173 60.3814 37.9439 59.9597 37.9705C59.09 38.0237 57.8776 38.1301 56.5071 38.2364L56.5598 38.1301C57.0342 38.5821 57.535 39.0607 58.0884 39.5659C58.6156 40.0711 59.1427 40.5763 59.6171 41.0284L59.7225 41.1347H59.5644C58.1939 41.2145 56.9815 41.2677 56.1117 41.3209C55.6901 41.3474 55.3738 41.3475 55.1102 41.374C54.873 41.374 54.7412 41.374 54.7412 41.374C54.7412 41.374 54.873 41.3474 55.1102 41.3209C55.3738 41.2943 55.6901 41.2677 56.1117 41.2411C56.9815 41.1879 58.1675 41.1081 59.5644 41.0018L59.5117 41.1081C59.0373 40.6561 58.5101 40.1509 57.983 39.6457C57.4559 39.1405 56.9288 38.6619 56.4807 38.2098L56.3753 38.1035H56.5334C57.9303 38.0237 59.1163 37.9439 59.9861 37.8907C60.4078 37.8642 60.724 37.8642 60.9876 37.8376C61.1984 37.811 61.3302 37.811 61.3302 37.8376Z" fill="#E0E0E0"/>
<path d="M51.4994 62.0611C51.4994 62.0611 55.9272 60.7847 57.4032 60.3859C57.983 60.2264 60.4341 61.5293 62.1209 62.6195C62.1209 62.6195 64.4402 64.0021 64.2557 64.4542C64.0449 64.9328 63.2015 64.8264 61.831 64.1883C61.831 64.1883 62.3054 65.5975 61.3829 65.571C61.3829 65.571 61.8573 67.0866 60.9612 67.2461C60.0915 67.4057 59.8806 65.4646 59.0899 65.3582C58.3256 65.2519 56.7179 65.1455 56.7179 65.1455C56.7179 65.1455 55.3738 67.3791 54.3459 67.5386C53.318 67.6981 50.9196 67.4057 50.9196 67.4057L51.4994 62.0611Z" fill="#FFBE9D"/>
<path d="M59.0636 62.3802C59.09 62.3536 59.6434 62.6727 60.3023 63.0981C60.9612 63.5236 61.4883 63.8958 61.462 63.9224C61.4356 63.949 60.8822 63.6299 60.2233 63.2045C59.5644 62.7791 59.0372 62.4068 59.0636 62.3802Z" fill="#EB996E"/>
<path d="M58.8 63.2311C58.8264 63.2045 59.4853 63.4704 60.276 63.8426C61.0667 64.2149 61.6992 64.534 61.6992 64.5872C61.6728 64.6138 61.0139 64.3479 60.2233 63.9756C59.4062 63.6033 58.7737 63.2577 58.8 63.2311Z" fill="#EB996E"/>
<path d="M59.2744 65.3317C59.2744 65.3052 59.7225 65.3317 60.276 65.4115C60.8294 65.4913 61.2511 65.5711 61.2511 65.6242C61.2511 65.6508 60.8031 65.6242 60.2496 65.5445C59.6961 65.4381 59.2744 65.3583 59.2744 65.3317Z" fill="#EB996E"/>
<path d="M45.7275 15.9274C45.8329 16.2731 45.7011 16.6719 45.4376 16.9112C45.174 17.1505 44.7523 17.1771 44.4361 17.0176C43.8299 16.6985 43.7508 15.8742 43.8826 15.2095C44.0144 14.5447 44.2252 13.8268 43.9353 13.2152C43.7245 12.7366 43.25 12.4441 42.9074 12.0719C42.2749 11.4337 41.9586 10.4765 42.0904 9.5724C42.2485 8.66834 42.9074 7.87064 43.7772 7.63133C44.6469 7.39202 45.7539 7.65792 46.4128 7.01976C46.8872 6.54114 46.9135 5.79662 47.2825 5.23822C47.8623 4.36075 49.0747 4.2278 50.0762 4.38734C51.1041 4.52029 52.132 4.86596 53.1335 4.60006C53.9769 4.38734 54.6622 3.80236 55.4265 3.4301C57.1133 2.65899 59.3008 3.05784 60.5922 4.44052C61.8837 5.79662 62.1736 8.00359 61.3302 9.67876C61.0139 10.2903 60.5395 10.8221 59.9333 11.088" fill="#263238"/>
<path d="M50.8142 37.8908C53.6343 37.8908 55.9272 35.5509 55.9009 32.7058L55.8218 27.8132C55.8218 27.8132 59.8806 27.4144 60.1706 23.3461C60.4341 19.2778 60.2496 9.89154 60.2496 9.89154C55.69 7.6048 50.2607 8.00365 46.0701 10.902L45.4376 11.3274L45.7539 32.8387C45.7539 35.6307 48.0205 37.8908 50.8142 37.8908Z" fill="#FFBE9D"/>
<path d="M59.169 17.2302C58.4574 17.0973 58.4574 16.1666 59.169 16.0071C59.1954 16.0071 59.2481 16.0071 59.2744 16.0071C59.9861 16.14 59.9861 17.0707 59.2744 17.2302C59.2217 17.2302 59.1954 17.2302 59.169 17.2302Z" fill="#263238"/>
<path d="M59.9597 15.9274C59.8806 16.0072 59.5116 15.6615 58.9582 15.6349C58.4047 15.5817 57.983 15.8742 57.9303 15.7945C57.9039 15.7679 57.983 15.6349 58.1675 15.502C58.352 15.369 58.6419 15.2627 58.9845 15.2893C59.3272 15.3158 59.6171 15.4754 59.7752 15.6083C59.9333 15.7679 59.9861 15.9008 59.9597 15.9274Z" fill="#263238"/>
<path d="M53.5288 16.0604C53.7924 16.2466 53.8715 16.6188 53.687 16.8847C53.5025 17.1506 53.1335 17.2304 52.87 17.0443C52.6064 16.8581 52.5273 16.4859 52.7118 16.22C52.8963 15.9541 53.2653 15.8743 53.5288 16.0604Z" fill="#263238"/>
<path d="M53.8978 16.0871C53.8188 16.1669 53.4498 15.8212 52.8963 15.7946C52.3428 15.7414 51.9211 16.0339 51.8684 15.9541C51.8421 15.9275 51.9211 15.7946 52.1056 15.6616C52.2901 15.5287 52.58 15.4223 52.9227 15.4489C53.2653 15.4755 53.5552 15.6351 53.7134 15.768C53.8715 15.9275 53.9242 16.0605 53.8978 16.0871Z" fill="#263238"/>
<path d="M55.8745 20.8466C55.8745 20.7934 56.2172 20.7402 56.7706 20.7136C56.9288 20.7136 57.0342 20.687 57.0606 20.6073C57.0869 20.5275 57.0342 20.3679 56.9815 20.1818C56.8497 19.8096 56.7443 19.4107 56.6125 19.0119C56.0854 17.3633 55.7428 15.9806 55.8218 15.954C55.9009 15.9274 56.4017 17.2569 56.9024 18.9055C57.0342 19.3043 57.1396 19.7032 57.2451 20.0755C57.2978 20.235 57.3768 20.4477 57.2978 20.687C57.2451 20.7934 57.1396 20.8997 57.0342 20.8997C56.9288 20.9263 56.8497 20.9263 56.797 20.9263C56.2172 20.9263 55.8745 20.8732 55.8745 20.8466Z" fill="#263238"/>
<path d="M54.0296 21.3518C54.7412 21.6975 55.5846 22.0963 56.7179 22.309C56.7179 22.309 56.0063 23.3195 54.873 22.8143C53.687 22.309 54.0296 21.3518 54.0296 21.3518Z" fill="white"/>
<path d="M55.8218 27.7334C55.8218 27.7334 53.2653 27.8132 50.6297 25.9253C50.6297 25.9253 51.7103 28.93 55.7691 28.7704L55.8218 27.7334Z" fill="#EB996E"/>
<path d="M60.2496 10.9019C60.2496 10.9019 57.8249 12.1516 54.5831 10.6094C52.4746 9.599 49.9972 9.12038 49.47 9.57241C48.9429 9.99785 48.8639 12.2048 46.8081 12.8696C46.8081 12.8696 47.0189 17.0442 45.3849 16.9112C43.7245 16.8049 44.6469 10.3169 44.6469 10.3169L48.6267 8.24291L53.0017 7.31226L57.166 7.81747L60.3814 8.64176L60.2496 10.9019Z" fill="#263238"/>
<path d="M45.6748 15.5552C45.5957 15.5286 42.9338 14.5714 42.8811 17.3634C42.8283 20.1553 45.5957 19.6501 45.6221 19.5703C45.6221 19.464 45.6748 15.5552 45.6748 15.5552Z" fill="#FFBE9D"/>
<path d="M44.805 18.4801C44.805 18.4801 44.7523 18.5067 44.6733 18.5599C44.5942 18.5865 44.4624 18.6131 44.3043 18.5599C44.0144 18.4536 43.7772 17.9749 43.7772 17.4697C43.7772 17.2038 43.8299 16.9645 43.9353 16.7784C44.0144 16.5657 44.1461 16.4327 44.3043 16.4061C44.4624 16.3795 44.5415 16.4593 44.5942 16.5391C44.6205 16.6188 44.6205 16.672 44.6205 16.672C44.6205 16.672 44.6733 16.6188 44.6733 16.5125C44.6733 16.4593 44.6205 16.3795 44.5678 16.3264C44.5151 16.2732 44.4097 16.2466 44.3043 16.2466C44.0934 16.2466 43.8826 16.4593 43.8035 16.672C43.6981 16.8847 43.619 17.1506 43.619 17.4431C43.619 18.0015 43.9089 18.5333 44.3043 18.6663C44.4888 18.7195 44.6733 18.6663 44.7523 18.6131C44.805 18.5333 44.805 18.4801 44.805 18.4801Z" fill="#EB996E"/>
<path d="M44.2779 6.83354C44.2516 6.80695 44.726 6.674 45.2267 6.86013C45.7539 7.04626 46.0174 7.44511 45.9647 7.4717C45.9384 7.49829 45.6484 7.17921 45.174 6.99308C44.6996 6.80695 44.2779 6.86013 44.2779 6.83354Z" fill="#263238"/>
<path d="M45.9383 5.15834C45.991 5.15834 45.912 5.74332 46.0174 6.43466C46.1228 7.126 46.4391 7.63121 46.4127 7.6578C46.4127 7.6578 46.3073 7.55144 46.1755 7.33872C46.0701 7.126 45.9383 6.80692 45.8856 6.46125C45.7802 5.71673 45.912 5.13175 45.9383 5.15834Z" fill="#263238"/>
<path d="M57.2977 14.5978C57.2714 14.5713 57.4032 14.4649 57.614 14.3851C57.8249 14.3054 58.1675 14.2256 58.5365 14.2256C58.9055 14.2256 59.2481 14.3054 59.4589 14.4117C59.6698 14.5181 59.8016 14.5978 59.7752 14.651C59.7488 14.7308 59.2217 14.5181 58.5365 14.5181C57.8776 14.4649 57.3241 14.6776 57.2977 14.5978Z" fill="#263238"/>
<path d="M51.1305 14.0129C51.1041 13.9863 51.2359 13.8799 51.4467 13.8002C51.6576 13.7204 52.0002 13.6406 52.3692 13.6406C52.7382 13.6406 53.0808 13.7204 53.2917 13.8268C53.5025 13.9331 53.6343 14.0129 53.6079 14.0661C53.5816 14.1458 53.0545 13.9331 52.3692 13.9331C51.7103 13.8799 51.1568 14.0927 51.1305 14.0129Z" fill="#263238"/>
<path d="M56.8233 15.0234C56.8233 15.0234 56.8233 15.0766 56.8233 15.1829C56.8233 15.2893 56.8233 15.4488 56.8497 15.6349C56.8497 15.8211 56.8497 16.0604 56.8761 16.3263C56.8761 16.5922 56.9024 16.9113 57.0078 17.2303C57.1133 17.5494 57.2978 17.8685 57.5877 18.161C57.8776 18.4269 58.2466 18.6662 58.6683 18.7726C58.8791 18.8257 59.1163 18.8523 59.3535 18.8257C59.5907 18.8257 59.8279 18.7726 60.0388 18.6662C60.4868 18.5067 60.9085 18.161 61.1721 17.7356C61.4356 17.3101 61.5674 16.8315 61.5411 16.3795C61.5411 15.9008 61.5411 15.4488 61.5411 14.9968L61.5938 15.05C60.2233 15.05 59.0372 15.0234 58.1675 15.0234C57.7458 15.0234 57.4295 15.0234 57.166 14.9968C57.0605 14.9968 56.9815 14.9968 56.9024 14.9968C56.8497 15.0234 56.8233 15.0234 56.8233 15.0234C56.8233 15.0234 56.9288 15.0234 57.166 14.9968C57.4032 14.9968 57.7458 14.9968 58.1411 14.9702C59.0109 14.9702 60.1969 14.9436 61.5938 14.9436H61.6465V14.9968C61.6465 15.4222 61.6465 15.9008 61.6465 16.3795C61.6728 16.8581 61.5411 17.3899 61.2511 17.8153C60.9612 18.2674 60.5132 18.613 60.0388 18.7992C59.8016 18.8789 59.5644 18.9321 59.3008 18.9587C59.0636 18.9853 58.8264 18.9587 58.5892 18.8789C58.1411 18.7726 57.7458 18.5333 57.4559 18.2408C57.166 17.9483 56.9815 17.6026 56.8497 17.2569C56.7443 16.9113 56.7179 16.5922 56.7443 16.3263C56.7443 16.0604 56.7443 15.8211 56.7706 15.6084C56.7706 15.4222 56.7706 15.2893 56.797 15.1563C56.8233 15.0766 56.8233 15.0234 56.8233 15.0234Z" fill="#263238"/>
<path d="M50.3661 14.8903C50.3661 14.8903 50.3661 14.9435 50.3661 15.0499C50.3661 15.1562 50.3661 15.3158 50.3925 15.5019C50.3925 15.688 50.3925 15.9273 50.4188 16.1932C50.4188 16.4591 50.4452 16.7782 50.5506 17.0973C50.656 17.4164 50.8405 17.7354 51.1305 18.0279C51.4204 18.2938 51.7894 18.5331 52.211 18.6395C52.4219 18.6927 52.6591 18.7193 52.8963 18.6927C53.1335 18.6927 53.3707 18.6395 53.5816 18.5331C54.0296 18.3736 54.4513 18.0279 54.7149 17.6025C54.9784 17.1771 55.1102 16.6984 55.0838 16.2464C55.0838 15.7678 55.0838 15.3158 55.0838 14.8637L55.1365 14.9169C53.766 14.9169 52.58 14.8903 51.7103 14.8903C51.2886 14.8903 50.9723 14.8903 50.7088 14.8637C50.6033 14.8637 50.5243 14.8637 50.4452 14.8637C50.3925 14.8903 50.3661 14.8903 50.3661 14.8903C50.3661 14.8903 50.4716 14.8903 50.7088 14.8637C50.946 14.8637 51.2886 14.8637 51.6839 14.8371C52.5537 14.8371 53.7397 14.8105 55.1365 14.8105H55.1893V14.8637C55.1893 15.2892 55.1893 15.7678 55.1893 16.2464C55.2156 16.725 55.0838 17.2568 54.7939 17.6823C54.504 18.1343 54.056 18.48 53.5816 18.6661C53.3443 18.7459 53.1071 18.799 52.8436 18.8256C52.6064 18.8522 52.3692 18.8256 52.132 18.7459C51.6839 18.6395 51.2886 18.4002 50.9987 18.1077C50.7088 17.8152 50.5243 17.4695 50.3925 17.1239C50.2871 16.7782 50.2607 16.4591 50.2871 16.1932C50.2871 15.9273 50.2871 15.688 50.3134 15.4753C50.3134 15.2892 50.3134 15.1562 50.3398 15.0233C50.3661 14.9435 50.3661 14.8903 50.3661 14.8903Z" fill="#263238"/>
<path d="M56.876 15.236C56.876 15.2626 56.4807 15.3158 55.9536 15.3158C55.4528 15.3158 55.0311 15.2892 55.0311 15.236C55.0311 15.2094 55.4265 15.1562 55.9536 15.1562C56.4807 15.1562 56.876 15.1828 56.876 15.236Z" fill="#263238"/>
<path d="M45.3322 15.2626C45.3322 15.236 46.4655 15.1829 47.8623 15.1829C49.2592 15.1829 50.3925 15.2095 50.3925 15.236C50.3925 15.2626 49.2592 15.3158 47.8623 15.3158C46.4391 15.3158 45.3322 15.2892 45.3322 15.2626Z" fill="#263238"/>
<path d="M73.6121 46.2932L64.8619 68.1236H49.1011V69.1074H96.0937L105.687 46.2932H73.6121Z" fill="#263238"/>
<path d="M87.0009 59.1628C86.6846 60.253 85.7621 60.9444 84.9451 60.7051C84.1281 60.4658 83.7064 59.3756 84.0226 58.2854C84.3389 57.1952 85.2614 56.5038 86.0784 56.7432C86.8954 56.9825 87.3171 58.0727 87.0009 59.1628Z" fill="#FAFAFA"/>
<line x1="14.3166" y1="68.8486" x2="110.452" y2="68.8487" stroke="#3F3F3F" stroke-linecap="round"/>
</svg>
