<svg width="103" height="94" viewBox="0 0 103 94" fill="none" xmlns="http://www.w3.org/2000/svg">
<circle opacity="0.1" cx="52.5819" cy="44.792" r="44.792" fill="#D81E05"/>
<path d="M41.9322 28.0296L39.625 28.042L39.6863 39.4604L41.9935 39.448L41.9322 28.0296Z" fill="#E0E0E0"/>
<path d="M25.6717 28.0607L19.7183 28.0925L19.752 34.3881L25.7054 34.3563L25.6717 28.0607Z" fill="#EBEBEB"/>
<path d="M31.5839 28.0197L25.6305 28.0515L25.6642 34.3471L31.6176 34.3152L31.5839 28.0197Z" fill="#F5F5F5"/>
<path d="M19.7142 29.8254C23.6694 29.8665 27.6246 29.8254 31.5798 29.7637C31.6622 29.7637 31.6622 29.6402 31.5798 29.6402C27.6246 29.6197 23.6694 29.6402 19.7142 29.7225C19.6524 29.7225 19.6524 29.8254 19.7142 29.8254Z" fill="#E0E0E0"/>
<path d="M26.8283 34.2612L16.0133 34.3191L16.0409 39.4625L26.8559 39.4046L26.8283 34.2612Z" fill="#EBEBEB"/>
<path d="M37.5817 34.1995L26.7667 34.2573L26.7943 39.4007L37.6093 39.3429L37.5817 34.1995Z" fill="#F5F5F5"/>
<path d="M16.0062 35.7506C23.1956 35.8329 30.4056 35.7506 37.5744 35.6478C37.6568 35.6478 37.6568 35.5243 37.5744 35.5243C30.385 35.4832 23.175 35.4832 16.0062 35.6478C15.9444 35.6272 15.9444 35.7506 16.0062 35.7506Z" fill="#E0E0E0"/>
<path d="M53.8484 39.4539H11.9686V41.2849H53.8484V39.4539Z" fill="#E0E0E0"/>
<path d="M20.5382 40.3386H18.8284V46.6136H20.5382V40.3386Z" fill="#E0E0E0"/>
<path d="M45.9174 40.3386H44.2076V46.6136H45.9174V40.3386Z" fill="#E0E0E0"/>
<path d="M44.1661 23.7709L41.8589 23.7832L41.9431 39.4809L44.2503 39.4686L44.1661 23.7709Z" fill="#EBEBEB"/>
<path d="M47.7378 26.6891L44.174 26.7083L44.2425 39.4434L47.8063 39.4242L47.7378 26.6891Z" fill="#F5F5F5"/>
<path d="M47.7302 29.1464C47.7302 29.1876 46.9268 29.2082 45.938 29.2082C44.9492 29.2082 44.1458 29.1876 44.1458 29.1464C44.1458 29.1053 44.9492 29.0847 45.938 29.0847C46.9268 29.0847 47.7302 29.1053 47.7302 29.1464Z" fill="#E0E0E0"/>
<path d="M47.7302 28.6115C47.7302 28.6527 46.9268 28.6732 45.938 28.6732C44.9492 28.6732 44.1458 28.6527 44.1458 28.6115C44.1458 28.5704 44.9492 28.5498 45.938 28.5498C46.9268 28.5498 47.7302 28.5704 47.7302 28.6115Z" fill="#E0E0E0"/>
<path d="M47.7302 37.4995C47.7302 37.5406 46.9268 37.5612 45.938 37.5612C44.9492 37.5612 44.1458 37.5406 44.1458 37.4995C44.1458 37.4583 44.9492 37.4377 45.938 37.4377C46.9268 37.4377 47.7302 37.4789 47.7302 37.4995Z" fill="#E0E0E0"/>
<path d="M47.7302 36.9646C47.7302 37.0057 46.9268 37.0263 45.938 37.0263C44.9492 37.0263 44.1458 37.0057 44.1458 36.9646C44.1458 36.9234 44.9492 36.9028 45.938 36.9028C46.9268 36.9028 47.7302 36.944 47.7302 36.9646Z" fill="#E0E0E0"/>
<path d="M45.9998 35.8125C45.9586 35.8125 45.938 34.5369 45.938 32.9528C45.938 31.3686 45.9586 30.093 45.9998 30.093C46.041 30.093 46.0616 31.3686 46.0616 32.9528C46.0616 34.5164 46.041 35.8125 45.9998 35.8125Z" fill="#E0E0E0"/>
<path d="M51.6648 29.8254H47.7714V39.4333H51.6648V29.8254Z" fill="#EBEBEB"/>
<path d="M43.6308 26.4513C43.6308 26.8217 43.3424 27.1097 42.9716 27.1097C42.6008 27.1097 42.3124 26.8217 42.3124 26.4513C42.3124 26.081 42.6008 25.793 42.9716 25.793C43.3424 25.793 43.6308 26.081 43.6308 26.4513Z" fill="#E0E0E0"/>
<path d="M43.1776 28.2617H42.7656V37.6022H43.1776V28.2617Z" fill="#E0E0E0"/>
<path d="M15.3058 70.1705C16.377 69.615 17.6542 69.5327 18.849 69.7385C19.4876 69.8413 20.1674 70.0265 20.6 70.5203C21.0326 70.9935 21.115 71.8576 20.6206 72.269C20.3116 72.5159 19.8996 72.5571 19.5082 72.5571C18.5812 72.5365 17.5306 72.3719 16.789 72.948C16.3564 73.2771 16.068 73.8121 15.5736 73.9561C15.0792 74.1207 14.5024 73.8121 14.2552 73.3594C13.9874 72.9068 13.9874 72.3513 14.111 71.837C14.0904 71.837 14.214 70.726 15.3058 70.1705Z" fill="#E8505B"/>
<path d="M12.8338 65.3974C13.493 66.3438 14.7702 66.0352 15.3676 65.4591C15.965 64.883 16.2122 64.0601 16.4388 63.2577C16.9538 61.4472 17.4894 59.5339 17.098 57.7028C16.9744 57.1473 16.7684 56.5918 16.377 56.2009C15.9856 55.7895 15.3882 55.5426 14.8526 55.6866C14.214 55.8512 13.802 56.489 13.5136 57.0856C12.669 58.8549 12.2158 60.8094 12.1952 62.7639C12.1952 63.6898 12.3188 64.6361 12.8338 65.3974Z" fill="#E8505B"/>
<path d="M11.021 66.7552C11.742 65.9117 11.8656 64.6773 11.5566 63.6075C11.2476 62.5376 10.5266 61.6324 9.68199 60.9123C8.71379 60.0482 7.56019 59.3693 6.34479 58.9373C5.87099 58.7727 5.35599 58.6286 4.84099 58.6904C4.32599 58.7315 3.81099 58.999 3.58439 59.4516C3.23419 60.1305 3.56379 60.9329 3.93459 61.5913C4.57319 62.764 5.31479 63.8749 6.13879 64.9242C6.79799 65.7677 7.56019 66.6112 8.54899 66.9816C9.55839 67.3725 10.5884 67.3107 11.124 66.6318" fill="#E8505B"/>
<path d="M12.7926 79.5932C12.8132 79.5932 12.8338 79.4492 12.8544 79.1612C12.875 78.8526 12.9162 78.4617 12.978 77.9885C13.0398 77.4947 13.1016 76.9186 13.2458 76.2808C13.39 75.6431 13.596 74.9641 13.8638 74.2646C14.1522 73.5651 14.5024 72.9479 14.8938 72.4336C15.2852 71.9192 15.759 71.5695 16.1916 71.3432C16.6242 71.1374 17.0156 71.0346 17.2834 70.9934C17.5512 70.9728 17.716 70.9523 17.716 70.9317C17.716 70.9111 17.5718 70.9111 17.2834 70.9317C17.0156 70.9523 16.6036 71.014 16.1298 71.2197C15.6766 71.4255 15.1822 71.7958 14.7496 72.3101C14.317 72.8245 13.9668 73.4623 13.6784 74.1823C13.39 74.8818 13.184 75.5813 13.0604 76.2397C12.9368 76.8775 12.875 77.4741 12.8338 77.9679C12.7926 78.4617 12.7926 78.8731 12.772 79.1406C12.772 79.4286 12.772 79.5932 12.7926 79.5932Z" fill="#263238"/>
<path d="M12.8544 78.6879C12.8544 78.6879 12.8544 78.6262 12.875 78.4822C12.875 78.3382 12.875 78.153 12.875 77.9061C12.875 77.4124 12.875 76.6923 12.8956 75.8282C12.9368 74.0794 13.081 72.1866 13.39 69.5121C13.6578 67.0021 14.0492 64.0806 14.4406 62.1878C14.523 61.7558 14.6054 61.3649 14.6878 61.0357C14.7702 60.686 14.832 60.3979 14.8938 60.1716C14.9556 59.9453 14.9968 59.7602 15.0174 59.6161C15.038 59.4927 15.0586 59.431 15.0586 59.4104C15.0586 59.4104 15.038 59.4721 14.9968 59.5956C14.9556 59.7396 14.8938 59.9247 14.832 60.1305C14.7496 60.3568 14.6878 60.6654 14.6054 60.9946C14.523 61.3238 14.42 61.7147 14.3376 62.1467C13.9462 63.8749 13.5342 66.2614 13.2458 68.936C12.9574 71.6106 12.8132 74.0383 12.8132 75.8076C12.7926 76.6923 12.8132 77.4124 12.8338 77.8856C12.8544 78.1119 12.8544 78.297 12.875 78.4616C12.8544 78.6262 12.8544 78.6879 12.8544 78.6879Z" fill="#263238"/>
<path d="M12.875 73.9972C12.8956 73.9972 12.875 73.7915 12.875 73.4006C12.8544 73.0303 12.7926 72.4748 12.6896 71.7958C12.566 71.1169 12.4218 70.3351 12.1746 69.4504C12.0716 69.0595 11.8038 68.1132 11.1858 66.6936C10.3824 64.7802 9.26998 63.1961 8.30178 62.2291C8.07518 61.9616 7.82798 61.7765 7.62198 61.5913C7.51898 61.509 7.43658 61.4061 7.33358 61.3444C7.23058 61.2827 7.14818 61.221 7.06578 61.1593C6.75678 60.9535 6.57138 60.8301 6.57138 60.8301C6.55078 60.8712 7.27178 61.3033 8.19878 62.2908C9.12578 63.2783 10.197 64.8419 11.0004 66.7347C11.4536 67.7634 11.7626 68.6892 11.9892 69.471C12.2364 70.3351 12.4218 71.1169 12.5454 71.7958C12.669 72.4542 12.7308 73.0097 12.772 73.38C12.8338 73.7915 12.8544 73.9972 12.875 73.9972Z" fill="#263238"/>
<path d="M8.32239 82.2678L8.79619 88.728H17.098L17.5718 82.2678H8.32239Z" fill="#263238"/>
<path d="M18.5606 79.7373H7.53958V82.2679H18.5606V79.7373Z" fill="#263238"/>
<path d="M7.53958 88.481V89.1805H8.05458H18.3752V88.481H7.53958Z" fill="#455A64"/>
<path d="M8.549 90.4148L8.0546 89.1804H17.9838L17.3864 90.4148H8.549Z" fill="#455A64"/>
<path d="M17.407 84.3868C17.407 84.3868 17.3864 84.4073 17.3658 84.4485C17.3246 84.4896 17.2834 84.5513 17.2422 84.6131C17.1186 84.7571 16.9538 84.9628 16.7684 85.2303L16.7478 85.2508L16.7272 85.2303C16.4182 84.8188 16.0268 84.2427 15.5324 83.5844H15.5942C15.244 84.0781 14.8526 84.6336 14.42 85.2303L14.3788 85.292L14.3376 85.2508C13.905 84.7365 13.4312 84.181 12.9574 83.605H13.0398C13.0192 83.6255 12.9986 83.6667 12.9574 83.7078C12.5248 84.2427 12.1128 84.7571 11.7214 85.2508L11.6802 85.3126L11.639 85.2508C11.227 84.6542 10.8356 84.0987 10.4648 83.605H10.5266C9.94978 84.2633 9.45538 84.8188 9.08458 85.2508L9.06398 85.2714L9.04338 85.2303C8.85798 84.9217 8.69318 84.6542 8.59018 84.4691C8.54898 84.3868 8.50778 84.325 8.46658 84.2633C8.50778 84.3045 8.54898 84.3868 8.59018 84.4485C8.71378 84.6336 8.85798 84.8805 9.06398 85.1891H9.02278C9.39358 84.7571 9.86738 84.2016 10.4442 83.5227L10.4854 83.4815L10.5266 83.5227C10.8768 84.0164 11.2888 84.5719 11.7008 85.1686H11.6184C12.0098 84.6748 12.4218 84.1604 12.8544 83.605C12.875 83.5638 12.9162 83.5432 12.9368 83.5021L12.978 83.4609L13.0192 83.5021C13.5136 84.0781 13.9668 84.6336 14.3994 85.148H14.317C14.7496 84.5513 15.141 83.9959 15.4912 83.5021L15.5324 83.4609L15.5736 83.5021C16.0474 84.1604 16.4388 84.7365 16.7272 85.1686H16.686C16.892 84.9217 17.0568 84.7159 17.1804 84.5719C17.2422 84.5102 17.2834 84.4485 17.3246 84.4073C17.3864 84.4073 17.407 84.3868 17.407 84.3868Z" fill="#E0E0E0"/>
<path d="M17.6748 82.2265C17.6748 82.2471 15.5942 82.2882 13.0398 82.2882C10.4854 82.2882 8.40479 82.2677 8.40479 82.2265C8.40479 82.2059 10.4854 82.1648 13.0398 82.1648C15.5942 82.1854 17.6748 82.2059 17.6748 82.2265Z" fill="#455A64"/>
<path d="M18.1074 89.2421C18.1074 89.2627 15.8414 89.3039 13.0604 89.3039C10.2794 89.3039 8.0134 89.2833 8.0134 89.2421C8.0134 89.2216 10.2794 89.1804 13.0604 89.1804C15.8414 89.201 18.1074 89.2216 18.1074 89.2421Z" fill="#263238"/>
<path d="M97.1702 90.5383H71.688V66.3437C71.688 64.6155 73.0888 63.2371 74.7986 63.2371H94.0596C95.79 63.2371 97.1702 64.6361 97.1702 66.3437V90.5383Z" fill="#455A64"/>
<path d="M95.0278 63.3606C95.0484 63.3606 95.0896 69.4504 95.0896 76.9392C95.0896 84.4486 95.069 90.5178 95.0278 90.5178C95.0072 90.5178 94.966 84.4486 94.966 76.9392C94.9866 69.4504 95.0072 63.3606 95.0278 63.3606Z" fill="#263238"/>
<path d="M82.4824 33.57C84.8102 36.9029 86.1904 40.8942 86.3552 44.9472C86.4788 47.6835 86.108 50.605 87.4058 53.0121C89.2804 56.4685 93.2974 56.3451 94.5334 60.0895C95.069 61.7148 94.0802 65.274 93.8124 66.9611C93.5034 68.8744 94.6776 70.4997 94.3892 72.4131C94.1008 74.1619 92.803 75.4374 91.2168 76.2398C89.816 76.9599 88.4976 76.9804 87.035 76.3838C84.2334 75.2317 81.9262 74.0178 79.928 71.7342C77.1264 68.5452 76.2818 64.1219 75.808 59.9249C74.7574 50.6462 74.9634 41.2234 76.4466 31.9858" fill="#263238"/>
<path d="M88.4358 76.7952C88.4358 76.7952 88.4564 76.7952 88.5182 76.7746C88.58 76.7541 88.6624 76.7541 88.786 76.7129C89.0126 76.6512 89.3628 76.5483 89.7542 76.322C90.1456 76.1163 90.6194 75.7871 91.0314 75.2933C91.2374 75.0464 91.4228 74.7584 91.5258 74.4087C91.6288 74.0589 91.67 73.6886 91.6906 73.2771C91.7318 72.4747 91.6082 71.5901 91.4228 70.6643C91.2374 69.7384 90.9902 68.7303 90.949 67.6605C90.9284 67.1256 90.949 66.5701 91.0726 66.0146C91.1962 65.4591 91.3816 64.9242 91.5876 64.3687C91.7936 63.8338 92.0202 63.2783 92.185 62.7022C92.3292 62.1262 92.4322 61.509 92.3292 60.9123C92.2468 60.3157 91.9996 59.7396 91.67 59.2459C91.3404 58.7521 90.9284 58.3201 90.4958 57.9292C89.6512 57.1268 88.7242 56.489 87.9414 55.7483C86.3552 54.2876 85.284 52.6212 84.6042 51.1604C84.2746 50.4198 84.0068 49.7408 83.842 49.1031C83.739 48.7944 83.6772 48.5064 83.6154 48.239C83.5536 47.9715 83.5124 47.7246 83.4712 47.4983C83.4094 47.0457 83.3682 46.6959 83.3476 46.4696C83.3476 46.3462 83.327 46.2639 83.327 46.2022C83.327 46.1404 83.327 46.1199 83.327 46.1199C83.327 46.1199 83.327 46.161 83.3476 46.2022C83.3476 46.2639 83.3682 46.3668 83.3888 46.4696C83.4094 46.7165 83.4712 47.0457 83.533 47.4983C83.5742 47.7246 83.636 47.9715 83.6772 48.239C83.7596 48.5064 83.8008 48.7944 83.9038 49.1031C84.0892 49.7203 84.3364 50.3992 84.6866 51.1398C85.3664 52.6006 86.4376 54.2465 88.0238 55.6866C88.8066 56.4067 89.7336 57.0651 90.5782 57.8674C91.0108 58.2583 91.4228 58.6904 91.773 59.2047C92.1026 59.6985 92.3704 60.2951 92.4528 60.9123C92.5558 61.5295 92.4528 62.1673 92.3086 62.7434C92.1438 63.3195 91.9172 63.8749 91.7112 64.4304C91.5052 64.9654 91.2992 65.5003 91.1962 66.0558C91.0726 66.5907 91.052 67.1462 91.0726 67.6811C91.1344 68.7509 91.361 69.7384 91.5464 70.6848C91.7318 71.6106 91.8554 72.5159 91.7936 73.3183C91.773 73.7297 91.7112 74.1206 91.6082 74.4704C91.4846 74.8201 91.2992 75.1287 91.0932 75.3756C90.6812 75.8694 90.1868 76.178 89.7954 76.4043C89.3834 76.61 89.0538 76.7129 88.8066 76.7746C88.58 76.7952 88.4358 76.7952 88.4358 76.7952Z" fill="#455A64"/>
<path d="M50.0992 84.1401L59.9872 79.4493C59.9872 79.4493 63.8394 60.789 64.5604 59.3694C65.2814 57.9704 68.3302 56.7566 68.3302 56.7566L67.8152 82.0622L66.9088 87.8845L52.9626 89.2013L50.0992 84.1401Z" fill="#D81E05"/>
<path d="M41.6532 88.5635C41.5914 88.5635 41.3236 88.7281 41.5502 89.1601C41.7768 89.5922 43.4454 91.0323 43.9398 90.518C44.4342 90.0242 43.672 89.407 43.672 89.407L41.6532 88.5635Z" fill="#FFBE9D"/>
<path d="M43.7544 89.4481C43.7544 89.4481 45.7732 89.695 46.556 90.0036C47.4006 90.3328 48.4306 90.1065 49.131 89.6333C49.8314 89.1601 50.2228 88.7486 50.2228 88.7486L52.7978 88.7075C52.7978 88.7075 54.0338 87.4319 53.2922 85.5185C53.1686 85.1894 53.0244 84.9219 52.6948 84.5104C52.3858 84.1812 51.912 83.9138 51.0674 83.7698L47.998 84.4281C47.998 84.4281 43.26 84.099 42.4154 84.4899C42.4154 84.4899 41.3648 85.1276 41.0352 85.3745C40.9116 85.4774 40.5408 86.6707 41.303 87.3084C41.303 87.3084 40.6232 87.8434 40.994 88.3166L41.1588 88.5223C41.1588 88.5223 40.7056 89.0984 40.9322 89.3658C41.1588 89.6127 43.1982 90.806 43.9192 90.5179C44.6814 90.2505 44.084 89.5715 43.7544 89.4481Z" fill="#FFBE9D"/>
<path d="M41.8386 86.2593C41.8386 86.2593 41.921 86.2798 42.0858 86.3416C42.2506 86.4033 42.4772 86.4856 42.7656 86.5885C42.9098 86.6296 43.0746 86.6913 43.2394 86.7325C43.4042 86.7736 43.6102 86.8148 43.7956 86.8765C43.981 86.9382 44.2076 87.0411 44.3518 87.2057C44.496 87.3703 44.599 87.6377 44.496 87.8846C44.4548 88.008 44.3518 88.0903 44.2488 88.1521C44.1458 88.2138 44.0222 88.2344 43.9192 88.2549C43.6926 88.2755 43.4866 88.2549 43.2806 88.2138C42.8686 88.1521 42.5184 88.0492 42.23 87.9463C41.9416 87.8435 41.715 87.7406 41.5502 87.6789C41.3854 87.6171 41.303 87.576 41.303 87.5554C41.303 87.5554 41.3854 87.576 41.5502 87.6377C41.715 87.6994 41.9416 87.7817 42.23 87.8846C42.5184 87.9875 42.8686 88.0903 43.26 88.1315C43.466 88.1521 43.672 88.1726 43.878 88.1521C43.981 88.1315 44.084 88.1109 44.187 88.0698C44.2694 88.0286 44.3518 87.9463 44.393 87.8435C44.4754 87.6377 44.393 87.4114 44.2694 87.2468C44.1252 87.0822 43.9398 86.9999 43.7544 86.9382C43.569 86.8765 43.3836 86.8353 43.1982 86.7942C43.0334 86.753 42.8686 86.6913 42.7244 86.6502C42.436 86.5473 42.2094 86.4444 42.0446 86.3827C41.921 86.321 41.818 86.2593 41.8386 86.2593Z" fill="#D81E05"/>
<path d="M42.0034 84.7986C42.0034 84.7986 42.0858 84.8192 42.2506 84.8809C42.4154 84.9426 42.642 85.0249 42.9304 85.1278C43.2188 85.2306 43.569 85.3335 43.9604 85.4158C44.1458 85.4569 44.3724 85.4981 44.5578 85.6627C44.6402 85.745 44.7226 85.8478 44.7432 85.9713C44.7638 86.0947 44.7432 86.2182 44.6814 86.3416C44.5784 86.5679 44.3724 86.7119 44.1458 86.7942C43.9398 86.8765 43.7132 86.8765 43.5072 86.8354C43.0952 86.7737 42.7656 86.6296 42.4772 86.5268C42.2094 86.4239 41.9622 86.3416 41.7974 86.2799C41.6326 86.2182 41.5502 86.177 41.5502 86.177C41.5502 86.177 41.6532 86.1976 41.7974 86.2387C41.9828 86.3005 42.2094 86.3622 42.4978 86.4445C42.7862 86.5268 43.1364 86.6708 43.5278 86.7325C43.7338 86.7531 43.9398 86.7531 44.1252 86.6708C44.3312 86.6091 44.5166 86.4651 44.599 86.2593C44.702 86.0536 44.6608 85.8067 44.496 85.6833C44.3312 85.5392 44.1252 85.4981 43.9398 85.4569C43.5484 85.3541 43.1982 85.2512 42.9098 85.1483C42.6214 85.0455 42.3948 84.9426 42.23 84.8809C42.0858 84.8603 42.0034 84.8192 42.0034 84.7986Z" fill="#D81E05"/>
<path d="M42.9922 85.2304C42.9716 85.2304 42.951 85.0453 42.9098 84.819C42.848 84.5927 42.7862 84.4281 42.8068 84.4075C42.8274 84.3869 42.9304 84.5515 42.9922 84.7984C43.0334 85.0247 43.0128 85.2304 42.9922 85.2304Z" fill="#D81E05"/>
<path d="M50.1198 85.2924L48.3276 84.5928C48.3276 84.5928 43.3218 82.268 43.2394 82.3915C43.157 82.5149 42.8892 82.4943 42.951 83.1115C43.0128 83.7288 45.9174 84.9426 46.0204 85.1689C46.1028 85.3746 45.9586 86.4445 47.0298 87.2057C48.101 87.9669 48.8838 87.9875 48.8838 87.9875" fill="#FFBE9D"/>
<path d="M48.8632 87.9668C48.8632 87.9668 48.8426 87.9668 48.822 87.9668C48.8014 87.9668 48.7602 87.9668 48.6984 87.9463C48.5954 87.9257 48.4306 87.9051 48.2246 87.8434C48.0186 87.7817 47.792 87.6788 47.5242 87.5348C47.2564 87.3908 46.968 87.2262 46.7002 86.9587C46.4324 86.7118 46.2058 86.3415 46.0822 85.9095C46.0204 85.7037 45.9998 85.4568 45.9792 85.2305C45.9792 85.21 45.9792 85.1688 45.9586 85.1482C45.9586 85.1277 45.938 85.1277 45.9174 85.1071C45.8762 85.0659 45.8144 85.0454 45.7732 85.0042C45.6702 84.9425 45.5672 84.8808 45.4642 84.8191C45.0316 84.5928 44.5784 84.3459 44.1046 84.0784C43.878 83.955 43.6308 83.811 43.4042 83.6464C43.3012 83.5641 43.1776 83.4818 43.0746 83.3789C43.0334 83.3378 42.9716 83.276 42.9304 83.2143C42.9098 83.1732 42.8892 83.1526 42.8892 83.1115C42.8892 83.0703 42.8892 83.0292 42.8686 83.0086C42.8686 82.8646 42.8686 82.7206 42.951 82.5765C42.9922 82.5148 43.054 82.4531 43.1158 82.412C43.1364 82.3914 43.1776 82.3708 43.1776 82.3502C43.1776 82.3502 43.1776 82.3502 43.1982 82.3297C43.2188 82.3091 43.2188 82.3297 43.2394 82.3091C43.26 82.3091 43.26 82.3091 43.2806 82.3091C43.3012 82.3091 43.3218 82.3091 43.3424 82.3297C43.6102 82.4119 43.8574 82.5148 44.1046 82.6177C44.599 82.8234 45.0728 83.0292 45.526 83.2349C46.4324 83.6464 47.2358 84.0167 47.895 84.3253C48.0598 84.4076 48.2246 84.4899 48.3688 84.5516C48.5336 84.6133 48.6778 84.675 48.8014 84.7162C49.0692 84.8191 49.3164 84.9219 49.5018 85.0042C49.6872 85.0865 49.8314 85.1482 49.955 85.1894C49.9962 85.21 50.0374 85.2305 50.0786 85.2305C50.0374 85.21 50.0168 85.21 49.955 85.1894C49.852 85.1482 49.6872 85.0865 49.5018 85.0248C49.2958 84.9425 49.0692 84.8602 48.7808 84.7573C48.6366 84.6956 48.4924 84.6545 48.3276 84.5928C48.1628 84.531 48.0186 84.4487 47.8332 84.3664C47.1534 84.0578 46.35 83.6875 45.4436 83.2966C44.9904 83.0909 44.5166 82.8851 44.0222 82.6794C43.775 82.5765 43.5278 82.4737 43.26 82.3914C43.2394 82.3914 43.2188 82.3914 43.2188 82.3708H43.1982C43.1982 82.3502 43.1982 82.3502 43.1982 82.3502C43.26 82.3914 43.2188 82.3708 43.2188 82.3708C43.1982 82.4119 43.157 82.4325 43.1364 82.4531C43.0746 82.4942 43.0334 82.5354 42.9922 82.5971C42.9304 82.7 42.9304 82.844 42.9304 82.988C42.9304 83.0703 42.9304 83.1115 42.9716 83.1732C43.0128 83.2349 43.054 83.276 43.0952 83.3378C43.1982 83.4406 43.3012 83.5229 43.4042 83.6052C43.6308 83.7698 43.8574 83.9138 44.084 84.0373C44.5372 84.3047 45.011 84.531 45.4436 84.7779C45.5466 84.8396 45.6496 84.9014 45.7732 84.9631C45.835 85.0042 45.8762 85.0248 45.9174 85.066C45.938 85.0865 45.9792 85.1071 45.9792 85.1482C45.9998 85.1894 45.9998 85.21 45.9998 85.2511C46.0204 85.4774 46.041 85.7037 46.1028 85.9095C46.2058 86.3209 46.4324 86.6913 46.7002 86.9382C46.968 87.185 47.2564 87.3702 47.5036 87.5142C47.7508 87.6582 47.998 87.7611 48.1834 87.8228C48.3894 87.8845 48.5336 87.9257 48.6366 87.9463C48.6984 87.9668 48.7396 87.9668 48.7602 87.9668C48.8632 87.9668 48.8632 87.9668 48.8632 87.9668Z" fill="#D81E05"/>
<path d="M43.3424 88.2136C43.3424 88.2136 43.4042 88.2136 43.5278 88.2753C43.6514 88.3165 43.8162 88.3988 44.0016 88.5428C44.084 88.6251 44.187 88.7074 44.2694 88.8103C44.3518 88.9131 44.4342 89.0571 44.4136 89.2217C44.393 89.3863 44.2488 89.5303 44.084 89.5715C43.9192 89.6332 43.7338 89.5921 43.569 89.5509C42.8892 89.3452 42.3124 89.0983 41.9004 88.8926C41.6944 88.7897 41.5502 88.6868 41.4266 88.6251C41.3236 88.5634 41.2618 88.5017 41.2618 88.5017C41.2618 88.5017 41.3236 88.5222 41.4472 88.584C41.5502 88.6457 41.715 88.728 41.921 88.8308C42.333 89.0366 42.9098 89.2629 43.569 89.4686C43.7338 89.5098 43.8986 89.5303 44.0428 89.4892C44.187 89.448 44.3106 89.3246 44.3312 89.2012C44.3518 89.0571 44.29 88.9337 44.2076 88.8308C44.1252 88.728 44.0428 88.6457 43.9604 88.5634C43.6308 88.2959 43.3424 88.2342 43.3424 88.2136Z" fill="#D81E05"/>
<g opacity="0.3">
<path d="M66.847 87.8846C65.2196 82.4325 63.7982 75.3964 62.1708 69.9443C61.5734 74.9849 62.315 81.6302 63.242 86.609C63.345 87.1851 63.4068 87.7611 63.86 88.152L66.847 87.8846Z" fill="black"/>
</g>
<path d="M64.1896 84.1401C64.169 84.1401 64.1072 83.7904 63.8806 83.2349C63.7776 82.9674 63.6128 82.6588 63.4068 82.3091C63.2008 81.9799 62.9536 81.6301 62.6446 81.3009C62.3356 80.9718 62.006 80.7043 61.697 80.478C61.388 80.2517 61.079 80.0665 60.8112 79.9431C60.2756 79.6756 59.9254 79.5933 59.9254 79.5728C59.9254 79.5728 60.0078 79.5933 60.1726 79.6345C60.255 79.6551 60.358 79.6756 60.461 79.7373C60.564 79.7785 60.7082 79.8196 60.8318 79.8814C61.0996 80.0048 61.4086 80.1694 61.7382 80.3957C62.0678 80.622 62.3974 80.91 62.7064 81.2392C63.0154 81.5684 63.2626 81.9182 63.4686 82.2679C63.6746 82.6177 63.8188 82.9263 63.9218 83.2143C63.9836 83.3583 64.0042 83.4818 64.0454 83.6052C64.0866 83.7081 64.1072 83.8109 64.1278 83.8932C64.1896 84.0578 64.1896 84.1401 64.1896 84.1401Z" fill="#263238"/>
<path d="M67.2796 56.5096C67.2796 56.5096 62.109 68.072 62.109 70.1911C62.109 72.3102 65.9818 87.0409 65.9818 87.0409C65.9406 87.617 65.7964 90.559 65.7964 90.559L87.55 90.6413L87.8796 85.9711L86.1904 81.5272L87.8796 68.9567C87.8796 68.9567 89.0126 61.653 89.1156 59.6162C89.2392 57.0651 80.5666 54.1025 80.8138 53.7527L79.31 51.7571L70.7404 58.711L69.0512 53.8144L67.0118 55.7278L67.2796 56.5096Z" fill="#D81E05"/>
<path d="M81.5142 59.5958C79.1658 63.5665 74.8604 70.829 74.8604 70.829L67.1354 79.6139C67.1354 79.6139 66.6204 84.0784 67.6504 85.4569C68.6804 86.8353 70.3902 87.7611 70.3902 87.7611C70.3902 87.7611 72.4296 87.7611 75.0252 85.6009C77.6208 83.4406 84.7484 74.5117 84.7484 74.5117L87.1998 71.5491C87.1998 71.5491 90.125 64.3688 89.5688 60.7273C89.3628 59.3283 88.7654 58.7317 87.962 58.0939C85.9432 56.448 82.8326 57.3738 81.5142 59.5958Z" fill="#D81E05"/>
<path d="M88.1062 69.0391C88.1062 69.0391 88.0856 69.0596 88.065 69.1214C88.0444 69.1831 88.0032 69.2654 87.9414 69.3477C87.8384 69.5534 87.6736 69.862 87.4676 70.2323C87.035 70.9936 86.3758 72.0634 85.5106 73.3595C85.078 73.9973 84.5836 74.6968 84.0686 75.458C83.533 76.1987 82.9356 76.9805 82.4206 77.8652C81.9056 78.7498 81.473 79.7374 80.9168 80.7249C80.3606 81.7124 79.722 82.6794 78.9598 83.5846C78.1976 84.4899 77.3118 85.2923 76.3642 85.8889C75.4166 86.4855 74.366 86.8764 73.3566 87.0616C72.3266 87.2468 71.3378 87.185 70.4314 86.9382C69.9782 86.8147 69.5662 86.6501 69.1954 86.4444C68.8246 86.2386 68.4744 86.0123 68.186 85.7655C67.877 85.5186 67.6298 85.2511 67.4238 84.9631C67.2178 84.675 67.053 84.387 66.9088 84.099C66.6616 83.5229 66.5586 83.0086 66.4968 82.5765C66.4556 82.1445 66.4556 81.7947 66.4556 81.5684C66.4556 81.4656 66.4762 81.3627 66.4762 81.301C66.4762 81.3627 66.4762 81.445 66.4762 81.5684C66.4762 81.7947 66.4762 82.1445 66.538 82.556C66.5998 82.988 66.7028 83.5024 66.9706 84.0578C67.0942 84.3253 67.259 84.6133 67.4856 84.9014C67.6916 85.1894 67.9388 85.4569 68.2478 85.7037C68.5362 85.9506 68.8864 86.1769 69.2572 86.3827C69.628 86.5884 70.04 86.753 70.4726 86.8764C71.3584 87.1027 72.3472 87.1645 73.3566 86.9793C74.366 86.8147 75.396 86.4238 76.323 85.8272C77.2706 85.2305 78.1358 84.4487 78.898 83.5435C79.6602 82.6383 80.2988 81.6713 80.855 80.7043C81.3906 79.7374 81.8438 78.7498 82.3588 77.8446C82.8738 76.9394 83.4918 76.1781 84.0068 75.4375C84.5424 74.6968 85.0368 73.9973 85.4694 73.3595C86.3346 72.0634 87.0144 71.0141 87.447 70.2529C87.6736 69.8826 87.8384 69.574 87.9414 69.3888C88.0032 69.2859 88.0444 69.2242 88.065 69.1625C88.0856 69.0802 88.1062 69.0391 88.1062 69.0391Z" fill="#263238"/>
<path d="M66.744 79.2229C66.744 79.2435 66.641 79.3052 66.4968 79.4698C66.3526 79.6344 66.2084 79.8813 66.1672 80.2104C66.1466 80.519 66.2496 80.8071 66.3526 80.9922C66.4556 81.1774 66.5586 81.2597 66.5586 81.2803C66.5586 81.2803 66.435 81.2185 66.2908 81.0334C66.1672 80.8482 66.023 80.5396 66.0642 80.1899C66.1054 79.8401 66.2908 79.5727 66.4556 79.4081C66.6204 79.2435 66.744 79.2023 66.744 79.2229Z" fill="#263238"/>
<path d="M68.1654 81.5478C68.1654 81.5478 68.2066 81.5478 68.289 81.5684C68.3302 81.5684 68.3714 81.589 68.4332 81.6095C68.495 81.6301 68.5568 81.6301 68.6392 81.6507C68.9482 81.6918 69.3808 81.6918 69.9164 81.5272C70.4314 81.3626 71.0082 81.0335 71.5644 80.5603C72.1 80.0871 72.5944 79.4493 73.1094 78.7704C73.6244 78.112 74.1188 77.4742 74.6956 77.001C74.984 76.7747 75.2518 76.5484 75.4784 76.3427C75.705 76.1164 75.8904 75.89 75.9934 75.6432C76.1788 75.1288 76.0552 74.6556 75.8698 74.4293C75.6844 74.1824 75.4784 74.1619 75.499 74.1619C75.499 74.1619 75.5402 74.1619 75.6226 74.203C75.705 74.2442 75.808 74.3059 75.911 74.4293C76.117 74.6556 76.2612 75.1494 76.0758 75.7049C75.9728 75.9723 75.7874 76.2192 75.5608 76.4455C75.3342 76.6719 75.0458 76.8982 74.778 77.1245C74.2218 77.5977 73.7274 78.2149 73.2124 78.8732C72.6974 79.5316 72.203 80.1694 71.6468 80.6631C71.0906 81.1363 70.4932 81.4655 69.9576 81.6301C69.422 81.7947 68.9688 81.7741 68.6598 81.7124C68.5774 81.6918 68.5156 81.6713 68.4538 81.6713C68.392 81.6507 68.3508 81.6301 68.3096 81.6301C68.2066 81.5684 68.1654 81.5478 68.1654 81.5478Z" fill="#263238"/>
<path d="M82.5648 58.3613C82.5648 58.3613 82.5442 58.4025 82.4824 58.4848C82.4206 58.5671 82.3382 58.6905 82.2146 58.8345C81.988 59.1226 81.6584 59.5546 81.267 60.1101C80.4842 61.2005 79.4954 62.7641 78.5272 64.5746C77.559 66.3851 76.7556 68.0515 76.1376 69.2448C75.8286 69.8414 75.5814 70.3146 75.396 70.6438C75.3136 70.8084 75.2312 70.9318 75.19 71.0141C75.1488 71.0964 75.1076 71.1376 75.1076 71.1376C75.1076 71.1376 75.1282 71.0964 75.1694 70.9936C75.2106 70.8907 75.2724 70.7672 75.3548 70.6027C75.5196 70.2529 75.7668 69.7797 76.0552 69.1831C76.6526 67.9898 77.456 66.3028 78.4242 64.4923C79.3924 62.6818 80.4018 61.1182 81.2052 60.0484C81.6172 59.5135 81.9468 59.0814 82.194 58.7934C82.3176 58.6494 82.4 58.5465 82.4824 58.4642C82.5236 58.4025 82.5648 58.3613 82.5648 58.3613Z" fill="#263238"/>
<g opacity="0.3">
<path d="M66.4968 81.198C67.5062 81.7329 68.598 81.6918 69.731 81.4655C70.8434 81.2392 71.894 80.622 72.615 79.7373C72.4296 80.7248 71.997 81.6712 71.2966 82.3707C70.5756 83.0702 69.5456 83.4817 68.5774 83.2965C67.568 83.1114 66.5792 82.1856 66.4968 81.198Z" fill="black"/>
</g>
<g opacity="0.3">
<path d="M75.9934 75.2522C76.632 76.2191 76.8586 77.433 76.6114 78.5645C77.456 77.2684 77.662 75.6225 77.4354 74.0795C77.2088 72.5364 76.5908 71.0963 75.8904 69.6973C75.8904 69.6973 75.1282 70.9934 75.1076 71.1374C75.0664 71.8781 75.3548 73.2977 75.499 74.0177C75.8904 74.3881 76.0758 74.9436 75.9728 75.4785" fill="black"/>
</g>
<g opacity="0.3">
<path d="M69.8958 86.5676C71.9352 88.1518 74.984 88.2341 77.2294 86.9174C79.3924 85.6624 80.7108 83.3787 81.9468 81.2185C83.8626 77.865 86.1904 73.7091 87.55 70.0881C87.55 70.0881 83.7184 75.2933 82.5854 77.5358C81.7202 79.2228 81.0404 80.3544 79.9692 81.918C77.8268 85.0863 73.9334 86.9791 70.1018 86.7117" fill="black"/>
</g>
<path d="M65.7964 90.5179C65.7964 90.4768 65.7964 90.4151 65.7964 90.3328C65.7964 90.1682 65.817 89.9213 65.817 89.6127C65.8376 88.9955 65.8788 88.1108 65.9406 87.0616V87.0821C65.5698 85.8477 65.1372 84.3458 64.684 82.7411C64.0866 80.6014 63.5922 78.6469 63.2626 77.2273C63.0978 76.5278 62.9536 75.9518 62.8712 75.5403C62.83 75.3551 62.8094 75.1906 62.7682 75.0877C62.7476 74.9848 62.7476 74.9231 62.7476 74.9231C62.7476 74.9231 62.7682 74.9848 62.7888 75.0877C62.8094 75.2111 62.8506 75.3551 62.9124 75.5403C63.0154 75.9518 63.1596 76.5073 63.3244 77.2068C63.6746 78.6264 64.1896 80.5603 64.787 82.6999C65.2402 84.3253 65.6522 85.8066 66.023 87.0616C65.9612 88.1108 65.8994 88.9955 65.8582 89.6127C65.8376 89.9213 65.817 90.1476 65.817 90.3328C65.817 90.4151 65.7964 90.4768 65.7964 90.5179Z" fill="#263238"/>
<path d="M87.55 57.9497C87.55 57.9703 87.3234 57.888 86.9732 57.8057C86.623 57.7234 86.108 57.6205 85.5518 57.6C84.9956 57.5794 84.4806 57.6411 84.1304 57.7028C83.7596 57.7646 83.5536 57.8263 83.533 57.8263C83.533 57.8263 83.5742 57.8057 83.6772 57.7645C83.7802 57.7234 83.9244 57.6823 84.1098 57.6411C84.4806 57.5588 84.9956 57.4765 85.5518 57.4971C86.1286 57.5177 86.623 57.6205 86.9938 57.7234C87.1792 57.7851 87.3234 57.8263 87.4058 57.8674C87.5088 57.9086 87.55 57.9497 87.55 57.9497Z" fill="#263238"/>
<path d="M80.6696 54.1641C80.6696 54.1641 80.649 54.2052 80.6078 54.2669C80.5666 54.3492 80.5048 54.4521 80.4224 54.555C80.2576 54.8019 80.031 55.1722 79.7426 55.6248C79.1658 56.5095 78.3212 57.7233 77.3324 59.0195C76.529 60.0687 75.7668 60.9945 75.1488 61.7352L75.1076 61.7969L75.087 61.7352C74.778 61.0768 74.5308 60.5419 74.366 60.151C74.2836 59.9659 74.2218 59.8218 74.1806 59.719C74.1394 59.6161 74.1188 59.5544 74.1188 59.5544C74.1188 59.5544 74.16 59.5955 74.2012 59.6984C74.263 59.8013 74.3248 59.9453 74.4072 60.1304C74.5926 60.5213 74.8604 61.0563 75.1694 61.7146H75.1076C75.7256 60.974 76.4878 60.0276 77.2706 58.9989C78.2594 57.7027 79.104 56.5095 79.7014 55.6248C79.9898 55.1928 80.237 54.843 80.4018 54.5756C80.4842 54.4521 80.546 54.3698 80.5872 54.2875C80.6284 54.1847 80.6696 54.1435 80.6696 54.1641Z" fill="#263238"/>
<path d="M85.6754 87.329C85.6548 87.329 85.7372 86.2591 85.8814 84.9424C86.0256 83.6257 86.1698 82.5559 86.1904 82.5765C86.211 82.5765 86.1286 83.6463 85.9844 84.963C85.8402 86.2592 85.696 87.329 85.6754 87.329Z" fill="#263238"/>
<path d="M70.761 87.041C70.7816 87.041 70.9052 87.8434 71.0082 88.8309C71.1112 89.8185 71.173 90.6414 71.1524 90.6414C71.1318 90.6414 71.0082 89.839 70.9052 88.8515C70.8022 87.864 70.7404 87.0616 70.761 87.041Z" fill="#263238"/>
<path d="M81.7614 63.5459C81.7408 63.3813 81.4936 63.2784 81.37 63.3813L81.3494 63.4018C81.2258 63.5253 81.267 63.7722 81.4318 63.8133C81.5966 63.875 81.782 63.7105 81.7614 63.5459Z" fill="white"/>
<path d="M79.619 58.32C79.5984 58.1554 79.3512 58.0526 79.2276 58.1554L79.207 58.176C79.0834 58.2995 79.1246 58.5463 79.2894 58.5875C79.4542 58.6492 79.6396 58.4846 79.619 58.32Z" fill="white"/>
<path d="M74.6956 62.5376C74.675 62.373 74.4278 62.2701 74.3042 62.373L74.2836 62.3935C74.16 62.517 74.2012 62.7639 74.366 62.805C74.5102 62.8667 74.7162 62.7022 74.6956 62.5376Z" fill="white"/>
<path d="M69.3602 60.4187C69.3396 60.2541 69.0924 60.1512 68.9688 60.2541L68.9482 60.2747C68.8246 60.3981 68.8658 60.645 69.0306 60.6861C69.1954 60.7478 69.3808 60.5833 69.3602 60.4187Z" fill="white"/>
<path d="M68.4126 58.3405C68.392 58.176 68.1448 58.0731 68.0212 58.176L68.0006 58.1965C67.877 58.32 67.9182 58.5669 68.083 58.608C68.2478 58.6697 68.4332 58.5051 68.4126 58.3405Z" fill="white"/>
<path d="M68.8246 55.9336C68.804 55.769 68.5568 55.6661 68.4332 55.769L68.4126 55.7895C68.289 55.913 68.3302 56.1599 68.495 56.201C68.6598 56.2627 68.8452 56.0981 68.8246 55.9336Z" fill="white"/>
<path d="M65.8788 59.2458C65.8582 59.0812 65.611 58.9784 65.4874 59.0812L65.4668 59.1018C65.3432 59.2252 65.3844 59.4721 65.5492 59.5133C65.714 59.575 65.8994 59.4104 65.8788 59.2458Z" fill="white"/>
<path d="M72.718 60.1923C72.6974 60.0278 72.4502 59.9249 72.3266 60.0278L72.306 60.0483C72.1824 60.1718 72.2236 60.4187 72.3884 60.4598C72.5326 60.5215 72.7386 60.3569 72.718 60.1923Z" fill="white"/>
<path d="M66.9294 64.4922C66.9088 64.3276 66.6616 64.2247 66.538 64.3276L66.5174 64.3481C66.3938 64.4716 66.435 64.7185 66.5998 64.7596C66.744 64.8213 66.95 64.6567 66.9294 64.4922Z" fill="white"/>
<path d="M61.6146 76.8364C61.594 76.6718 61.3468 76.5689 61.2232 76.6718L61.2026 76.6924C61.079 76.8158 61.1202 77.0627 61.285 77.1038C61.4498 77.1656 61.6558 77.001 61.6146 76.8364Z" fill="white"/>
<path d="M63.5098 69.718C63.4892 69.5534 63.242 69.4505 63.1184 69.5534L63.0978 69.574C62.9742 69.6974 63.0154 69.9443 63.1802 69.9854C63.345 70.0472 63.5304 69.8826 63.5098 69.718Z" fill="white"/>
<path d="M77.456 57.2092C77.4354 57.0446 77.1882 56.9417 77.0646 57.0446L77.044 57.0652C76.9204 57.1886 76.9616 57.4355 77.1264 57.4767C77.2706 57.5384 77.4766 57.3738 77.456 57.2092Z" fill="white"/>
<path d="M84.0892 71.3842C84.0686 71.2197 83.8214 71.1168 83.6978 71.2197L83.6772 71.2402C83.5536 71.3637 83.5948 71.6106 83.7596 71.6517C83.9244 71.7134 84.1304 71.5488 84.0892 71.3842Z" fill="white"/>
<path d="M86.6848 59.1843C86.6642 59.0197 86.417 58.9168 86.2934 59.0197L86.2728 59.0403C86.1492 59.1637 86.1904 59.4106 86.3552 59.4518C86.52 59.5135 86.7054 59.3489 86.6848 59.1843Z" fill="white"/>
<path d="M85.6754 67.1667C85.6548 67.0021 85.4076 66.8993 85.284 67.0021L85.2634 67.0227C85.1398 67.1461 85.181 67.393 85.3458 67.4342C85.5106 67.5165 85.696 67.3519 85.6754 67.1667Z" fill="white"/>
<path d="M79.8662 72.948C79.8456 72.7834 79.5984 72.6805 79.4748 72.7834L79.4542 72.8039C79.3306 72.9274 79.3718 73.1743 79.5366 73.2154C79.7014 73.2771 79.8868 73.1126 79.8662 72.948Z" fill="white"/>
<path d="M80.1134 68.1338C80.0928 67.9692 79.8456 67.8663 79.722 67.9692L79.7014 67.9897C79.5778 68.1132 79.619 68.3601 79.7838 68.4012C79.928 68.4835 80.134 68.3189 80.1134 68.1338Z" fill="white"/>
<path d="M83.6154 59.2253C83.5948 59.0607 83.3476 58.9578 83.224 59.0607L83.2034 59.0813C83.0798 59.2047 83.121 59.4516 83.2858 59.4928C83.4506 59.5545 83.636 59.3899 83.6154 59.2253Z" fill="white"/>
<path d="M78.898 54.5756C78.8774 54.4111 78.6302 54.3082 78.5066 54.4111L78.486 54.4316C78.3624 54.5551 78.4036 54.802 78.5684 54.8431C78.7126 54.9048 78.9186 54.7402 78.898 54.5756Z" fill="white"/>
<path d="M78.7126 62.0644C78.692 61.8998 78.4448 61.797 78.3212 61.8998L78.3006 61.9204C78.177 62.0438 78.2182 62.2907 78.383 62.3319C78.5478 62.4142 78.7538 62.2496 78.7126 62.0644Z" fill="white"/>
<path d="M72.6974 84.9629C72.6768 84.7983 72.4296 84.6954 72.306 84.7983L72.2854 84.8188C72.1618 84.9423 72.203 85.1892 72.3678 85.2303C72.5326 85.292 72.718 85.1274 72.6974 84.9629Z" fill="white"/>
<path d="M65.7758 81.198C65.7552 81.0334 65.508 80.9305 65.3844 81.0334L65.3638 81.0539C65.2402 81.1774 65.2814 81.4243 65.4462 81.4654C65.611 81.5271 65.817 81.3626 65.7758 81.198Z" fill="white"/>
<path d="M60.1932 83.0495C60.1726 82.8849 59.9254 82.7821 59.8018 82.8849L59.7812 82.9055C59.6576 83.029 59.6988 83.2758 59.8636 83.317C60.0284 83.3787 60.2138 83.2141 60.1932 83.0495Z" fill="white"/>
<path d="M59.5958 86.218C59.5752 86.0534 59.328 85.9505 59.2044 86.0534L59.1838 86.074C59.0602 86.1974 59.1014 86.4443 59.2662 86.4854C59.431 86.5472 59.6164 86.3826 59.5958 86.218Z" fill="white"/>
<path d="M64.8282 87.2878C64.8076 87.1232 64.5604 87.0203 64.4368 87.1232L64.4162 87.1438C64.2926 87.2672 64.3338 87.5141 64.4986 87.5553C64.6634 87.617 64.8694 87.4524 64.8282 87.2878Z" fill="white"/>
<path d="M63.0772 80.1694C63.0566 80.0048 62.8094 79.9019 62.6858 80.0048L62.6652 80.0254C62.5416 80.1488 62.5828 80.3957 62.7476 80.4369C62.9124 80.4986 63.1184 80.334 63.0772 80.1694Z" fill="white"/>
<path d="M69.5044 81.9797C69.4838 81.8151 69.2366 81.7122 69.113 81.8151L69.0924 81.8357C68.9688 81.9591 69.01 82.206 69.1748 82.2472C69.3396 82.2883 69.5456 82.1443 69.5044 81.9797Z" fill="white"/>
<path d="M84.7896 80.1487C84.769 79.9841 84.5218 79.8812 84.3982 79.9841L84.3776 80.0046C84.254 80.1281 84.2952 80.375 84.46 80.4161C84.6248 80.4984 84.8102 80.3338 84.7896 80.1487Z" fill="white"/>
<path d="M75.3342 89.2011C75.3136 89.0366 75.0664 88.9337 74.9428 89.0365L74.9222 89.0571C74.7986 89.1806 74.8398 89.4274 75.0046 89.4686C75.1694 89.5303 75.3754 89.3657 75.3342 89.2011Z" fill="white"/>
<path d="M79.3718 84.1606C79.3512 83.996 79.104 83.8932 78.9804 83.996L78.9598 84.0166C78.8362 84.14 78.8774 84.3869 79.0422 84.4281C79.207 84.4898 79.3924 84.3458 79.3718 84.1606Z" fill="white"/>
<path d="M81.7614 88.2549C81.7408 88.0903 81.4936 87.9874 81.37 88.0903L81.3494 88.1108C81.2258 88.2343 81.267 88.4812 81.4318 88.5223C81.5966 88.6046 81.8026 88.44 81.7614 88.2549Z" fill="white"/>
<path d="M75.1076 66.8171C75.087 66.6525 74.8398 66.5496 74.7162 66.6525L74.6956 66.6731C74.572 66.7965 74.6132 67.0434 74.778 67.0846C74.9428 67.1463 75.1282 66.9817 75.1076 66.8171Z" fill="white"/>
<path d="M80.5254 77.2685C80.5048 77.1039 80.2576 77.0011 80.134 77.1039L80.1134 77.1245C79.9898 77.2479 80.031 77.4948 80.1958 77.536C80.3606 77.5977 80.546 77.4331 80.5254 77.2685Z" fill="white"/>
<path d="M78.7744 81.2392C78.7538 81.0746 78.5066 80.9718 78.383 81.0746L78.3624 81.0952C78.2388 81.2186 78.28 81.4655 78.4448 81.5067C78.589 81.5684 78.795 81.4038 78.7744 81.2392Z" fill="white"/>
<path d="M84.5424 84.4074C84.5218 84.2428 84.2746 84.14 84.151 84.2428L84.1304 84.2634C84.0068 84.3869 84.048 84.6337 84.2128 84.6749C84.3776 84.7366 84.5836 84.572 84.5424 84.4074Z" fill="white"/>
<path d="M68.7216 88.9953C68.701 88.8307 68.4538 88.7279 68.3302 88.8307L68.3096 88.8513C68.186 88.9748 68.2272 89.2216 68.392 89.2628C68.5568 89.3451 68.7628 89.1805 68.7216 88.9953Z" fill="white"/>
<path d="M55.5376 87.8022C55.517 87.6376 55.2698 87.5348 55.1462 87.6376L55.1256 87.6582C55.002 87.7816 55.0432 88.0285 55.208 88.0697C55.3728 88.1314 55.5582 87.9668 55.5376 87.8022Z" fill="white"/>
<path d="M67.156 85.6418C67.1354 85.4772 66.8882 85.3744 66.7646 85.4772L66.744 85.4978C66.6204 85.6212 66.6616 85.8681 66.8264 85.9093C66.9912 85.971 67.1766 85.8064 67.156 85.6418Z" fill="white"/>
<path d="M56.032 83.2966C56.0114 83.132 55.7642 83.0291 55.6406 83.132L55.62 83.1526C55.4964 83.276 55.5376 83.5229 55.7024 83.564C55.8672 83.6258 56.0526 83.4612 56.032 83.2966Z" fill="white"/>
<path d="M74.6132 75.8283C74.5926 75.6637 74.3454 75.5609 74.2218 75.6637L74.2012 75.6843C74.0776 75.8078 74.1188 76.0546 74.2836 76.0958C74.4484 76.1575 74.6338 75.9929 74.6132 75.8283Z" fill="white"/>
<path d="M70.7198 64.4922C70.6992 64.3276 70.452 64.2247 70.3284 64.3276L70.3078 64.3481C70.1842 64.4716 70.2254 64.7185 70.3902 64.7596C70.555 64.8213 70.761 64.6567 70.7198 64.4922Z" fill="white"/>
<path d="M69.7516 74.3059C69.731 74.1413 69.4838 74.0384 69.3602 74.1413L69.3396 74.1619C69.216 74.2853 69.2572 74.5322 69.422 74.5733C69.5868 74.6145 69.7722 74.491 69.7516 74.3059Z" fill="white"/>
<path d="M68.1654 71.1169C68.1448 70.9523 67.8976 70.8495 67.774 70.9523L67.7534 70.9729C67.6298 71.0963 67.671 71.3432 67.8358 71.3844C68.0006 71.4461 68.2066 71.2815 68.1654 71.1169Z" fill="white"/>
<path d="M75.1694 81.1775C75.1488 81.0129 74.9016 80.91 74.778 81.0129L74.7574 81.0334C74.6338 81.1569 74.675 81.4038 74.8398 81.4449C75.0046 81.4861 75.19 81.3626 75.1694 81.1775Z" fill="white"/>
<path d="M70.2254 79.2024C70.2048 79.0378 69.9576 78.9349 69.834 79.0378L69.8134 79.0583C69.6898 79.1818 69.731 79.4287 69.8958 79.4698C70.0606 79.5315 70.2666 79.3875 70.2254 79.2024Z" fill="white"/>
<path d="M72.3472 68.3601C72.3266 68.1955 72.0794 68.0926 71.9558 68.1955L71.9352 68.2161C71.8116 68.3395 71.8528 68.5864 72.0176 68.6275C72.1824 68.6892 72.3678 68.5247 72.3472 68.3601Z" fill="white"/>
<path d="M64.8282 76.0339C64.8076 75.8693 64.5604 75.7664 64.4368 75.8693L64.4162 75.8899C64.2926 76.0133 64.3338 76.2602 64.4986 76.3014C64.6634 76.3631 64.8694 76.2191 64.8282 76.0339Z" fill="white"/>
<path d="M76.426 72.5158C76.4054 72.3512 76.1582 72.2484 76.0346 72.3512L76.014 72.3718C75.8904 72.4953 75.9316 72.7421 76.0964 72.7833C76.2612 72.845 76.4466 72.6804 76.426 72.5158Z" fill="white"/>
<path d="M87.1792 63.2988C87.1586 63.1342 86.9114 63.0313 86.7878 63.1342L86.7672 63.1548C86.6436 63.2782 86.6848 63.5251 86.8496 63.5663C87.0144 63.628 87.1998 63.484 87.1792 63.2988Z" fill="white"/>
<path d="M82.812 56.3244C82.7914 56.1598 82.5442 56.057 82.4206 56.1598L82.4 56.1804C82.2764 56.3039 82.3176 56.5507 82.4824 56.5919C82.6472 56.6742 82.8326 56.5096 82.812 56.3244Z" fill="white"/>
<path d="M74.3454 57.2092C74.3248 57.0446 74.0776 56.9417 73.954 57.0446L73.9334 57.0652C73.8098 57.1886 73.851 57.4355 74.0158 57.4767C74.1806 57.5384 74.3866 57.3738 74.3454 57.2092Z" fill="white"/>
<path d="M65.7346 32.1711C64.1072 33.1998 63.4686 35.3601 63.7776 36.6356C63.9424 37.2734 64.2308 37.9318 64.1072 38.5696C64.0042 39.125 63.5922 39.5777 63.2832 40.0714C62.2738 41.6967 62.4592 43.9599 63.6952 45.4C64.9518 46.8402 67.1766 47.3545 68.9276 46.5727" fill="#263238"/>
<path d="M64.7664 40.6062C60.8112 31.9447 70.2048 27.5831 75.3342 29.0233C80.1546 30.3811 82.194 32.7677 82.9974 35.9977C83.7802 39.2072 83.7596 42.7047 82.4824 45.7702C81.8644 47.2721 80.7314 48.8151 79.104 49.0003" fill="#263238"/>
<path d="M69.3808 61.7766C69.319 57.6413 69.2572 51.9424 69.2572 51.9629C69.2572 51.9629 65.6934 51.3663 64.9518 46.7167C64.581 44.4124 64.7046 40.6269 64.89 37.5202C65.0754 34.7428 66.9088 31.307 69.6898 31.6156L78.3624 33.817C79.207 33.8993 79.8456 34.6193 79.825 35.4834L79.2688 53.4237" fill="#FFBE9D"/>
<path d="M66.4556 40.3799C66.435 40.6885 66.7028 40.9559 67.0118 40.9765C67.3414 40.9971 67.6092 40.7708 67.6298 40.4416C67.6504 40.133 67.3826 39.8655 67.0736 39.8449C66.7646 39.8244 66.4762 40.0713 66.4556 40.3799Z" fill="#263238"/>
<path d="M72.6356 40.3799C72.615 40.6885 72.8828 40.9559 73.1918 40.9765C73.5214 40.9971 73.7892 40.7708 73.8098 40.4416C73.8304 40.133 73.5626 39.8655 73.2536 39.8449C72.924 39.8244 72.6356 40.0713 72.6356 40.3799Z" fill="#263238"/>
<path d="M65.817 39.2895C65.8788 39.3718 66.3526 39.0426 66.9912 39.0837C67.6298 39.1043 68.083 39.4335 68.1654 39.3718C68.2066 39.3306 68.1242 39.1866 67.9388 39.0426C67.7328 38.878 67.4032 38.734 67.0118 38.7134C66.6204 38.6928 66.2702 38.8368 66.0642 38.9809C65.8582 39.1249 65.7964 39.2689 65.817 39.2895Z" fill="#263238"/>
<path d="M71.9146 39.4542C71.997 39.5365 72.4502 39.1867 73.0888 39.1867C73.7274 39.1662 74.2012 39.4953 74.263 39.4336C74.3042 39.3925 74.2218 39.269 74.0158 39.1044C73.8098 38.9604 73.4596 38.8164 73.0682 38.8164C72.6768 38.8164 72.3266 38.9604 72.1412 39.125C71.9352 39.269 71.8734 39.413 71.9146 39.4542Z" fill="#263238"/>
<path d="M69.7104 44.3919C69.7104 44.3507 69.319 44.289 68.6598 44.2067C68.495 44.1861 68.3508 44.1655 68.3096 44.0421C68.2684 43.9187 68.3302 43.7541 68.4126 43.5483C68.5568 43.1574 68.7216 42.746 68.907 42.2933C69.5868 40.524 70.0606 39.0633 69.9988 39.0427C69.937 39.0221 69.319 40.4417 68.6598 42.211C68.495 42.6431 68.3508 43.0751 68.186 43.466C68.1242 43.6512 68.0212 43.8569 68.1036 44.1038C68.1448 44.2273 68.2684 44.3096 68.3714 44.3507C68.4744 44.3919 68.5774 44.3919 68.6598 44.3919C69.2984 44.433 69.7104 44.433 69.7104 44.3919Z" fill="#263238"/>
<path d="M69.2778 51.9836C69.2778 51.9836 72.409 52.1893 75.499 50.3171C75.499 50.3171 73.9334 53.5472 69.2778 53.1152V51.9836Z" fill="#EB996E"/>
<path d="M71.7498 38.5488C71.8116 38.7134 72.4502 38.6311 73.2124 38.734C73.9746 38.8163 74.572 39.022 74.675 38.878C74.7162 38.7957 74.6132 38.6311 74.366 38.4665C74.1188 38.3019 73.7274 38.1373 73.2742 38.0962C72.821 38.055 72.409 38.1168 72.1412 38.2402C71.8734 38.3225 71.7292 38.4665 71.7498 38.5488Z" fill="#263238"/>
<path d="M65.9612 37.6848C66.0642 37.8288 66.5174 37.6848 67.053 37.6642C67.5886 37.6436 68.0418 37.7671 68.1448 37.6025C68.186 37.5202 68.1242 37.3762 67.9182 37.2527C67.7328 37.1087 67.4032 37.0059 67.0324 37.0059C66.6616 37.0264 66.3526 37.1499 66.1672 37.2939C65.9818 37.4585 65.92 37.6231 65.9612 37.6848Z" fill="#263238"/>
<path d="M79.0628 41.5938C79.1246 41.5527 81.5554 40.4828 81.576 43.2808C81.5966 46.0583 78.795 45.5234 78.795 45.4411C78.795 45.3588 79.0628 41.5938 79.0628 41.5938Z" fill="#FFBE9D"/>
<path d="M79.6396 44.3712C79.6602 44.3712 79.6808 44.4123 79.7632 44.4329C79.8456 44.4741 79.9898 44.4946 80.134 44.4329C80.4224 44.33 80.6696 43.8569 80.6696 43.3425C80.6696 43.0956 80.6284 42.8487 80.5254 42.643C80.443 42.4373 80.2988 42.2933 80.1546 42.2727C80.0104 42.2315 79.9074 42.3344 79.8662 42.4167C79.825 42.499 79.8456 42.5401 79.825 42.5607C79.825 42.5607 79.7632 42.5196 79.7838 42.3961C79.8044 42.3344 79.825 42.2727 79.8868 42.211C79.9486 42.1492 80.0516 42.1287 80.1546 42.1287C80.3606 42.1492 80.5666 42.3344 80.6696 42.5607C80.7726 42.787 80.855 43.0545 80.855 43.3425C80.8344 43.898 80.5666 44.4329 80.1546 44.5564C79.9692 44.6181 79.8044 44.5564 79.7014 44.4946C79.6396 44.4329 79.6396 44.3712 79.6396 44.3712Z" fill="#EB996E"/>
<path d="M68.7834 30.2576C67.2384 31.0599 66.5998 34.2283 67.2384 35.833C67.877 37.4584 69.6074 38.2402 71.3172 38.6105C73.027 38.9808 74.6956 39.0219 76.3642 38.5693C76.4878 39.7009 77.1676 40.853 78.2594 41.1616C79.7014 41.5525 81.164 40.2358 81.4936 38.7545C81.8232 37.2938 81.3288 35.7713 80.855 34.3517" fill="#263238"/>
<path d="M81.0816 40.3594C81.0816 40.3594 81.0198 40.4417 80.8756 40.5652C80.7314 40.6886 80.5254 40.8532 80.237 41.0589C79.9486 41.2441 79.5984 41.4498 79.1452 41.5733C78.7126 41.6967 78.177 41.7379 77.662 41.5527C77.147 41.3675 76.7762 40.9766 76.5496 40.5857C76.3024 40.1948 76.1994 39.7834 76.1582 39.4542C76.0964 39.125 76.0964 38.837 76.117 38.6518C76.117 38.4666 76.1376 38.3638 76.1582 38.3638C76.1788 38.3638 76.1582 38.7958 76.2818 39.4336C76.3436 39.7628 76.4672 40.1537 76.6938 40.5034C76.9204 40.8738 77.2706 41.2235 77.7444 41.3881C78.2182 41.5733 78.7126 41.5321 79.1246 41.4087C79.5366 41.2852 79.9074 41.1001 80.1958 40.9355C80.7314 40.5857 81.061 40.3388 81.0816 40.3594Z" fill="#263238"/>
<path d="M69.8958 46.1815C69.9988 46.4078 70.0812 46.6547 70.246 46.8604C70.4108 47.0661 70.6374 47.2102 70.8846 47.2307C71.1524 47.2513 71.4202 47.0867 71.5644 46.8604C71.7086 46.6341 71.7704 46.3461 71.7498 46.0786C71.7292 45.8317 71.6262 45.5437 71.379 45.5025C71.276 45.482 71.173 45.5231 71.0906 45.5643C70.658 45.7289 70.246 45.914 69.8134 46.0786" fill="#EB996E"/>
<path d="M70.4108 47.2308C70.4108 47.1897 70.6992 47.3131 71.0906 47.1485C71.276 47.0662 71.482 46.9222 71.6056 46.6753C71.7292 46.449 71.7498 46.1199 71.6262 45.8318C71.6056 45.7701 71.5644 45.6878 71.5232 45.6467C71.482 45.5849 71.482 45.6055 71.4202 45.6055C71.3584 45.6261 71.276 45.6672 71.2142 45.6878C71.1524 45.7084 71.07 45.7495 71.0082 45.7701C70.7404 45.873 70.4932 45.9758 70.2666 46.0581C69.8546 46.2227 69.5868 46.305 69.5662 46.2639C69.5456 46.2433 69.7928 46.0993 70.2048 45.9141C70.4108 45.8112 70.658 45.7084 70.9258 45.5849C70.9876 45.5644 71.07 45.5232 71.1318 45.4821C71.2142 45.4615 71.2554 45.4203 71.3584 45.3792C71.3996 45.3586 71.482 45.3586 71.5438 45.3792C71.6056 45.3998 71.6468 45.4615 71.688 45.4821C71.7498 45.5644 71.791 45.6467 71.8322 45.729C71.9764 46.0787 71.9558 46.4696 71.791 46.7576C71.6262 47.0457 71.3584 47.2103 71.1318 47.2926C70.9052 47.3543 70.6992 47.3543 70.5756 47.3131C70.4726 47.2926 70.4108 47.2308 70.4108 47.2308Z" fill="#263238"/>
<path d="M82.194 39.7009C81.9056 39.6803 79.619 39.9683 79.7838 44.2477C79.9486 48.2389 82.7502 47.3543 83.6566 45.8524C84.5012 44.4328 84.975 39.886 82.194 39.7009Z" fill="#455A64"/>
<path d="M83.6154 40.1946C83.6154 40.1946 83.6154 40.1535 83.5948 40.0918C83.5948 40.0095 83.5948 39.9066 83.5742 39.7626C83.5742 39.4746 83.5536 39.0631 83.533 38.5487C83.5124 37.4995 83.4918 36.0388 83.4506 34.3517L83.5124 34.3929C83.1416 34.3929 82.7296 34.3929 82.3176 34.3929L82.3794 34.3311C82.3794 34.6397 82.4 34.9895 82.4 35.3187C82.4412 36.9234 82.4824 38.4047 82.503 39.6597V39.7009H82.4618C81.9262 39.8243 81.5142 40.1329 81.2464 40.4827C80.9786 40.8324 80.8344 41.2027 80.752 41.5113C80.6696 41.82 80.649 42.0668 80.6284 42.2314C80.6284 42.3137 80.6078 42.3754 80.6078 42.4166C80.6078 42.3754 80.6078 42.3137 80.6078 42.2109C80.6078 42.0463 80.6284 41.7788 80.7108 41.4702C80.7932 41.1616 80.9168 40.7707 81.1846 40.4004C81.4524 40.03 81.885 39.7009 82.4412 39.5774L82.4 39.6186C82.3588 38.3636 82.3176 36.8823 82.2764 35.2775C82.2764 34.9278 82.2558 34.5986 82.2558 34.29V34.2283H82.3176C82.7296 34.2283 83.121 34.2283 83.5124 34.2283H83.5536V34.2694C83.5742 35.9565 83.5948 37.4172 83.5948 38.4664C83.5948 38.9808 83.5948 39.3923 83.5948 39.6803C83.5948 39.8243 83.5948 39.9272 83.5948 40.0095C83.6154 40.1535 83.6154 40.1946 83.6154 40.1946Z" fill="#455A64"/>
<path d="M82.194 34.3517C82.194 34.3517 80.9992 31.5331 78.1152 30.1547C76.735 29.4758 75.6844 29.126 74.675 28.8791C74.675 28.8791 76.3436 28.4882 79.0628 29.6815C80.2988 30.237 81.5348 30.9365 82.3588 32.0063C82.8738 32.6852 83.533 34.002 83.533 34.3517H82.194Z" fill="#455A64"/>
<path d="M74.7574 68.4014C74.7574 68.4014 74.778 68.3808 74.7986 68.3396C74.8398 68.2985 74.881 68.2573 74.9634 68.1751C75.1076 68.031 75.293 67.8253 75.5196 67.5167C75.7462 67.2081 75.9934 66.8378 76.2612 66.3646C76.529 65.8914 76.8174 65.3565 77.1058 64.7393C77.7032 63.5048 78.4242 62.0235 79.1452 60.3159C79.516 59.4724 79.8868 58.5466 80.2576 57.6002C80.34 57.3533 80.443 57.127 80.5254 56.8801C80.6078 56.6332 80.7108 56.3863 80.855 56.16C80.9992 55.9337 81.2052 55.728 81.4524 55.584C81.576 55.5222 81.7202 55.4811 81.8644 55.4811C81.9468 55.4811 82.0292 55.5222 82.091 55.5634C82.1528 55.6045 82.194 55.6868 82.2352 55.7486V55.7691V55.7897C82.2146 55.8926 82.194 55.9749 82.1322 56.0572C82.0704 56.1395 81.9674 56.2012 81.885 56.2218C81.679 56.2629 81.4936 56.2012 81.3082 56.1189C80.9374 55.9543 80.7108 55.5222 80.7932 55.1313C80.8344 54.9256 80.958 54.7404 81.1228 54.6376C81.2876 54.5141 81.4936 54.4524 81.6996 54.473C81.9056 54.4936 82.1322 54.5759 82.2352 54.761C82.297 54.8639 82.297 55.0079 82.2146 55.0902C82.1528 55.1931 82.0498 55.2342 81.9468 55.2754C81.5966 55.4194 81.1846 55.2959 80.958 54.9873C80.855 54.8433 80.7932 54.6376 80.8344 54.473C80.855 54.2878 80.9374 54.1232 81.0404 53.9792C81.164 53.8352 81.3288 53.7529 81.5142 53.7323C81.6996 53.7118 81.885 53.7735 82.0086 53.8969C82.0704 53.9587 82.1116 54.0615 82.1116 54.1644C82.1116 54.2673 82.0704 54.3496 81.988 54.4113C81.8438 54.5347 81.6584 54.5759 81.4936 54.5553C81.3082 54.5141 81.1846 54.3701 81.1022 54.2261C81.0198 54.0821 80.9786 53.9175 80.958 53.7529C80.9168 53.4237 80.9168 53.0946 81.061 52.7859C81.1434 52.6419 81.2464 52.4979 81.4112 52.4362C81.576 52.3745 81.7408 52.3951 81.9056 52.4568C82.0498 52.5185 82.194 52.6625 82.2146 52.8477C82.2352 53.0328 82.1116 53.1768 81.9468 53.2591C81.8026 53.3209 81.6172 53.3414 81.473 53.2591C81.3288 53.1768 81.2258 53.0534 81.1846 52.8888C81.1228 52.7448 81.1434 52.5802 81.164 52.4362C81.1846 52.2922 81.2052 52.1482 81.267 52.0041C81.3082 51.8601 81.3906 51.7367 81.5142 51.6338C81.6378 51.5515 81.7614 51.4692 81.9056 51.4487C81.9674 51.4281 82.0498 51.4281 82.1322 51.4487C82.2146 51.4692 82.2764 51.5104 82.3176 51.5721C82.3794 51.6338 82.4206 51.675 82.4412 51.7573C82.4618 51.819 82.4824 51.9013 82.4412 51.9836C82.3794 52.1482 82.2146 52.1893 82.0704 52.1893C81.9262 52.1893 81.8026 52.1276 81.679 52.0659C81.4524 51.9013 81.3082 51.675 81.267 51.4281C81.2052 51.1812 81.2464 50.9137 81.3494 50.6874C81.4112 50.5846 81.473 50.4817 81.576 50.3994C81.679 50.3171 81.782 50.276 81.9056 50.2554C82.0292 50.2348 82.1528 50.2348 82.2558 50.2965C82.3588 50.3583 82.4412 50.4611 82.4412 50.5846C82.4412 50.8315 82.2558 51.0166 82.0498 51.0783C81.8232 51.1401 81.6172 51.0166 81.4936 50.8726C81.37 50.7286 81.2876 50.5228 81.2876 50.3377C81.267 49.9674 81.4112 49.6382 81.4936 49.3501C81.576 49.0621 81.6584 48.7741 81.7202 48.5478C81.8644 48.0746 81.9674 47.6837 82.0498 47.4368C82.091 47.3134 82.1116 47.2105 82.1322 47.1488C82.1528 47.087 82.1734 47.0459 82.1734 47.0459C82.1734 47.0459 82.1734 47.087 82.1528 47.1488C82.1322 47.2105 82.1116 47.3134 82.0704 47.4368C82.0086 47.7043 81.9056 48.0746 81.7614 48.5683C81.6996 48.8152 81.6172 49.0827 81.5348 49.3707C81.473 49.6588 81.3288 49.9879 81.3494 50.3377C81.37 50.5023 81.4318 50.6874 81.5554 50.8315C81.679 50.9755 81.8644 51.0783 82.0498 51.0166C82.2352 50.9755 82.4 50.7903 82.3794 50.5846C82.3794 50.4817 82.3176 50.3994 82.2352 50.3583C82.1528 50.3171 82.0292 50.2965 81.9262 50.3171C81.8232 50.3377 81.7202 50.3788 81.6378 50.4406C81.5554 50.5023 81.473 50.6051 81.4318 50.708C81.3288 50.9137 81.3082 51.1606 81.3494 51.3869C81.3906 51.6133 81.5348 51.8396 81.7408 51.9836C81.8438 52.0453 81.9468 52.107 82.0704 52.0864C82.194 52.0864 82.3176 52.0453 82.3588 51.9424C82.4 51.8396 82.3382 51.7161 82.2558 51.6338C82.2146 51.5927 82.1528 51.5515 82.1116 51.531C82.0498 51.5104 81.988 51.531 81.9262 51.531C81.679 51.5927 81.4318 51.7573 81.3494 52.0247C81.3082 52.1482 81.2876 52.2922 81.267 52.4362C81.2464 52.5802 81.2464 52.7037 81.2876 52.8477C81.3288 52.9711 81.4112 53.0946 81.5348 53.1563C81.6584 53.218 81.8026 53.218 81.9262 53.1563C82.0498 53.0946 82.1322 52.9711 82.1322 52.8477C82.1322 52.7242 82.0086 52.6008 81.885 52.5596C81.7614 52.4979 81.5966 52.4979 81.473 52.5391C81.3494 52.5802 81.2464 52.7037 81.1846 52.8477C81.061 53.1151 81.0404 53.4443 81.0816 53.7529C81.1022 53.8969 81.1434 54.0615 81.2258 54.185C81.3082 54.3084 81.4112 54.4318 81.5554 54.4524C81.6996 54.473 81.8644 54.4318 81.9674 54.3495C82.0704 54.2467 82.0704 54.0821 81.988 53.9792C81.885 53.8764 81.7202 53.8352 81.576 53.8352C81.4318 53.8558 81.2876 53.9381 81.1846 54.0615C80.9786 54.2878 80.9168 54.6787 81.1022 54.9256C81.2876 55.1725 81.6584 55.2959 81.9674 55.1725C82.0498 55.1313 82.1322 55.0902 82.1734 55.0285C82.2146 54.9668 82.2352 54.8845 82.194 54.8022C82.1116 54.6582 81.9262 54.5759 81.7408 54.5553C81.37 54.5347 80.9992 54.7816 80.9374 55.1313C80.855 55.4811 81.061 55.872 81.3906 56.016C81.5554 56.0983 81.7408 56.1395 81.9056 56.1189C82.0704 56.0983 82.1734 55.9337 82.194 55.7691V55.7897C82.1528 55.6663 82.0498 55.6045 81.9262 55.584C81.8026 55.584 81.679 55.6251 81.5554 55.6868C81.3288 55.8103 81.1228 55.9954 80.9992 56.2218C80.855 56.4481 80.7726 56.6949 80.6696 56.9418C80.5666 57.1887 80.4842 57.4356 80.3812 57.6619C80.0104 58.6083 79.6396 59.5341 79.2688 60.3776C78.5272 62.0852 77.8268 63.5666 77.2088 64.801C76.8998 65.4182 76.6114 65.9737 76.3436 66.4263C76.0758 66.8995 75.808 67.2698 75.5814 67.5784C75.087 68.1339 74.7574 68.4014 74.7574 68.4014Z" fill="white"/>
<path d="M84.6866 37.6848C84.666 37.6848 84.6866 37.3968 84.5012 36.9236C84.3158 36.471 83.842 35.8332 83.018 35.4423C82.606 35.2571 82.1322 35.1337 81.5966 35.0925C81.061 35.0514 80.5048 35.1131 79.9074 35.216C78.7332 35.4423 77.4766 35.9361 76.0964 36.1418C75.396 36.2241 74.7162 36.2241 74.057 36.1418C73.3978 36.0595 72.7798 35.8743 72.2236 35.648C71.0906 35.1954 70.2048 34.537 69.5456 33.8787C68.907 33.2203 68.4744 32.6031 68.2478 32.1505C68.186 32.0476 68.1242 31.9448 68.1036 31.8419C68.0624 31.7596 68.0418 31.6773 68.0006 31.6156C67.98 31.5539 67.9594 31.5127 67.9388 31.4716C67.9182 31.4304 67.9182 31.4304 67.9182 31.4304C67.9182 31.4304 67.9388 31.451 67.9388 31.4716C67.9594 31.5127 67.98 31.5539 68.0006 31.6156C68.0212 31.6773 68.0624 31.7596 68.1036 31.8419C68.1448 31.9242 68.186 32.0271 68.2684 32.1299C68.5156 32.5825 68.9276 33.1792 69.5868 33.817C70.2254 34.4547 71.1318 35.0925 72.2442 35.5452C72.8004 35.7509 73.4184 35.9361 74.057 36.0389C74.6956 36.1212 75.3754 36.1212 76.0758 36.0389C77.456 35.8332 78.692 35.3188 79.8868 35.1131C80.4842 35.0102 81.061 34.9485 81.5966 34.9897C82.1322 35.0308 82.6266 35.1543 83.0386 35.36C83.8832 35.7715 84.3364 36.4092 84.5218 36.8824C84.6248 37.1293 84.6454 37.3145 84.666 37.4585C84.666 37.5202 84.666 37.5614 84.666 37.6025C84.6866 37.6642 84.6866 37.6848 84.6866 37.6848Z" fill="#455A64"/>
<path d="M81.576 33.2615C81.576 33.2615 81.5348 33.2821 81.4318 33.2821C81.3288 33.3027 81.1846 33.3233 80.9992 33.3438C80.6284 33.4056 80.1134 33.529 79.4542 33.673C78.8156 33.8376 78.0328 34.0228 77.147 34.1256C76.2612 34.2285 75.293 34.2079 74.2836 34.0639C73.2742 33.9199 72.3266 33.6524 71.5026 33.3233C70.6786 32.9941 69.9782 32.6032 69.422 32.2329C69.1542 32.0477 68.907 31.8625 68.6804 31.6979C68.4744 31.5334 68.289 31.3893 68.1654 31.2659C68.0418 31.1425 67.9388 31.0396 67.8564 30.9779C67.7946 30.9161 67.7534 30.875 67.7534 30.875C67.7534 30.875 67.7946 30.8956 67.877 30.9573C67.9594 31.019 68.0624 31.1219 68.2066 31.2453C68.3508 31.3688 68.5362 31.4922 68.7422 31.6568C68.9482 31.8214 69.1954 31.986 69.4838 32.1711C70.5962 32.8912 72.306 33.673 74.3248 33.961C75.3342 34.1051 76.3024 34.1256 77.1676 34.0228C78.0328 33.9405 78.8156 33.7553 79.4542 33.6113C80.1134 33.4673 80.6284 33.3438 80.9992 33.3027C81.1846 33.2821 81.3288 33.2615 81.4318 33.2615C81.5142 33.2615 81.576 33.2615 81.576 33.2615Z" fill="#455A64"/>
<path d="M81.885 47.0459C81.885 47.0459 81.8644 47.0459 81.8026 47.0253C81.7614 47.0047 81.679 46.9636 81.5966 46.9224C81.4112 46.8196 81.1846 46.6138 80.9992 46.2846C80.8138 45.9555 80.6696 45.5234 80.6284 45.0296C80.5872 44.5359 80.5872 44.001 80.6284 43.4249C80.6696 42.8694 80.7726 42.3345 80.8962 41.8613C81.0198 41.3881 81.164 40.9561 81.3494 40.6475C81.5348 40.3183 81.782 40.1125 81.9468 40.0097C82.0292 39.948 82.1116 39.9274 82.1528 39.9068C82.2146 39.8862 82.2352 39.8862 82.2352 39.8862C82.2352 39.8862 82.1322 39.9274 81.9674 40.0508C81.8026 40.1743 81.576 40.38 81.4112 40.6886C81.2258 40.9972 81.1022 41.4293 80.9786 41.9025C80.855 42.3756 80.7726 42.9106 80.7314 43.466C80.6902 44.0215 80.6902 44.5565 80.7314 45.0502C80.7726 45.5234 80.8962 45.9555 81.061 46.2846C81.2464 46.6138 81.4524 46.8196 81.6172 46.9224C81.782 46.9841 81.885 47.0253 81.885 47.0459Z" fill="#263238"/>
<path d="M72.8622 47.6426L70.7404 48.0541C70.4314 48.1158 70.1224 47.91 70.0606 47.6014L70.04 47.4986C69.9782 47.19 70.1842 46.8814 70.4932 46.8196L72.615 46.4082C72.924 46.3464 73.233 46.5522 73.2948 46.8608L73.3154 46.9431C73.3772 47.2517 73.1712 47.5603 72.8622 47.6426Z" fill="#455A64"/>
<path d="M73.027 46.7167L82.7914 43.6512C83.0386 43.5689 83.2858 43.7129 83.3682 43.9598C83.4506 44.2067 83.3064 44.4741 83.0592 44.5358L73.0682 47.231L73.027 46.7167Z" fill="#455A64"/>
<path d="M80.237 45.3794C80.237 45.3794 80.3606 45.3382 80.5666 45.2559C80.7932 45.1942 81.1022 45.0913 81.4524 44.9885C81.8232 44.865 82.297 44.7416 82.7708 44.5976C82.8944 44.5564 82.9974 44.4947 83.1004 44.3918C83.1828 44.3096 83.2446 44.1861 83.2446 44.0421C83.2446 43.9186 83.1622 43.7952 83.0386 43.7541C82.915 43.7129 82.7708 43.7335 82.6266 43.7746C81.4936 44.145 80.4636 44.4741 79.7014 44.721C79.3306 44.8239 79.0422 44.9268 78.8156 44.9885C78.6096 45.0502 78.486 45.0913 78.486 45.0708C78.486 45.0708 78.589 45.0091 78.795 44.9473C79.0216 44.865 79.31 44.7622 79.6808 44.6387C80.4224 44.3918 81.4524 44.0421 82.606 43.6718C82.7502 43.6306 82.915 43.61 83.0798 43.6718C83.2446 43.7129 83.3476 43.8981 83.3476 44.0421C83.3476 44.2067 83.2858 44.3507 83.1828 44.4536C83.0798 44.5564 82.9562 44.6182 82.8326 44.6799C82.3176 44.8445 81.885 44.9473 81.4936 45.0502C81.1228 45.1531 80.8138 45.2354 80.5872 45.2971C80.3606 45.3588 80.2576 45.3794 80.237 45.3794Z" fill="#263238"/>
<path d="M64.272 37.8906C64.6016 39.0633 63.4068 40.0714 62.9948 41.2236C62.5828 42.3345 62.933 43.569 63.4274 44.6388C63.9218 45.7086 64.581 46.7167 64.8488 47.8689C65.4874 50.708 62.9124 53.7735 63.4068 56.6332C63.5922 57.6825 64.0042 58.7729 64.375 59.7604C64.7458 60.748 64.7046 61.6738 64.375 62.6613C63.8188 64.3072 62.8712 65.0684 62.212 66.6732C61.8824 67.4961 61.903 68.4014 61.9236 69.286C61.9442 70.1707 61.9442 71.0965 61.5322 71.8989C61.1408 72.7013 60.2344 73.2979 59.3692 73.0716C60.2756 74.1208 61.9236 74.4295 63.139 73.7917C64.272 73.195 64.89 71.9812 65.4462 70.8085C68.0624 65.2125 69.4426 64.7393 69.3602 58.5672C69.3602 58.1763 69.2778 51.9836 69.2778 51.9836C69.2778 51.9836 68.3096 51.7161 67.7328 51.3252C64.8076 49.309 64.7046 45.7292 64.7252 42.9517" fill="#263238"/>
<path d="M70.1018 56.6331V58.9579C70.1018 58.9579 68.3096 68.0926 67.774 73.1743C67.2384 78.256 67.1354 79.5933 67.1354 79.5933C67.1354 79.5933 68.4332 81.6095 71.1112 78.1943C73.8098 74.779 74.2836 74.2441 75.3548 74.1824C75.3548 74.1824 74.0364 59.9043 74.0982 59.3694C74.16 58.8344 74.572 58.3612 74.572 58.3612L70.1018 56.6331Z" fill="#FFBE9D"/>
<path d="M73.6244 51.3868C73.6244 51.3868 70.6992 55.2752 70.452 55.8101C70.2048 56.3451 70.1018 56.6537 70.1018 56.6537L74.5926 58.3819L78.9598 53.6088L80.5666 49.3706L80.0928 44.3506C80.0928 44.3506 79.1452 44.2889 78.9598 45.1324C78.7744 45.9759 78.8362 46.7372 78.8362 46.7372L77.4972 45.6673L75.3342 45.009C75.3342 45.009 74.8192 45.8525 75.6638 46.264C76.5084 46.6754 76.735 46.6754 76.735 46.6754L77.4972 47.9922L77.1676 49.4735L75.6432 48.0333C75.3342 47.7453 74.8604 47.7247 74.5308 47.9716L73.542 48.6917L72.615 48.2802L70.8228 49.8644L70.1018 50.5227C70.1018 50.5227 70.5756 51.428 71.5438 50.9959C72.4914 50.5844 72.4914 50.5844 72.4914 50.5844L73.6244 51.3868Z" fill="#FFBE9D"/>
<path d="M70.1018 57.4148C70.1018 57.4148 70.1018 57.3737 70.1018 57.2914C70.1018 57.2091 70.1018 57.0857 70.1224 56.9211C70.143 56.7565 70.1636 56.5713 70.2254 56.345C70.2872 56.1187 70.3696 55.8512 70.5344 55.5838C71.2142 54.5551 72.2648 53.1149 73.5832 51.3456V51.4073C73.233 51.1399 72.8416 50.8724 72.4502 50.5638H72.4914C72.306 50.6461 72.1 50.7284 71.894 50.8313C71.688 50.9136 71.5026 51.0164 71.2554 51.0781C71.0288 51.1399 70.7816 51.1193 70.555 50.9958C70.3284 50.893 70.1636 50.7078 70.0194 50.5021L69.9988 50.4815L70.0194 50.4609C70.7816 49.7409 71.6468 49.0002 72.5326 48.2184L72.5532 48.1978L72.5738 48.2184C72.821 48.3624 73.0888 48.527 73.3772 48.6916H73.3154C73.6244 48.4859 73.9334 48.2801 74.2424 48.0744C74.4072 47.9715 74.5514 47.8687 74.7162 47.7658C74.9016 47.6629 75.1488 47.6835 75.3136 47.8275C75.911 48.3213 76.5084 48.8356 77.1264 49.35L77.044 49.3705C77.147 48.9179 77.25 48.4447 77.353 47.9715V48.0127C77.1058 47.6012 76.8586 47.1486 76.5908 46.696L76.632 46.7165C76.4878 46.696 76.3848 46.6548 76.2612 46.6137C76.1376 46.5725 76.0346 46.5108 75.911 46.4696C75.7874 46.4079 75.6844 46.3668 75.5608 46.3051C75.499 46.2845 75.4372 46.2433 75.396 46.2022C75.3548 46.161 75.293 46.1199 75.2312 46.0582C75.087 45.9142 75.0046 45.7084 75.0252 45.5027C75.0252 45.2969 75.087 45.1118 75.19 44.9472L75.2106 44.906L75.2518 44.9266C75.9728 45.1529 76.6938 45.3587 77.4148 45.585C77.868 45.9553 78.3212 46.3051 78.7538 46.6548L78.6714 46.696C78.6508 46.161 78.6714 45.6261 78.795 45.1118C78.8362 44.8443 79.001 44.5974 79.2276 44.4534C79.4542 44.3094 79.722 44.2477 79.9898 44.2683H80.031V44.3094C80.1958 46.0993 80.3606 47.7658 80.5048 49.3294V49.35C79.9074 50.9136 79.3718 52.3331 78.8774 53.5881C77.4354 55.1517 76.2818 56.4067 75.4784 57.2708C75.087 57.7029 74.778 58.032 74.5514 58.2584C74.4484 58.3612 74.366 58.4435 74.3042 58.5052C74.2424 58.567 74.2218 58.5875 74.2218 58.5875C74.2218 58.5875 74.2424 58.5464 74.3042 58.5052C74.366 58.4435 74.4278 58.3612 74.5308 58.2378C74.7368 58.0115 75.0458 57.6617 75.4372 57.2297C76.2406 56.345 77.3736 55.09 78.795 53.5264V53.547C79.2688 52.292 79.8044 50.8724 80.4018 49.3088V49.3294C80.2576 47.7658 80.0928 46.0993 79.9074 44.3094L79.9486 44.3506C79.7014 44.3506 79.4542 44.3917 79.2482 44.5357C79.0422 44.6592 78.898 44.8855 78.8568 45.1324C78.7538 45.6467 78.7126 46.161 78.7538 46.696V46.8194L78.6714 46.7371C78.2388 46.3873 77.7856 46.017 77.3324 45.6673H77.353C76.6526 45.4615 75.9316 45.2352 75.19 45.0089L75.2518 44.9883C75.1694 45.1324 75.1076 45.3175 75.1076 45.5027C75.1076 45.6878 75.1694 45.8524 75.293 45.9759C75.3342 46.017 75.3754 46.0582 75.4372 46.0993C75.499 46.1199 75.5402 46.161 75.602 46.1816C75.7256 46.2433 75.8286 46.2845 75.9522 46.3462C76.1788 46.4491 76.426 46.5519 76.632 46.5725H76.6732L76.6938 46.5931C76.9616 47.0457 77.2088 47.4983 77.456 47.9098V47.9304V47.9509C77.353 48.4447 77.25 48.9179 77.147 49.35L77.1264 49.4323L77.0646 49.3705C76.4466 48.8562 75.8492 48.3418 75.2518 47.8481C75.1076 47.7452 74.9222 47.7246 74.7574 47.8069C74.6132 47.8892 74.4484 48.0127 74.2836 48.1155C73.9746 48.3213 73.6656 48.527 73.3566 48.7327L73.336 48.7533L73.3154 48.7327C73.0476 48.5682 72.7592 48.4036 72.512 48.2596H72.5738C71.688 49.0414 70.8228 49.7614 70.0606 50.4815V50.4198C70.1842 50.6049 70.349 50.7901 70.555 50.893C70.761 50.9958 70.9876 51.0164 71.1936 50.9753C71.3996 50.9341 71.6056 50.8313 71.8116 50.7284C72.0176 50.6461 72.203 50.5638 72.409 50.4609H72.4296L72.4502 50.4815C72.8416 50.7695 73.233 51.0576 73.5832 51.325L73.6038 51.3456L73.5832 51.3662C72.2648 53.1355 71.1936 54.5551 70.5138 55.5838C70.349 55.8307 70.2666 56.0981 70.1842 56.3244C70.1224 56.5507 70.0812 56.7565 70.0606 56.9005C70.04 57.0651 70.0194 57.1885 70.0194 57.2708C70.1018 57.3737 70.1018 57.4148 70.1018 57.4148Z" fill="#EB996E"/>
<path d="M75.6638 52.2715C75.6432 52.2715 75.7256 51.9629 75.7462 51.4486C75.7668 51.2017 75.7462 50.8931 75.602 50.5845C75.4578 50.2759 75.19 50.029 74.881 49.7821C74.263 49.3089 73.6656 48.918 73.2124 48.6506C73.0064 48.5271 72.821 48.4242 72.6768 48.3419C72.5532 48.2597 72.4914 48.2185 72.4914 48.2185C72.4914 48.2185 72.5738 48.2391 72.6974 48.3008C72.821 48.3625 73.0064 48.4654 73.233 48.5888C73.6862 48.8357 74.3042 49.2266 74.9222 49.6998C75.2312 49.9467 75.5196 50.2142 75.6638 50.5433C75.808 50.8725 75.808 51.2017 75.7874 51.4486C75.7668 51.716 75.7256 51.9218 75.6844 52.0452C75.6844 52.2098 75.6638 52.2715 75.6638 52.2715Z" fill="#EB996E"/>
<path d="M78.795 50.4197C78.7744 50.4197 78.8156 50.2139 78.8774 49.8848C78.9186 49.5556 78.9804 49.103 78.9598 48.5886C78.9598 48.0743 78.898 47.6217 78.8362 47.2925C78.7744 46.9633 78.7332 46.7576 78.7538 46.7576C78.7744 46.7576 78.8362 46.9427 78.9186 47.2719C79.001 47.6011 79.0628 48.0743 79.0628 48.5886C79.0628 49.103 79.001 49.5762 78.9392 49.9053C78.8774 50.2139 78.8156 50.4197 78.795 50.4197Z" fill="#EB996E"/>
<path d="M99.292 90.6C99.292 90.6206 78.3418 90.6618 52.53 90.6618C26.6976 90.6618 5.74741 90.6412 5.74741 90.6C5.74741 90.5589 26.677 90.5383 52.53 90.5383C78.3624 90.5383 99.292 90.5589 99.292 90.6Z" fill="#263238"/>
<path d="M72.8416 90.6413C72.8416 90.6413 74.2424 88.2548 77.25 88.1519C80.2576 88.049 81.7614 90.6413 81.7614 90.6413H72.8416Z" fill="#455A64"/>
<path d="M78.589 90.5795C78.5684 90.5795 78.5684 90.3943 78.5066 90.1268C78.4448 89.8594 78.3212 89.489 78.074 89.1393C77.8268 88.7895 77.5384 88.5221 77.3118 88.3781C77.0852 88.2135 76.9204 88.1518 76.9204 88.1312C76.9204 88.1106 77.1058 88.1518 77.353 88.2958C77.6002 88.4398 77.9298 88.6867 78.177 89.057C78.4242 89.4273 78.5478 89.8182 78.589 90.1063C78.6508 90.3943 78.6096 90.5795 78.589 90.5795Z" fill="#263238"/>
<path d="M70.967 90.5384C70.9464 89.88 70.452 89.3862 69.8134 89.3862H44.2076C43.569 89.3862 43.054 89.9006 43.054 90.5384H70.967Z" fill="#455A64"/>
<path d="M21.939 45.7289C21.939 46.2638 22.351 78.3998 22.351 78.3998L46.247 84.1399H48.2246L46.968 39.2893H45.1758L21.939 45.7289Z" fill="#263238"/>
<path d="M26.986 77.042L19.5906 90.6H26.368C25.1526 90.4766 37.08 90.6 37.08 90.6L26.368 87.7609L29.7258 80.1486L29.4374 77.042H26.986Z" fill="#263238"/>
<path d="M27.1508 79.5519L26.3474 54.2874L33.6192 53.5879L34.5256 80.56L31.93 80.704L27.1508 79.5519Z" fill="#263238"/>
<path d="M35.535 81.5681C35.535 81.5681 35.535 81.527 35.535 81.4447C35.535 81.3624 35.535 81.2389 35.535 81.0949C35.535 80.7863 35.535 80.3337 35.535 79.7576C35.535 78.5849 35.535 76.8773 35.5144 74.7377C35.5144 70.4378 35.4938 64.4097 35.4938 57.3941L35.535 57.4352C32.8364 57.4352 29.9524 57.4352 26.9448 57.4352L27.0066 57.3735C27.0066 57.7438 27.0066 58.1347 27.0066 58.5462C27.0066 65.3766 27.0066 71.7339 27.0066 77.0419V77.0625C24.7818 81.1361 22.9278 84.5307 21.63 86.8967C20.9914 88.0694 20.4764 88.9952 20.1262 89.633C19.9614 89.9416 19.8172 90.1885 19.7348 90.3531C19.6524 90.5177 19.5906 90.6 19.5906 90.6C19.5906 90.6 19.6318 90.5177 19.7142 90.3531C19.7966 90.1885 19.9408 89.9416 20.1056 89.633C20.4558 88.9952 20.9502 88.0694 21.5888 86.8761C22.866 84.5102 24.72 81.1155 26.9242 77.0213V77.0419C26.9242 71.7339 26.9242 65.3766 26.9242 58.5462C26.9242 58.1553 26.9242 57.7438 26.9242 57.3735V57.3118H26.986C29.973 57.3118 32.8776 57.3118 35.5762 57.3118H35.6174V57.3529C35.6174 64.3685 35.5968 70.3966 35.5968 74.6965C35.5968 76.8362 35.5762 78.5438 35.5762 79.7165C35.5762 80.2926 35.5762 80.7452 35.5762 81.0538C35.5762 81.1978 35.5762 81.3212 35.5762 81.4035C35.535 81.527 35.535 81.5681 35.535 81.5681Z" fill="#455A64"/>
<path d="M29.7052 80.1691C29.7258 80.1897 28.6958 82.5556 27.398 85.4771C26.1002 88.3985 25.029 90.7645 25.0084 90.7439C24.9878 90.7234 26.0178 88.3574 27.3156 85.4359C28.5928 82.5145 29.664 80.1485 29.7052 80.1691Z" fill="#455A64"/>
<path d="M46.2264 84.0165C46.2264 83.9343 46.2264 83.8314 46.2264 83.6874C46.2264 83.3788 46.2264 82.9467 46.2058 82.3912C46.2058 81.2597 46.1646 79.6138 46.1234 77.5976C46.041 73.5446 45.8556 67.9485 45.629 61.7764C45.4024 55.6043 45.2376 50.0083 45.1758 45.9553C45.1552 43.939 45.1346 42.2932 45.1346 41.1616C45.1346 40.6061 45.1346 40.1535 45.1346 39.8655C45.1346 39.7214 45.1346 39.598 45.1346 39.5363C45.1346 39.6186 45.1346 39.7214 45.1346 39.8655C45.1346 40.1741 45.1346 40.6061 45.1552 41.1616C45.1552 42.2932 45.1964 43.939 45.2376 45.9553C45.32 50.0083 45.5054 55.6043 45.732 61.7764C45.9586 67.9485 46.1234 73.5446 46.1852 77.5976C46.2058 79.6138 46.2264 81.2597 46.2264 82.3912C46.2264 82.9467 46.2264 83.3993 46.2264 83.6874C46.2264 83.8314 46.2264 83.9548 46.2264 84.0165Z" fill="#455A64"/>
<path d="M34.2372 57.209C34.2578 57.209 34.299 62.5787 34.299 69.2034C34.299 75.8282 34.2784 81.1979 34.2372 81.1979C34.2166 81.1979 34.1754 75.8282 34.1754 69.2034C34.1754 62.5787 34.196 57.209 34.2372 57.209Z" fill="#455A64"/>
<path d="M21.3622 88.4808C21.3622 88.4808 21.321 88.4397 21.2592 88.3368C21.218 88.2957 21.1768 88.2339 21.1356 88.1516C21.0944 88.0899 21.0326 88.0076 20.9914 87.9048C20.7648 87.5344 20.5176 86.9378 20.3322 86.156C20.1468 85.3948 20.1056 84.4484 20.2086 83.3991C20.3322 82.3704 20.6 81.2389 21.0944 80.1485C21.3416 79.593 21.6712 79.0992 22.0214 78.6672C22.1038 78.5643 22.2068 78.4409 22.2892 78.338C22.3922 78.2351 22.4746 78.1323 22.5776 78.0294C22.7836 77.8442 22.969 77.6591 23.175 77.4945C23.5664 77.1447 23.9784 76.8773 24.3698 76.6304C24.5758 76.5275 24.7612 76.4041 24.9672 76.3012C25.1732 76.2189 25.338 76.1161 25.5234 76.0543C26.2444 75.7663 26.883 75.6223 27.3156 75.5811C27.5422 75.54 27.707 75.5606 27.8306 75.5606C27.9542 75.5606 28.016 75.5606 28.016 75.5606C28.016 75.5606 27.9542 75.5811 27.8306 75.5811C27.707 75.6017 27.5422 75.5811 27.3362 75.6223C26.9036 75.6634 26.2856 75.828 25.5646 76.1366C25.3792 76.1984 25.1938 76.3012 25.0084 76.4041C24.823 76.507 24.6376 76.6098 24.4316 76.7333C24.0402 76.9801 23.6488 77.2476 23.2574 77.5974C23.0514 77.7619 22.866 77.9471 22.6806 78.1323C22.5776 78.2351 22.4952 78.338 22.4128 78.4409C22.3098 78.5437 22.2274 78.6466 22.145 78.7495C21.7948 79.1815 21.4652 79.6753 21.218 80.2102C20.7236 81.3006 20.4558 82.4116 20.3322 83.4197C20.2292 84.4484 20.2704 85.3742 20.4352 86.1354C20.6 86.8967 20.8472 87.4933 21.0532 87.8636C21.0944 87.9665 21.1562 88.0488 21.1974 88.1105C21.2386 88.1722 21.2798 88.2339 21.3004 88.2957C21.3416 88.4397 21.3622 88.4808 21.3622 88.4808Z" fill="#455A64"/>
<line x1="1.36554" y1="90.3823" x2="100.769" y2="90.3823" stroke="#3F3F3F" stroke-linecap="round"/>
</svg>
