<svg width="123" height="91" viewBox="0 0 123 91" fill="none" xmlns="http://www.w3.org/2000/svg">
<circle opacity="0.1" cx="69.7805" cy="44.9135" r="44.9135" fill="#D81E05"/>
<path d="M22.0983 63.6738C22.0983 63.6738 19.6498 59.7725 15.1835 57.4586C10.744 55.1447 8.83371 52.8846 11.1476 53.0191C13.9458 53.1806 20.2956 55.4138 23.1745 63.2433C24.4122 66.6066 22.0983 63.6738 22.0983 63.6738Z" fill="#E8505B" stroke="#263238" stroke-miterlimit="10" stroke-linecap="round" stroke-linejoin="round"/>
<path d="M21.9366 62.65C21.9366 62.65 19.7034 58.2106 15.5061 56.0581" stroke="#263238" stroke-miterlimit="10" stroke-linecap="round" stroke-linejoin="round"/>
<path d="M24.7614 66.3681C24.7614 66.3681 23.3623 62.4398 24.1964 58.0004C25.0305 53.5609 24.4924 50.9241 23.2816 52.6461C21.8287 54.7179 19.8646 60.4757 23.8197 66.9062C25.5417 69.6775 24.7614 66.3681 24.7614 66.3681Z" fill="#E8505B" stroke="#263238" stroke-miterlimit="10" stroke-linecap="round" stroke-linejoin="round"/>
<path d="M24.1157 65.6944C24.1157 65.6944 22.2054 61.6316 23.0125 57.4343" stroke="#263238" stroke-miterlimit="10" stroke-linecap="round" stroke-linejoin="round"/>
<path d="M22.2864 61.7079C22.2864 61.7079 20.8873 57.7797 21.7213 53.3402C22.5554 48.9008 22.0173 46.264 20.8065 47.986C19.3536 50.0577 17.3895 55.8155 21.3447 62.246C23.0666 64.9904 22.2864 61.7079 22.2864 61.7079Z" fill="#E8505B" stroke="#263238" stroke-miterlimit="10" stroke-linecap="round" stroke-linejoin="round"/>
<path d="M21.9366 62.6486C21.9366 62.6486 19.7034 56.9715 20.5375 52.7742" stroke="#263238" stroke-miterlimit="10" stroke-linecap="round" stroke-linejoin="round"/>
<path d="M78.1404 58.8025C78.1404 58.8025 80.5888 54.9012 85.0552 52.5873C89.4947 50.2734 91.405 48.0133 89.0911 48.1478C86.2929 48.3092 79.9431 50.5424 77.0642 58.372C75.7996 61.7352 78.1404 58.8025 78.1404 58.8025Z" fill="#A33840" stroke="#263238" stroke-miterlimit="10" stroke-linecap="round" stroke-linejoin="round"/>
<path d="M78.2748 57.7787C78.2748 57.7787 80.508 53.3392 84.7053 51.1868" stroke="#263238" stroke-miterlimit="10" stroke-linecap="round" stroke-linejoin="round"/>
<path d="M75.45 61.4948C75.45 61.4948 76.8491 57.5665 76.015 53.1271C75.1809 48.6876 75.719 46.0509 76.9298 47.7728C78.3827 49.8446 80.3468 55.6024 76.3917 62.0329C74.6697 64.8042 75.45 61.4948 75.45 61.4948Z" fill="#A33840" stroke="#263238" stroke-miterlimit="10" stroke-linecap="round" stroke-linejoin="round"/>
<path d="M76.0957 60.8211C76.0957 60.8211 78.006 56.7583 77.1989 52.561" stroke="#263238" stroke-miterlimit="10" stroke-linecap="round" stroke-linejoin="round"/>
<path d="M77.9521 56.84C77.9521 56.84 79.3512 52.9117 78.5171 48.4723C77.683 44.0328 78.2212 41.3961 79.4319 43.118C80.8848 45.1898 82.8489 50.9476 78.8938 57.3781C77.1718 60.1225 77.9521 56.84 77.9521 56.84Z" fill="#A33840" stroke="#263238" stroke-miterlimit="10" stroke-linecap="round" stroke-linejoin="round"/>
<path d="M78.2751 57.7809C78.2751 57.7809 80.5082 52.1038 79.6742 47.9065" stroke="#263238" stroke-miterlimit="10" stroke-linecap="round" stroke-linejoin="round"/>
<path d="M79.2704 44.8658H53.684L39.3707 22.1313H64.9571L79.2704 44.8658Z" fill="#263238" stroke="#263238" stroke-miterlimit="10" stroke-linecap="round" stroke-linejoin="round"/>
<path d="M50.1058 44.0835H23.9006V67.2484H50.1058V44.0835Z" fill="#C7C7C7" stroke="#263238" stroke-miterlimit="10" stroke-linecap="round" stroke-linejoin="round"/>
<path d="M76.3378 67.2513H50.1326V44.0863L63.4504 22.9124L76.3378 44.0863V67.2513Z" fill="white" stroke="#263238" stroke-miterlimit="10" stroke-linecap="round" stroke-linejoin="round"/>
<path d="M55.7827 48.2559H53.1729V56.1123H55.7827V48.2559Z" fill="#C7C7C7" stroke="#263238" stroke-miterlimit="10" stroke-linecap="round" stroke-linejoin="round"/>
<path d="M58.4193 48.2559H55.8094V56.1123H58.4193V48.2559Z" fill="#263238" stroke="#263238" stroke-miterlimit="10" stroke-linecap="round" stroke-linejoin="round"/>
<path d="M61.0291 48.2559H58.4193V56.1123H61.0291V48.2559Z" fill="#C7C7C7" stroke="#263238" stroke-miterlimit="10" stroke-linecap="round" stroke-linejoin="round"/>
<path d="M43.7833 48.2559H41.6039V56.1123H43.7833V48.2559Z" fill="#919191" stroke="#263238" stroke-miterlimit="10" stroke-linecap="round" stroke-linejoin="round"/>
<path d="M45.9625 48.2559H43.7831V56.1123H45.9625V48.2559Z" fill="#263238" stroke="#263238" stroke-miterlimit="10" stroke-linecap="round" stroke-linejoin="round"/>
<path d="M48.1418 48.2559H45.9625V56.1123H48.1418V48.2559Z" fill="#919191" stroke="#263238" stroke-miterlimit="10" stroke-linecap="round" stroke-linejoin="round"/>
<path d="M27.6135 48.2559H25.4342V56.1123H27.6135V48.2559Z" fill="#919191" stroke="#263238" stroke-miterlimit="10" stroke-linecap="round" stroke-linejoin="round"/>
<path d="M29.7927 48.2559H27.6133V56.1123H29.7927V48.2559Z" fill="#263238" stroke="#263238" stroke-miterlimit="10" stroke-linecap="round" stroke-linejoin="round"/>
<path d="M31.9991 48.2559H29.8197V56.1123H31.9991V48.2559Z" fill="#919191" stroke="#263238" stroke-miterlimit="10" stroke-linecap="round" stroke-linejoin="round"/>
<path d="M69.1275 48.2559H66.5176V56.1123H69.1275V48.2559Z" fill="#C7C7C7" stroke="#263238" stroke-miterlimit="10" stroke-linecap="round" stroke-linejoin="round"/>
<path d="M71.7372 48.2559H69.1273V56.1123H71.7372V48.2559Z" fill="#263238" stroke="#263238" stroke-miterlimit="10" stroke-linecap="round" stroke-linejoin="round"/>
<path d="M74.3739 48.2559H71.764V56.1123H74.3739V48.2559Z" fill="#C7C7C7" stroke="#263238" stroke-miterlimit="10" stroke-linecap="round" stroke-linejoin="round"/>
<path d="M63.02 35.3669H61.2711V40.1831H63.02V35.3669Z" fill="#C7C7C7" stroke="#263238" stroke-miterlimit="10" stroke-linecap="round" stroke-linejoin="round"/>
<path d="M64.7688 35.3669H63.0199V40.1831H64.7688V35.3669Z" fill="#263238" stroke="#263238" stroke-miterlimit="10" stroke-linecap="round" stroke-linejoin="round"/>
<path d="M66.5175 35.3669H64.7687V40.1831H66.5175V35.3669Z" fill="#C7C7C7" stroke="#263238" stroke-miterlimit="10" stroke-linecap="round" stroke-linejoin="round"/>
<path d="M22.4477 44.866H50.59L64.9033 22.1316H36.761L22.4477 44.866Z" fill="#D81E05" stroke="#263238" stroke-miterlimit="10" stroke-linecap="round" stroke-linejoin="round"/>
<path d="M44.4292 32.4084H33.3171V39.7537H44.4292V32.4084Z" fill="#C7C7C7" stroke="#263238" stroke-miterlimit="10" stroke-linecap="round" stroke-linejoin="round"/>
<path d="M44.4288 32.4098L52.1238 27.1362L44.4288 39.755V32.4098Z" fill="white" stroke="#263238" stroke-miterlimit="10" stroke-linecap="round" stroke-linejoin="round"/>
<path d="M32.4293 32.6519H44.0795L52.1243 27.1362H40.4741L32.4293 32.6519Z" fill="#D81E05" stroke="#263238" stroke-miterlimit="10" stroke-linecap="round" stroke-linejoin="round"/>
<path d="M37.7834 33.968H36.0345V38.7842H37.7834V33.968Z" fill="#919191" stroke="#263238" stroke-miterlimit="10" stroke-linecap="round" stroke-linejoin="round"/>
<path d="M39.5321 33.968H37.7832V38.7842H39.5321V33.968Z" fill="#263238" stroke="#263238" stroke-miterlimit="10" stroke-linecap="round" stroke-linejoin="round"/>
<path d="M41.281 33.968H39.5321V38.7842H41.281V33.968Z" fill="#919191" stroke="#263238" stroke-miterlimit="10" stroke-linecap="round" stroke-linejoin="round"/>
<path d="M58.1233 18.6604H57.1547V25.8173L58.1233 24.2299V18.6604Z" fill="white" stroke="#263238" stroke-miterlimit="10" stroke-linecap="round" stroke-linejoin="round"/>
<path d="M57.1817 18.6604H54.3028V25.7904H57.1817V18.6604Z" fill="#C7C7C7" stroke="#263238" stroke-miterlimit="10" stroke-linecap="round" stroke-linejoin="round"/>
<path d="M40.3935 49.5735H33.6671V67.2506H40.3935V49.5735Z" fill="#263238" stroke="#263238" stroke-miterlimit="10" stroke-linecap="round" stroke-linejoin="round"/>
<path d="M40.0166 58.3978C40.0166 58.075 39.7475 57.8059 39.4247 57.8059C39.1018 57.8059 38.8327 58.075 38.8327 58.3978C38.8327 58.7207 39.1018 58.9898 39.4247 58.9898C39.7745 58.9898 40.0166 58.7207 40.0166 58.3978Z" fill="white" stroke="#263238" stroke-miterlimit="10" stroke-linecap="round" stroke-linejoin="round"/>
<path d="M22.5291 63.5655C22.5291 63.5655 16.9058 60.4713 11.6323 59.9063C6.35875 59.3413 3.31839 61.7897 3.3453 62.839C3.37221 63.9152 7.03139 63.996 7.70404 64.1574C8.40359 64.3457 12.6278 63.1619 18.8699 64.6417C25.1121 66.1215 25.9193 66.4175 25.9193 66.4175L22.5291 63.5655Z" fill="white" stroke="#263238" stroke-miterlimit="10" stroke-linecap="round" stroke-linejoin="round"/>
<path d="M20.1615 63.4833C20.1615 63.4833 14.2691 60.9004 8.99561 60.7658C3.69517 60.6582 0.870063 63.3488 1.00459 64.3981C1.11222 65.4474 4.7714 65.2322 5.47095 65.3398C6.1705 65.4474 10.2871 63.9407 16.6369 64.8824C22.9866 65.8241 23.8207 66.0663 23.8207 66.0663L20.1615 63.4833Z" fill="white" stroke="#263238" stroke-miterlimit="10" stroke-linecap="round" stroke-linejoin="round"/>
<path d="M95.3323 61.3061L87.1802 59.0999C87.1802 59.0999 81.3957 54.4992 74.4274 55.0104C67.4591 55.5215 61.1634 58.2389 59.1187 59.7725C57.0739 61.306 54.518 62.8396 54.0068 63.1625C53.4956 63.5122 46.5273 61.6289 42.7875 63.1625C39.0478 64.696 36.1421 67.7632 36.1421 67.7632C36.1421 67.7632 20.3221 63.001 16.4209 62.3284C12.5198 61.6558 7.91906 61.9787 4.6905 64.3732C1.46193 66.7677 2.13455 68.2744 3.82955 68.6241C5.52454 68.9739 5.8743 67.252 15.2371 69.8079C24.6 72.3639 35.9806 78.9824 40.5813 81.5384C45.182 84.0943 52.823 87.6726 57.9348 86.1391C63.0467 84.6055 76.9834 79.3322 80.2119 79.3322C83.4405 79.3322 93.8257 80.0048 93.8257 80.0048L95.3323 61.3061Z" fill="white" stroke="#263238" stroke-miterlimit="10" stroke-linecap="round" stroke-linejoin="round"/>
<path d="M90.8934 72.5542L83.871 79.3076L93.7992 80.0071L90.8934 72.5542Z" fill="#263238" stroke="#263238" stroke-miterlimit="10" stroke-linecap="round" stroke-linejoin="round"/>
<path d="M36.1421 67.7637C36.1421 67.7637 34.5547 69.8353 35.2273 72.5258C35.6309 74.1939 37.568 73.8172 41.1195 73.1177C44.644 72.4182 41.3616 71.9339 49.5944 71.8263C57.8273 71.7187 66.652 71.4765 67.1094 71.4765" stroke="#263238" stroke-miterlimit="10" stroke-linecap="round" stroke-linejoin="round"/>
<path d="M36.0614 73.5469C36.0614 73.5469 36.2228 72.4707 37.3529 71.7981C37.3529 71.7981 39.317 70.7756 40.5278 70.7756C41.7654 70.7756 42.7609 72.0671 42.4112 72.5245" stroke="#263238" stroke-miterlimit="10" stroke-linecap="round" stroke-linejoin="round"/>
<path d="M46.6349 71.5034V70.0505" stroke="#263238" stroke-miterlimit="10" stroke-linecap="round" stroke-linejoin="round"/>
<path d="M47.3614 68.6787C47.3614 68.6787 47.5767 69.4859 47.4421 70.6966" stroke="#263238" stroke-miterlimit="10" stroke-linecap="round" stroke-linejoin="round"/>
<path d="M102.489 87.859H91.5119C90.8393 87.859 90.3012 87.3209 90.3012 86.6482V59.1248C90.3012 58.4522 90.8393 57.9141 91.5119 57.9141H102.489V87.859Z" fill="#D81E05" stroke="#263238" stroke-miterlimit="10" stroke-linecap="round" stroke-linejoin="round"/>
<path d="M121.995 90.2H102.57C102.059 90.2 101.655 89.7965 101.655 89.2853V57.2956C101.655 56.7844 102.059 56.3809 102.57 56.3809H121.995V90.2Z" fill="#D81E05" stroke="#263238" stroke-miterlimit="10" stroke-linecap="round" stroke-linejoin="round"/>
<path d="M91.9961 60.6587H101.036" stroke="#263238" stroke-miterlimit="10" stroke-linecap="round" stroke-linejoin="round"/>
<path d="M100.929 64.21H91.7272" stroke="#263238" stroke-miterlimit="10" stroke-linecap="round" stroke-linejoin="round"/>
<path d="M91.4043 70.6675H97.7002" stroke="#263238" stroke-miterlimit="10" stroke-linecap="round" stroke-linejoin="round"/>
<path d="M98.83 70.6672H100.929" stroke="#263238" stroke-miterlimit="10" stroke-linecap="round" stroke-linejoin="round"/>
</svg>
