<svg width="281" height="209" viewBox="0 0 281 209" fill="none" xmlns="http://www.w3.org/2000/svg">
<circle opacity="0.1" cx="159.5" cy="103.5" r="103.5" fill="#D81E05"/>
<path d="M49.6186 146.726C49.6186 146.726 43.9766 137.736 33.6846 132.404C23.4546 127.072 19.0526 121.864 24.3846 122.174C30.8326 122.546 45.4646 127.692 52.0986 145.734C54.9506 153.484 49.6186 146.726 49.6186 146.726Z" fill="#E8505B" stroke="#263238" stroke-miterlimit="10" stroke-linecap="round" stroke-linejoin="round"/>
<path d="M49.2466 144.37C49.2466 144.37 44.1006 134.14 34.4286 129.18" stroke="#263238" stroke-miterlimit="10" stroke-linecap="round" stroke-linejoin="round"/>
<path d="M55.7565 152.926C55.7565 152.926 52.5325 143.874 54.4545 133.644C56.3765 123.414 55.1365 117.338 52.3465 121.306C48.9985 126.08 44.4726 139.348 53.5866 154.166C57.5546 160.552 55.7565 152.926 55.7565 152.926Z" fill="#E8505B" stroke="#263238" stroke-miterlimit="10" stroke-linecap="round" stroke-linejoin="round"/>
<path d="M54.2685 151.376C54.2685 151.376 49.8665 142.014 51.7265 132.342" stroke="#263238" stroke-miterlimit="10" stroke-linecap="round" stroke-linejoin="round"/>
<path d="M50.0526 142.2C50.0526 142.2 46.8286 133.148 48.7506 122.918C50.6726 112.688 49.4326 106.612 46.6426 110.58C43.2946 115.354 38.7686 128.622 47.8826 143.44C51.8506 149.764 50.0526 142.2 50.0526 142.2Z" fill="#E8505B" stroke="#263238" stroke-miterlimit="10" stroke-linecap="round" stroke-linejoin="round"/>
<path d="M49.2466 144.37C49.2466 144.37 44.1006 131.288 46.0226 121.616" stroke="#263238" stroke-miterlimit="10" stroke-linecap="round" stroke-linejoin="round"/>
<path d="M178.765 135.504C178.765 135.504 184.407 126.514 194.699 121.182C204.929 115.85 209.331 110.642 203.999 110.952C197.551 111.324 182.919 116.47 176.285 134.512C173.371 142.262 178.765 135.504 178.765 135.504Z" fill="#A33840" stroke="#263238" stroke-miterlimit="10" stroke-linecap="round" stroke-linejoin="round"/>
<path d="M179.075 133.148C179.075 133.148 184.221 122.918 193.893 117.958" stroke="#263238" stroke-miterlimit="10" stroke-linecap="round" stroke-linejoin="round"/>
<path d="M172.565 141.704C172.565 141.704 175.789 132.652 173.867 122.422C171.945 112.192 173.185 106.116 175.975 110.084C179.323 114.858 183.849 128.126 174.735 142.944C170.767 149.33 172.565 141.704 172.565 141.704Z" fill="#A33840" stroke="#263238" stroke-miterlimit="10" stroke-linecap="round" stroke-linejoin="round"/>
<path d="M174.053 140.154C174.053 140.154 178.455 130.792 176.595 121.12" stroke="#263238" stroke-miterlimit="10" stroke-linecap="round" stroke-linejoin="round"/>
<path d="M178.331 130.978C178.331 130.978 181.555 121.926 179.633 111.696C177.711 101.466 178.951 95.39 181.741 99.358C185.089 104.132 189.615 117.4 180.501 132.218C176.533 138.542 178.331 130.978 178.331 130.978Z" fill="#A33840" stroke="#263238" stroke-miterlimit="10" stroke-linecap="round" stroke-linejoin="round"/>
<path d="M179.075 133.148C179.075 133.148 184.221 120.066 182.299 110.394" stroke="#263238" stroke-miterlimit="10" stroke-linecap="round" stroke-linejoin="round"/>
<path d="M181.369 103.388H122.407L89.4225 50.998H148.385L181.369 103.388Z" fill="#263238" stroke="#263238" stroke-miterlimit="10" stroke-linecap="round" stroke-linejoin="round"/>
<path d="M114.161 101.59H53.7726V154.972H114.161V101.59Z" fill="#C7C7C7" stroke="#263238" stroke-miterlimit="10" stroke-linecap="round" stroke-linejoin="round"/>
<path d="M174.611 154.972H114.223V101.59L144.913 52.796L174.611 101.59V154.972Z" fill="white" stroke="#263238" stroke-miterlimit="10" stroke-linecap="round" stroke-linejoin="round"/>
<path d="M127.243 111.2H121.229V129.304H127.243V111.2Z" fill="#C7C7C7" stroke="#263238" stroke-miterlimit="10" stroke-linecap="round" stroke-linejoin="round"/>
<path d="M133.319 111.2H127.305V129.304H133.319V111.2Z" fill="#263238" stroke="#263238" stroke-miterlimit="10" stroke-linecap="round" stroke-linejoin="round"/>
<path d="M139.333 111.2H133.319V129.304H139.333V111.2Z" fill="#C7C7C7" stroke="#263238" stroke-miterlimit="10" stroke-linecap="round" stroke-linejoin="round"/>
<path d="M99.5905 111.2H94.5685V129.304H99.5905V111.2Z" fill="#919191" stroke="#263238" stroke-miterlimit="10" stroke-linecap="round" stroke-linejoin="round"/>
<path d="M104.613 111.2H99.5905V129.304H104.613V111.2Z" fill="#263238" stroke="#263238" stroke-miterlimit="10" stroke-linecap="round" stroke-linejoin="round"/>
<path d="M109.635 111.2H104.613V129.304H109.635V111.2Z" fill="#919191" stroke="#263238" stroke-miterlimit="10" stroke-linecap="round" stroke-linejoin="round"/>
<path d="M62.3286 111.2H57.3066V129.304H62.3286V111.2Z" fill="#919191" stroke="#263238" stroke-miterlimit="10" stroke-linecap="round" stroke-linejoin="round"/>
<path d="M67.3506 111.2H62.3286V129.304H67.3506V111.2Z" fill="#263238" stroke="#263238" stroke-miterlimit="10" stroke-linecap="round" stroke-linejoin="round"/>
<path d="M72.4346 111.2H67.4126V129.304H72.4346V111.2Z" fill="#919191" stroke="#263238" stroke-miterlimit="10" stroke-linecap="round" stroke-linejoin="round"/>
<path d="M157.995 111.2H151.981V129.304H157.995V111.2Z" fill="#C7C7C7" stroke="#263238" stroke-miterlimit="10" stroke-linecap="round" stroke-linejoin="round"/>
<path d="M164.009 111.2H157.995V129.304H164.009V111.2Z" fill="#263238" stroke="#263238" stroke-miterlimit="10" stroke-linecap="round" stroke-linejoin="round"/>
<path d="M170.085 111.2H164.071V129.304H170.085V111.2Z" fill="#C7C7C7" stroke="#263238" stroke-miterlimit="10" stroke-linecap="round" stroke-linejoin="round"/>
<path d="M143.921 81.502H139.891V92.6H143.921V81.502Z" fill="#C7C7C7" stroke="#263238" stroke-miterlimit="10" stroke-linecap="round" stroke-linejoin="round"/>
<path d="M147.951 81.502H143.921V92.6H147.951V81.502Z" fill="#263238" stroke="#263238" stroke-miterlimit="10" stroke-linecap="round" stroke-linejoin="round"/>
<path d="M151.981 81.502H147.951V92.6H151.981V81.502Z" fill="#C7C7C7" stroke="#263238" stroke-miterlimit="10" stroke-linecap="round" stroke-linejoin="round"/>
<path d="M50.4246 103.388H115.277L148.261 50.998H83.4086L50.4246 103.388Z" fill="#D81E05" stroke="#263238" stroke-miterlimit="10" stroke-linecap="round" stroke-linejoin="round"/>
<path d="M101.079 74.682H75.4726V91.608H101.079V74.682Z" fill="#C7C7C7" stroke="#263238" stroke-miterlimit="10" stroke-linecap="round" stroke-linejoin="round"/>
<path d="M101.079 74.682L118.811 62.53L101.079 91.608V74.682Z" fill="white" stroke="#263238" stroke-miterlimit="10" stroke-linecap="round" stroke-linejoin="round"/>
<path d="M73.4266 75.24H100.273L118.811 62.53H91.9646L73.4266 75.24Z" fill="#D81E05" stroke="#263238" stroke-miterlimit="10" stroke-linecap="round" stroke-linejoin="round"/>
<path d="M85.7646 78.278H81.7346V89.376H85.7646V78.278Z" fill="#919191" stroke="#263238" stroke-miterlimit="10" stroke-linecap="round" stroke-linejoin="round"/>
<path d="M89.7946 78.278H85.7646V89.376H89.7946V78.278Z" fill="#263238" stroke="#263238" stroke-miterlimit="10" stroke-linecap="round" stroke-linejoin="round"/>
<path d="M93.8246 78.278H89.7946V89.376H93.8246V78.278Z" fill="#919191" stroke="#263238" stroke-miterlimit="10" stroke-linecap="round" stroke-linejoin="round"/>
<path d="M132.637 43H130.405V59.492L132.637 55.834V43Z" fill="white" stroke="#263238" stroke-miterlimit="10" stroke-linecap="round" stroke-linejoin="round"/>
<path d="M130.467 43H123.833V59.43H130.467V43Z" fill="#C7C7C7" stroke="#263238" stroke-miterlimit="10" stroke-linecap="round" stroke-linejoin="round"/>
<path d="M91.7786 114.238H76.2786V154.972H91.7786V114.238Z" fill="#263238" stroke="#263238" stroke-miterlimit="10" stroke-linecap="round" stroke-linejoin="round"/>
<path d="M90.9106 134.574C90.9106 133.83 90.2906 133.21 89.5466 133.21C88.8026 133.21 88.1826 133.83 88.1826 134.574C88.1826 135.318 88.8026 135.938 89.5466 135.938C90.3526 135.938 90.9106 135.318 90.9106 134.574Z" fill="white" stroke="#263238" stroke-miterlimit="10" stroke-linecap="round" stroke-linejoin="round"/>
<path d="M50.6106 146.478C50.6106 146.478 37.6526 139.348 25.5006 138.046C13.3486 136.744 6.34258 142.386 6.40458 144.804C6.46658 147.284 14.8986 147.47 16.4486 147.842C18.0606 148.276 27.7946 145.548 42.1786 148.958C56.5626 152.368 58.4226 153.05 58.4226 153.05L50.6106 146.478Z" fill="white" stroke="#263238" stroke-miterlimit="10" stroke-linecap="round" stroke-linejoin="round"/>
<path d="M45.1546 146.292C45.1546 146.292 31.5766 140.34 19.4246 140.03C7.21058 139.782 0.700581 145.982 1.01058 148.4C1.25858 150.818 9.69058 150.322 11.3026 150.57C12.9146 150.818 22.4006 147.346 37.0326 149.516C51.6646 151.686 53.5866 152.244 53.5866 152.244L45.1546 146.292Z" fill="white" stroke="#263238" stroke-miterlimit="10" stroke-linecap="round" stroke-linejoin="round"/>
<path d="M218.383 141.27L199.597 136.186C199.597 136.186 186.267 125.584 170.209 126.762C154.151 127.94 139.643 134.202 134.931 137.736C130.219 141.27 124.329 144.804 123.151 145.548C121.973 146.354 105.915 142.014 97.2966 145.548C88.6786 149.082 81.9826 156.15 81.9826 156.15C81.9826 156.15 45.5266 145.176 36.5366 143.626C27.5466 142.076 16.9446 142.82 9.5046 148.338C2.0646 153.856 3.6146 157.328 7.5206 158.134C11.4266 158.94 12.2326 154.972 33.8086 160.862C55.3846 166.752 81.6106 182.004 92.2126 187.894C102.815 193.784 120.423 202.03 132.203 198.496C143.983 194.962 176.099 182.81 183.539 182.81C190.979 182.81 214.911 184.36 214.911 184.36L218.383 141.27Z" fill="white" stroke="#263238" stroke-miterlimit="10" stroke-linecap="round" stroke-linejoin="round"/>
<path d="M208.153 167.186L191.971 182.748L214.849 184.36L208.153 167.186Z" fill="#263238" stroke="#263238" stroke-miterlimit="10" stroke-linecap="round" stroke-linejoin="round"/>
<path d="M81.9826 156.15C81.9826 156.15 78.3246 160.924 79.8746 167.124C80.8046 170.968 85.2686 170.1 93.4526 168.488C101.575 166.876 94.0106 165.76 112.983 165.512C131.955 165.264 152.291 164.706 153.345 164.706" stroke="#263238" stroke-miterlimit="10" stroke-linecap="round" stroke-linejoin="round"/>
<path d="M81.7966 169.48C81.7966 169.48 82.1686 167 84.7726 165.45C84.7726 165.45 89.2986 163.094 92.0886 163.094C94.9406 163.094 97.2346 166.07 96.4286 167.124" stroke="#263238" stroke-miterlimit="10" stroke-linecap="round" stroke-linejoin="round"/>
<path d="M106.163 164.768V161.42" stroke="#263238" stroke-miterlimit="10" stroke-linecap="round" stroke-linejoin="round"/>
<path d="M107.837 158.258C107.837 158.258 108.333 160.118 108.023 162.908" stroke="#263238" stroke-miterlimit="10" stroke-linecap="round" stroke-linejoin="round"/>
<path d="M234.875 202.464H209.579C208.029 202.464 206.789 201.224 206.789 199.674V136.248C206.789 134.698 208.029 133.458 209.579 133.458H234.875V202.464Z" fill="#D81E05" stroke="#263238" stroke-miterlimit="10" stroke-linecap="round" stroke-linejoin="round"/>
<path d="M279.825 207.858H235.061C233.883 207.858 232.953 206.928 232.953 205.75V132.032C232.953 130.854 233.883 129.924 235.061 129.924H279.825V207.858Z" fill="#D81E05" stroke="#263238" stroke-miterlimit="10" stroke-linecap="round" stroke-linejoin="round"/>
<path d="M210.695 139.782H231.527" stroke="#263238" stroke-miterlimit="10" stroke-linecap="round" stroke-linejoin="round"/>
<path d="M231.279 147.966H210.075" stroke="#263238" stroke-miterlimit="10" stroke-linecap="round" stroke-linejoin="round"/>
<path d="M209.331 162.846H223.839" stroke="#263238" stroke-miterlimit="10" stroke-linecap="round" stroke-linejoin="round"/>
<path d="M226.443 162.846H231.279" stroke="#263238" stroke-miterlimit="10" stroke-linecap="round" stroke-linejoin="round"/>
</svg>
