<svg width="243" height="207" viewBox="0 0 243 207" fill="none" xmlns="http://www.w3.org/2000/svg">
<circle opacity="0.1" cx="111.5" cy="103.5" r="103.5" fill="#D81E05"/>
<path d="M199.256 171.894C188.984 164.688 186.617 151.404 187.048 139.41C187.101 137.42 186.886 135.323 187.854 133.548C188.822 131.773 191.027 130.59 192.802 131.451C194.308 132.15 194.953 133.871 195.76 135.323C196.89 137.205 198.503 138.819 200.439 139.787C201.73 140.432 203.29 140.862 204.527 140.163C206.248 139.195 206.463 136.829 206.463 134.839C206.463 131.128 206.409 127.417 206.409 123.706C206.409 121.716 206.409 119.672 207.001 117.79C207.646 115.908 208.99 114.133 210.873 113.595C212.755 113.057 215.122 114.133 215.498 116.123C215.659 116.93 215.498 117.79 215.552 118.597C215.606 119.403 215.982 120.318 216.789 120.587C217.596 120.802 218.402 120.264 218.994 119.672C221.038 117.682 222.436 115.101 223.727 112.519C225.017 109.938 226.308 107.303 228.137 105.098C230.019 102.893 232.601 101.171 235.451 101.01C238.301 100.849 241.313 102.624 242.066 105.42C242.765 108.217 241.152 111.067 239.377 113.326C236.742 116.714 233.622 119.672 230.127 122.146C229.481 122.577 228.836 123.061 228.567 123.814C228.137 125.158 229.374 126.449 230.718 126.879C232.224 127.363 233.784 127.202 235.343 127.417C236.903 127.578 238.57 128.277 239.162 129.73C239.969 131.773 238.301 133.871 236.58 135.269C233.246 138.066 229.428 140.271 225.34 141.777C223.888 142.314 222.328 142.799 221.145 143.82C219.962 144.842 219.263 146.617 219.962 148.015C220.661 149.414 222.49 149.844 224.049 149.575C225.555 149.306 226.954 148.446 228.406 147.908C231.149 146.886 234.644 147.047 236.419 149.414C237.549 150.973 237.656 153.125 237.064 155.007C236.473 156.836 235.29 158.449 234.053 159.901C229.696 165.064 224.049 169.205 217.703 171.357C211.464 173.615 205.602 174.207 199.256 171.894Z" fill="#E8505B"/>
<path d="M199.095 180.768C199.525 176.036 200.547 170.389 202.322 164.365C204.096 158.341 206.57 151.834 209.421 145.165C210.12 143.498 210.819 141.83 211.518 140.217C212.217 138.604 212.917 136.99 213.669 135.484C215.229 132.419 216.896 129.568 218.617 126.933C220.338 124.298 222.059 121.877 223.673 119.565C225.286 117.306 226.846 115.209 228.352 113.38C231.31 109.669 234.106 106.98 236.043 105.259C237.011 104.398 237.817 103.699 238.355 103.269C238.624 103.054 238.839 102.893 238.947 102.785C239.108 102.677 239.162 102.624 239.162 102.624C239.162 102.624 239.108 102.677 238.947 102.839C238.785 102.946 238.624 103.161 238.355 103.377C237.817 103.861 237.064 104.506 236.096 105.42C234.16 107.195 231.471 109.938 228.513 113.649C227.007 115.477 225.501 117.575 223.888 119.834C222.275 122.093 220.554 124.567 218.886 127.202C217.219 129.837 215.498 132.634 213.992 135.699C213.239 137.205 212.54 138.819 211.841 140.432C211.142 142.046 210.443 143.713 209.743 145.38C206.893 152.049 204.419 158.503 202.644 164.526C200.869 170.55 199.794 176.143 199.31 180.876" fill="#263238"/>
<path d="M213.831 135.484C213.831 135.484 213.723 135.162 213.616 134.624C213.508 134.086 213.4 133.279 213.239 132.257C212.97 130.267 212.648 127.525 212.325 124.513C212.002 121.501 211.679 118.758 211.357 116.768C211.195 115.8 211.088 114.993 210.98 114.456C210.873 113.918 210.819 113.595 210.873 113.595C210.873 113.595 210.98 113.864 211.142 114.456C211.303 114.993 211.464 115.8 211.626 116.768C212.002 118.758 212.379 121.501 212.701 124.513C213.024 127.525 213.293 130.214 213.508 132.257C213.616 133.172 213.669 133.978 213.777 134.624C213.831 135.162 213.831 135.484 213.831 135.484Z" fill="#263238"/>
<path d="M239.431 130.698C239.431 130.698 239.054 130.751 238.409 130.805C237.764 130.859 236.796 130.967 235.612 131.074C233.246 131.343 230.019 131.773 226.523 132.472C222.974 133.172 219.801 133.871 217.542 134.516C216.412 134.785 215.498 135.054 214.853 135.269C214.207 135.43 213.885 135.538 213.831 135.538C213.831 135.538 214.153 135.377 214.799 135.162C215.444 134.946 216.358 134.624 217.488 134.301C219.747 133.656 222.92 132.849 226.469 132.15C230.019 131.504 233.246 131.074 235.612 130.859C236.796 130.751 237.764 130.698 238.409 130.698C239.054 130.698 239.431 130.698 239.431 130.698Z" fill="#263238"/>
<path d="M202.698 163.935C202.698 163.935 202.644 163.827 202.537 163.612C202.429 163.343 202.268 163.074 202.106 162.698C201.73 161.891 201.192 160.708 200.601 159.256C199.364 156.352 197.804 152.21 196.083 147.693C194.416 143.121 192.856 139.034 191.673 136.076C191.081 134.624 190.651 133.441 190.274 132.58C190.113 132.204 190.006 131.881 189.898 131.612C189.79 131.397 189.79 131.289 189.79 131.289C189.79 131.289 189.844 131.397 189.952 131.612C190.059 131.881 190.221 132.15 190.382 132.526C190.758 133.333 191.296 134.516 191.888 135.968C193.125 138.872 194.685 143.014 196.406 147.531C198.073 152.103 199.632 156.19 200.816 159.148C201.407 160.6 201.838 161.783 202.214 162.644C202.375 163.02 202.483 163.343 202.59 163.612C202.644 163.773 202.698 163.935 202.698 163.935Z" fill="#263238"/>
<path d="M236.688 152.963C236.688 152.963 236.581 153.017 236.365 153.125C236.096 153.232 235.774 153.34 235.397 153.447C234.483 153.716 233.246 154.146 231.74 154.63C228.675 155.652 224.426 157.051 219.747 158.61C215.068 160.17 210.819 161.568 207.754 162.536C206.194 163.02 204.957 163.343 204.096 163.612C203.666 163.72 203.343 163.827 203.075 163.881C202.859 163.935 202.698 163.935 202.698 163.935C202.698 163.935 202.806 163.881 203.021 163.773C203.29 163.666 203.612 163.558 203.989 163.451C204.903 163.182 206.14 162.752 207.646 162.267C210.712 161.246 214.96 159.847 219.639 158.288C224.318 156.728 228.567 155.33 231.633 154.362C233.192 153.878 234.429 153.555 235.29 153.286C235.72 153.178 236.043 153.071 236.312 153.017C236.527 152.963 236.688 152.963 236.688 152.963Z" fill="#263238"/>
<path d="M206.695 196.005H24.3538C20.442 196.005 17.2147 192.51 17.2147 188.153V60.8521C17.2147 56.5496 20.3931 53 24.3538 53H206.695C210.607 53 213.834 56.4958 213.834 60.8521V188.153C213.785 192.51 210.607 196.005 206.695 196.005Z" fill="#737373"/>
<path d="M213.296 197.942H17.7039C12.9118 197.942 9 193.639 9 188.368V185.41H222V188.368C222 193.693 218.088 197.942 213.296 197.942Z" fill="#737373"/>
<path d="M207.966 58.7009H22.4958V179.441H207.966V58.7009Z" fill="#455A64"/>
<path d="M96.1363 185.464L98.7768 190.09H135.939L138.433 185.464H96.1363Z" fill="#455A64"/>
<path d="M202.93 179.064H27.9235C27.0433 179.064 26.3098 178.258 26.3098 177.289V64.5631C26.3098 63.595 27.0433 62.7883 27.9235 62.7883H202.93C203.81 62.7883 204.543 63.595 204.543 64.5631V177.343C204.543 178.311 203.81 179.064 202.93 179.064Z" fill="#EBEBEB"/>
<path d="M204.543 71.3395H26.3098V179.118H204.543V71.3395Z" fill="#FAFAFA"/>
<path d="M40.9303 67.3059C40.9303 68.1664 40.2947 68.8656 39.5123 68.8656C38.7299 68.8656 38.0942 68.1664 38.0942 67.3059C38.0942 66.4454 38.7299 65.7462 39.5123 65.7462C40.2947 65.7462 40.9303 66.4454 40.9303 67.3059Z" fill="#737373"/>
<path d="M32.3243 67.3059C32.3243 68.1664 31.6886 68.8656 30.9063 68.8656C30.1239 68.8656 29.4882 68.1664 29.4882 67.3059C29.4882 66.4454 30.1239 65.7462 30.9063 65.7462C31.6886 65.7462 32.3243 66.4454 32.3243 67.3059Z" fill="#737373"/>
<path d="M36.4319 67.3059C36.4319 68.1664 35.7962 68.8656 35.0138 68.8656C34.2314 68.8656 33.5958 68.1664 33.5958 67.3059C33.5958 66.4454 34.2314 65.7462 35.0138 65.7462C35.7962 65.7462 36.4319 66.4454 36.4319 67.3059Z" fill="#737373"/>
<path d="M212.122 185.464C212.122 185.518 168.505 185.626 114.669 185.626C60.8318 185.572 17.2147 185.518 17.2147 185.464C17.2147 185.41 60.8318 185.303 114.669 185.303C168.456 185.303 212.122 185.357 212.122 185.464Z" fill="#455A64"/>
<path d="M79.3642 125.605H38.681V128.617H79.3642V125.605Z" fill="#E0E0E0"/>
<path d="M131.881 84.0858H91.1976V87.0976H131.881V84.0858Z" fill="#E0E0E0"/>
<path d="M192.368 95.2186C192.368 95.2724 169.728 95.38 141.807 95.38C113.886 95.38 91.2465 95.3262 91.2465 95.2186C91.2465 95.1648 113.886 95.0573 141.807 95.0573C169.728 95.0573 192.368 95.111 192.368 95.2186Z" fill="#E0E0E0"/>
<path d="M192.368 101.726C192.368 101.78 169.728 101.888 141.807 101.888C113.886 101.888 91.2465 101.834 91.2465 101.726C91.2465 101.619 113.886 101.565 141.807 101.565C169.728 101.619 192.368 101.672 192.368 101.726Z" fill="#E0E0E0"/>
<path d="M192.368 108.288C192.368 108.341 169.728 108.449 141.807 108.449C113.886 108.449 91.2465 108.395 91.2465 108.288C91.2465 108.18 113.886 108.126 141.807 108.126C169.728 108.126 192.368 108.18 192.368 108.288Z" fill="#E0E0E0"/>
<path d="M192.368 114.795C192.368 114.849 169.728 114.956 141.807 114.956C113.886 114.956 91.2465 114.903 91.2465 114.795C91.2465 114.688 113.886 114.634 141.807 114.634C169.728 114.688 192.368 114.741 192.368 114.795Z" fill="#E0E0E0"/>
<path d="M192.368 121.357C192.368 121.41 169.728 121.518 141.807 121.518C113.886 121.518 91.2465 121.464 91.2465 121.357C91.2465 121.303 113.886 121.195 141.807 121.195C169.728 121.195 192.368 121.249 192.368 121.357Z" fill="#E0E0E0"/>
<path d="M130.658 127.864C130.658 127.918 121.808 128.025 110.904 128.025C99.9992 128.025 91.1487 127.972 91.1487 127.864C91.1487 127.81 99.9992 127.703 110.904 127.703C121.857 127.757 130.658 127.81 130.658 127.864Z" fill="#E0E0E0"/>
<path d="M191.634 140.557C191.634 140.61 176.769 140.718 158.384 140.718C139.998 140.718 125.133 140.664 125.133 140.557C125.133 140.449 139.998 140.395 158.384 140.395C176.72 140.395 191.634 140.503 191.634 140.557Z" fill="#E0E0E0"/>
<path d="M191.634 147.494C191.634 147.548 176.769 147.656 158.384 147.656C139.998 147.656 125.133 147.602 125.133 147.494C125.133 147.387 139.998 147.333 158.384 147.333C176.72 147.333 191.634 147.441 191.634 147.494Z" fill="#E0E0E0"/>
<path d="M191.634 154.432C191.634 154.486 176.769 154.594 158.384 154.594C139.998 154.594 125.133 154.54 125.133 154.432C125.133 154.325 139.998 154.271 158.384 154.271C176.72 154.271 191.634 154.378 191.634 154.432Z" fill="#E0E0E0"/>
<path d="M191.634 161.37C191.634 161.424 176.769 161.531 158.384 161.531C139.998 161.531 125.133 161.478 125.133 161.37C125.133 161.262 139.998 161.209 158.384 161.209C176.72 161.209 191.634 161.316 191.634 161.37Z" fill="#E0E0E0"/>
<path d="M79.4132 139.911C79.4132 139.965 70.5627 140.073 59.6095 140.073C48.6563 140.073 39.8058 140.019 39.8058 139.911C39.8058 139.857 48.6563 139.75 59.6095 139.75C70.5627 139.75 79.4132 139.804 79.4132 139.911Z" fill="#E0E0E0"/>
<path d="M79.4132 145.343C79.4132 145.397 70.5627 145.504 59.6095 145.504C48.6563 145.504 39.8058 145.451 39.8058 145.343C39.8058 145.236 48.6563 145.182 59.6095 145.182C70.5627 145.182 79.4132 145.289 79.4132 145.343Z" fill="#E0E0E0"/>
<path d="M79.4132 150.775C79.4132 150.829 70.5627 150.936 59.6095 150.936C48.6563 150.936 39.8058 150.883 39.8058 150.775C39.8058 150.668 48.6563 150.614 59.6095 150.614C70.5627 150.668 79.4132 150.721 79.4132 150.775Z" fill="#E0E0E0"/>
<path d="M79.4132 156.261C79.4132 156.315 70.5627 156.422 59.6095 156.422C48.6563 156.422 39.8058 156.368 39.8058 156.261C39.8058 156.153 48.6563 156.099 59.6095 156.099C70.5627 156.099 79.4132 156.153 79.4132 156.261Z" fill="#E0E0E0"/>
<path d="M79.4132 161.693C79.4132 161.747 70.5627 161.854 59.6095 161.854C48.6563 161.854 39.8058 161.8 39.8058 161.693C39.8058 161.585 48.6563 161.531 59.6095 161.531C70.5627 161.531 79.4132 161.585 79.4132 161.693Z" fill="#E0E0E0"/>
<path d="M119.999 137.276H91.1487V167.985H119.999V137.276Z" fill="#F5F5F5"/>
<path d="M93.3981 165.35L101.369 149.538L107.921 159.649L111.882 154.271L117.798 165.35H93.3981Z" fill="#EBEBEB"/>
<path d="M110.708 146.473C110.708 147.71 109.779 148.731 108.654 148.731C107.53 148.731 106.6 147.71 106.6 146.473C106.6 145.236 107.53 144.214 108.654 144.214C109.779 144.16 110.708 145.182 110.708 146.473Z" fill="#EBEBEB"/>
<path d="M117.798 165.404C117.798 165.404 117.798 165.35 117.798 165.296C117.798 165.189 117.798 165.081 117.798 164.92C117.798 164.597 117.798 164.113 117.798 163.521C117.798 162.284 117.798 160.563 117.749 158.305C117.749 153.841 117.7 147.441 117.7 139.75L117.798 139.857C110.757 139.857 102.346 139.857 93.3981 139.857C93.3492 139.911 93.6426 139.589 93.5448 139.696V139.75V139.804V139.911V140.126V140.557V141.417C93.5448 142.009 93.5448 142.6 93.5448 143.138C93.5448 144.268 93.5448 145.451 93.5448 146.58C93.5448 148.839 93.5448 151.044 93.5448 153.195C93.5448 157.498 93.5448 161.585 93.5448 165.296L93.447 165.189C100.733 165.242 106.796 165.242 111.099 165.242C113.251 165.242 114.913 165.242 116.087 165.296C116.674 165.296 117.114 165.296 117.407 165.296C117.554 165.296 117.652 165.296 117.749 165.296C117.749 165.404 117.798 165.404 117.798 165.404C117.798 165.404 117.749 165.404 117.7 165.404C117.603 165.404 117.505 165.404 117.358 165.404C117.065 165.404 116.625 165.404 116.087 165.404C114.913 165.404 113.251 165.404 111.148 165.458C106.845 165.458 100.733 165.511 93.447 165.511H93.3492V165.404C93.3492 161.639 93.3492 157.605 93.3492 153.303C93.3492 151.152 93.3492 148.947 93.3492 146.688C93.3492 145.558 93.3492 144.429 93.3492 143.246C93.3492 142.654 93.3492 142.116 93.3492 141.525V140.664V140.234V140.019V139.911V139.857V139.804C93.2025 139.911 93.4959 139.589 93.4959 139.642C102.444 139.642 110.806 139.642 117.896 139.642H117.994V139.75C117.945 147.441 117.945 153.841 117.945 158.358C117.945 160.563 117.945 162.338 117.896 163.521C117.896 164.113 117.896 164.543 117.896 164.866C117.896 165.027 117.896 165.135 117.896 165.189C117.798 165.404 117.798 165.404 117.798 165.404Z" fill="#EBEBEB"/>
<path d="M78.533 78.9766H39.4146V120.604H78.533V78.9766Z" fill="#F5F5F5"/>
<path d="M42.4461 117.054L53.3015 95.5951L62.152 109.309L67.5308 102.049L75.5501 117.054H42.4461Z" fill="#E0E0E0"/>
<path d="M65.9172 91.4539C65.9172 93.1749 64.6459 94.5732 63.0811 94.5732C61.5164 94.5732 60.2451 93.1749 60.2451 91.4539C60.2451 89.7329 61.5164 88.3345 63.0811 88.3345C64.6459 88.3345 65.9172 89.7329 65.9172 91.4539Z" fill="#E0E0E0"/>
<path d="M75.5501 117.162C75.5501 117.162 75.5501 117.108 75.5501 117C75.5501 116.893 75.5501 116.731 75.5501 116.516C75.5501 116.086 75.5501 115.44 75.5501 114.634C75.5501 112.967 75.5501 110.6 75.5012 107.535C75.5012 101.457 75.4524 92.7984 75.4035 82.3648L75.5501 82.5261C65.9661 82.5261 54.6218 82.5261 42.495 82.5799C42.4462 82.6337 42.8373 82.2034 42.6906 82.3648V82.4185V82.4723V82.6337V82.9564V83.548V84.7312C42.6906 85.5379 42.6906 86.2908 42.6906 87.0975C42.6906 88.6572 42.6906 90.2169 42.6906 91.7228C42.6906 94.7883 42.6906 97.8001 42.6906 100.704C42.6906 106.513 42.6906 112.052 42.6906 117.108L42.5439 116.946C52.4214 117 60.6362 117 66.4551 117.054C69.3401 117.054 71.6383 117.108 73.203 117.108C73.9854 117.108 74.5722 117.108 75.0123 117.108C75.2079 117.108 75.3546 117.108 75.4524 117.108C75.4524 117.162 75.5501 117.162 75.5501 117.162C75.5501 117.162 75.5012 117.162 75.4035 117.162C75.3057 117.162 75.159 117.162 74.9634 117.162C74.5722 117.162 73.9854 117.162 73.203 117.162C71.6383 117.162 69.389 117.162 66.504 117.215C60.6851 117.215 52.4214 117.269 42.495 117.323H42.3484V117.162C42.3484 112.106 42.3484 106.567 42.3484 100.758C42.3484 97.8539 42.3484 94.8421 42.3484 91.7766C42.3484 90.2707 42.3484 88.711 42.3484 87.1513C42.3484 86.3446 42.3484 85.5917 42.3484 84.7849V83.6017V83.0101V82.6874V82.5261V82.4723V82.4185C42.2017 82.5799 42.5928 82.1496 42.5439 82.2034C54.6707 82.2034 66.015 82.2034 75.599 82.2572H75.7457V82.4185C75.6968 92.8522 75.6968 101.565 75.6479 107.696C75.6479 110.708 75.599 113.074 75.599 114.741C75.599 115.548 75.599 116.14 75.599 116.57C75.599 116.785 75.599 116.893 75.599 117.054C75.5501 117.108 75.5501 117.162 75.5501 117.162Z" fill="#E0E0E0"/>
<path d="M135.568 112.07L132.12 112.027L132.249 102.63C132.249 95.7338 126.603 90.0873 119.706 90.0873C112.767 90.0873 107.163 95.7338 107.163 102.63L107.034 112.027L103.586 111.983L103.715 102.587C103.715 93.7942 110.913 86.596 119.706 86.596C128.542 86.596 135.697 93.7942 135.697 102.587L135.568 112.07Z" fill="#263238"/>
<path d="M135.913 154.181H103.888C99.5343 154.181 95.9999 150.646 95.9999 146.293V115.389C95.9999 111.035 99.5343 107.501 103.888 107.501H135.913C140.266 107.501 143.801 111.035 143.801 115.389V146.293C143.801 150.646 140.266 154.181 135.913 154.181Z" fill="#D81E05"/>
<g opacity="0.3">
<path d="M124.663 128.362C124.663 125.733 122.551 123.578 119.879 123.578C117.206 123.578 115.094 125.69 115.094 128.362C115.094 130.087 115.999 131.552 117.336 132.414L116.129 138.06H123.93C123.93 138.06 123.068 134.526 122.508 132.328C123.801 131.466 124.663 130 124.663 128.362Z" fill="black"/>
</g>
<g opacity="0.2">
<path d="M99.0602 140C98.7585 140 98.6292 134.526 98.7585 127.845C98.8878 121.121 99.2757 115.69 99.5774 115.69C99.8791 115.69 100.008 121.121 99.8791 127.845C99.7498 134.569 99.3619 140 99.0602 140Z" fill="white"/>
</g>
<g opacity="0.2">
<path d="M99.1033 145.431C98.8016 145.431 98.543 144.914 98.543 144.267C98.543 143.621 98.7585 143.06 99.1033 143.06C99.405 143.06 99.6636 143.578 99.6636 144.224C99.6636 144.871 99.405 145.388 99.1033 145.431Z" fill="white"/>
</g>
<g opacity="0.2">
<path d="M114.103 138.793C113.844 138.707 114.448 136.25 115.439 132.931L115.569 133.492C115.094 133.017 114.62 132.543 114.146 132.026C113.327 131.078 112.896 129.914 112.853 128.837C112.81 127.759 113.112 126.811 113.5 126.164C113.888 125.475 114.362 125.043 114.706 124.785C115.051 124.526 115.31 124.483 115.353 124.526C115.482 124.656 114.75 125.259 114.232 126.509C113.974 127.112 113.801 127.931 113.931 128.75C114.017 129.612 114.405 130.518 115.008 131.25C115.482 131.767 115.956 132.242 116.387 132.716L116.603 132.974L116.517 133.276C115.31 136.552 114.319 138.879 114.103 138.793Z" fill="white"/>
</g>
<g opacity="0.2">
<path d="M133.801 110.733C133.801 110.906 131.904 111.035 128.801 111.078C125.697 111.164 121.473 111.208 116.732 111.164C114.362 111.164 112.12 111.121 110.094 111.078C108.069 111.035 106.215 110.906 104.75 111.078C103.284 111.208 102.163 111.725 101.474 112.199C100.784 112.673 100.526 113.061 100.439 113.018C100.396 112.975 100.526 112.501 101.215 111.854C101.862 111.251 103.069 110.561 104.663 110.302C105.439 110.173 106.301 110.13 107.25 110.087C108.155 110.087 109.146 110.087 110.137 110.044C112.163 110.044 114.405 110.044 116.775 110.044C121.473 110.087 125.741 110.173 128.801 110.302C131.861 110.432 133.801 110.561 133.801 110.733Z" fill="white"/>
</g>
<line x1="0.5" y1="198.5" x2="231.5" y2="198.5" stroke="#3F3F3F" stroke-linecap="round"/>
</svg>
