<svg width="105" height="91" viewBox="0 0 105 91" fill="none" xmlns="http://www.w3.org/2000/svg">
<circle opacity="0.1" cx="44.5802" cy="44.8224" r="44.5802" fill="#D81E05"/>
<line x1="2.65358" y1="79.0879" x2="101.582" y2="79.0879" stroke="#3F3F3F" stroke-linecap="round"/>
<path d="M10.7748 40.0206C10.7748 40.0206 8.6412 40.3977 10.0192 45.0337C11.3749 49.6696 12.4862 52.043 12.4862 52.043C12.4862 52.043 12.6862 53.1077 11.8194 53.0855C10.9526 53.0855 9.19683 52.4423 8.6412 53.3961C8.06333 54.3721 8.6412 55.5033 10.0192 56.679C11.3972 57.8324 14.3531 60.4942 14.6199 60.7382C14.8866 60.9822 15.0866 61.4923 14.5087 61.5811C13.9309 61.6698 9.73025 61.3371 9.68579 63.3112C9.64134 65.3076 14.042 67.9028 14.5087 68.1912C14.9755 68.4795 15.0644 68.7235 14.9755 68.9897C14.8866 69.2559 13.4864 69.0119 12.2862 68.9675C11.086 68.9231 9.70802 69.0784 9.7747 70.2318C9.84137 71.3853 12.1973 74.2245 18.8649 76.1543L21.9987 76.8419L24.2213 74.4907C28.6664 69.1893 29.0442 65.5294 28.4663 64.5312C27.8885 63.533 26.6438 64.1763 25.6659 64.8861C24.7102 65.5959 23.6879 66.5719 23.4434 66.3945C23.2211 66.217 23.1544 65.973 23.3767 65.4628C23.599 64.9527 25.7993 60.3611 24.6658 58.7197C23.51 57.0782 20.2207 59.6956 19.6873 59.9396C19.1539 60.1836 19.0427 59.6513 19.1316 59.2964C19.2205 58.9415 20.1762 55.1041 20.6874 53.3739C21.1986 51.6437 21.043 50.3794 20.0206 49.8914C19.0205 49.4256 17.9092 50.9339 17.198 51.3998C16.4868 51.8877 16.0645 50.8896 16.0645 50.8896C16.0645 50.8896 15.6645 48.2943 14.1976 43.6806C12.7529 39.0668 10.7304 39.9763 10.7304 39.9763" fill="#B1B1B1"/>
<path d="M22.0209 77.6387C20.9763 74.2449 19.1982 68.1894 17.6647 62.9767C16.1089 57.7863 14.7087 53.0838 13.6863 49.69C13.1751 48.0042 12.7529 46.629 12.4639 45.6752C12.3306 45.2093 12.1972 44.8323 12.1305 44.5883C12.0861 44.4552 12.0639 44.3665 12.0416 44.2999C12.0194 44.2334 12.0194 44.2112 12.0194 44.2112C12.0194 44.2112 12.0416 44.2334 12.0639 44.2999C12.0861 44.3665 12.1083 44.4552 12.1528 44.5883C12.2417 44.8323 12.3528 45.2093 12.5084 45.6752C12.8195 46.629 13.2418 47.982 13.7752 49.69C14.8198 53.0838 16.2423 57.7863 17.7758 62.9767C19.3316 68.1672 21.0874 74.2449 22.1098 77.6387" fill="white"/>
<path d="M11.0638 54.3955C11.0638 54.3955 11.1304 54.4177 11.2638 54.5064C11.3971 54.573 11.575 54.6839 11.8194 54.817C12.2862 55.0831 12.9085 55.4824 13.5752 55.926C14.242 56.3697 14.8421 56.7689 15.3088 57.0795C15.5089 57.2126 15.6867 57.3235 15.8422 57.4344C15.9756 57.5231 16.0423 57.5675 16.0423 57.5675C16.0423 57.5675 15.9534 57.5453 15.8422 57.4566C15.7089 57.39 15.5311 57.2791 15.2866 57.146C14.8199 56.8577 14.2198 56.4584 13.5308 56.0148C12.864 55.5711 12.2417 55.1719 11.775 54.8835C11.575 54.7504 11.3971 54.6395 11.2416 54.5508C11.1304 54.4621 11.0638 54.4177 11.0638 54.3955Z" fill="white"/>
<path d="M16.309 57.4143C16.2868 57.3921 17.0425 56.0834 17.9982 54.4641C18.9539 52.8449 19.754 51.5583 19.7762 51.5583C19.7984 51.5805 19.0428 52.8892 18.0871 54.5085C17.1314 56.1277 16.3313 57.4143 16.309 57.4143Z" fill="white"/>
<path d="M18.3315 65.4902C18.3315 65.4902 18.376 65.4236 18.4871 65.3127C18.6204 65.2018 18.776 65.0466 18.9538 64.8691C19.3539 64.492 19.8873 63.9818 20.4874 63.3829C21.0652 62.784 21.5764 62.2295 21.9543 61.8302C22.1321 61.6306 22.2654 61.4753 22.3988 61.3422C22.5099 61.2313 22.5544 61.1648 22.5766 61.1648C22.5766 61.1648 22.5321 61.2313 22.4432 61.3644C22.3543 61.4753 22.221 61.6528 22.0432 61.8746C21.6876 62.2961 21.1986 62.8506 20.5985 63.4495C20.0206 64.0484 19.465 64.5586 19.0427 64.9135C18.8427 65.0909 18.6649 65.2462 18.5538 65.3349C18.3982 65.4458 18.3315 65.5124 18.3315 65.4902Z" fill="white"/>
<path d="M12.9752 63.8213C12.9752 63.8213 13.0641 63.8213 13.1974 63.8657C13.353 63.91 13.553 63.9544 13.7753 64.0209C14.2642 64.154 14.931 64.3536 15.6644 64.5755C16.3979 64.7973 17.0646 64.9969 17.5536 65.1522C17.7759 65.2187 17.9759 65.2853 18.1315 65.3296C18.2648 65.374 18.3315 65.3962 18.3315 65.4184C18.3315 65.4184 18.2426 65.4184 18.1092 65.374C17.9537 65.3296 17.7536 65.2853 17.5314 65.2187C17.0424 65.0856 16.3757 64.886 15.6422 64.6642C14.9088 64.4424 14.242 64.2427 13.7531 64.0875C13.5308 64.0209 13.3308 63.9544 13.1752 63.91C13.0641 63.8435 12.9752 63.8213 12.9752 63.8213Z" fill="white"/>
<path d="M13.842 71.1892C13.842 71.1892 13.9309 71.2114 14.1087 71.2558C14.3087 71.3001 14.5532 71.3667 14.8421 71.4554C15.4644 71.6328 16.3312 71.8768 17.2647 72.143C18.2204 72.4092 19.065 72.6754 19.6873 72.8528C19.9762 72.9415 20.2207 73.0303 20.4207 73.0746C20.5985 73.1412 20.6874 73.1634 20.6874 73.1634C20.6874 73.1634 20.5985 73.1412 20.4207 73.0968C20.2207 73.0525 19.9762 72.9859 19.6873 72.8972C19.065 72.7197 18.1982 72.4757 17.2647 72.2096C16.309 71.9434 15.4644 71.6772 14.8421 71.4997C14.5532 71.411 14.3087 71.3223 14.1087 71.2779C13.9531 71.2336 13.842 71.1892 13.842 71.1892Z" fill="white"/>
<path d="M20.5542 73.0736C20.5542 73.0736 20.6208 72.9849 20.7542 72.8518C20.9098 72.6965 21.0876 72.4969 21.3321 72.2751C21.821 71.7871 22.4878 71.0994 23.199 70.3231C23.9102 69.5467 24.5548 68.8369 24.9993 68.3046C25.2215 68.0606 25.3993 67.8388 25.5327 67.6835C25.666 67.5282 25.7327 67.4617 25.7327 67.4617C25.7327 67.4617 25.666 67.5504 25.5549 67.7057C25.4438 67.8609 25.266 68.0828 25.0437 68.3489C24.5992 68.8813 23.9769 69.6133 23.2657 70.3896C22.5545 71.166 21.8655 71.8314 21.3765 72.3194C21.132 72.5634 20.932 72.7409 20.7764 72.874C20.6431 73.007 20.5764 73.0736 20.5542 73.0736Z" fill="white"/>
<path d="M93.3645 72.9019C93.3645 72.9019 93.3867 72.8575 93.4089 72.7909C93.4534 72.7244 93.4978 72.6135 93.5645 72.4804C93.6979 72.2142 93.8534 71.7928 93.9868 71.2382C94.2757 70.1292 94.3646 68.4212 93.9423 66.4249C93.7423 65.4045 93.4312 64.3398 93.0533 63.1864C92.6755 62.0329 92.231 60.8129 91.8754 59.5042C91.5198 58.1955 91.2308 56.7537 91.2975 55.2675C91.342 53.7592 91.7865 52.273 92.2977 50.7869C92.7866 49.3007 93.2978 47.8367 93.4534 46.3728C93.6312 44.9088 93.32 43.467 92.631 42.2914C91.9865 41.0936 91.1642 40.0732 90.5641 39.0307C89.9418 37.9882 89.5639 36.9013 89.3194 35.8809C88.8527 33.8624 89.0083 32.1544 89.2305 31.0232C89.475 29.8919 89.7417 29.3152 89.7417 29.3152C89.7417 29.3152 89.7417 29.3595 89.7195 29.4261C89.6973 29.5148 89.6528 29.6257 89.6084 29.7588C89.5195 30.0472 89.4083 30.4908 89.2972 31.0453C89.0972 32.1766 88.9416 33.8624 89.4306 35.8809C89.6751 36.8791 90.0529 37.9438 90.6752 38.9863C91.2753 40.0289 92.0976 41.0492 92.7644 42.247C93.4534 43.4448 93.7868 44.931 93.609 46.4171C93.4534 47.9033 92.9422 49.3895 92.4532 50.8756C91.9643 52.3618 91.5198 53.8479 91.4753 55.3119C91.4309 56.7759 91.6976 58.1955 92.0532 59.5042C92.4088 60.8129 92.8533 62.0329 93.2089 63.1864C93.5867 64.3398 93.8979 65.4267 94.0979 66.447C94.498 68.4877 94.3869 70.1957 94.0757 71.3048C93.9201 71.8593 93.7423 72.2808 93.609 72.5469C93.5423 72.68 93.4978 72.7688 93.4534 72.8575C93.3867 72.8797 93.3645 72.9019 93.3645 72.9019Z" fill="#263238"/>
<path d="M91.3645 40.0177C91.3645 40.0177 90.1199 36.0694 92.3425 33.7403C92.4314 33.6516 92.5647 33.696 92.5869 33.8069C92.7203 34.4723 92.8536 36.4465 91.3645 40.0177Z" fill="#E8505B"/>
<path d="M92.1202 35.0608C92.1425 35.0608 92.098 35.3491 92.0313 35.7928C91.9424 36.303 91.8535 36.8797 91.7424 37.5451C91.6313 38.1884 91.5424 38.7873 91.4757 39.2975C91.409 39.7411 91.3646 40.0294 91.3424 40.0294C91.3201 40.0294 91.3201 39.7411 91.3646 39.2975C91.409 38.8538 91.4757 38.2327 91.5868 37.5451C91.698 36.8575 91.8091 36.2586 91.9202 35.815C92.0313 35.3491 92.098 35.0608 92.1202 35.0608Z" fill="#263238"/>
<path d="M92.8311 49.3415C92.8311 49.3415 93.5868 45.2601 96.6317 44.262C96.7428 44.2176 96.8317 44.3285 96.8095 44.4394C96.6095 45.0605 95.8094 46.8794 92.8311 49.3415Z" fill="#E8505B"/>
<path d="M95.8094 45.3018C95.8316 45.3239 95.6538 45.5458 95.3871 45.9007C95.076 46.2999 94.7204 46.7879 94.3203 47.3203C93.9203 47.8526 93.5646 48.3184 93.2535 48.7399C92.9868 49.0948 92.809 49.3388 92.809 49.3166C92.7868 49.3166 92.9201 49.0504 93.1646 48.6733C93.4091 48.2963 93.7647 47.7861 94.187 47.2315C94.6092 46.677 95.0093 46.189 95.2982 45.8563C95.5872 45.5014 95.7872 45.3018 95.8094 45.3018Z" fill="#263238"/>
<path d="M92.0086 59.5771C92.0086 59.5771 91.5418 55.4514 94.1644 53.6103C94.2533 53.5437 94.3867 53.6103 94.3867 53.7212C94.3867 54.3866 94.1422 56.3608 92.0086 59.5771Z" fill="#E8505B"/>
<path d="M93.6754 54.8448C93.6976 54.8448 93.6087 55.111 93.4531 55.5546C93.2753 56.0426 93.0753 56.5971 92.853 57.2182C92.6308 57.8393 92.4308 58.3938 92.253 58.8818C92.0974 59.3033 92.0085 59.5695 91.9863 59.5695C91.964 59.5695 92.0307 59.2811 92.1418 58.8596C92.2752 58.416 92.4752 57.8393 92.6975 57.1739C92.9419 56.5306 93.1642 55.9539 93.342 55.5324C93.542 55.0888 93.6532 54.8226 93.6754 54.8448Z" fill="#263238"/>
<path d="M94.2985 69.8336C94.2985 69.8336 93.9874 65.7078 96.6766 63.9555C96.7656 63.889 96.8989 63.9555 96.8989 64.0664C96.8545 64.7319 96.5433 66.706 94.2985 69.8336Z" fill="#E8505B"/>
<path d="M96.1429 65.1699C96.1652 65.1699 96.054 65.4361 95.8985 65.8575C95.6984 66.3234 95.4762 66.8779 95.2317 67.499C94.9872 68.1201 94.765 68.6746 94.5649 69.1404C94.3871 69.5619 94.2982 69.828 94.276 69.8059C94.2538 69.8059 94.3204 69.5175 94.4538 69.096C94.5872 68.6746 94.8094 68.0757 95.0761 67.4324C95.3428 66.7892 95.5873 66.2125 95.7873 65.8132C95.9874 65.4139 96.1207 65.1699 96.1429 65.1699Z" fill="#263238"/>
<path d="M89.5863 36.5368C89.5863 36.5368 85.8969 34.6292 85.8302 31.4128C85.8302 31.3019 85.9413 31.2354 86.0525 31.3019C86.6081 31.679 88.1194 32.9656 89.5863 36.5368Z" fill="#E8505B"/>
<path d="M86.6082 32.5189C86.6304 32.4967 86.8082 32.7185 87.0749 33.0956C87.3638 33.517 87.7194 33.9828 88.1195 34.5374C88.4973 35.0697 88.8529 35.5577 89.1641 35.957C89.4308 36.3119 89.6086 36.5337 89.5864 36.5559C89.5642 36.5781 89.3641 36.3784 89.0752 36.0235C88.7863 35.6686 88.4084 35.1806 87.9861 34.6261C87.5861 34.0716 87.2305 33.5392 86.986 33.1621C86.7193 32.7629 86.5859 32.5189 86.6082 32.5189Z" fill="#263238"/>
<path d="M93.5425 45.0374C93.5425 45.0374 89.7642 43.3516 89.4975 40.1575C89.4975 40.0466 89.6086 39.9578 89.6975 40.0244C90.2532 40.3571 91.8534 41.5771 93.5425 45.0374Z" fill="#E8505B"/>
<path d="M90.3197 41.1973C90.342 41.1751 90.5198 41.397 90.8087 41.7519C91.1421 42.1511 91.5199 42.6169 91.92 43.1271C92.3422 43.6373 92.7201 44.1031 93.0535 44.4802C93.3424 44.8351 93.5202 45.0347 93.498 45.0569C93.4757 45.0791 93.2757 44.8795 92.9646 44.5467C92.6534 44.214 92.2311 43.7482 91.8088 43.2158C91.3643 42.6835 90.9865 42.1955 90.7198 41.8184C90.4531 41.4413 90.2975 41.2195 90.3197 41.1973Z" fill="#263238"/>
<path d="M91.3646 54.5072C91.3646 54.5072 88.7642 51.2909 89.9866 48.3186C90.0311 48.2077 90.1644 48.2077 90.2311 48.2964C90.5645 48.851 91.4313 50.6477 91.3646 54.5072Z" fill="#E8505B"/>
<path d="M90.231 49.6382C90.2533 49.6382 90.3199 49.9044 90.4311 50.348C90.5422 50.836 90.6755 51.4349 90.8089 52.0781C90.9422 52.7214 91.0756 53.2981 91.1867 53.8083C91.2979 54.2519 91.3423 54.5181 91.3201 54.5181C91.2979 54.5181 91.209 54.2519 91.0756 53.8305C90.9423 53.3869 90.7867 52.788 90.6533 52.1225C90.4977 51.4571 90.3866 50.836 90.3199 50.3924C90.2533 49.9265 90.2088 49.6382 90.231 49.6382Z" fill="#263238"/>
<path d="M93.9428 65.6352C93.9428 65.6352 90.1867 63.8829 89.9645 60.6887C89.9645 60.5778 90.0756 60.5113 90.1645 60.5556C90.7424 60.9105 92.3204 62.1527 93.9428 65.6352Z" fill="#E8505B"/>
<path d="M90.7869 61.7562C90.8091 61.734 90.9869 61.9558 91.2759 62.3107C91.587 62.71 91.9648 63.1758 92.3649 63.686C92.7872 64.1961 93.1428 64.6619 93.4762 65.0612C93.7651 65.4161 93.9429 65.6379 93.9207 65.6379C93.8985 65.6601 93.6984 65.4605 93.3873 65.1278C93.0761 64.795 92.6761 64.307 92.2538 63.7747C91.8315 63.2423 91.4537 62.7321 91.187 62.3551C90.9202 62.0002 90.7647 61.7783 90.7869 61.7562Z" fill="#263238"/>
<path d="M101.433 49.3633C101.433 49.3633 101.433 49.3855 101.433 49.452C101.433 49.5186 101.433 49.6073 101.433 49.7182C101.433 49.9622 101.41 50.2949 101.388 50.7164C101.344 51.6036 101.277 52.8236 101.188 54.3098C100.921 55.8181 100.166 57.4595 99.1211 59.0788C98.3654 60.2766 97.5875 61.3413 96.8985 62.3616C96.2096 63.3598 95.6317 64.2914 95.2316 65.1122C94.8316 65.9329 94.5871 66.6427 94.4537 67.1307C94.3871 67.3747 94.3426 67.5743 94.3204 67.7074C94.2982 67.8405 94.2759 67.907 94.2759 67.907C94.2759 67.907 94.2759 67.8405 94.2982 67.7074C94.3204 67.5743 94.3648 67.3747 94.4093 67.1307C94.5204 66.6205 94.7427 65.9107 95.1427 65.0678C95.5428 64.2249 96.1207 63.2933 96.7874 62.2729C97.4542 61.2526 98.2543 60.1879 99.01 58.9901C100.032 57.393 100.788 55.7516 101.077 54.2654C101.188 52.8014 101.277 51.5592 101.321 50.672C101.366 50.2505 101.388 49.9178 101.41 49.6738C101.41 49.5629 101.433 49.4742 101.433 49.4076C101.41 49.3855 101.433 49.3633 101.433 49.3633Z" fill="#263238"/>
<path d="M99.1874 58.793C99.1874 58.793 100.788 54.9778 98.7873 52.4713C98.7207 52.3825 98.5873 52.4047 98.5429 52.5156C98.3651 53.1367 98.0317 55.1109 99.1874 58.793Z" fill="#E8505B"/>
<path d="M98.8988 53.7834C98.921 53.7834 98.9654 54.0496 99.0321 54.5154C99.0988 54.9591 99.1432 55.5801 99.2099 56.2678C99.2544 56.9554 99.2766 57.5765 99.2766 58.0423C99.2766 58.4859 99.2544 58.7743 99.2321 58.7743C99.2099 58.7743 99.1877 58.4859 99.1655 58.0423C99.121 57.5321 99.0988 56.9332 99.0543 56.29C99.0099 55.6245 98.9654 55.0256 98.921 54.5376C98.8988 54.0718 98.8765 53.7834 98.8988 53.7834Z" fill="#263238"/>
<g opacity="0.3">
<path d="M99.1874 58.793C99.1874 58.793 100.788 54.9778 98.7873 52.4713C98.7207 52.3825 98.5873 52.4047 98.5429 52.5156C98.3651 53.1367 98.0317 55.1109 99.1874 58.793Z" fill="black"/>
</g>
<path d="M94.2538 67.9972C94.2538 67.9972 95.5207 64.0489 93.3204 61.7198C93.2537 61.6311 93.0981 61.6754 93.0759 61.7864C92.9647 62.4518 92.8092 64.4259 94.2538 67.9972Z" fill="#E8505B"/>
<path d="M93.5649 63.0471C93.5871 63.0471 93.6538 63.3133 93.7427 63.7569C93.8316 64.2006 93.9427 64.8216 94.0539 65.5093C94.165 66.1969 94.2317 66.818 94.2761 67.2616C94.3206 67.7052 94.3206 67.9936 94.2984 67.9936C94.2761 67.9936 94.2317 67.7274 94.165 67.2616C94.0983 66.7514 94.0094 66.1747 93.8983 65.5093C93.8094 64.866 93.6983 64.2671 93.6316 63.7569C93.5649 63.3133 93.5427 63.0471 93.5649 63.0471Z" fill="#263238"/>
<g opacity="0.3">
<path d="M94.2538 67.9972C94.2538 67.9972 95.5207 64.0489 93.3204 61.7198C93.2537 61.6311 93.0981 61.6754 93.0759 61.7864C92.9647 62.4518 92.8092 64.4259 94.2538 67.9972Z" fill="black"/>
</g>
<path d="M101.21 54.1114C101.21 54.1114 104.611 51.738 104.278 48.5438C104.255 48.4329 104.144 48.3885 104.055 48.4551C103.544 48.8987 102.211 50.3849 101.21 54.1114Z" fill="#E8505B"/>
<g opacity="0.3">
<path d="M101.21 54.1114C101.21 54.1114 104.611 51.738 104.278 48.5438C104.255 48.4329 104.144 48.3885 104.055 48.4551C103.544 48.8987 102.211 50.3849 101.21 54.1114Z" fill="black"/>
</g>
<path d="M103.655 49.7443C103.678 49.7443 103.566 50.0105 103.366 50.4319C103.166 50.8312 102.9 51.4079 102.566 52.0068C102.233 52.6057 101.922 53.1603 101.677 53.5374C101.433 53.9144 101.255 54.1363 101.255 54.1363C101.233 54.1141 101.366 53.8701 101.588 53.493C101.833 53.0494 102.122 52.517 102.433 51.9403C102.744 51.3636 103.033 50.8312 103.277 50.3876C103.5 49.9661 103.633 49.7221 103.655 49.7443Z" fill="#263238"/>
<path d="M95.6317 64.0855C95.6317 64.0855 99.7212 63.4422 100.833 60.4255C100.877 60.3146 100.766 60.2037 100.677 60.2481C100.032 60.4477 98.1655 61.1797 95.6317 64.0855Z" fill="#E8505B"/>
<g opacity="0.3">
<path d="M95.6317 64.0855C95.6317 64.0855 99.7212 63.4422 100.833 60.4255C100.877 60.3146 100.766 60.2037 100.677 60.2481C100.032 60.4477 98.1655 61.1797 95.6317 64.0855Z" fill="black"/>
</g>
<path d="M99.743 61.2244C99.7652 61.2465 99.543 61.424 99.1874 61.7124C98.8318 62.0007 98.3428 62.3778 97.765 62.7771C97.2093 63.1763 96.6759 63.5312 96.2981 63.7531C95.9202 63.9971 95.6535 64.108 95.6535 64.108C95.6313 64.0858 95.8758 63.9305 96.2536 63.6643C96.6759 63.376 97.1649 63.0211 97.6983 62.644C98.2317 62.2669 98.7206 61.912 99.1429 61.6236C99.4985 61.3796 99.743 61.2244 99.743 61.2244Z" fill="#263238"/>
<path d="M90.7867 71.6294L91.9424 79.3264L96.6542 79.3042L98.2322 71.6294H90.7867Z" fill="#737373"/>
<path d="M97.5431 74.6062C97.5431 74.6062 97.5209 74.6284 97.4987 74.6284C97.4765 74.6505 97.432 74.6727 97.3653 74.6949C97.2542 74.7393 97.0764 74.828 96.8319 74.8502C96.5874 74.8724 96.2985 74.8724 95.9651 74.7615C95.6318 74.6505 95.2984 74.4509 95.0317 74.096C94.9205 73.9186 94.8316 73.6967 94.8094 73.4527C94.7872 73.2087 94.8761 72.9204 95.1206 72.7873C95.365 72.6542 95.6762 72.6986 95.8985 72.8538C96.1429 73.0091 96.2763 73.2753 96.343 73.5637C96.4096 73.852 96.4096 74.1404 96.4096 74.4287C96.3874 74.7171 96.343 75.0276 96.2096 75.316C96.0985 75.6043 95.9207 75.8705 95.654 76.0923C95.4095 76.292 95.0983 76.4472 94.7427 76.4694C94.4093 76.4916 94.076 76.3585 93.8093 76.2033C93.5426 76.0258 93.2981 75.804 93.098 75.56C92.898 75.316 92.7647 75.0276 92.7424 74.7171C92.7202 74.4066 92.8313 74.096 93.0758 73.8964C93.3203 73.6967 93.6759 73.7189 93.8982 73.852C94.1426 73.9851 94.3427 74.2069 94.3871 74.4731C94.476 75.0055 94.1649 75.4713 93.787 75.6931C93.4092 75.9149 92.9869 75.9149 92.6535 75.8484C92.3202 75.7818 92.0534 75.6487 91.8534 75.5378C91.6534 75.4269 91.4978 75.316 91.4089 75.2273C91.32 75.1607 91.2533 75.1164 91.2533 75.0942C91.2533 75.0942 91.32 75.1164 91.4089 75.2051C91.52 75.2716 91.6534 75.3825 91.8756 75.4934C92.0757 75.6044 92.3424 75.7153 92.6758 75.7818C92.9869 75.8262 93.387 75.8262 93.7426 75.6044C94.0982 75.4047 94.3649 74.9611 94.276 74.4953C94.2315 74.2735 94.076 74.0516 93.8537 73.9407C93.6315 73.8298 93.3425 73.8298 93.1425 73.9851C92.9425 74.1404 92.8536 74.4287 92.8536 74.6949C92.8758 74.9611 93.0091 75.2494 93.1869 75.4713C93.3648 75.6931 93.6092 75.9149 93.8537 76.0702C94.1204 76.2254 94.4093 76.3363 94.7205 76.3142C95.0317 76.292 95.3206 76.1589 95.5429 75.9593C95.7651 75.7596 95.9429 75.5156 96.054 75.2273C96.1652 74.9611 96.2096 74.6727 96.2318 74.3844C96.2541 74.096 96.2318 73.8076 96.1874 73.5415C96.1207 73.2753 95.9874 73.0313 95.7873 72.8982C95.5873 72.7651 95.3206 72.7208 95.1206 72.8317C94.9205 72.9426 94.8316 73.1866 94.8539 73.3862C94.8539 73.608 94.9428 73.8076 95.0539 73.9851C95.2761 74.3178 95.6317 74.5396 95.9207 74.6505C96.2318 74.7615 96.5208 74.7836 96.7653 74.7393C97.3209 74.7393 97.5431 74.584 97.5431 74.6062Z" fill="#263238"/>
<path d="M27.4661 75.0028C25.0435 74.7588 17.3091 74.5814 14.9087 75.025C12.5306 75.4465 9.77462 77.6202 8.75225 79.5722C7.59652 81.746 7.79655 85.9161 9.61904 87.6907C11.4415 89.4652 14.7087 88.9328 17.398 89.3099C20.0872 89.687 22.8432 89.5539 25.5769 89.4874C42.7128 89.0437 59.982 91.2397 76.94 88.9106C79.0959 88.6223 81.4074 88.1786 82.9187 86.8034C84.6078 85.2729 84.9412 82.9882 85.1857 80.8809C85.3857 79.2173 85.5191 77.3763 84.4078 76.0232C83.6744 75.1359 82.4964 74.6036 81.274 74.3817C83.2521 71.964 84.23 70.1894 84.3411 68.1266C84.5189 64.4888 83.5632 61.7827 83.341 58.1892C83.1187 54.5958 83.1187 50.9137 84.1633 47.4534C84.8079 45.3461 85.7636 42.8396 84.3189 41.176C83.4966 40.2222 82.1408 39.9339 80.874 39.7342C65.8718 37.2943 50.5584 37.2499 35.4006 38.3368C33.6003 38.4699 31.5778 38.7139 30.4221 40.0891C29.4664 41.1982 29.333 42.7731 29.4886 44.2149C29.6664 45.6567 30.1332 47.0541 30.2443 48.5181C30.8888 55.3722 21.1096 67.1284 27.4661 75.0028Z" fill="#E8505B"/>
<g opacity="0.5">
<path d="M27.4661 75.0033C25.0435 74.7593 17.3091 74.5819 14.9087 75.0255C12.5306 75.4469 9.77462 77.6207 8.75225 79.5727C7.59652 81.7465 7.79655 85.9166 9.61904 87.6911C11.4415 89.4657 14.7087 88.9333 17.398 89.3104C20.0872 89.6875 22.8432 89.5544 25.5769 89.4878C42.7128 89.0442 59.982 91.2402 76.94 88.9111C79.0959 88.6228 81.4074 88.1791 82.9187 86.8039C84.6078 85.2734 84.9412 82.9887 85.1857 80.8814C85.3857 79.2178 85.5191 77.3767 84.4078 76.0237C83.6744 75.1364 82.4964 74.6041 81.274 74.3822C83.2521 71.9645 84.23 70.1899 84.3411 68.127C84.5189 64.4893 83.5632 61.7831 83.341 58.1897C83.1187 54.5963 83.1187 50.9142 84.1633 47.4539C84.8079 45.3466 85.7636 42.8401 84.3189 41.1765C83.4966 40.2227 82.1408 39.9343 80.874 39.7347C65.8718 37.2947 50.5584 37.2504 35.4006 38.3373C33.6003 38.4704 31.5778 38.7144 30.4221 40.0896C29.4664 41.1987 29.333 42.7736 29.4886 44.2154C29.6664 45.6572 30.1332 47.0546 30.2443 48.5186C30.8888 55.3727 21.1096 67.1289 27.4661 75.0033Z" fill="white"/>
</g>
<path d="M30.5777 39.9323C30.5777 39.9323 30.8444 39.777 31.3556 39.5552C31.8668 39.3334 32.6447 39.0228 33.7115 38.8454C34.7783 38.6679 36.0897 38.6235 37.601 38.5348C39.1123 38.4683 40.8459 38.3795 42.7573 38.313C46.5801 38.1799 51.1363 38.1134 56.1815 38.1577C61.2267 38.2021 66.783 38.3795 72.6061 38.7344C73.3396 38.7788 74.0508 38.8232 74.7842 38.8675C75.4954 38.9119 76.2289 38.9563 76.9179 39.0894C77.6069 39.2224 78.3181 39.4443 78.8959 39.8657C79.1849 40.0653 79.4294 40.3315 79.6516 40.6199C79.8516 40.9082 80.0072 41.2188 80.1183 41.5515C80.3406 42.2169 80.385 42.9046 80.3406 43.5922C80.2739 44.2798 80.1183 44.9231 79.9405 45.5664C79.7627 46.2096 79.5405 46.8307 79.3849 47.4518C79.2071 48.0729 79.0737 48.6939 78.9404 49.315C78.4514 51.7772 78.3181 54.195 78.4737 56.4353C78.5403 57.5444 78.6959 58.6313 78.8737 59.6516C79.0737 60.672 79.3182 61.648 79.5405 62.5574C80.0294 64.3985 80.4295 66.0843 80.5628 67.5926C80.6962 69.1009 80.5629 70.4318 80.2961 71.4522C80.1628 71.9624 79.985 72.406 79.8294 72.7831C79.6516 73.1602 79.4738 73.4485 79.3182 73.6925C79.2293 73.8034 79.1626 73.9143 79.1182 74.0031C79.0515 74.0918 79.0071 74.1583 78.9404 74.2027C78.9848 74.1361 79.0293 74.0696 79.096 73.9809C79.1626 73.8921 79.2293 73.7812 79.296 73.6703C79.4516 73.4263 79.6072 73.138 79.785 72.7609C79.9405 72.3838 80.1183 71.9402 80.2517 71.43C80.5184 70.4096 80.6518 69.0788 80.4962 67.5704C80.3628 66.0621 79.9405 64.3763 79.4516 62.5352C79.2071 61.6036 78.9626 60.6498 78.7626 59.6294C78.5626 58.6091 78.4292 57.5222 78.3403 56.4131C78.1847 54.1728 78.2958 51.755 78.807 49.2707C78.9404 48.6496 79.0737 48.0285 79.2515 47.4074C79.4071 46.7863 79.6294 46.1653 79.8072 45.522C79.985 44.8787 80.1406 44.2355 80.185 43.57C80.2295 42.9046 80.185 42.2169 79.9628 41.5737C79.8516 41.2631 79.6961 40.9526 79.5183 40.6642C79.3182 40.3981 79.0737 40.1541 78.807 39.9323C78.2514 39.533 77.5624 39.3112 76.8734 39.1781C76.1844 39.045 75.4732 39.0006 74.7398 38.9563C74.0286 38.9119 73.2951 38.8675 72.5617 38.8232C66.7386 38.4683 61.1822 38.2908 56.137 38.2465C51.0919 38.2021 46.5356 38.2686 42.7128 38.3795C40.8015 38.4461 39.0679 38.5126 37.5565 38.5792C36.0452 38.6457 34.7339 38.6901 33.6893 38.8675C32.6447 39.045 31.8446 39.3334 31.3334 39.5552C31.0667 39.6661 30.8889 39.7548 30.7555 39.8213C30.6444 39.8879 30.5777 39.9323 30.5777 39.9323Z" fill="#263238"/>
<path d="M85.3191 82.2324C85.3191 82.2324 85.2524 82.2546 85.119 82.2768C84.9857 82.3212 84.7857 82.3655 84.5412 82.4321C84.03 82.5651 83.2965 82.7426 82.3409 82.9866C81.8519 83.0975 81.3185 83.2306 80.7406 83.3859C80.1628 83.519 79.5182 83.652 78.8292 83.8073C77.4512 84.0957 75.8955 84.4728 74.1619 84.7611C73.2951 84.9164 72.3838 85.0938 71.4281 85.2491C70.9614 85.3378 70.4724 85.4044 69.9613 85.4709C69.4723 85.5375 68.9611 85.6262 68.4499 85.6927C67.9387 85.7593 67.4053 85.848 66.8941 85.9367C66.6274 85.9811 66.3607 86.0255 66.094 86.0476C65.8273 86.0698 65.5606 86.1142 65.2717 86.1364C64.1826 86.2695 63.0491 86.4025 61.8712 86.5356C57.2261 87.0014 52.092 87.3342 46.7134 87.4007C41.3126 87.4229 36.1785 87.1789 31.5334 86.7796C30.3777 86.6687 29.2442 86.5578 28.1329 86.4247C27.8662 86.4025 27.5772 86.3582 27.3105 86.336C27.0438 86.3138 26.7771 86.2695 26.5104 86.2251C25.977 86.1585 25.4658 86.092 24.9324 86.0255C24.4212 85.9589 23.91 85.8924 23.4211 85.8258C22.9321 85.7593 22.4432 85.6927 21.9542 85.6262C20.9985 85.4709 20.0873 85.3156 19.2205 85.1826C17.4646 84.9164 15.9089 84.5615 14.5309 84.2953C13.8419 84.1622 13.1974 84.0291 12.6195 83.9182C12.0416 83.7851 11.5082 83.652 11.0193 83.5411C10.0636 83.3193 9.30789 83.1419 8.79671 83.031C9.30789 83.1419 10.0636 83.3193 11.0193 83.5189C11.5082 83.6299 12.0416 83.7408 12.6195 83.8739C13.1974 84.0069 13.8419 84.1179 14.5309 84.2509C15.9089 84.5171 17.4646 84.8498 19.2205 85.116C20.0873 85.2491 20.9985 85.4044 21.9542 85.5596C22.4209 85.6484 22.9099 85.6927 23.4211 85.7593C23.91 85.8258 24.4212 85.8924 24.9324 85.9589C25.4436 86.0255 25.977 86.092 26.5104 86.1586C26.7771 86.2029 27.0438 86.2251 27.3105 86.2695C27.5772 86.2916 27.8439 86.3138 28.1329 86.3582C29.2442 86.4691 30.3554 86.58 31.5334 86.6909C36.1785 87.0902 41.3126 87.3342 46.7134 87.2898C52.092 87.2233 57.2261 86.8905 61.8712 86.4247C63.0269 86.2916 64.1604 86.1586 65.2494 86.0255C65.5162 86.0033 65.8051 85.9589 66.0718 85.9367C66.3385 85.8924 66.6052 85.848 66.8719 85.8258C67.4053 85.7371 67.9165 85.6706 68.4277 85.604C68.9389 85.5375 69.4501 85.4487 69.939 85.3822C70.428 85.3157 70.917 85.2491 71.4059 85.1604C72.3616 84.9829 73.2729 84.8277 74.1396 84.6724C75.8732 84.384 77.429 84.0291 78.807 83.7408C79.496 83.5855 80.1405 83.4746 80.7184 83.3415C81.2962 83.2084 81.8297 83.0753 82.3186 82.9422C83.2743 82.7204 84.03 82.5208 84.519 82.4099C84.7634 82.3433 84.9635 82.299 85.0968 82.2768C85.2524 82.2324 85.3191 82.2324 85.3191 82.2324Z" fill="#263238"/>
<path d="M27.4662 75.0034C27.4662 75.0034 27.5107 75.0034 27.5996 75.0034C27.6885 75.0034 27.8218 75.0256 27.9996 75.0256C28.3552 75.0478 28.8886 75.0922 29.5554 75.1365C30.2222 75.1809 31.0445 75.2474 32.0224 75.2918C32.9781 75.3362 34.0672 75.4249 35.2896 75.4693C36.4898 75.5136 37.8233 75.5802 39.2457 75.6245C39.9569 75.6467 40.6904 75.6689 41.446 75.6911C42.2017 75.7132 42.9796 75.7133 43.7797 75.7354C46.9802 75.7798 50.4918 75.7576 54.1812 75.6689C61.5601 75.4914 68.2277 75.1143 73.0507 74.8482C75.451 74.7151 77.4069 74.6042 78.7626 74.5154C79.4294 74.4711 79.9628 74.4489 80.3184 74.4267C80.4962 74.4267 80.6296 74.4045 80.7185 74.4045C80.8074 74.4045 80.8518 74.4045 80.8518 74.4045C80.8518 74.4045 80.8074 74.4045 80.7185 74.4267C80.6296 74.4267 80.4962 74.4489 80.3184 74.4489C79.9628 74.4711 79.4294 74.5154 78.7626 74.5598C77.4069 74.6485 75.451 74.7594 73.0507 74.9147C68.2277 75.2031 61.5601 75.6023 54.1812 75.7798C50.4918 75.8685 46.9802 75.8685 43.7797 75.8242C42.9796 75.802 42.2017 75.802 41.446 75.7798C40.6904 75.7576 39.9569 75.7354 39.2457 75.7132C37.8233 75.6689 36.512 75.6023 35.2896 75.558C34.0894 75.5136 33.0003 75.4249 32.0224 75.3583C31.0667 75.2918 30.2444 75.2253 29.5554 75.1809C28.8886 75.1365 28.3552 75.0922 27.9996 75.0478C27.8218 75.0256 27.6885 75.0256 27.5996 75.0034C27.5107 75.0256 27.4662 75.0034 27.4662 75.0034Z" fill="#263238"/>
<path d="M70.5836 88.245C70.5392 88.245 70.4947 87.5796 70.2503 86.8032C70.028 86.0269 69.7168 85.428 69.7391 85.428C69.7613 85.428 69.8502 85.5611 69.9613 85.8051C70.0725 86.0491 70.228 86.3818 70.3392 86.7811C70.4503 87.1803 70.517 87.5352 70.5392 87.8014C70.5836 88.0676 70.5836 88.2229 70.5836 88.245Z" fill="#263238"/>
<path d="M72.5395 87.3131C72.495 87.3131 72.495 86.7586 72.2506 86.1153C72.0283 85.4721 71.6727 85.0506 71.6949 85.0284C71.7171 85.0062 72.1172 85.4277 72.3617 86.0931C72.6062 86.7364 72.5617 87.3353 72.5395 87.3131Z" fill="#263238"/>
<path d="M77.4513 64.3092C77.4513 64.2649 78.007 64.4423 78.6515 64.2649C79.2961 64.1096 79.6961 63.6881 79.7183 63.7325C79.7183 63.7325 79.6517 63.8656 79.4739 63.9987C79.2961 64.1318 79.0294 64.3092 78.696 64.3979C78.3626 64.4867 78.0514 64.4867 77.8292 64.4423C77.5847 64.3758 77.4513 64.3092 77.4513 64.3092Z" fill="#263238"/>
<path d="M77.3179 61.6457C77.3402 61.6236 77.718 61.8232 78.2514 61.9341C78.7626 62.0672 79.2071 62.0672 79.2071 62.1116C79.2071 62.1337 78.7626 62.1781 78.207 62.045C77.6958 61.9119 77.3179 61.6679 77.3179 61.6457Z" fill="#263238"/>
<path d="M61.9158 29.1043C62.227 28.5054 62.7382 27.9731 63.3827 27.7291C64.0272 27.4851 64.8051 27.5738 65.3163 28.0174C65.8275 28.4611 66.0053 29.304 65.6052 29.8807C66.4943 29.7032 67.45 30.1912 67.8278 31.0119C68.2056 31.8326 67.9611 32.8752 67.2722 33.4519C66.5832 34.0064 65.4941 34.0286 64.7607 33.4963C64.6495 34.0064 64.2939 34.4279 63.805 34.6275C63.316 34.805 62.7604 34.7162 62.3381 34.4057C61.3157 33.6072 61.5602 31.7439 60.4045 31.1228" fill="#263238"/>
<path d="M61.1155 32.1035C61.9601 31.2384 62.3824 29.9519 62.1823 28.7319C62.1601 28.5766 62.1157 28.3992 62.1823 28.2439C62.3157 27.9777 62.7157 27.9777 62.9602 28.1552C63.1825 28.3548 63.2492 28.6653 63.2936 28.9537C63.3825 29.7301 63.3158 30.5508 63.0714 31.3049C62.9602 31.5933 62.8491 31.9038 62.6268 32.1478C62.4268 32.3918 62.1157 32.5471 61.8045 32.5693C61.4711 32.5693 61.2044 32.414 61.1155 32.1035Z" fill="#D81E05"/>
<path d="M60.4266 20.4561C60.0044 19.2805 57.9818 18.2824 56.8928 17.6835C55.2481 16.7962 53.7368 17.0402 52.8478 17.9053C51.1364 16.5522 48.8694 15.2879 46.7802 15.9089C44.691 16.53 43.0463 18.7482 43.4908 20.8776C43.7575 22.1419 44.6688 23.251 44.6688 24.5154C44.6688 25.4026 44.2243 26.2012 43.8909 26.9997C43.5575 27.7982 43.2908 28.752 43.6464 29.5506C43.9798 30.3047 44.7577 30.7484 45.2022 31.436C45.5578 31.9905 45.6689 32.6782 45.8912 33.2992C46.758 35.6061 49.5584 36.8039 51.981 36.3159C54.4035 35.8279 56.3594 33.9425 57.4262 31.7244C58.493 29.5062 58.8042 26.9997 58.8486 24.5375" fill="#263238"/>
<path d="M51.359 19.9872C49.1143 19.6766 47.0695 21.2959 46.8473 23.5584C46.5806 26.2423 46.3583 29.6139 46.625 31.6768C47.1362 35.6695 50.1811 36.2684 50.1811 36.2684C50.1811 36.2684 50.1589 37.7545 50.1144 39.4847C50.07 41.7916 51.8702 43.7435 54.1817 43.8766C56.6709 44.0319 58.7601 42.0356 58.7601 39.5512L58.6712 22.2053" fill="#FFBE9D"/>
<path d="M50.1582 36.2655C50.1582 36.2655 52.8475 36.4651 55.559 34.9568C55.559 34.9568 54.1143 37.7295 50.136 37.2415L50.1582 36.2655Z" fill="#EB996E"/>
<path d="M52.6698 23.9766C52.7142 24.1318 53.2698 24.0653 53.9144 24.1762C54.5589 24.2649 55.0701 24.4646 55.159 24.3315C55.2035 24.2649 55.1146 24.1318 54.9145 23.9766C54.7145 23.8213 54.3811 23.6882 54.0033 23.6217C53.6255 23.5773 53.2698 23.6217 53.0254 23.7104C52.7587 23.7769 52.6475 23.91 52.6698 23.9766Z" fill="#263238"/>
<path d="M47.5799 24.2548C47.6688 24.3879 48.0466 24.2548 48.5134 24.2769C48.9801 24.2769 49.3579 24.3879 49.4468 24.2548C49.4913 24.1882 49.4246 24.0551 49.269 23.9442C49.1134 23.8111 48.8245 23.7224 48.5134 23.7224C48.2022 23.7224 47.9355 23.8333 47.7577 23.9442C47.6021 24.0773 47.5354 24.2104 47.5799 24.2548Z" fill="#263238"/>
<path d="M52.5145 28.4387C52.5145 28.5274 52.5812 28.5718 52.6701 28.5718C52.759 28.5718 52.8035 28.5053 52.8035 28.4165C52.8035 28.3278 52.7368 28.2834 52.6479 28.2834C52.5812 28.2834 52.5145 28.35 52.5145 28.4387Z" fill="#EB996E"/>
<path d="M48.3803 27.8618C48.3803 27.9505 48.447 27.9949 48.5359 27.9949C48.6248 27.9949 48.6692 27.9284 48.6692 27.8396C48.6692 27.7509 48.6026 27.7065 48.5136 27.7065C48.4247 27.7065 48.3803 27.7731 48.3803 27.8618Z" fill="#EB996E"/>
<path d="M47.5805 28.2683C47.5805 28.357 47.6472 28.4014 47.7361 28.4014C47.825 28.4014 47.8694 28.3349 47.8694 28.2461C47.8694 28.1574 47.8027 28.113 47.7138 28.113C47.6472 28.1352 47.5805 28.2018 47.5805 28.2683Z" fill="#EB996E"/>
<path d="M47.3139 27.6709C47.3139 27.7596 47.3805 27.804 47.4694 27.804C47.5583 27.804 47.6028 27.7374 47.6028 27.6487C47.6028 27.56 47.5361 27.5156 47.4472 27.5156C47.3583 27.5156 47.3139 27.6044 47.3139 27.6709Z" fill="#EB996E"/>
<path d="M53.2035 29.0652C53.2035 29.1539 53.2702 29.1983 53.3591 29.1983C53.448 29.1983 53.4924 29.1317 53.4924 29.043C53.4924 28.9543 53.4257 28.9099 53.3368 28.9099C53.2702 28.9099 53.2035 28.9765 53.2035 29.0652Z" fill="#EB996E"/>
<path d="M53.7367 28.4675C53.7367 28.5563 53.8034 28.6006 53.8923 28.6006C53.9812 28.6006 54.0256 28.5341 54.0256 28.4453C54.0256 28.3566 53.9589 28.3123 53.87 28.3123C53.8034 28.3123 53.7367 28.3788 53.7367 28.4675Z" fill="#EB996E"/>
<path d="M51.5362 19.3662C52.0029 22.516 54.4477 25.2887 57.5149 26.1538C56.5814 27.5956 57.2926 30.2573 57.3371 32.4977C57.3815 34.5827 57.4037 35.1816 58.7817 36.202C59.9152 36.4238 60.4486 33.3628 61.2487 32.4755C62.0489 31.5882 62.8045 30.5235 62.7156 29.3257C62.6712 28.7712 62.4267 28.2388 62.3822 27.6843C62.3378 27.0632 62.5156 26.4643 62.6045 25.8432C63.0046 23.1371 61.5154 20.2978 59.1151 18.967C56.7147 17.6361 53.6032 17.8357 51.3139 19.344" fill="#263238"/>
<path d="M62.2939 27.3816C62.2939 27.3816 62.3383 27.3372 62.3828 27.2707C62.4494 27.1819 62.5161 27.071 62.5606 26.8714C62.6495 26.5165 62.5828 25.9398 62.2716 25.3409C62.116 25.0303 61.8938 24.742 61.6049 24.4758C61.3159 24.2096 61.0048 23.9434 60.6269 23.6994C60.2491 23.4555 59.8268 23.2558 59.3601 23.1227C58.8934 22.9896 58.4044 22.8787 57.9154 22.7678C57.4265 22.6569 56.9375 22.546 56.4708 22.4129C56.0263 22.2798 55.5818 22.1024 55.2039 21.9027C54.426 21.5257 53.7593 21.0598 53.2703 20.6384C52.7591 20.217 52.4035 19.8177 52.159 19.5293C52.0479 19.3962 51.959 19.2853 51.8923 19.1966C51.8256 19.1301 51.8034 19.0857 51.8034 19.0857C51.8034 19.0857 51.8256 19.1301 51.8923 19.2188C51.959 19.3075 52.0257 19.4184 52.159 19.5515C52.3813 19.8399 52.7369 20.2391 53.2481 20.6828C53.7593 21.1264 54.4038 21.5922 55.2039 21.9693C55.604 22.1689 56.0263 22.3464 56.493 22.4795C56.9597 22.6347 57.4487 22.7235 57.9377 22.8344C58.4266 22.9453 58.9156 23.034 59.3823 23.1893C59.8268 23.3224 60.2491 23.522 60.6269 23.7438C61.0048 23.9656 61.3159 24.2318 61.6049 24.498C61.8938 24.7642 62.116 25.0525 62.2716 25.3409C62.5828 25.9176 62.6495 26.4721 62.5828 26.827C62.4494 27.2263 62.2939 27.3816 62.2939 27.3816Z" fill="#455A64"/>
<path d="M51.8253 19.0857C51.8253 19.0857 51.8475 19.1301 51.9142 19.1744C51.9809 19.241 52.0698 19.3297 52.1809 19.4406C52.4032 19.6624 52.7588 19.973 53.2255 20.3279C53.6922 20.6606 54.2701 21.0598 55.0035 21.326C55.3591 21.4591 55.7592 21.5257 56.1815 21.5922C56.6038 21.6587 57.026 21.7031 57.4483 21.7697C58.3151 21.8584 59.1597 21.9693 59.8931 22.1911C60.6266 22.4129 61.2267 22.7456 61.6712 23.1005C62.1157 23.4555 62.4046 23.8325 62.5602 24.1209C62.6269 24.254 62.6936 24.3649 62.7158 24.4536C62.738 24.5423 62.7602 24.5645 62.7602 24.5645C62.7602 24.5645 62.7602 24.5202 62.7158 24.4314C62.6936 24.3427 62.6491 24.2318 62.5824 24.0765C62.4491 23.7882 62.1601 23.3889 61.7156 23.034C61.2711 22.6569 60.6488 22.3242 59.9154 22.1024C59.1819 21.8806 58.3374 21.7697 57.4706 21.6587C57.026 21.6144 56.6038 21.5478 56.2037 21.5035C55.8037 21.4369 55.4036 21.3704 55.048 21.2373C54.3368 20.9933 53.7589 20.6162 53.2922 20.2835C52.8254 19.9508 52.4698 19.6402 52.2253 19.4184C52.1142 19.3075 52.0253 19.241 51.9586 19.1744C51.8475 19.1079 51.8253 19.0857 51.8253 19.0857Z" fill="#455A64"/>
<path d="M47.2471 15.7718C47.2471 15.7939 47.5805 15.7939 48.1361 15.9049C48.2694 15.927 48.425 15.9714 48.5584 16.0379C48.714 16.0823 48.8695 16.1488 49.0473 16.2154C49.3807 16.3707 49.7363 16.5703 50.0697 16.8143C50.4031 17.0583 50.692 17.3467 50.9365 17.6128C51.0476 17.7459 51.1588 17.879 51.2477 18.0121C51.3366 18.1452 51.4255 18.2783 51.4921 18.3892C51.7588 18.855 51.87 19.1877 51.8922 19.1877C51.8922 19.1877 51.87 19.099 51.8255 18.9659C51.8033 18.8994 51.7588 18.8106 51.7144 18.6997C51.6699 18.611 51.6255 18.4779 51.5588 18.367C51.4921 18.2561 51.4255 18.123 51.3143 17.9899C51.2254 17.8568 51.1143 17.7237 51.0032 17.5685C50.7587 17.2801 50.4698 17.0139 50.1364 16.7477C49.803 16.5038 49.4474 16.3041 49.0918 16.1488C48.914 16.0823 48.7584 16.0158 48.6028 15.9714C48.4472 15.927 48.2917 15.8827 48.1583 15.8605C48.025 15.8161 47.8916 15.8161 47.7805 15.7939C47.6694 15.7718 47.5805 15.7718 47.4916 15.7718C47.336 15.7496 47.2471 15.7496 47.2471 15.7718Z" fill="#455A64"/>
<path d="M44.9354 30.9716C44.9354 30.9716 44.9354 30.9494 44.9132 30.9272C44.891 30.9051 44.8688 30.8607 44.8243 30.8385C44.7576 30.7498 44.6243 30.6389 44.5132 30.4614C44.3798 30.284 44.2242 30.0843 44.1353 29.796C44.0909 29.6629 44.0686 29.4854 44.0909 29.3302C44.1131 29.1527 44.1576 28.9974 44.2465 28.82C44.4243 28.4873 44.7354 28.1989 45.0021 27.8218C45.2688 27.4669 45.5133 27.0455 45.7133 26.5575C45.9134 26.0917 46.0467 25.5593 46.0912 25.0048C46.1578 24.4502 46.1134 23.8735 46.0689 23.2968C46.0467 22.7201 46.0467 22.1434 46.1578 21.611C46.2912 21.0786 46.5579 20.6128 46.8691 20.2358C47.2024 19.8587 47.5803 19.5703 47.9803 19.3707C48.3804 19.171 48.8027 19.0823 49.1805 19.0601C49.9362 19.0158 50.5585 19.2154 50.9363 19.3929C51.1364 19.4816 51.2697 19.5703 51.3586 19.6369C51.4031 19.659 51.4475 19.6812 51.4697 19.7034C51.492 19.7256 51.5142 19.7256 51.5142 19.7256C51.5142 19.7256 51.3364 19.5481 50.9586 19.3707C50.5807 19.171 49.9584 18.9714 49.1805 19.0158C48.8027 19.0379 48.3804 19.1267 47.9581 19.3263C47.5358 19.5259 47.1358 19.8143 46.8024 20.2136C46.469 20.5907 46.2023 21.0786 46.0689 21.6332C45.9356 22.1877 45.9356 22.7644 45.9578 23.3412C45.98 23.9179 46.0245 24.4946 45.98 25.027C45.9356 25.5815 45.8022 26.0917 45.6022 26.5575C45.4244 27.0233 45.1799 27.4447 44.9132 27.7996C44.6465 28.1545 44.3354 28.4651 44.1576 28.7978C44.0687 28.9753 44.002 29.1527 44.002 29.3302C43.9797 29.5076 44.0242 29.6629 44.0687 29.8182C44.1576 30.1065 44.3354 30.3283 44.4687 30.4836C44.6021 30.6389 44.7354 30.772 44.8021 30.8385C44.8465 30.8829 44.8688 30.9051 44.891 30.9272C44.9132 30.9716 44.9354 30.9716 44.9354 30.9716Z" fill="#455A64"/>
<path d="M62.0932 27.6268C62.0932 27.6268 62.1154 27.6268 62.1376 27.6046C62.1599 27.5825 62.2043 27.5603 62.2488 27.5381C62.3599 27.4715 62.4932 27.3828 62.6711 27.2276C63.0044 26.9392 63.4712 26.4068 63.7379 25.6305C64.0046 24.8541 64.0046 23.7894 63.4934 22.8134C63.2489 22.3254 62.8489 21.8818 62.3599 21.5269C61.8709 21.172 61.2931 20.928 60.693 20.7727C60.0929 20.6175 59.4706 20.5287 58.8705 20.5066C58.2704 20.4622 57.7148 20.4622 57.1591 20.44C56.6257 20.4178 56.1145 20.3956 55.6256 20.3291C55.1588 20.2626 54.7143 20.1517 54.3365 20.0186C53.5586 19.7524 53.003 19.3753 52.6696 19.0426C52.514 18.8873 52.3807 18.7542 52.314 18.6433C52.2695 18.5989 52.2473 18.5546 52.2251 18.5324C52.2029 18.5102 52.2029 18.488 52.2029 18.488C52.2029 18.488 52.314 18.7099 52.6474 19.0426C52.9807 19.3753 53.5364 19.7746 54.3143 20.0407C54.6921 20.1738 55.1366 20.2847 55.6256 20.3513C56.1145 20.4178 56.6257 20.4622 57.1591 20.4844C58.2482 20.5287 59.4484 20.5066 60.6485 20.8171C61.2486 20.9724 61.8265 21.2164 62.2932 21.5491C62.7822 21.8818 63.1378 22.3254 63.4045 22.7912C63.9157 23.7451 63.9157 24.7876 63.6712 25.5418C63.4267 26.3181 62.96 26.8283 62.6266 27.1388C62.4488 27.2941 62.3155 27.405 62.2043 27.4715C62.1599 27.4937 62.1154 27.5381 62.0932 27.5381C62.1154 27.6046 62.0932 27.6268 62.0932 27.6268Z" fill="#263238"/>
<path d="M47.5805 26.7162C47.6472 26.7827 48.025 26.5166 48.5807 26.5166C49.1363 26.5166 49.5364 26.8049 49.5808 26.7384C49.6031 26.7162 49.5586 26.5831 49.3808 26.45C49.203 26.3169 48.9141 26.1838 48.5807 26.1838C48.2473 26.1838 47.9584 26.2947 47.7806 26.4278C47.625 26.5609 47.5583 26.6718 47.5805 26.7162Z" fill="#263238"/>
<path d="M53.1815 26.799C53.2482 26.8655 53.626 26.5993 54.1817 26.5993C54.7373 26.5993 55.1374 26.8877 55.1818 26.8211C55.204 26.799 55.1596 26.6659 54.9818 26.5328C54.804 26.3997 54.515 26.2666 54.1817 26.2666C53.8483 26.2666 53.5594 26.3775 53.3815 26.5106C53.226 26.6437 53.1593 26.7546 53.1815 26.799Z" fill="#263238"/>
<path d="M51.1141 30.088C51.1141 30.0658 50.7807 29.9993 50.2251 29.9106C50.0917 29.8884 49.9584 29.8662 49.9361 29.7775C49.9139 29.6666 49.9584 29.5335 50.0473 29.356C50.1806 29.0233 50.3362 28.6684 50.4918 28.2913C51.0919 26.783 51.5364 25.5408 51.4697 25.5186C51.403 25.4964 50.8696 26.6942 50.2695 28.2026C50.1139 28.5797 49.9806 28.9346 49.8472 29.2673C49.7806 29.4226 49.6917 29.6 49.7583 29.8218C49.8028 29.9327 49.8917 29.9993 49.9806 30.0215C50.0695 30.0436 50.1584 30.0436 50.2251 30.0658C50.7807 30.1102 51.1141 30.1324 51.1141 30.088Z" fill="#263238"/>
<path d="M51.3143 31.4068C51.5143 31.1406 51.87 31.0075 52.2033 31.0519C52.4478 31.074 52.6701 31.2071 52.8256 31.4068C52.959 31.6064 52.9812 31.8726 52.8479 32.05C52.6923 32.2497 52.3811 32.294 52.1144 32.2275C51.8477 32.1388 51.6255 31.9613 51.4254 31.806C51.3588 31.7617 51.3143 31.7173 51.2699 31.6508C51.2254 31.5842 51.2254 31.4955 51.2699 31.4511" fill="#EB996E"/>
<path d="M52.7148 30.5066C52.6259 30.5066 52.6036 31.0833 52.0924 31.5048C51.5813 31.9262 50.9367 31.8375 50.9367 31.9262C50.9367 31.9706 51.0701 32.0371 51.3368 32.0593C51.6035 32.0815 51.9813 31.9928 52.2925 31.7488C52.6036 31.5048 52.7592 31.1499 52.7814 30.9059C52.8259 30.6619 52.7592 30.5066 52.7148 30.5066Z" fill="#263238"/>
<path d="M48.0915 67.6366L42.0017 69.6994L41.5128 71.2078C41.5128 71.2078 24.5325 65.1079 23.3323 64.4646C22.1321 63.8213 15.9312 62.4017 13.8865 67.4813C12.1529 71.7623 15.5756 76.0433 21.0431 78.4611C26.5105 80.8567 37.0899 81.8993 37.0899 81.8993L44.0687 83.0971L59.4932 83.2967C64.0494 83.3632 68.4056 81.3891 71.3616 77.9288C73.7842 75.1117 76.2956 71.8954 76.7846 70.2318C77.7181 66.9933 76.8735 62.7788 72.0283 62.3795C67.1832 61.9803 59.3154 67.5035 59.3154 67.5035L56.3372 66.6827L48.0915 67.6366Z" fill="#263238"/>
<path d="M47.6247 77.5052C47.6247 77.5052 47.6247 77.4608 47.647 77.3942C47.6692 77.3277 47.6692 77.2168 47.6025 77.0837C47.4914 76.8397 47.0913 76.5957 46.5801 76.4626C45.5355 76.0412 43.9575 75.3757 42.0906 74.4663C40.2236 73.5568 38.0678 72.3812 35.7563 71.1391C34.0894 70.2518 32.4892 69.3867 31.0001 68.6769C29.511 67.9671 28.1774 67.346 27.0217 66.9024C26.7328 66.7915 26.4661 66.6806 26.1994 66.5697C25.9327 66.4809 25.6882 66.3922 25.4659 66.3035C25.2437 66.2148 25.0214 66.1482 24.8214 66.0595C24.6214 65.993 24.4436 65.9264 24.2657 65.882C23.9324 65.7711 23.6879 65.6824 23.5101 65.638C23.4212 65.6159 23.3545 65.5937 23.3101 65.5715C23.3545 65.5937 23.4212 65.5937 23.5101 65.638C23.6879 65.6824 23.9546 65.7711 24.288 65.8599C24.4658 65.9042 24.6436 65.9708 24.8436 66.0373C25.0436 66.1039 25.2659 66.1926 25.4882 66.2591C25.7326 66.3479 25.9771 66.4366 26.2438 66.5253C26.5105 66.614 26.7772 66.7249 27.0662 66.858C28.2219 67.3017 29.5776 67.9006 31.0668 68.6326C32.5559 69.3424 34.1561 70.1853 35.823 71.0947C38.1345 72.3369 40.2903 73.5125 42.1573 74.4441C44.0242 75.3757 45.58 76.0412 46.6246 76.4848C47.158 76.6179 47.5358 76.8619 47.647 77.1502C47.7136 77.2833 47.6914 77.3942 47.6692 77.4608C47.6247 77.4608 47.6247 77.5052 47.6247 77.5052Z" fill="#455A64"/>
<path d="M70.3171 63.4651C70.3171 63.4651 70.2949 63.4651 70.2504 63.4872C70.206 63.4872 70.1393 63.5094 70.0504 63.5094C69.8726 63.5316 69.6059 63.5538 69.2725 63.6425C68.6057 63.7756 67.6723 64.1083 66.6277 64.7516C66.0942 65.0621 65.5608 65.4392 65.0052 65.8828C64.4496 66.3265 63.8939 66.8366 63.3383 67.4134C62.2492 68.589 61.0046 69.8533 59.6044 71.0733C58.9154 71.6944 58.2042 72.2711 57.493 72.7813C56.7818 73.2915 56.0705 73.7573 55.2927 74.0235C54.5148 74.2674 53.7591 74.3562 53.0479 74.4671C52.3367 74.578 51.6921 74.6889 51.1143 74.8885C50.5364 75.0882 50.0474 75.31 49.6474 75.5762C49.2473 75.8423 48.9806 76.1751 48.825 76.4634C48.6695 76.7518 48.625 77.018 48.6028 77.1954C48.625 77.018 48.6472 76.7518 48.8028 76.4412C48.9584 76.1307 49.2251 75.798 49.6252 75.5318C50.0252 75.2434 50.5364 74.9994 51.1143 74.7998C51.6921 74.6002 52.3589 74.4893 53.0701 74.3784C53.7813 74.2674 54.537 74.1787 55.2927 73.9125C56.0483 73.6464 56.7595 73.1806 57.4485 72.6704C58.1597 72.1602 58.8487 71.5835 59.5377 70.9624C60.9157 69.7424 62.1826 68.5003 63.2716 67.3025C63.8272 66.7257 64.4051 66.2156 64.9607 65.7719C65.5164 65.3283 66.072 64.9512 66.6054 64.6407C67.65 64.0196 68.6057 63.6869 69.2725 63.576C69.6059 63.4872 69.8726 63.4872 70.0504 63.4651C70.1393 63.4651 70.206 63.4651 70.2504 63.4429C70.2949 63.4651 70.3171 63.4651 70.3171 63.4651Z" fill="#455A64"/>
<path d="M49.2251 75.6887C49.2251 75.6887 49.1807 75.5999 49.114 75.4003C49.0695 75.3116 49.0695 75.2007 49.0251 75.0454C49.0029 74.9123 48.9806 74.757 48.9584 74.5796C48.914 74.2247 48.914 73.8254 48.914 73.3596C48.9362 72.8938 48.9584 72.4058 49.0473 71.8734C49.1807 70.8309 49.4474 69.8993 49.7141 69.256C49.7808 69.1007 49.8474 68.9455 49.9141 68.8346C49.9808 68.7237 50.0475 68.6128 50.0919 68.524C50.203 68.3688 50.2697 68.28 50.2919 68.28C50.2919 68.28 50.2475 68.3688 50.1364 68.5462C50.0919 68.6349 50.0475 68.7458 49.9808 68.8567C49.9141 68.9677 49.8697 69.1229 49.803 69.2782C49.5585 69.9215 49.314 70.8531 49.1807 71.8956C49.114 72.4058 49.0695 72.916 49.0473 73.3818C49.0473 73.8476 49.0473 74.2469 49.0695 74.5796C49.114 75.2672 49.2473 75.6665 49.2251 75.6887Z" fill="#455A64"/>
<path d="M47.6247 77.5078C47.6247 77.5078 59.1153 80.3914 59.582 80.5467C60.271 80.7685 60.2266 83.2972 59.1375 83.275C58.6263 83.275 50.3807 83.7852 49.3361 83.7408C48.2915 83.6964 45.4466 82.6539 45.4466 82.6539L47.1802 78.5503L47.6247 77.5078Z" fill="#D81E05"/>
<path d="M52.4699 81.7429C52.5365 81.7429 52.581 81.144 52.9366 80.5008C53.2922 79.8575 53.7589 79.4804 53.7145 79.436C53.6923 79.3917 53.1366 79.7244 52.7588 80.412C52.4032 81.0997 52.4254 81.7429 52.4699 81.7429Z" fill="#263238"/>
<path d="M51.2699 81.2347C51.3366 81.2347 51.4255 80.7024 51.7144 80.1035C52.0034 79.5046 52.359 79.0831 52.3145 79.0388C52.2923 78.9944 51.8478 79.3937 51.5366 80.0147C51.2477 80.658 51.2255 81.2347 51.2699 81.2347Z" fill="#263238"/>
<path d="M50.1361 80.9466C50.2028 80.9466 50.1361 80.3699 50.3806 79.7266C50.6028 79.0833 51.0251 78.6841 50.9807 78.6397C50.9585 78.5953 50.4473 78.9502 50.2028 79.66C49.9583 80.3698 50.0917 80.9688 50.1361 80.9466Z" fill="#263238"/>
<path d="M50.3141 79.4936C50.3363 79.4936 50.4252 79.183 50.4252 78.6507C50.4252 78.3845 50.3807 78.0739 50.2918 77.719C50.2474 77.5416 50.1807 77.3641 50.114 77.1867C50.0696 77.098 50.0251 76.987 49.914 76.9205C49.8029 76.8318 49.6029 76.854 49.514 76.9427C49.4028 77.0314 49.3806 77.1645 49.3584 77.2754C49.3584 77.3863 49.3361 77.475 49.3584 77.5859C49.3584 77.7856 49.4028 77.963 49.4473 78.1405C49.5362 78.4954 49.6918 78.7837 49.8251 79.0056C50.0918 79.4714 50.3363 79.6932 50.3585 79.671C50.3807 79.6488 50.1807 79.3826 49.9585 78.939C49.8473 78.7172 49.714 78.4288 49.6473 78.0961C49.6029 77.9408 49.5806 77.7634 49.5806 77.5859C49.5806 77.4085 49.5806 77.1867 49.6695 77.0979C49.714 77.0536 49.7807 77.0536 49.8251 77.0758C49.8696 77.1201 49.914 77.1867 49.9585 77.2754C50.0251 77.4529 50.0918 77.6081 50.1363 77.7634C50.2252 78.0961 50.2918 78.3845 50.3141 78.6507C50.3363 79.1608 50.2918 79.4936 50.3141 79.4936Z" fill="#263238"/>
<path d="M50.2918 79.3729C50.2918 79.3507 50.0251 79.262 49.5584 79.262C49.3361 79.262 49.0472 79.3063 48.7583 79.3729C48.6027 79.4172 48.4471 79.4616 48.2915 79.5503C48.1359 79.639 47.9804 79.8609 48.047 80.0827C48.0915 80.3045 48.2915 80.4376 48.4693 80.4819C48.6471 80.5263 48.8249 80.5041 48.9805 80.4598C49.2917 80.371 49.5361 80.2158 49.714 80.0827C50.0696 79.7943 50.2474 79.5725 50.2251 79.5503C50.2029 79.5281 50.0029 79.7278 49.6251 79.9718C49.4472 80.1049 49.2028 80.238 48.9361 80.2823C48.8027 80.3045 48.6471 80.3267 48.5138 80.2823C48.3804 80.238 48.2693 80.1492 48.2248 80.0161C48.1804 79.883 48.2693 79.7721 48.3804 79.6834C48.4916 79.5947 48.6471 79.5503 48.7805 79.506C49.0694 79.4172 49.3139 79.3729 49.5361 79.3507C50.0029 79.3507 50.2918 79.3951 50.2918 79.3729Z" fill="#263238"/>
<path d="M54.2259 81.8341C54.2926 81.8341 54.2259 81.3461 54.426 80.7916C54.626 80.2592 55.0038 79.9265 54.9594 79.8821C54.9371 79.8378 54.4704 80.1261 54.2482 80.725C54.0259 81.3239 54.1815 81.8563 54.2259 81.8341Z" fill="#263238"/>
<path d="M46.2687 82.5252C46.2687 82.5474 46.4242 82.614 46.7132 82.7249C47.0021 82.8358 47.4466 82.9689 48.0023 83.0798C49.0913 83.3238 50.6693 83.4569 52.3584 83.3903C54.0698 83.3238 55.6034 83.2129 56.7146 83.1463C57.2481 83.102 57.6926 83.0798 58.0259 83.0354C58.3371 83.0132 58.5149 82.991 58.5149 82.9689C58.5149 82.9467 58.3371 82.9467 58.0259 82.9467C57.6703 82.9467 57.2258 82.9689 56.6924 82.991C55.5367 83.0354 54.0031 83.102 52.3362 83.1685C50.6249 83.235 49.0913 83.1241 48.0023 82.9245C46.9354 82.7692 46.2909 82.503 46.2687 82.5252Z" fill="#263238"/>
<path d="M45.9356 82.7945C45.9579 82.8167 46.269 82.6392 46.7802 82.3952C47.2914 82.1512 48.0693 81.885 48.9361 81.9959C49.8029 82.1069 50.4252 82.6614 50.8252 83.0607C51.2253 83.4599 51.4698 83.7261 51.492 83.7261C51.5142 83.7039 51.3142 83.4156 50.9141 82.9719C50.7141 82.7501 50.4696 82.5061 50.1363 82.2843C49.8251 82.0625 49.4028 81.8629 48.9361 81.8185C48.0026 81.7076 47.2025 82.0181 46.6913 82.2843C46.2023 82.5505 45.9356 82.7945 45.9356 82.7945Z" fill="#263238"/>
<path d="M57.4039 83.0311C57.4262 83.0089 57.315 82.8758 57.2261 82.6096C57.1372 82.3434 57.0483 81.9663 57.115 81.5449C57.1817 81.1234 57.3817 80.7907 57.5595 80.5689C57.7373 80.3471 57.8707 80.2362 57.8707 80.214C57.8707 80.1918 57.6929 80.2805 57.4928 80.5024C57.2928 80.702 57.0483 81.0791 56.9816 81.5227C56.915 81.9663 57.0039 82.3878 57.1372 82.654C57.2483 82.9201 57.3817 83.0311 57.4039 83.0311Z" fill="#263238"/>
<path d="M74.6288 72.8501C74.6288 72.8501 74.6065 72.8945 74.5176 73.0054C74.451 73.1163 74.3398 73.2494 74.2065 73.4268C74.0731 73.6043 73.9175 73.8483 73.7175 74.0923C73.5175 74.3363 73.273 74.6246 73.0063 74.9573C72.7396 75.2679 72.4284 75.6006 72.0951 75.9555C71.7617 76.3104 71.3838 76.6431 70.9838 77.0202C70.1614 77.73 69.228 78.5064 68.1834 79.1718C67.1165 79.8595 66.0719 80.4362 65.0718 80.8798C64.0717 81.3234 63.1382 81.6562 62.3603 81.878C61.9602 81.9889 61.6046 82.0776 61.2712 82.1441C60.9379 82.2107 60.6712 82.2551 60.4489 82.2772C60.2266 82.2994 60.0488 82.3216 59.9155 82.3438C59.8044 82.366 59.7377 82.366 59.7377 82.366C59.7377 82.366 59.8044 82.3438 59.9155 82.3216C60.0488 82.2994 60.2266 82.2772 60.4489 82.2551C60.6712 82.2107 60.9601 82.1663 61.2712 82.0998C61.5824 82.0111 61.9602 81.9445 62.3381 81.8114C63.1382 81.5896 64.0494 81.2347 65.0273 80.7911C66.0053 80.3474 67.0721 79.7707 68.1167 79.0831C69.1613 78.3955 70.0948 77.6413 70.9171 76.9537C71.3172 76.5766 71.695 76.2439 72.0284 75.889C72.3618 75.5341 72.6729 75.2235 72.9396 74.913C73.2063 74.6024 73.4508 74.3141 73.6508 74.0701C73.8509 73.8261 74.0287 73.5821 74.162 73.4046C74.2954 73.2272 74.4065 73.0941 74.4954 72.9832C74.5843 72.9166 74.6288 72.8501 74.6288 72.8501Z" fill="#455A64"/>
<path d="M45.3133 76.0885C45.2911 76.0885 45.1133 75.8223 44.8021 75.3787C44.491 74.9351 44.002 74.3584 43.4242 73.7595C42.8241 73.1827 42.2462 72.6947 41.8017 72.3842C41.3572 72.0737 41.0683 71.874 41.0905 71.874C41.0905 71.874 41.1794 71.8962 41.3127 71.9849C41.4461 72.0515 41.6461 72.1846 41.8684 72.3398C42.3351 72.6504 42.9352 73.1162 43.5131 73.7151C44.1131 74.314 44.5799 74.9129 44.891 75.3565C45.0466 75.5783 45.1577 75.778 45.2466 75.9111C45.2911 76.022 45.3133 76.0885 45.3133 76.0885Z" fill="#455A64"/>
<path d="M59.182 69.7417C59.182 69.7639 58.9376 69.9191 58.5375 70.2297C58.1375 70.5402 57.6263 70.9839 57.1151 71.5606C56.6261 72.1373 56.2483 72.714 56.0038 73.1355C55.7593 73.5569 55.626 73.8453 55.6037 73.8453C55.6037 73.8453 55.626 73.7787 55.6704 73.6456C55.7149 73.5126 55.8038 73.3351 55.9149 73.1133C56.1372 72.6697 56.515 72.0708 57.0262 71.494C57.5374 70.9173 58.0708 70.4737 58.4708 70.1853C58.6709 70.0301 58.8487 69.9413 58.9598 69.8748C59.1154 69.7861 59.182 69.7417 59.182 69.7417Z" fill="#455A64"/>
<path d="M62.0936 66.2384C65.1829 63.7541 71.0282 62.5784 71.0282 62.5784C71.0282 62.5784 70.6948 51.2881 69.828 46.0976C69.8058 45.9645 69.7836 45.8536 69.7614 45.7205C68.9613 41.7278 65.4052 39.31 61.3601 38.7555L58.6264 38.3784L50.5363 38.6668L45.6023 40.1529C45.6023 40.1529 39.757 41.4616 38.8679 49.6466C37.9789 57.6763 36.9343 64.3086 37.0899 66.682C37.201 68.3456 38.7568 69.5434 39.6014 69.7431C40.3793 69.9205 41.3572 70.0758 42.2018 69.5878C41.9128 70.1202 41.7128 70.6525 41.6684 71.1405H46.6024L50.4696 67.7467L54.0035 70.2754L58.7375 68.2791L62.0047 66.0609M45.2022 65.9057V65.8835C45.7578 63.1552 45.8245 62.3566 45.8245 62.3566C45.8245 62.3566 42.913 61.9795 43.3797 58.12L43.8242 54.7706L46.7358 64.5082C46.7358 64.5304 46.069 65.0628 45.2022 65.9057Z" fill="#D81E05"/>
<g opacity="0.2">
<path d="M55.4703 62.1593L56.3816 59.8746C55.3814 59.4532 55.0258 59.431 53.9368 59.2979C51.0475 58.943 48.047 59.7415 45.6911 61.4495L46.2912 63.1575H46.3134C46.6913 63.2906 47.3136 63.2684 47.6692 63.1797C48.047 63.0909 48.4471 62.98 48.8249 63.0909C49.3139 63.224 49.6695 63.6455 50.114 63.8895C51.003 64.3996 52.2921 64.0226 52.7811 63.1353C52.9811 62.7582 53.1811 62.2259 53.6034 62.248C53.8257 62.248 53.9812 62.4033 54.159 62.5364C54.6702 62.98 55.1814 63.4237 55.6926 63.8895C56.3149 64.4218 56.915 64.9764 57.5818 65.4644C58.3597 66.0411 59.2487 66.5513 60.2044 66.5069C61.1601 66.4847 61.2045 65.5531 61.2045 65.5531L55.4703 62.1593Z" fill="black"/>
</g>
<path d="M50.1362 38.4234L50.0028 40.7525C49.9584 41.551 50.0695 42.3718 50.3584 43.1037L53.2033 50.5124C53.2033 50.5124 52.7588 46.187 54.6035 44.5899C56.426 42.9928 58.7374 43.1481 58.7597 40.686C58.7597 40.2645 58.7597 37.5806 58.7597 37.5806L54.8257 36.8042L50.1362 38.4234Z" fill="#FFBE9D"/>
<path d="M64.694 39.6201C64.694 39.6201 64.6496 39.6423 64.5384 39.7088C64.4273 39.7532 64.294 39.8419 64.1161 39.9528C63.7605 40.1747 63.316 40.5961 62.916 41.2394C62.5159 41.8826 62.1825 42.7255 62.1381 43.7237C62.1159 44.2117 62.1603 44.744 62.2048 45.2764C62.2492 45.8088 62.3159 46.3855 62.3603 46.94C62.5826 49.2247 62.8493 51.3098 63.0493 52.7959C63.1382 53.5501 63.2271 54.149 63.2938 54.5705C63.316 54.7701 63.3383 54.9254 63.3605 55.0584C63.3827 55.1694 63.3827 55.2359 63.3827 55.2359C63.3827 55.2359 63.3605 55.1694 63.3383 55.0806C63.316 54.9697 63.2938 54.8145 63.2494 54.5926C63.1827 54.1712 63.0716 53.5723 62.9604 52.8181C62.7382 51.332 62.4715 49.2469 62.2492 46.9622C62.1825 46.3855 62.1381 45.8309 62.0936 45.2986C62.0492 44.7662 62.0047 44.2339 62.027 43.7237C62.0936 42.7255 62.4492 41.8383 62.8493 41.2172C63.2716 40.5739 63.7383 40.1747 64.0939 39.9528C64.2717 39.8419 64.4273 39.7754 64.5384 39.731C64.6496 39.6423 64.694 39.6201 64.694 39.6201Z" fill="#263238"/>
<path d="M63.6493 66.8165C63.6493 66.8165 63.6271 66.8165 63.6048 66.7943C63.5604 66.7721 63.5382 66.7721 63.4715 66.7499C63.3604 66.7056 63.2048 66.639 62.9825 66.5281C62.5602 66.3285 61.9602 66.018 61.2267 65.5965C59.7598 64.7758 57.7151 63.6002 55.4259 62.2249L55.3814 62.2027L55.4036 62.1584C55.6703 61.5151 55.937 60.8497 56.226 60.1842C56.5149 59.4966 56.7816 58.8311 57.0261 58.1879C57.1594 57.8552 57.2706 57.5446 57.3817 57.2341C57.4484 57.0788 57.4928 56.9235 57.5373 56.7683C57.5595 56.7017 57.5817 56.613 57.604 56.5465C57.604 56.5021 57.6262 56.4799 57.6262 56.4355C57.6262 56.4134 57.6262 56.3912 57.6262 56.3912V56.369C57.6262 56.369 57.6262 56.3912 57.6484 56.3912L57.6929 56.2803C58.693 56.7239 59.5598 57.1897 60.3599 57.6333C61.1378 58.077 61.8268 58.4541 62.4047 58.7646C62.9825 59.0751 63.4493 59.297 63.7604 59.4522C63.916 59.5188 64.0271 59.5853 64.116 59.6297C64.2049 59.674 64.2494 59.6962 64.2494 59.6962C64.2494 59.6962 64.2049 59.674 64.116 59.6519C64.0271 59.6075 63.8938 59.5631 63.7382 59.4966C63.4048 59.3413 62.9381 59.1195 62.3602 58.8311C61.7823 58.5428 61.0934 58.1435 60.2932 57.7221C59.5154 57.3006 58.6263 56.8348 57.6262 56.3912L57.6706 56.2803C57.6929 56.2803 57.7151 56.3025 57.7151 56.3246V56.3468C57.7151 56.369 57.7151 56.369 57.7151 56.3912C57.7151 56.4134 57.7151 56.4355 57.7151 56.4577C57.7151 56.5021 57.6929 56.5465 57.6929 56.5908C57.6706 56.6795 57.6484 56.7461 57.6262 56.8348C57.5817 56.9901 57.5151 57.1454 57.4706 57.3006C57.3595 57.6112 57.2483 57.9439 57.115 58.2544C56.8705 58.8977 56.6038 59.5631 56.3149 60.2508C56.026 60.9162 55.7592 61.5817 55.4925 62.2249L55.4703 62.1584C57.7595 63.5558 59.7821 64.7314 61.2489 65.5743C61.9824 65.9958 62.5602 66.3063 62.9825 66.5281C63.1826 66.639 63.3381 66.7056 63.4493 66.7721C63.4937 66.7943 63.5382 66.8165 63.5604 66.8387C63.6493 66.7943 63.6493 66.8165 63.6493 66.8165Z" fill="#263238"/>
<path d="M43.7352 54.7729C43.7352 54.7729 43.6908 54.662 43.6463 54.4624C43.6019 54.2627 43.5574 53.9522 43.4908 53.5751C43.3796 52.8209 43.2685 51.7784 43.2241 50.625C43.2018 49.4715 43.2463 48.429 43.313 47.6748C43.3574 47.2977 43.3796 46.9872 43.4241 46.7876C43.4463 46.5879 43.4685 46.4548 43.4908 46.4548C43.4908 46.4548 43.4908 46.5657 43.4685 46.7876C43.4463 46.9872 43.4241 47.2977 43.4019 47.6748C43.3574 48.429 43.313 49.4715 43.3352 50.625C43.3796 51.7784 43.4685 52.8209 43.5574 53.5529C43.6019 53.93 43.6463 54.2405 43.6686 54.4402C43.7352 54.662 43.7575 54.7729 43.7352 54.7729Z" fill="#263238"/>
<path d="M43.2686 56.6384C43.2686 56.6384 43.2019 56.7493 43.0685 56.9268C42.9129 57.1264 42.7129 57.3704 42.4684 57.6588C41.9573 58.302 41.246 59.1449 40.4904 60.0766C39.7347 61.0082 39.0235 61.8733 38.5123 62.4943C38.2678 62.7827 38.0678 63.0267 37.9122 63.2263C37.7789 63.4038 37.69 63.4925 37.69 63.4925C37.69 63.4925 37.7566 63.3816 37.89 63.2042C38.0233 63.0267 38.2234 62.7605 38.4678 62.45C38.9568 61.8067 39.6458 60.9416 40.4237 60.01C41.2016 59.0562 41.9128 58.2133 42.4462 57.6144C42.7129 57.3039 42.9129 57.0599 43.0685 56.9046C43.1797 56.7272 43.2463 56.6384 43.2686 56.6384Z" fill="#263238"/>
<path d="M45.4911 63.821C45.4911 63.821 45.4911 63.932 45.4911 64.1094C45.4911 64.1981 45.4688 64.309 45.4466 64.4421C45.4244 64.5752 45.4022 64.7083 45.3577 64.8636C45.291 65.1741 45.1799 65.5512 45.0243 65.9505C44.8687 66.3497 44.6465 66.7712 44.3798 67.1926C44.1131 67.6141 43.8241 67.969 43.513 68.2795C43.2241 68.5901 42.9351 68.8341 42.6684 69.0337C42.5351 69.1446 42.4239 69.2112 42.3128 69.2777C42.2017 69.3442 42.1128 69.4108 42.0239 69.4551C41.8683 69.5439 41.7794 69.5882 41.7794 69.5882C41.7572 69.5661 42.1128 69.3664 42.624 68.9672C42.8684 68.7675 43.1574 68.5013 43.4463 68.213C43.7352 67.9024 44.0242 67.5475 44.2909 67.1261C44.5576 66.7046 44.7576 66.3054 44.9132 65.9061C45.0688 65.5068 45.1799 65.1519 45.2688 64.8414C45.4466 64.1981 45.4688 63.821 45.4911 63.821Z" fill="#263238"/>
<path d="M59.2042 38.1372C59.2042 38.1372 59.2264 38.1816 59.2931 38.2925C59.3375 38.4034 59.4264 38.5365 59.5153 38.7361C59.6709 39.1354 59.8931 39.7343 60.0265 40.4884C60.1599 41.2426 60.2043 42.1742 60.0487 43.1946C59.9154 44.2149 59.5598 45.3018 58.9597 46.3222C58.8486 46.4996 58.7374 46.6549 58.6263 46.8324C58.5152 46.9876 58.3818 47.1429 58.2707 47.2982L58.2485 47.3425L58.204 47.3204C57.315 46.788 56.2704 46.7658 55.448 47.0764C55.0258 47.2316 54.6924 47.4756 54.4035 47.7196C54.1145 47.9636 53.87 48.252 53.7145 48.5182C53.3811 49.0727 53.2922 49.605 53.2477 49.96C53.2033 50.3149 53.2255 50.5145 53.2033 50.5145C53.2033 50.5145 53.2033 50.4701 53.2033 50.3592C53.2033 50.2705 53.2033 50.1152 53.2033 49.9378C53.2255 49.5829 53.3144 49.0283 53.6478 48.4516C53.8256 48.1632 54.0478 47.8749 54.3368 47.6087C54.6257 47.3425 54.9813 47.0985 55.4036 46.9433C56.2259 46.6327 57.3372 46.6327 58.2485 47.1873L58.1818 47.2094C58.2929 47.0542 58.404 46.8989 58.5374 46.7436C58.6485 46.5884 58.7597 46.4109 58.8486 46.2556C59.4486 45.2575 59.8042 44.1706 59.9376 43.1724C60.0932 42.1742 60.071 41.2426 59.9376 40.4884C59.8265 39.7343 59.6264 39.1354 59.4709 38.7361C59.4042 38.5365 59.3153 38.3812 59.2708 38.2703C59.2264 38.1816 59.2042 38.1372 59.2042 38.1372Z" fill="#263238"/>
<path d="M52.7364 49.5143C52.7364 49.5143 52.7142 49.4699 52.6698 49.3812C52.6253 49.2925 52.5586 49.1594 52.492 49.0041C52.3364 48.6714 52.1141 48.2056 51.8252 47.6511C51.514 47.0965 51.1362 46.4311 50.5806 45.81C50.2916 45.5216 49.9583 45.2111 49.536 45.0115C49.1359 44.8118 48.6692 44.6787 48.1802 44.6566C47.9802 44.6566 47.8024 44.6566 47.6246 44.6787H47.5579V44.6122C47.6913 43.7027 47.9357 42.8599 48.1802 42.1279C48.4247 41.3737 48.6914 40.7304 48.9359 40.1981C49.1804 39.6657 49.4248 39.2443 49.5804 38.9781C49.6693 38.845 49.736 38.7341 49.8027 38.6675C49.8471 38.601 49.8916 38.5566 49.8916 38.5566C49.8916 38.5566 49.8027 38.7119 49.6249 38.9781C49.4693 39.2664 49.247 39.6657 49.0026 40.2203C48.7581 40.7526 48.5136 41.4181 48.2691 42.15C48.0246 42.882 47.8024 43.7249 47.669 44.6122L47.6024 44.5456C47.7802 44.5456 47.9802 44.5235 48.1802 44.5235C48.6692 44.5456 49.1581 44.6787 49.5804 44.9006C50.0027 45.1224 50.3361 45.4107 50.6472 45.7213C51.2251 46.3645 51.6029 47.03 51.8919 47.6067C52.1808 48.1834 52.3808 48.6492 52.5364 48.9819C52.6031 49.1372 52.6475 49.2703 52.692 49.359C52.7364 49.4699 52.7364 49.5143 52.7364 49.5143Z" fill="#263238"/>
<g opacity="0.2">
<path d="M53.2033 50.3568C53.4478 49.5805 53.759 49.2921 54.1813 48.8928C54.6035 48.4936 55.1814 48.183 55.7593 48.2274C56.2482 48.2496 56.715 48.5157 57.2039 48.5157C57.7818 48.5379 58.3152 48.2052 58.7375 47.8281C60.5377 46.2754 61.1156 43.5027 60.0932 41.3733C60.1821 43.4805 59.4931 45.61 58.1596 47.2514C57.115 46.6525 55.7593 46.6969 54.7591 47.3401C53.759 47.9834 53.1367 49.2034 53.2033 50.3568Z" fill="black"/>
</g>
<path d="M63.3381 54.9929C63.3381 54.9929 63.3604 55.1038 63.4048 55.3035C63.427 55.5253 63.4715 55.8136 63.5159 56.1464C63.6048 56.8562 63.7382 57.8543 63.8716 58.9412C63.8938 59.1409 63.916 59.3405 63.9382 59.5401L63.8938 59.4958C64.8495 59.6954 65.6051 60.0947 66.1163 60.4496C66.3608 60.627 66.5608 60.7823 66.6942 60.8932C66.8275 61.0041 66.872 61.0707 66.872 61.0707C66.8498 61.0928 66.5831 60.8267 66.0719 60.5161C65.5607 60.1834 64.805 59.8063 63.8716 59.6289H63.8271V59.5845C63.8049 59.3849 63.7826 59.1852 63.7604 58.9856C63.6271 57.8987 63.5159 56.9005 63.4493 56.1907C63.4048 55.858 63.3826 55.5696 63.3604 55.3478C63.3381 55.1038 63.3381 54.9929 63.3381 54.9929Z" fill="#263238"/>
<path d="M56.3593 65.0438C56.3593 65.0438 56.3149 65.066 56.2482 65.0882C56.1593 65.1103 56.0482 65.1325 55.9148 65.1769C55.6259 65.2434 55.2036 65.3322 54.6702 65.3987C53.6034 65.5318 52.1143 65.5983 50.4696 65.3765C49.6472 65.2656 48.8916 65.0882 48.2026 64.8885C47.8692 64.7776 47.5358 64.6889 47.2469 64.5558C46.958 64.4227 46.7135 64.2231 46.5579 64.0013C46.4023 63.7794 46.3134 63.5354 46.269 63.3358C46.2023 63.1362 46.1801 62.9365 46.1578 62.8035C46.1356 62.6482 46.1356 62.5373 46.1134 62.4486C46.1134 62.3598 46.1134 62.3376 46.1134 62.3376C46.1134 62.3376 46.1356 62.4929 46.2023 62.8035C46.2245 62.9587 46.269 63.1362 46.3356 63.3358C46.4023 63.5354 46.4912 63.7573 46.6468 63.9791C46.8024 64.2009 47.0246 64.3783 47.3136 64.4893C47.6025 64.6002 47.9359 64.6889 48.2693 64.7998C48.9582 64.9994 49.7139 65.1547 50.514 65.2656C52.1365 65.4874 53.6256 65.4431 54.6924 65.3322C55.2258 65.2656 55.6481 65.1991 55.9371 65.1547C56.0704 65.1325 56.1815 65.1103 56.2704 65.0882C56.3149 65.0438 56.3593 65.0438 56.3593 65.0438Z" fill="#263238"/>
<path d="M51.7364 65.3958C51.7364 65.4179 51.5808 65.4623 51.3586 65.5954C51.1363 65.7285 50.8474 65.9503 50.6474 66.283C50.4251 66.6157 50.3362 66.9706 50.314 67.2146C50.2918 67.4808 50.314 67.6361 50.2918 67.6361C50.2918 67.6361 50.2251 67.4808 50.2251 67.2146C50.2251 66.9485 50.314 66.5714 50.5362 66.2165C50.7585 65.8616 51.0696 65.6397 51.3141 65.5067C51.5586 65.3958 51.7142 65.3958 51.7364 65.3958Z" fill="#263238"/>
<path d="M52.8254 50.3135C52.8254 50.3135 52.8476 50.3578 52.8476 50.4687C52.8698 50.5797 52.8698 50.7349 52.8921 50.9124C52.9365 51.2895 52.981 51.8662 53.0254 52.5538C53.1143 53.9291 53.2032 55.8589 53.1365 57.9883C53.1143 59.053 53.0699 60.0512 52.981 60.9828C52.9143 61.8922 52.8032 62.7351 52.6254 63.4006C52.4475 64.066 52.1586 64.5762 51.9364 64.9089C51.8252 65.0642 51.7363 65.1751 51.6474 65.2638C51.5808 65.3304 51.5363 65.3747 51.5363 65.3747C51.5363 65.3747 51.6697 65.2194 51.8919 64.8867C52.0919 64.554 52.3586 64.066 52.5364 63.4006C52.7143 62.7351 52.8254 61.9144 52.8698 61.005C52.9365 60.0955 52.981 59.0752 53.0032 58.0326C53.0476 55.9254 53.0032 53.9956 52.9143 52.6204C52.8698 51.9327 52.8254 51.3782 52.8032 50.9789C52.7809 50.8015 52.7809 50.6462 52.7809 50.5353C52.8254 50.38 52.8254 50.3135 52.8254 50.3135Z" fill="#263238"/>
<path d="M42.7573 49.1161C42.7573 49.1383 41.935 49.2492 40.8904 49.3158C39.868 49.4045 39.0234 49.4267 39.0234 49.4045C39.0234 49.3823 39.8458 49.2714 40.8904 49.2048C41.9127 49.1383 42.7573 49.0939 42.7573 49.1161Z" fill="white"/>
<path d="M52.3809 53.1089C52.1364 53.1533 51.8031 53.1977 51.3808 53.2198C50.9585 53.2642 50.4473 53.2642 49.8917 53.2642C49.336 53.242 48.7137 53.1977 48.0692 53.1089C47.4246 53.0202 46.8246 52.8871 46.2689 52.754C45.7355 52.5988 45.2465 52.4657 44.8465 52.3104C44.4464 52.1551 44.1353 52.022 43.913 51.9333C43.6908 51.8224 43.5796 51.778 43.5796 51.7559C43.5796 51.7559 43.713 51.8002 43.9352 51.8889C44.1575 51.9777 44.4687 52.0886 44.8687 52.2439C45.2688 52.3769 45.7577 52.5322 46.2911 52.6653C46.8246 52.7984 47.4469 52.9315 48.0692 53.0202C48.7137 53.1089 49.3138 53.1533 49.8917 53.1755C50.4473 53.1977 50.9585 53.1977 51.3808 53.1755C51.8031 53.1533 52.1364 53.1311 52.3809 53.1089Z" fill="white"/>
<path d="M62.0934 49.7168C62.0934 49.7168 61.9823 49.8055 61.7823 49.9164C61.5823 50.0495 61.2711 50.2048 60.871 50.4044C60.4932 50.6041 60.0042 50.8037 59.4708 51.0033C58.9374 51.203 58.3373 51.4026 57.6928 51.5579C57.0483 51.7131 56.4259 51.824 55.8703 51.9128C55.2924 51.9793 54.7813 52.0237 54.359 52.0459C53.9367 52.068 53.5811 52.068 53.3366 52.0459C53.0921 52.0459 52.9588 52.0237 52.9588 52.0237C52.9588 52.0237 53.0921 52.0015 53.3366 52.0015C53.5811 52.0015 53.9367 51.9793 54.359 51.9571C54.7813 51.9349 55.2924 51.8906 55.8703 51.8019C56.4259 51.7131 57.0483 51.6022 57.6928 51.447C58.3373 51.2917 58.9374 51.0921 59.4708 50.9146C60.0042 50.715 60.471 50.5153 60.871 50.3379C61.2711 50.1604 61.5823 50.0052 61.7823 49.8942C61.9823 49.7833 62.0934 49.7168 62.0934 49.7168Z" fill="white"/>
<path d="M69.5391 45.1234C69.5391 45.1234 69.4279 45.1456 69.2501 45.1677C69.0501 45.1899 68.7834 45.2121 68.45 45.2343C67.7832 45.3008 66.8498 45.4561 65.8496 45.7445C64.8495 46.0328 63.9827 46.3877 63.3604 46.6761C63.0492 46.8092 62.8047 46.9423 62.6269 47.031C62.4491 47.1197 62.3602 47.1641 62.3602 47.1641C62.3602 47.1641 62.4491 47.0975 62.6047 47.0088C62.7603 46.8979 63.0048 46.7648 63.3159 46.6317C63.916 46.3212 64.805 45.9441 65.8052 45.6779C66.8053 45.3896 67.761 45.2565 68.4278 45.2121C68.7612 45.1899 69.0501 45.1677 69.2279 45.1677C69.4279 45.1012 69.5391 45.1012 69.5391 45.1234Z" fill="white"/>
<path d="M70.5391 54.4146C70.5391 54.4146 70.4279 54.4146 70.2501 54.3924C70.0723 54.3703 69.7834 54.3481 69.4722 54.3259C68.8055 54.2815 67.872 54.2593 66.8719 54.3259C65.8495 54.3924 64.9382 54.5477 64.2937 54.6808C63.9603 54.7473 63.6936 54.8139 63.5158 54.8582C63.338 54.9026 63.2269 54.9248 63.2269 54.9026C63.2269 54.9026 63.3158 54.8582 63.4936 54.8139C63.6714 54.7473 63.9381 54.6808 64.2715 54.6143C64.916 54.459 65.8495 54.3037 66.8719 54.215C67.8942 54.1484 68.8277 54.1706 69.4945 54.2372C69.8279 54.2593 70.0946 54.3037 70.2724 54.3259C70.4502 54.3924 70.5391 54.4146 70.5391 54.4146Z" fill="white"/>
<path d="M63.5159 65.4184C63.4937 65.4184 63.6048 65.0857 63.7159 64.5755C63.8271 64.0432 63.9382 63.3112 63.9382 62.4905C63.9382 61.6697 63.8048 60.9378 63.6937 60.4054C63.5603 59.873 63.4492 59.5625 63.4714 59.5625C63.4714 59.5625 63.5159 59.629 63.5603 59.7843C63.627 59.9174 63.6937 60.1392 63.7604 60.4054C63.916 60.9378 64.0493 61.6697 64.0493 62.5126C64.0493 63.3334 63.9382 64.0875 63.8048 64.6199C63.7381 64.8861 63.6715 65.0857 63.627 65.241C63.5603 65.3297 63.5381 65.4184 63.5159 65.4184Z" fill="white"/>
<path d="M42.1349 57.7009C42.1349 57.723 41.8904 57.723 41.4904 57.7452C41.0903 57.7674 40.5569 57.8339 39.9568 57.9227C39.3567 58.0336 38.8233 58.1667 38.4455 58.2776C38.0676 58.3885 37.8232 58.4772 37.8232 58.455C37.8232 58.4328 38.0454 58.3441 38.4233 58.211C38.8011 58.0779 39.3345 57.9227 39.9346 57.8118C40.5347 57.7009 41.0903 57.6565 41.4904 57.6565C41.8904 57.6565 42.1349 57.6787 42.1349 57.7009Z" fill="white"/>
<path d="M43.6907 66.9959C43.6907 66.9959 43.6685 66.9959 43.6018 66.9959C43.5573 66.9959 43.4684 66.9959 43.3573 66.9959C43.1573 66.9737 42.8461 66.9293 42.4905 66.8184C41.7793 66.6188 40.8014 66.0642 40.1346 65.1104C39.4679 64.1566 39.3123 63.0475 39.379 62.3156C39.4012 61.9385 39.4679 61.6279 39.5345 61.4283C39.5568 61.3174 39.6012 61.2508 39.6234 61.2065C39.6457 61.1621 39.6457 61.1178 39.6679 61.1399C39.6901 61.1399 39.5123 61.5836 39.4901 62.3377C39.4456 63.0697 39.6234 64.1344 40.268 65.0661C40.9125 65.9977 41.846 66.53 42.5572 66.7519C43.224 66.9959 43.6907 66.9737 43.6907 66.9959Z" fill="white"/>
<path d="M48.7361 68.459C48.7361 68.4812 47.7804 68.2815 46.6246 67.9932C45.4689 67.7048 44.5354 67.4387 44.5354 67.4165C44.5354 67.3943 45.4911 67.5939 46.6469 67.8823C47.8248 68.1706 48.7583 68.4368 48.7361 68.459Z" fill="white"/>
<path d="M60.6043 66.2819C60.6043 66.2819 60.5154 66.3485 60.3154 66.4372C60.1376 66.5259 59.8486 66.659 59.5153 66.8143C58.8263 67.1248 57.8706 67.5019 56.7593 67.8124C55.6702 68.1452 54.6479 68.3448 53.8922 68.4779C53.5144 68.5444 53.2254 68.5888 53.0032 68.611C52.8032 68.6332 52.6698 68.6332 52.6698 68.6332C52.6698 68.6332 52.7809 68.611 52.981 68.5666C53.181 68.5222 53.4921 68.4779 53.8478 68.4113C54.5812 68.2782 55.5813 68.0343 56.6926 67.7237C57.7817 67.391 58.7596 67.0361 59.4486 66.7477C59.8042 66.6146 60.0709 66.4815 60.2709 66.415C60.4932 66.3041 60.6043 66.2597 60.6043 66.2819Z" fill="white"/>
<path d="M52.7366 59.9611C52.7366 59.9611 52.6477 60.0054 52.4699 60.0498C52.2921 60.0942 52.0476 60.1607 51.7587 60.2051C51.1586 60.316 50.2918 60.4269 49.3361 60.4047C48.3804 60.4047 47.5358 60.2938 46.9357 60.1607C46.6246 60.0942 46.3801 60.0498 46.2245 59.9833C46.0467 59.9389 45.9578 59.9167 45.9578 59.8945C45.9578 59.8945 46.0467 59.8945 46.2245 59.9389C46.4023 59.9833 46.6468 60.0276 46.9357 60.072C47.5358 60.1829 48.3804 60.2716 49.3361 60.2716C50.2696 60.2716 51.1141 60.1829 51.7364 60.0942C52.0476 60.0498 52.2921 60.0054 52.4477 59.9833C52.6255 59.9611 52.7366 59.9389 52.7366 59.9611Z" fill="white"/>
<path d="M56.226 59.9828C56.226 60.0049 56.0704 60.0715 55.8259 60.1602C55.5592 60.2489 55.2036 60.3377 54.7813 60.3598C54.3591 60.382 53.9812 60.3598 53.7145 60.3155C53.4478 60.2711 53.2922 60.2267 53.2922 60.2046C53.2922 60.1602 53.959 60.3155 54.7813 60.2489C55.5815 60.1824 56.2038 59.9606 56.226 59.9828Z" fill="white"/>
<path d="M48.5137 40.9319C48.5137 40.9541 48.2025 40.9763 47.6913 41.065C47.1802 41.1537 46.4912 41.2868 45.7355 41.5308C44.9798 41.7748 44.3131 42.041 43.8463 42.2628C43.3796 42.4846 43.0907 42.6399 43.0907 42.6177C43.0907 42.6177 43.1573 42.5734 43.2685 42.4846C43.4018 42.4181 43.5796 42.3072 43.8019 42.1963C44.2686 41.9523 44.9354 41.6639 45.691 41.4421C46.4467 41.1981 47.1579 41.065 47.6691 40.9985C47.9358 40.9763 48.1359 40.9541 48.2914 40.9319C48.4248 40.9097 48.5137 40.9097 48.5137 40.9319Z" fill="white"/>
<path d="M50.0028 41.7976C50.025 41.7976 49.8917 42.3965 49.625 43.1063C49.3583 43.8161 49.0693 44.3485 49.0249 44.3485C49.0026 44.3263 49.2471 43.7718 49.5138 43.0841C49.7805 42.3743 49.9806 41.7976 50.0028 41.7976Z" fill="white"/>
<path d="M56.9816 43.4387C57.026 43.4387 56.8704 44.1929 56.7593 45.1023C56.6482 46.034 56.6482 46.7881 56.6037 46.7881C56.5815 46.7881 56.5815 46.5885 56.5815 46.3001C56.5815 45.9896 56.6037 45.5681 56.6482 45.1023C56.6926 44.6365 56.7815 44.2151 56.8482 43.9267C56.9149 43.6162 56.9593 43.4387 56.9816 43.4387Z" fill="white"/>
<path d="M59.6487 43.5042C59.6042 43.5042 59.4931 43.1271 59.2264 42.7057C58.9819 42.2842 58.693 41.9958 58.7152 41.9515C58.7374 41.9293 59.0708 42.1955 59.3375 42.6391C59.6042 43.0827 59.6709 43.5042 59.6487 43.5042Z" fill="white"/>
<path d="M43.9576 57.9218C44.091 57.1898 44.0687 56.4578 43.9354 55.7258C43.8465 55.3043 43.7798 54.8385 43.8243 54.4171C43.8909 53.9734 44.2688 53.5076 44.7133 53.5298L45.5134 56.6796L43.9576 57.9218Z" fill="#FFBE9D"/>
<path d="M43.9355 50.4687L46.7581 61.6038L52.27 61.0271L50.1586 49.9807C50.0919 49.6923 49.8474 49.4927 49.5363 49.4927L44.4911 49.7145C44.1133 49.7367 43.8466 50.0916 43.9355 50.4687Z" fill="#263238"/>
<path d="M50.2697 53.1095C50.2697 53.1095 50.2253 52.9986 50.1808 52.7768C50.1142 52.5328 50.0475 52.2444 49.9586 51.8674C49.8697 51.4903 49.7585 51.0245 49.6474 50.5365C49.6252 50.4699 49.6252 50.4034 49.603 50.359C49.5807 50.3146 49.5363 50.2481 49.4918 50.2259C49.4474 50.1816 49.3807 50.1594 49.3363 50.1594C49.2918 50.1372 49.2029 50.1594 49.1362 50.1594C48.8473 50.1594 48.5584 50.1816 48.2694 50.2037C47.0693 50.2481 45.9802 50.2925 45.2023 50.2925C44.8245 50.2925 44.5133 50.3146 44.2689 50.3146C44.0466 50.3146 43.9355 50.3146 43.9355 50.3146C43.9355 50.3146 44.0466 50.2925 44.2689 50.2703C44.5133 50.2481 44.8245 50.2481 45.2023 50.2259C45.9802 50.1816 47.0693 50.1372 48.2694 50.0928C48.5584 50.0928 48.8695 50.0706 49.1362 50.0706C49.2029 50.0706 49.2696 50.0485 49.3585 50.0706C49.4252 50.0928 49.5141 50.115 49.5585 50.1594C49.6252 50.2037 49.6696 50.2703 49.6919 50.3368C49.7141 50.4034 49.7363 50.4699 49.7363 50.5365C49.8475 51.0466 49.9364 51.4903 50.0253 51.8895C50.0919 52.2666 50.1586 52.555 50.2253 52.799C50.2697 52.9764 50.292 53.1095 50.2697 53.1095Z" fill="#455A64"/>
<path d="M47.2248 50.7787C47.1581 50.69 47.047 50.5569 46.8914 50.6235C46.8247 50.6235 46.7136 50.7344 46.7136 50.8453C46.7136 50.9562 46.7803 51.0671 46.8692 51.1114C46.9803 51.1558 47.0914 51.1558 47.1803 51.0671C47.247 51.0227 47.2692 50.8896 47.2248 50.7787Z" fill="#FAFAFA"/>
<path d="M47.2025 54.1728C47.0691 54.2172 44.2243 55.8365 44.2243 55.8365L42.7574 57.5001C42.7574 57.5001 42.2462 58.4539 42.7574 59.8957C43.2686 61.3375 44.0242 61.8033 45.7134 62.1582L48.8694 61.5149L51.0919 60.1397L50.4252 57.6332L48.2471 59.3855L47.0024 59.6073L46.8024 59.208L48.5805 58.1877L51.3809 55.8365L50.5141 54.8826L47.9359 56.5463L45.7356 57.6332L46.0467 56.7237L48.6027 54.6608C48.6027 54.6608 48.7805 53.707 47.2025 54.1728Z" fill="#FFBE9D"/>
<path d="M47.4248 52.6205C47.4248 52.6205 48.0249 52.2434 49.0472 52.6205C50.0696 52.9975 51.4031 53.5743 51.4031 53.5743L53.359 54.0401L53.1145 53.5743C53.1145 53.5743 51.2031 53.8404 51.2476 52.4652H52.4033L53.3812 51.9106L55.4037 53.7295L56.315 56.0142L57.5596 56.968L56.026 60.8498L52.8033 60.3174L50.0474 60.6058L48.6027 59.5411L48.3805 58.1215L46.958 56.7906C46.958 56.7906 46.758 56.1029 47.3803 56.0142C48.0026 55.9255 49.5806 57.3451 49.5806 57.3451L51.092 57.3229C51.092 57.3229 51.3365 57.0789 51.1142 56.9458C50.8919 56.8128 46.3357 54.8164 46.1135 54.3284C45.8912 53.8404 45.669 53.5299 46.1135 53.3746C46.558 53.2194 47.2914 53.4412 47.2914 53.4412C47.2914 53.4412 47.0914 52.7535 47.4248 52.6205Z" fill="#FFBE9D"/>
<path d="M51.2476 55.2158C51.2254 55.238 50.3141 54.8609 49.2251 54.3729C48.1138 53.885 47.2248 53.4635 47.247 53.4191C47.2692 53.397 48.1805 53.774 49.2695 54.262C50.3586 54.75 51.2476 55.1715 51.2476 55.2158Z" fill="#EB996E"/>
<path d="M52.2921 58.7201C52.2921 58.7201 52.2254 58.7645 52.0699 58.8088C51.9143 58.8532 51.7143 58.9197 51.4475 58.9863C51.1808 59.0528 50.8475 59.0972 50.4919 59.0972C50.114 59.0972 49.714 59.0085 49.3361 58.831C48.5582 58.4761 48.0248 57.8994 47.6692 57.4779C47.4914 57.2783 47.3581 57.1009 47.2692 56.9678C47.1803 56.8347 47.1358 56.7681 47.1358 56.7681C47.158 56.746 47.3803 57.0121 47.7359 57.4114C48.1137 57.8107 48.6471 58.3652 49.3806 58.7201C49.7584 58.8976 50.1362 58.9863 50.4919 58.9863C50.8475 58.9863 51.1808 58.9419 51.4475 58.8976C51.9587 58.8088 52.2921 58.7201 52.2921 58.7201Z" fill="#EB996E"/>
<path d="M57.5595 56.9467C57.5595 56.9467 57.5373 56.9245 57.4706 56.8801C57.4039 56.8358 57.3373 56.7692 57.2261 56.7027C57.0039 56.5474 56.6927 56.3034 56.2927 55.9929C56.0482 55.394 55.737 54.6398 55.3814 53.7082V53.7304C54.7813 53.198 54.0924 52.5991 53.3367 51.9337H53.3811C53.07 52.1111 52.7588 52.2886 52.4032 52.4882H52.381C52.0254 52.4882 51.6253 52.4882 51.2253 52.4882L51.2697 52.4438C51.2919 52.6435 51.2919 52.8431 51.4031 52.9984C51.5142 53.1536 51.6698 53.2867 51.8476 53.3755C52.2254 53.5307 52.6699 53.5529 53.0922 53.5086H53.1367L53.1589 53.5307C53.2256 53.6638 53.3145 53.8413 53.4034 53.9965L53.4478 54.1075L53.3367 54.0853C52.7144 53.93 52.0476 53.7747 51.3808 53.6195C50.7808 53.3533 50.1362 53.0871 49.4917 52.8431C49.1583 52.71 48.8249 52.5769 48.4915 52.5326C48.1581 52.4882 47.7803 52.5104 47.4692 52.6657C47.358 52.71 47.3358 52.8431 47.3358 52.9762C47.3358 53.1093 47.3803 53.2646 47.4247 53.3976L47.4469 53.5086L47.3358 53.4864C47.1135 53.4198 46.8913 53.3976 46.669 53.3755C46.4468 53.3755 46.2023 53.3755 46.0467 53.5086C45.9578 53.5751 45.9578 53.6638 45.98 53.7747C46.0023 53.8856 46.0689 53.9965 46.1134 54.0853C46.1801 54.1962 46.2023 54.3071 46.269 54.3736C46.3579 54.4402 46.4468 54.5289 46.5579 54.5733C47.3803 55.0834 48.247 55.4827 49.0916 55.9042C49.5139 56.1038 49.9362 56.3034 50.3585 56.5031C50.5585 56.5918 50.7808 56.7027 50.9808 56.7914L51.1364 56.858C51.1808 56.8801 51.2475 56.9245 51.2919 56.991C51.3364 57.0576 51.3142 57.1463 51.2919 57.1907C51.2697 57.2572 51.2253 57.3016 51.1808 57.346L51.1586 57.3681H51.1364C50.6252 57.3681 50.114 57.3903 49.625 57.3903H49.6028L49.5806 57.3681C49.1138 56.9467 48.6249 56.5474 48.0915 56.2591C47.8248 56.126 47.5358 55.9707 47.2914 56.0816C47.158 56.126 47.0691 56.2369 47.0469 56.37C47.0024 56.5031 47.0246 56.6361 47.0469 56.7692L47.0246 56.7471C47.5136 57.2129 48.0026 57.6565 48.4471 58.0779L48.4693 58.1001V58.1223C48.536 58.6103 48.6249 59.0761 48.6916 59.5419L48.6693 59.5197C49.1805 59.8968 49.6473 60.2517 50.114 60.5845H50.0918C51.1586 60.4735 52.0698 60.3848 52.8477 60.3183C53.8701 60.4957 54.6924 60.6288 55.2481 60.7175C55.5148 60.7619 55.7148 60.8063 55.8704 60.8284C55.9371 60.8506 55.9815 60.8506 56.026 60.8506C56.0704 60.8506 56.0704 60.8728 56.0704 60.8728C56.0704 60.8728 56.0482 60.8728 56.026 60.8728C55.9815 60.8728 55.9371 60.8506 55.8704 60.8506C55.7148 60.8285 55.5148 60.8063 55.2481 60.7619C54.6924 60.6732 53.8923 60.5401 52.8477 60.3848C52.0698 60.4735 51.1586 60.5623 50.0918 60.6732H50.0695H50.0473C49.6028 60.3405 49.1138 59.9856 48.6027 59.6085H48.5804V59.5863C48.5138 59.1205 48.4471 58.6547 48.3582 58.1667L48.3804 58.1889C47.9359 57.7674 47.4469 57.3238 46.958 56.858V56.8358C46.9135 56.6805 46.9135 56.5252 46.958 56.37C46.9802 56.3034 47.0246 56.2147 47.0691 56.1481C47.1358 56.0816 47.2024 56.0372 47.2691 56.0151C47.4247 55.9485 47.6025 55.9707 47.7359 56.0151C47.8914 56.0594 48.0248 56.126 48.1581 56.2147C48.6916 56.5252 49.1805 56.9023 49.6695 57.346L49.625 57.3238C50.114 57.3238 50.6252 57.3016 51.1364 57.3016L51.0919 57.3238C51.1586 57.2572 51.2253 57.1463 51.1808 57.0798C51.1586 57.0132 51.0252 56.991 50.9141 56.9245C50.7141 56.8358 50.4918 56.7249 50.2918 56.6361C49.8695 56.4365 49.4472 56.2369 49.0249 56.0372C48.1804 55.638 47.3136 55.2165 46.469 54.7064C46.3579 54.6398 46.269 54.5733 46.1801 54.4845C46.1356 54.4402 46.0912 54.3736 46.0689 54.3293L46.0023 54.174C45.9578 54.0631 45.8911 53.9522 45.8689 53.8413C45.8467 53.7747 45.8467 53.7082 45.8467 53.6416C45.8467 53.5751 45.9134 53.5086 45.9578 53.4642C46.1801 53.3089 46.4468 53.3089 46.669 53.3089C46.9135 53.3311 47.1358 53.3755 47.358 53.4198L47.2914 53.4864C47.2469 53.3311 47.2024 53.1758 47.2024 53.0206C47.2024 52.9318 47.2024 52.8653 47.2469 52.7766C47.2691 52.6878 47.3358 52.6213 47.4247 52.5991C47.7803 52.4217 48.1581 52.3995 48.5138 52.4438C48.8916 52.4882 49.225 52.6435 49.5361 52.7544C50.2029 52.9984 50.8252 53.2646 51.4475 53.5307C52.1365 53.686 52.8033 53.8635 53.4034 53.9965L53.3367 54.0631C53.2478 53.9078 53.1589 53.7304 53.0922 53.5973L53.1367 53.6195C52.6921 53.6638 52.2476 53.6416 51.8476 53.4642C51.6475 53.3755 51.4697 53.2424 51.3586 53.0427C51.2253 52.8653 51.2253 52.6435 51.203 52.4438V52.3995H51.2475C51.6475 52.3995 52.0476 52.3995 52.4032 52.3995H52.381C52.7144 52.1998 53.0477 52.0224 53.3589 51.8449L53.3811 51.8228L53.4034 51.8449C54.159 52.5104 54.8258 53.1315 55.4259 53.6638C55.7815 54.5733 56.0926 55.3496 56.3149 55.9485C56.715 56.2591 57.0261 56.5031 57.2484 56.6583C57.3595 56.747 57.4262 56.7914 57.4928 56.8358C57.5373 56.9245 57.5595 56.9467 57.5595 56.9467Z" fill="#EB996E"/>
</svg>
