<svg width="289" height="226" viewBox="0 0 289 226" fill="none" xmlns="http://www.w3.org/2000/svg">
<circle opacity="0.1" cx="145.5" cy="110.5" r="110.5" fill="#D81E05"/>
<path d="M62.4457 207.513C71.1327 200.407 72.2658 188.397 71.0697 177.833C70.8809 176.072 70.8809 174.185 69.9367 172.676C68.9295 171.167 66.8521 170.287 65.3414 171.167C64.0824 171.922 63.5788 173.494 62.9493 174.814C62.068 176.575 60.7461 178.084 59.0464 179.153C57.9763 179.845 56.5914 180.285 55.3954 179.782C53.7587 179.09 53.444 176.952 53.3181 175.192C53.0663 171.922 52.8145 168.652 52.5627 165.319C52.4368 163.558 52.3109 161.735 51.6184 160.163C50.926 158.528 49.5411 157.082 47.8415 156.767C46.0789 156.453 44.0645 157.585 43.8757 159.345C43.8127 160.1 44.0016 160.792 44.0016 161.546C44.0016 162.301 43.7498 163.118 43.0573 163.37C42.3649 163.621 41.6095 163.181 41.043 162.741C39.0286 161.106 37.6437 158.905 36.2588 156.767C34.8739 154.566 33.552 152.365 31.7265 150.542C29.9009 148.718 27.4459 147.398 24.865 147.461C22.2841 147.524 19.7032 149.284 19.2625 151.862C18.8219 154.378 20.5215 156.767 22.2841 158.654C24.9279 161.42 27.9495 163.873 31.2229 165.759C31.7894 166.137 32.4819 166.514 32.7337 167.143C33.2372 168.275 32.1671 169.532 31.034 170.035C29.7121 170.601 28.2643 170.538 26.8794 170.853C25.4945 171.104 24.0467 171.859 23.606 173.179C23.0395 175.066 24.6761 176.826 26.3128 177.895C29.5232 180.096 33.1113 181.794 36.8883 182.8C38.2102 183.178 39.6581 183.492 40.7912 184.309C41.9242 185.127 42.6796 186.636 42.176 187.957C41.6095 189.277 40.0358 189.78 38.6509 189.654C37.266 189.529 35.9441 188.9 34.6221 188.522C32.1042 187.831 28.9567 188.208 27.5089 190.472C26.5646 191.918 26.6276 193.867 27.32 195.439C27.9495 197.011 29.1455 198.332 30.4045 199.59C34.6851 203.803 40.0358 207.073 45.89 208.519C51.6814 209.902 56.9691 210.028 62.4457 207.513Z" fill="#B1B1B1"/>
<path d="M63.264 215.373C62.5086 211.223 61.1867 206.318 59.1723 201.099C57.158 195.88 54.4511 190.346 51.4296 184.624C50.6742 183.178 49.9188 181.794 49.1634 180.411C48.408 179.027 47.6526 177.644 46.8972 176.386C45.3235 173.808 43.5609 171.419 41.8613 169.218C40.1617 167.017 38.3991 165.005 36.8253 163.118C35.1887 161.232 33.6779 159.471 32.1671 157.962C29.2085 154.944 26.5646 152.743 24.6761 151.296C23.7319 150.605 22.9765 150.039 22.4729 149.724C22.2211 149.536 22.0323 149.41 21.9064 149.347C22.0323 149.473 22.2211 149.599 22.4729 149.787C22.9765 150.165 23.7319 150.668 24.6761 151.422C26.5646 152.868 29.2085 155.069 32.1042 158.088C33.552 159.597 35.1257 161.358 36.6995 163.244C38.3361 165.13 40.0358 167.143 41.7354 169.406C43.435 171.607 45.1976 173.997 46.7713 176.575C47.5897 177.895 48.2821 179.216 49.0375 180.599C49.7929 181.983 50.5483 183.366 51.3037 184.812C54.3252 190.535 57.0321 196.068 59.0464 201.225C61.0608 206.444 62.4457 211.286 63.2011 215.436" fill="#E0E0E0"/>
<path d="M46.7714 176.386C46.7714 176.386 46.8343 176.135 46.8973 175.632C46.9602 175.129 47.0232 174.437 47.0232 173.557C47.1491 171.796 47.212 169.344 47.275 166.64C47.3379 163.936 47.4638 161.483 47.5897 159.723C47.6526 158.842 47.7156 158.151 47.7785 157.648C47.8415 157.144 47.8415 156.893 47.8415 156.893C47.8415 156.893 47.7786 157.144 47.7156 157.648C47.6527 158.151 47.5268 158.842 47.4638 159.723C47.275 161.483 47.1491 163.936 47.0861 166.64C47.0232 169.344 46.9602 171.733 46.9602 173.557C46.9602 174.437 46.8973 175.129 46.8973 175.632C46.7714 176.072 46.7714 176.386 46.7714 176.386Z" fill="#E0E0E0"/>
<path d="M23.4801 173.997C23.4801 173.997 23.5431 173.997 23.7319 173.997C23.9207 173.997 24.1725 173.997 24.4243 173.997C24.9909 173.997 25.8722 173.997 26.9423 173.997C29.0826 174.06 31.9783 174.185 35.1887 174.563C38.3991 174.877 41.2947 175.317 43.435 175.695C44.5052 175.883 45.3235 176.072 45.89 176.135C46.1418 176.198 46.3936 176.198 46.5825 176.261C46.7084 176.261 46.8343 176.323 46.8343 176.261C46.8343 176.261 46.7713 176.198 46.5825 176.198C46.3936 176.135 46.2048 176.072 45.89 176.009C45.3235 175.883 44.5052 175.695 43.435 175.443C41.3577 175.003 38.462 174.563 35.1887 174.248C31.9783 173.934 29.0196 173.808 26.8794 173.808C25.8092 173.808 24.9279 173.808 24.3614 173.871C24.1096 173.871 23.8578 173.934 23.6689 173.934C23.5431 173.997 23.4801 173.997 23.4801 173.997Z" fill="#E0E0E0"/>
<path d="M58.8576 200.722C58.8576 200.722 58.9206 200.596 58.9835 200.407C59.0465 200.156 59.1724 199.904 59.2983 199.527C59.5501 198.772 59.9278 197.703 60.3684 196.383C61.2497 193.679 62.3828 189.969 63.5788 185.819C64.7748 181.668 65.845 177.895 66.6633 175.192C67.104 173.871 67.4187 172.802 67.6705 171.985C67.7964 171.607 67.8594 171.356 67.9223 171.104C67.9853 170.916 67.9853 170.79 67.9853 170.79C67.9853 170.79 67.9223 170.916 67.8594 171.104C67.7964 171.356 67.6705 171.607 67.5446 171.985C67.2928 172.739 66.9151 173.808 66.4745 175.129C65.5932 177.833 64.4601 181.543 63.2641 185.693C62.068 189.843 60.9979 193.616 60.1796 196.32C59.7389 197.64 59.4242 198.709 59.1724 199.527C59.0465 199.904 58.9835 200.156 58.9206 200.407C58.8576 200.596 58.7947 200.722 58.8576 200.722Z" fill="#E0E0E0"/>
<path d="M27.5089 193.49C27.5089 193.49 27.6348 193.553 27.8237 193.553C28.0755 193.616 28.3902 193.679 28.7049 193.742C29.5233 193.93 30.6564 194.182 32.0413 194.496C34.874 195.125 38.7768 196.068 43.0574 197.137C47.3379 198.206 51.3037 199.087 54.1364 199.715C55.5843 200.03 56.7174 200.281 57.5357 200.407C57.9134 200.47 58.2281 200.533 58.4799 200.596C58.6688 200.659 58.7947 200.659 58.7947 200.659C58.7947 200.659 58.6688 200.596 58.4799 200.596C58.2281 200.533 57.9134 200.47 57.5986 200.407C56.7803 200.218 55.6472 199.967 54.2623 199.653C51.4296 199.024 47.5268 198.08 43.2462 197.012C38.9657 195.943 34.9999 195.062 32.1672 194.433C30.7193 194.119 29.5862 193.867 28.7679 193.742C28.3902 193.679 28.0755 193.616 27.8237 193.553C27.6348 193.49 27.5089 193.49 27.5089 193.49Z" fill="#E0E0E0"/>
<path d="M277.606 150.227C277.606 150.227 274.648 147.335 268.919 154.629C263.191 161.923 260.673 166.262 260.673 166.262C260.673 166.262 259.225 167.771 258.281 166.388C257.337 165.068 256.329 161.546 254.252 161.735C252.049 161.923 250.916 164.061 250.664 167.52C250.412 170.978 249.468 178.524 249.405 179.216C249.342 179.908 248.775 180.788 247.957 179.971C247.139 179.153 243.047 172.236 239.9 174.374C236.752 176.512 237.508 186.259 237.571 187.328C237.633 188.397 237.382 188.774 236.815 188.963C236.312 189.088 235.116 186.636 233.857 184.75C232.598 182.8 230.835 180.788 229.072 182.234C227.373 183.618 225.547 190.472 229.891 202.985L232.283 208.645L238.452 209.525C251.734 210.594 257.903 207.135 258.784 205.123C259.729 203.111 257.274 201.853 255.133 201.162C252.93 200.407 250.286 199.904 250.286 199.401C250.286 198.835 250.601 198.458 251.671 198.269C252.741 198.08 262.373 196.383 263.632 192.798C264.89 189.214 257.148 186.95 256.204 186.384C255.196 185.819 255.952 185.064 256.581 184.812C257.211 184.561 264.324 181.794 267.597 180.662C270.871 179.53 272.696 177.895 272.319 175.757C271.941 173.682 268.353 173.619 266.842 173.054C265.331 172.488 266.401 170.727 266.401 170.727C266.401 170.727 269.989 167.206 275.655 159.848C281.257 152.428 277.606 150.29 277.606 150.29" fill="#B1B1B1"/>
<path d="M272.444 156.767C272.444 156.767 272.444 156.83 272.319 156.956C272.256 157.082 272.13 157.207 272.004 157.396C271.689 157.773 271.311 158.402 270.745 159.094C269.675 160.603 268.038 162.678 266.024 165.319C262.058 170.538 256.455 177.707 250.223 185.63C244.054 193.553 238.452 200.659 234.36 205.878C232.346 208.456 230.709 210.531 229.576 212.04C229.009 212.732 228.569 213.298 228.254 213.738C228.128 213.927 228.002 214.052 227.876 214.178C227.813 214.304 227.75 214.304 227.75 214.304C227.75 214.304 227.75 214.241 227.876 214.115C227.939 213.99 228.065 213.864 228.191 213.675C228.506 213.298 228.884 212.669 229.45 211.977C230.52 210.468 232.157 208.393 234.171 205.752C238.137 200.533 243.74 193.364 249.972 185.441C256.141 177.518 261.743 170.413 265.835 165.193C267.849 162.615 269.486 160.54 270.619 159.031C271.185 158.339 271.626 157.773 271.941 157.333C272.067 157.144 272.193 157.019 272.319 156.893C272.382 156.767 272.444 156.767 272.444 156.767Z" fill="#E0E0E0"/>
<path d="M255.385 166.64C255.448 166.64 255.511 167.268 255.637 168.275C255.7 169.281 255.826 170.727 255.889 172.299C255.952 173.808 255.952 175.192 256.015 176.323C256.015 177.33 256.078 177.958 256.015 177.958C255.952 177.958 255.889 177.33 255.763 176.323C255.7 175.317 255.637 173.871 255.574 172.299C255.511 170.79 255.448 169.469 255.448 168.275C255.322 167.331 255.322 166.64 255.385 166.64Z" fill="#E0E0E0"/>
<path d="M256.518 178.21C256.518 178.147 259.414 177.833 263.002 177.518C266.59 177.204 269.549 177.078 269.549 177.141C269.549 177.204 266.653 177.518 263.065 177.833C259.414 178.084 256.518 178.273 256.518 178.21Z" fill="#E0E0E0"/>
<path d="M246.069 190.346C246.069 190.283 246.698 190.409 247.768 190.598C248.775 190.786 250.223 191.038 251.797 191.289C253.371 191.541 254.819 191.729 255.826 191.855C256.833 191.981 257.525 192.107 257.525 192.107C257.525 192.17 256.896 192.17 255.826 192.044C254.756 191.981 253.308 191.792 251.734 191.541C250.16 191.289 248.713 190.975 247.705 190.723C246.635 190.535 246.006 190.346 246.069 190.346Z" fill="#E0E0E0"/>
<path d="M242.732 180.096C242.795 180.096 242.984 180.662 243.362 181.543C243.677 182.423 244.117 183.681 244.621 185.127C245.062 186.51 245.502 187.768 245.754 188.711C246.006 189.654 246.195 190.22 246.132 190.22C246.069 190.22 245.88 189.654 245.502 188.774C245.187 187.894 244.747 186.636 244.243 185.19C243.803 183.806 243.362 182.549 243.11 181.605C242.858 180.725 242.732 180.096 242.732 180.096Z" fill="#E0E0E0"/>
<path d="M232.157 189.654C232.22 189.654 232.472 190.346 232.912 191.541C233.353 192.673 233.919 194.308 234.549 196.068C235.178 197.829 235.745 199.464 236.123 200.659C236.5 201.853 236.689 202.545 236.689 202.608C236.626 202.608 236.374 201.916 235.934 200.722C235.493 199.527 234.927 197.955 234.297 196.194C233.668 194.433 233.101 192.798 232.723 191.604C232.346 190.409 232.094 189.654 232.157 189.654Z" fill="#E0E0E0"/>
<path d="M236.626 202.231C236.626 202.168 237.445 202.294 238.767 202.482C240.089 202.671 241.914 202.985 243.866 203.237C245.88 203.488 247.705 203.677 249.027 203.866C250.349 203.991 251.168 204.117 251.168 204.18C251.168 204.243 250.349 204.243 249.027 204.117C247.705 204.054 245.88 203.866 243.866 203.614C241.851 203.363 240.026 203.048 238.767 202.797C237.445 202.482 236.626 202.294 236.626 202.231Z" fill="#E0E0E0"/>
<path d="M89.2621 174.437L70.2515 155.384L79.8198 137.84C89.388 125.641 109.595 126.395 109.595 126.395C109.595 126.395 123.381 125.075 139.433 128.219C155.485 131.363 154.226 141.99 154.226 141.99L156.366 181.354L158.695 213.361L99.4599 214.556L89.2621 174.437Z" fill="#D81E05"/>
<path d="M121.177 212.732L68.1111 213.361C55.3324 213.487 46.8343 200.281 52.3109 188.774L75.0356 146.706L95.6829 160.666L81.5823 189.906L124.577 190.66L121.177 212.732Z" fill="#D81E05"/>
<path d="M152.337 135.576L194.891 201.287L170.026 202.922C170.026 202.922 155.17 179.53 155.548 180.033C156.177 180.914 152.337 135.576 152.337 135.576Z" fill="#D81E05"/>
<path d="M94.6128 164.439C94.6128 164.439 94.6128 164.313 94.6758 164.124C94.7387 163.873 94.8017 163.558 94.9276 163.181C95.1164 162.364 95.4312 161.169 95.6829 159.66C95.9977 158.151 96.3124 156.39 96.5013 154.378C96.6901 152.365 96.816 150.165 96.5013 147.901C96.1865 145.637 95.3053 143.562 94.2981 141.864C93.2909 140.166 92.1578 138.72 91.1506 137.588C90.1434 136.456 89.1992 135.639 88.5697 135.073C87.9402 134.507 87.5625 134.255 87.5625 134.193C87.5625 134.193 87.6884 134.255 87.8772 134.381C88.0661 134.507 88.3179 134.696 88.6326 134.947C89.3251 135.45 90.2693 136.268 91.2765 137.4C92.3466 138.469 93.4797 139.915 94.5499 141.676C95.557 143.436 96.4383 145.511 96.816 147.838C97.1308 150.165 97.0049 152.365 96.7531 154.378C96.5013 156.39 96.1865 158.151 95.8718 159.66C95.5571 161.169 95.2423 162.364 94.9905 163.181C94.8646 163.621 94.8017 163.936 94.6758 164.124C94.6758 164.313 94.6128 164.439 94.6128 164.439Z" fill="#263238"/>
<path d="M92.9131 166.702C92.9131 166.702 92.7872 167.08 92.5354 167.646C92.2836 168.275 91.9059 169.092 91.4023 170.161C90.4581 172.299 89.0732 175.254 87.4995 178.461C85.9257 181.668 84.4149 184.561 83.3448 186.636C82.7783 187.642 82.3376 188.522 82.0229 189.088C81.7081 189.654 81.5193 189.969 81.5193 189.969C81.5193 189.969 81.6452 189.654 81.9599 189.026C82.2747 188.397 82.7153 187.579 83.2189 186.573C84.2891 184.435 85.7369 181.543 87.3106 178.399C88.8843 175.192 90.2692 172.299 91.2764 170.161C91.78 169.155 92.1577 168.337 92.4725 167.646C92.7242 167.017 92.9131 166.702 92.9131 166.702Z" fill="#263238"/>
<path d="M121.177 212.732C121.177 212.732 121.177 212.669 121.177 212.606C121.177 212.543 121.177 212.418 121.177 212.292C121.177 211.977 121.24 211.6 121.303 211.034C121.429 209.902 121.618 208.33 121.807 206.318C122.247 202.231 122.94 196.508 123.695 189.78L123.821 189.969C119.037 189.969 113.749 189.969 108.147 189.969C97.4455 189.969 87.7513 189.906 80.701 189.906C77.2388 189.906 74.3431 189.843 72.3917 189.843C74.4061 189.843 77.2388 189.843 80.701 189.78C87.7513 189.78 97.4455 189.78 108.147 189.717C113.749 189.717 119.037 189.717 123.821 189.717H124.01V189.906C123.192 196.634 122.499 202.356 121.996 206.444C121.744 208.456 121.555 210.028 121.366 211.16C121.303 211.663 121.24 212.103 121.177 212.418C121.177 212.543 121.114 212.669 121.114 212.732C121.177 212.669 121.177 212.732 121.177 212.732Z" fill="#263238"/>
<path d="M81.96 190.346C81.8971 190.346 81.5823 189.843 80.8899 189.026C80.2604 188.208 79.2532 187.139 78.0572 186.133C76.8611 185.127 75.6022 184.309 74.7209 183.806C73.8396 183.303 73.2101 183.052 73.2101 182.989C73.2101 182.926 73.8396 183.115 74.7838 183.618C75.7281 184.058 76.987 184.812 78.246 185.881C79.505 186.95 80.4492 188.019 81.0787 188.9C81.7082 189.717 81.96 190.346 81.96 190.346Z" fill="#263238"/>
<path d="M157.247 194.496C157.247 194.496 157.184 194.308 157.184 193.93C157.121 193.553 157.058 193.05 156.995 192.358C156.869 190.975 156.681 189.026 156.429 186.573C155.988 181.731 155.485 174.94 155.044 167.52C154.603 160.1 154.289 153.309 154.1 148.404C154.037 145.951 153.974 144.002 153.911 142.619C153.911 141.927 153.911 141.424 153.911 141.047C153.911 140.669 153.911 140.481 153.911 140.481C153.911 140.481 153.911 140.669 153.974 141.047C153.974 141.424 154.037 141.99 154.037 142.619C154.1 144.002 154.226 146.014 154.289 148.404C154.54 153.309 154.855 160.037 155.296 167.457C155.736 174.877 156.177 181.668 156.555 186.51C156.744 188.9 156.869 190.912 156.995 192.295C157.058 192.924 157.058 193.49 157.121 193.867C157.247 194.308 157.247 194.496 157.247 194.496Z" fill="#263238"/>
<path d="M109.846 158.779C109.846 158.779 109.846 158.465 109.909 157.899C109.972 157.27 110.098 156.516 110.224 155.51C110.476 153.434 110.854 150.605 111.294 147.272L111.546 147.398C110.287 148.278 108.902 149.221 107.454 150.227C106.007 151.234 104.622 152.24 103.3 153.12L102.985 153.309L103.048 152.931C103.552 149.662 103.992 146.832 104.307 144.82C104.496 143.876 104.622 143.059 104.685 142.493C104.811 141.927 104.811 141.676 104.873 141.676C104.873 141.676 104.873 141.99 104.811 142.556C104.748 143.122 104.622 143.939 104.496 144.945C104.181 147.02 103.803 149.85 103.363 153.12L103.111 152.994C104.37 152.114 105.818 151.108 107.266 150.102C108.713 149.096 110.098 148.152 111.357 147.272L111.672 147.083L111.609 147.461C111.105 150.731 110.728 153.56 110.413 155.635C110.287 156.641 110.161 157.396 110.035 158.025C109.909 158.465 109.909 158.779 109.846 158.779Z" fill="#E0E0E0"/>
<path d="M133.578 161.295C133.578 161.295 133.327 161.106 132.949 160.666C132.508 160.226 132.005 159.66 131.312 158.905C129.864 157.396 127.913 155.258 125.71 152.806L125.962 152.743C125.836 154.315 125.71 155.95 125.521 157.71C125.395 159.471 125.206 161.169 125.08 162.741V163.118L124.828 162.867C122.625 160.414 120.737 158.276 119.352 156.704C118.722 155.95 118.156 155.384 117.778 154.881C117.4 154.441 117.212 154.252 117.275 154.189C117.275 154.189 117.526 154.378 117.904 154.818C118.345 155.258 118.848 155.824 119.541 156.579C120.926 158.088 122.877 160.226 125.08 162.678L124.828 162.741C124.954 161.169 125.08 159.471 125.269 157.71C125.395 155.95 125.584 154.315 125.71 152.743V152.365L125.962 152.617C128.165 155.069 130.116 157.207 131.501 158.779C132.131 159.534 132.697 160.1 133.075 160.603C133.39 161.043 133.578 161.295 133.578 161.295Z" fill="#E0E0E0"/>
<path d="M145.476 160.477C145.476 160.477 145.35 160.729 145.035 161.232C144.72 161.735 144.28 162.427 143.776 163.244C142.643 165.005 141.069 167.394 139.307 170.224L139.181 169.972C140.692 169.721 142.391 169.406 144.091 169.155C145.853 168.84 147.49 168.589 149.064 168.337L149.442 168.275L149.253 168.589C147.427 171.356 145.791 173.682 144.657 175.443C144.091 176.261 143.65 176.889 143.335 177.392C143.021 177.833 142.832 178.084 142.832 178.084C142.832 178.084 142.958 177.833 143.273 177.329C143.587 176.826 144.028 176.135 144.532 175.317C145.665 173.557 147.238 171.167 149.001 168.4L149.127 168.652C147.553 168.903 145.916 169.218 144.154 169.532C142.454 169.847 140.755 170.098 139.244 170.35L138.866 170.413L139.055 170.098C140.88 167.331 142.454 164.942 143.65 163.181C144.217 162.364 144.657 161.672 144.972 161.232C145.287 160.666 145.476 160.477 145.476 160.477Z" fill="#E0E0E0"/>
<path d="M129.613 172.676C129.613 172.676 129.487 172.928 129.172 173.431C128.857 173.934 128.417 174.626 127.913 175.443C126.78 177.204 125.206 179.593 123.444 182.423L123.318 182.171C124.828 181.92 126.528 181.605 128.228 181.354C129.99 181.04 131.627 180.788 133.201 180.536L133.578 180.474L133.39 180.788C131.564 183.555 129.927 185.881 128.794 187.642C128.228 188.46 127.787 189.088 127.472 189.591C127.158 190.032 126.969 190.283 126.969 190.283C126.969 190.283 127.095 190.032 127.409 189.529C127.724 189.026 128.165 188.334 128.668 187.516C129.801 185.756 131.375 183.366 133.138 180.599L133.264 180.851C131.69 181.102 130.053 181.417 128.291 181.731C126.591 182.046 124.891 182.297 123.381 182.549L123.003 182.612L123.192 182.297C125.017 179.53 126.591 177.141 127.787 175.38C128.354 174.563 128.794 173.871 129.109 173.431C129.424 172.865 129.613 172.613 129.613 172.676Z" fill="#E0E0E0"/>
<path d="M163.857 160.289C163.857 160.289 163.731 160.54 163.416 161.043C163.102 161.546 162.661 162.238 162.157 163.055C161.024 164.816 159.451 167.206 157.688 170.035L157.562 169.784C159.073 169.532 160.772 169.218 162.472 168.966C164.235 168.652 165.871 168.4 167.445 168.149L167.823 168.086L167.634 168.4C165.808 171.167 164.172 173.494 163.039 175.254C162.472 176.072 162.031 176.701 161.717 177.204C161.402 177.644 161.213 177.895 161.213 177.895C161.213 177.895 161.339 177.644 161.654 177.141C161.968 176.638 162.409 175.946 162.913 175.129C164.046 173.368 165.62 170.978 167.382 168.212L167.508 168.463C165.934 168.715 164.298 169.029 162.535 169.344C160.835 169.658 159.136 169.909 157.625 170.161L157.247 170.224L157.436 169.909C159.262 167.143 160.835 164.753 162.031 162.992C162.598 162.175 163.039 161.483 163.353 161.043C163.668 160.54 163.857 160.289 163.857 160.289Z" fill="#E0E0E0"/>
<path d="M83.6596 150.227C83.6596 150.227 83.5337 150.479 83.2189 150.982C82.9042 151.485 82.4636 152.177 81.96 152.994C80.8269 154.755 79.2531 157.144 77.4906 159.974L77.3647 159.723C78.8755 159.471 80.5751 159.157 82.2747 158.905C84.0373 158.591 85.674 158.339 87.2477 158.088L87.6254 158.025L87.4365 158.339C85.611 161.106 83.9743 163.433 82.8413 165.193C82.2747 166.011 81.8341 166.64 81.5193 167.143C81.2046 167.583 81.0157 167.834 81.0157 167.834C81.0157 167.834 81.1416 167.583 81.4564 167.08C81.7711 166.577 82.2118 165.885 82.7154 165.068C83.8484 163.307 85.4222 160.917 87.1848 158.151L87.3106 158.402C85.7369 158.654 84.1002 158.968 82.3377 159.282C80.638 159.597 78.9384 159.848 77.4276 160.1L77.0499 160.163L77.2388 159.848C79.0643 157.082 80.638 154.692 81.8341 152.931C82.4006 152.114 82.8413 151.422 83.156 150.982C83.4708 150.479 83.6596 150.227 83.6596 150.227Z" fill="#E0E0E0"/>
<path d="M58.7947 197.263C58.7947 197.263 58.9835 197.452 59.3612 197.892C59.7389 198.332 60.2425 198.961 60.872 199.715C62.1939 201.35 64.0194 203.551 66.0968 206.129L65.845 206.192C66.0968 204.683 66.2856 202.985 66.5374 201.287C66.7892 199.527 67.041 197.829 67.2928 196.32L67.3558 195.943L67.6075 196.257C69.6219 198.835 71.3845 201.099 72.7064 202.734C73.273 203.488 73.7766 204.18 74.1543 204.62C74.469 205.06 74.6579 205.312 74.6579 205.312C74.6579 205.312 74.469 205.123 74.0913 204.683C73.7136 204.243 73.21 203.614 72.5805 202.86C71.2586 201.225 69.496 199.024 67.4187 196.446L67.6705 196.383C67.4187 197.955 67.1669 199.59 66.9151 201.35C66.6633 203.048 66.4115 204.746 66.1597 206.255L66.0968 206.632L65.845 206.381C63.7676 203.803 62.0051 201.539 60.6831 199.904C60.0536 199.149 59.613 198.458 59.2353 198.018C58.9206 197.515 58.7317 197.263 58.7947 197.263Z" fill="#E0E0E0"/>
<path d="M115.575 166.828C115.575 166.828 115.26 166.891 114.694 166.954C114.064 167.017 113.309 167.08 112.301 167.143C110.224 167.268 107.328 167.52 104.055 167.771L104.181 167.52C105.314 168.589 106.51 169.721 107.832 170.916C109.091 172.11 110.35 173.305 111.483 174.374L111.735 174.626H111.357C108.084 174.814 105.188 174.94 103.111 175.066C102.104 175.129 101.348 175.129 100.719 175.192C100.152 175.192 99.8375 175.192 99.8375 175.192C99.8375 175.192 100.152 175.129 100.719 175.066C101.348 175.003 102.104 174.94 103.111 174.877C105.188 174.751 108.021 174.563 111.357 174.311L111.231 174.563C110.098 173.494 108.839 172.299 107.58 171.104C106.321 169.909 105.062 168.778 103.992 167.709L103.74 167.457H104.118C107.454 167.268 110.287 167.08 112.364 166.954C113.372 166.891 114.127 166.891 114.756 166.828C115.323 166.765 115.575 166.765 115.575 166.828Z" fill="#E0E0E0"/>
<path d="M101.663 198.521C101.663 198.521 101.915 198.709 102.23 199.149C102.607 199.59 103.174 200.218 103.803 200.973C105.188 202.545 107.014 204.746 109.154 207.324L108.902 207.387C109.091 205.878 109.28 204.18 109.532 202.482C109.784 200.722 109.972 199.024 110.161 197.452L110.224 197.074L110.476 197.326C112.553 199.904 114.379 202.105 115.701 203.74C116.33 204.494 116.834 205.123 117.212 205.626C117.526 206.066 117.715 206.318 117.715 206.318C117.715 206.318 117.526 206.129 117.149 205.689C116.771 205.249 116.267 204.62 115.575 203.866C114.253 202.294 112.427 200.093 110.287 197.577L110.539 197.515C110.35 199.087 110.098 200.784 109.909 202.545C109.658 204.243 109.469 205.941 109.28 207.45L109.217 207.827L108.965 207.576C106.825 204.997 104.999 202.797 103.677 201.162C103.048 200.407 102.544 199.778 102.167 199.275C101.852 198.772 101.663 198.521 101.663 198.521Z" fill="#E0E0E0"/>
<path d="M76.7352 175.254C76.7352 175.254 76.4205 175.317 75.8539 175.38C75.2245 175.443 74.4691 175.506 73.4619 175.569C71.3845 175.695 68.4889 175.946 65.2155 176.198L65.3414 175.946C66.4745 177.015 67.6705 178.147 68.9925 179.342C70.2515 180.536 71.5104 181.731 72.6435 182.8L72.8953 183.052H72.5176C69.2443 183.24 66.3486 183.366 64.2713 183.492C63.2641 183.555 62.5087 183.555 61.8792 183.618C61.3127 183.618 60.9979 183.618 60.9979 183.618C60.9979 183.618 61.3127 183.555 61.8792 183.492C62.5087 183.429 63.2641 183.366 64.2713 183.303C66.3486 183.178 69.1813 182.989 72.5176 182.737L72.3917 182.989C71.2587 181.92 69.9997 180.725 68.7407 179.53C67.4817 178.336 66.2227 177.204 65.1526 176.135L64.9008 175.883H65.2785C68.6148 175.695 71.4475 175.506 73.5248 175.38C74.532 175.317 75.2874 175.317 75.9169 175.254C76.4205 175.254 76.7352 175.254 76.7352 175.254Z" fill="#E0E0E0"/>
<path d="M98.1379 197.766C98.1379 197.766 97.8232 197.829 97.2567 197.892C96.6272 197.955 95.8718 198.018 94.8646 198.08C92.7873 198.206 89.8916 198.458 86.6182 198.709L86.7441 198.458C87.8772 199.527 89.0733 200.659 90.3952 201.853C91.6542 203.048 92.9132 204.243 94.0462 205.312L94.298 205.563H93.9203C90.647 205.752 87.7513 205.878 85.674 206.004C84.6668 206.066 83.9114 206.066 83.2819 206.129C82.7154 206.129 82.4006 206.129 82.4006 206.129C82.4006 206.129 82.7154 206.066 83.2819 206.004C83.9114 205.941 84.6668 205.878 85.674 205.815C87.7513 205.689 90.584 205.501 93.9203 205.249L93.7945 205.501C92.6614 204.432 91.4024 203.237 90.1434 202.042C88.8844 200.847 87.6254 199.715 86.5553 198.646L86.3035 198.395H86.6812C90.0175 198.206 92.8502 198.018 94.9275 197.892C95.9347 197.829 96.6901 197.829 97.3196 197.766C97.8232 197.766 98.1379 197.766 98.1379 197.766Z" fill="#E0E0E0"/>
<path d="M146.483 140.481C146.483 140.481 146.168 140.544 145.602 140.607C144.972 140.669 144.217 140.732 143.21 140.795C141.132 140.921 138.237 141.172 134.963 141.424L135.089 141.172C136.222 142.241 137.418 143.373 138.74 144.568C139.999 145.763 141.258 146.958 142.391 148.027L142.643 148.278H142.265C138.992 148.467 136.096 148.593 134.019 148.718C133.012 148.781 132.256 148.781 131.627 148.844C131.06 148.844 130.746 148.844 130.746 148.844C130.746 148.844 131.06 148.781 131.627 148.718C132.256 148.655 133.012 148.593 134.019 148.53C136.096 148.404 138.929 148.215 142.265 147.964L142.139 148.215C141.006 147.146 139.747 145.952 138.488 144.757C137.229 143.562 135.97 142.43 134.9 141.361L134.648 141.11H135.026C138.362 140.921 141.195 140.732 143.273 140.607C144.28 140.544 145.035 140.544 145.665 140.481C146.168 140.418 146.483 140.418 146.483 140.481Z" fill="#E0E0E0"/>
<path d="M123.003 197.766C123.003 197.766 133.578 194.748 137.104 193.805C138.488 193.427 144.343 196.508 148.371 199.087C148.371 199.087 153.911 202.356 153.47 203.425C152.967 204.557 150.952 204.306 147.679 202.797C147.679 202.797 148.812 206.129 146.609 206.066C146.609 206.066 147.742 209.651 145.602 210.028C143.524 210.405 143.021 205.815 141.132 205.563C139.307 205.312 135.467 205.06 135.467 205.06C135.467 205.06 132.256 210.342 129.801 210.72C127.346 211.097 121.618 210.405 121.618 210.405L123.003 197.766Z" fill="#FFBE9D"/>
<path d="M141.069 198.521C141.132 198.458 142.454 199.212 144.028 200.218C145.602 201.225 146.861 202.105 146.798 202.168C146.735 202.231 145.413 201.476 143.839 200.47C142.265 199.464 141.006 198.584 141.069 198.521Z" fill="#EB996E"/>
<path d="M140.44 200.533C140.503 200.47 142.077 201.099 143.965 201.979C145.854 202.86 147.364 203.614 147.364 203.74C147.301 203.803 145.728 203.174 143.839 202.294C141.888 201.413 140.377 200.596 140.44 200.533Z" fill="#EB996E"/>
<path d="M141.573 205.501C141.573 205.438 142.643 205.501 143.965 205.689C145.287 205.878 146.294 206.066 146.294 206.192C146.294 206.255 145.224 206.192 143.902 206.004C142.58 205.752 141.573 205.563 141.573 205.501Z" fill="#EB996E"/>
<path d="M109.217 88.6662C109.469 89.4837 109.154 90.4269 108.524 90.9928C107.895 91.5588 106.888 91.6216 106.132 91.2443C104.685 90.4898 104.496 88.5404 104.81 86.9684C105.125 85.3963 105.629 83.6985 104.936 82.2522C104.433 81.1204 103.3 80.4287 102.481 79.5483C100.971 78.0392 100.215 75.7754 100.53 73.6374C100.908 71.4995 102.481 69.613 104.559 69.0471C106.636 68.4811 109.28 69.11 110.854 67.6008C111.987 66.4689 112.05 64.7082 112.931 63.3877C114.316 61.3126 117.211 60.9982 119.604 61.3755C122.059 61.6899 124.514 62.5074 126.906 61.8785C128.92 61.3755 130.557 59.9921 132.382 59.1117C136.411 57.2882 141.636 58.2314 144.72 61.5013C147.805 64.7082 148.497 69.9274 146.483 73.889C145.728 75.3352 144.594 76.5929 143.147 77.2217" fill="#263238"/>
<path d="M121.366 140.607C128.102 140.607 133.578 135.073 133.515 128.345L133.327 116.774C133.327 116.774 143.021 115.831 143.713 106.21C144.343 96.5893 143.902 74.392 143.902 74.392C133.012 68.9842 120.044 69.9274 110.035 76.7815L108.525 77.7876L109.28 128.659C109.28 135.262 114.694 140.607 121.366 140.607Z" fill="#FFBE9D"/>
<path d="M141.321 91.7474C139.621 91.433 139.621 89.2321 141.321 88.8548C141.384 88.8548 141.51 88.8548 141.573 88.8548C143.273 89.1692 143.273 91.3701 141.573 91.7474C141.447 91.7474 141.384 91.7474 141.321 91.7474Z" fill="#263238"/>
<path d="M143.21 88.6662C143.021 88.8548 142.139 88.0374 140.818 87.9745C139.496 87.8487 138.488 88.5404 138.363 88.3518C138.3 88.2889 138.488 87.9745 138.929 87.6601C139.37 87.3457 140.062 87.0941 140.88 87.157C141.699 87.2199 142.391 87.5972 142.769 87.9116C143.147 88.2889 143.273 88.6033 143.21 88.6662Z" fill="#263238"/>
<path d="M127.85 88.9806C128.479 89.4208 128.668 90.3011 128.228 90.9299C127.787 91.5587 126.906 91.7474 126.276 91.3072C125.647 90.867 125.458 89.9867 125.898 89.3579C126.339 88.7291 127.22 88.5404 127.85 88.9806Z" fill="#263238"/>
<path d="M128.731 89.0435C128.542 89.2321 127.661 88.4147 126.339 88.3518C125.017 88.226 124.01 88.9177 123.884 88.7291C123.821 88.6662 124.01 88.3518 124.451 88.0374C124.891 87.723 125.584 87.4714 126.402 87.5343C127.22 87.5972 127.913 87.9745 128.291 88.2889C128.668 88.6662 128.794 88.9806 128.731 89.0435Z" fill="#263238"/>
<path d="M133.453 100.299C133.453 100.174 134.271 100.048 135.593 99.9849C135.97 99.9849 136.222 99.922 136.285 99.7334C136.348 99.5447 136.222 99.1674 136.096 98.7273C135.782 97.8469 135.53 96.9037 135.215 95.9605C133.956 92.0618 133.138 88.792 133.327 88.7291C133.515 88.6662 134.711 91.8103 135.908 95.7089C136.222 96.6522 136.474 97.5954 136.726 98.4757C136.852 98.853 137.041 99.3561 136.852 99.922C136.726 100.174 136.474 100.425 136.222 100.425C135.97 100.488 135.782 100.488 135.656 100.488C134.271 100.488 133.453 100.362 133.453 100.299Z" fill="#263238"/>
<path d="M129.046 101.494C130.746 102.312 132.76 103.255 135.467 103.758C135.467 103.758 133.767 106.147 131.06 104.953C128.228 103.758 129.046 101.494 129.046 101.494Z" fill="white"/>
<path d="M133.327 116.586C133.327 116.586 127.22 116.774 120.926 112.31C120.926 112.31 123.506 119.415 133.201 119.038L133.327 116.586Z" fill="#EB996E"/>
<path d="M143.902 76.7815C143.902 76.7815 138.111 79.737 130.368 76.0898C125.332 73.7003 119.415 72.5684 118.156 73.6374C116.897 74.6435 116.708 79.8627 111.798 81.4348C111.798 81.4348 112.302 91.3072 108.399 90.9928C104.433 90.7413 106.636 75.3981 106.636 75.3981L116.141 70.4934L126.591 68.2925L136.537 69.4872L144.217 71.4366L143.902 76.7815Z" fill="#263238"/>
<path d="M109.091 87.7858C108.902 87.723 102.544 85.4592 102.418 92.0618C102.293 98.6644 108.902 97.4696 108.965 97.281C108.965 97.0295 109.091 87.7858 109.091 87.7858Z" fill="#FFBE9D"/>
<path d="M107.014 94.7028C107.014 94.7028 106.888 94.7657 106.699 94.8915C106.51 94.9544 106.195 95.0173 105.818 94.8915C105.125 94.64 104.559 93.5081 104.559 92.3133C104.559 91.6845 104.685 91.1186 104.936 90.6784C105.125 90.1754 105.44 89.8609 105.818 89.7981C106.195 89.7352 106.384 89.9238 106.51 90.1125C106.573 90.3011 106.573 90.4269 106.573 90.4269C106.573 90.4269 106.699 90.3011 106.699 90.0496C106.699 89.9238 106.573 89.7352 106.447 89.6094C106.321 89.4837 106.07 89.4208 105.818 89.4208C105.314 89.4208 104.811 89.9238 104.622 90.4269C104.37 90.9299 104.181 91.5587 104.181 92.2504C104.181 93.571 104.873 94.8286 105.818 95.143C106.258 95.2688 106.699 95.143 106.888 95.0172C107.014 94.8286 107.014 94.7028 107.014 94.7028Z" fill="#EB996E"/>
<path d="M105.755 67.1606C105.692 67.0977 106.825 66.7833 108.021 67.2235C109.28 67.6637 109.909 68.6069 109.783 68.6698C109.721 68.7327 109.028 67.9781 107.895 67.5379C106.762 67.0977 105.755 67.2235 105.755 67.1606Z" fill="#263238"/>
<path d="M109.721 63.1991C109.846 63.1991 109.658 64.5825 109.909 66.2174C110.161 67.8523 110.917 69.0471 110.854 69.11C110.854 69.11 110.602 68.8584 110.287 68.3554C110.035 67.8523 109.721 67.0977 109.595 66.2803C109.343 64.5196 109.658 63.1362 109.721 63.1991Z" fill="#263238"/>
<path d="M136.852 85.5221C136.789 85.4592 137.103 85.2077 137.607 85.019C138.111 84.8304 138.929 84.6418 139.81 84.6418C140.692 84.6418 141.51 84.8304 142.013 85.0819C142.517 85.3335 142.832 85.5221 142.769 85.6479C142.706 85.8365 141.447 85.3335 139.81 85.3335C138.237 85.2077 136.915 85.7107 136.852 85.5221Z" fill="#263238"/>
<path d="M122.122 84.1387C122.059 84.0758 122.373 83.8243 122.877 83.6356C123.38 83.447 124.199 83.2584 125.08 83.2584C125.961 83.2584 126.78 83.447 127.283 83.6985C127.787 83.9501 128.102 84.1387 128.039 84.2645C127.976 84.4531 126.717 83.9501 125.08 83.9501C123.506 83.8243 122.184 84.3273 122.122 84.1387Z" fill="#263238"/>
<path d="M135.719 86.5282C135.719 86.5282 135.719 86.654 135.719 86.9055C135.719 87.157 135.719 87.5343 135.782 87.9745C135.782 88.4147 135.782 88.9806 135.845 89.6094C135.845 90.2382 135.907 90.9928 136.159 91.7474C136.411 92.502 136.852 93.2566 137.544 93.9483C138.237 94.5771 139.118 95.143 140.125 95.3945C140.629 95.5203 141.195 95.5832 141.762 95.5203C142.328 95.5203 142.895 95.3945 143.398 95.143C144.469 94.7657 145.476 93.9483 146.105 92.9421C146.735 91.936 147.049 90.8042 146.987 89.7352C146.987 88.6033 146.987 87.5343 146.987 86.4653L147.112 86.5911C143.839 86.5911 141.006 86.5282 138.929 86.5282C137.922 86.5282 137.166 86.5282 136.537 86.4653C136.285 86.4653 136.096 86.4653 135.907 86.4653C135.782 86.5282 135.719 86.5282 135.719 86.5282C135.719 86.5282 135.97 86.5282 136.537 86.4653C137.104 86.4653 137.922 86.4653 138.866 86.4024C140.943 86.4024 143.776 86.3396 147.112 86.3396H147.238V86.4653C147.238 87.4714 147.238 88.6033 147.238 89.7352C147.301 90.867 146.987 92.1247 146.294 93.1308C145.602 94.1998 144.532 95.0172 143.398 95.4574C142.832 95.6461 142.265 95.7718 141.636 95.8347C141.069 95.8976 140.503 95.8347 139.936 95.6461C138.866 95.3945 137.922 94.8286 137.229 94.1369C136.537 93.4452 136.096 92.6277 135.782 91.8103C135.53 90.9928 135.467 90.2382 135.53 89.6094C135.53 88.9806 135.53 88.4147 135.593 87.9116C135.593 87.4714 135.593 87.157 135.656 86.8426C135.719 86.654 135.719 86.5282 135.719 86.5282Z" fill="#263238"/>
<path d="M120.296 86.2138C120.296 86.2138 120.296 86.3396 120.296 86.5911C120.296 86.8426 120.296 87.2199 120.359 87.6601C120.359 88.1003 120.359 88.6662 120.422 89.295C120.422 89.9238 120.485 90.6784 120.737 91.433C120.988 92.1876 121.429 92.9422 122.122 93.6339C122.814 94.2627 123.695 94.8286 124.702 95.0801C125.206 95.2059 125.773 95.2688 126.339 95.2059C126.906 95.2059 127.472 95.0801 127.976 94.8286C129.046 94.4513 130.053 93.6338 130.683 92.6277C131.312 91.6216 131.627 90.4898 131.564 89.4208C131.564 88.2889 131.564 87.2199 131.564 86.1509L131.69 86.2767C128.416 86.2767 125.584 86.2138 123.506 86.2138C122.499 86.2138 121.744 86.2138 121.114 86.1509C120.863 86.1509 120.674 86.1509 120.485 86.1509C120.359 86.2138 120.296 86.2138 120.296 86.2138C120.296 86.2138 120.548 86.2138 121.114 86.1509C121.681 86.1509 122.499 86.1509 123.443 86.088C125.521 86.088 128.354 86.0252 131.69 86.0252H131.816V86.1509C131.816 87.157 131.816 88.2889 131.816 89.4208C131.879 90.5526 131.564 91.8103 130.871 92.8164C130.179 93.8854 129.109 94.7028 127.976 95.143C127.409 95.3317 126.843 95.4574 126.213 95.5203C125.647 95.5832 125.08 95.5203 124.514 95.3317C123.443 95.0801 122.499 94.5142 121.807 93.8225C121.114 93.1308 120.674 92.3133 120.359 91.4959C120.107 90.6784 120.044 89.9238 120.107 89.295C120.107 88.6662 120.107 88.1003 120.17 87.5972C120.17 87.157 120.17 86.8426 120.233 86.5282C120.296 86.3396 120.296 86.2138 120.296 86.2138Z" fill="#263238"/>
<path d="M135.844 87.0313C135.844 87.0941 134.9 87.2199 133.641 87.2199C132.445 87.2199 131.438 87.157 131.438 87.0313C131.438 86.9684 132.382 86.8426 133.641 86.8426C134.9 86.8426 135.844 86.9055 135.844 87.0313Z" fill="#263238"/>
<path d="M108.273 87.0941C108.273 87.0313 110.98 86.9055 114.316 86.9055C117.652 86.9055 120.359 86.9684 120.359 87.0313C120.359 87.0941 117.652 87.2199 114.316 87.2199C110.917 87.2199 108.273 87.157 108.273 87.0941Z" fill="#263238"/>
<path d="M175.817 160.477L154.918 212.103H117.274V214.43H229.513L252.426 160.477H175.817Z" fill="#263238"/>
<path d="M207.795 190.912C207.04 193.49 204.837 195.125 202.885 194.559C200.934 193.993 199.927 191.415 200.682 188.837C201.438 186.259 203.641 184.624 205.592 185.19C207.544 185.756 208.551 188.334 207.795 190.912Z" fill="#FAFAFA"/>
<line x1="33.5" y1="214.5" x2="264.5" y2="214.5" stroke="#3F3F3F" stroke-linecap="round"/>
</svg>
