<svg width="232" height="221" viewBox="0 0 232 221" fill="none" xmlns="http://www.w3.org/2000/svg">
<circle opacity="0.1" cx="116.5" cy="110.5" r="110.5" fill="#D81E05"/>
<line x1="0.5" y1="214.5" x2="231.5" y2="214.5" stroke="#3F3F3F" stroke-linecap="round"/>
<path d="M57.5497 95.4314C58.9502 104.36 52.8664 112.72 43.9377 114.121C35.0089 115.521 26.6492 109.437 25.2486 100.509C23.848 91.5798 29.9318 83.22 38.8606 81.8194C47.7455 80.4189 56.1491 86.5027 57.5497 95.4314Z" fill="#737373"/>
<g opacity="0.1">
<path d="M38.8168 81.8194C29.888 83.22 23.8042 91.5798 25.2048 100.509C25.2048 100.509 36.6283 99.2393 38.6417 94.2059C40.655 89.2601 38.8168 81.8194 38.8168 81.8194Z" fill="#B1B1B1"/>
</g>
<path d="M53.3479 95.8253C54.3983 102.609 49.7589 109 42.9748 110.05C36.1907 111.1 29.8005 106.461 28.75 99.6769C27.6996 92.8928 32.3391 86.5027 39.1232 85.4522C45.951 84.4018 52.2974 89.0412 53.3479 95.8253Z" fill="#E0E0E0"/>
<path d="M53.7856 96.3068C54.836 103.003 50.2841 109.306 43.5875 110.356C36.891 111.407 30.5883 106.855 29.5379 100.158C28.4874 93.4618 33.0393 87.1592 39.7359 86.1087C46.4762 85.0145 52.7351 89.6102 53.7856 96.3068Z" fill="#F5F5F5"/>
<path d="M41.9681 97.0946L41.4867 93.9871C42.0557 93.9433 42.6247 94.0308 43.1937 94.1621C43.6751 94.3372 44.0253 94.5123 44.0253 94.5123L44.069 94.4247L44.3754 93.243L44.4629 92.9804L43.8064 92.4989L43.5438 92.674C42.7997 92.4552 42.0119 92.2801 41.1803 92.3676L40.9177 90.6607L40.3049 90.3105L40.3925 90.7482L39.6484 90.8795L39.911 92.6302C37.5475 93.243 36.6284 94.7749 36.891 96.3505C37.2412 98.4952 39.1232 98.7578 40.9177 98.8891L41.3992 101.953C40.2174 102.04 38.9919 101.778 38.1603 101.253L37.7226 102.916C38.6417 103.485 40.1736 103.747 41.7055 103.616L41.9244 104.885L41.3116 104.973L41.9681 105.279L43.2374 105.06L42.9748 103.353C45.3383 102.741 46.3012 101.209 46.0386 99.6332C45.6885 97.4448 43.7626 97.2259 41.9681 97.0946ZM40.6551 96.9633C39.736 96.832 38.9919 96.6132 38.9044 95.8691C38.8168 95.2126 39.167 94.556 40.2174 94.2059L40.6551 96.9633ZM42.7122 101.647L42.2745 98.9329C43.2374 99.0642 43.9815 99.283 44.069 100.071C44.2003 100.727 43.8064 101.296 42.7122 101.647Z" fill="#E0E0E0"/>
<path d="M42.362 103.003L42.6246 104.71L41.3553 104.929L41.0927 103.222C39.5608 103.353 38.029 103.091 37.1098 102.522L37.5475 100.859C38.3791 101.34 39.6046 101.603 40.7864 101.559L40.3049 98.4952C38.5542 98.3639 36.6284 98.1013 36.2782 95.9566C36.0156 94.381 36.9347 92.8491 39.2982 92.2363L39.0356 90.4856L40.3049 90.2667L40.5675 91.9737C41.7055 91.8424 42.931 92.0175 43.8501 92.4114L43.4562 94.0746C42.5809 93.7244 41.6617 93.5931 40.8301 93.6369L41.3116 96.7445C43.0623 96.8758 45.0319 97.1384 45.382 99.283C45.6884 100.815 44.7693 102.347 42.362 103.003ZM40.0861 96.6132L39.6484 93.8557C38.5979 94.2059 38.204 94.8187 38.3353 95.5189C38.4229 96.263 39.1669 96.4819 40.0861 96.6132ZM43.5 99.7207C43.3687 98.9767 42.6684 98.714 41.7055 98.5827L42.1432 101.296C43.2374 100.99 43.6313 100.377 43.5 99.7207Z" fill="#737373"/>
<path d="M28.7938 107.73C28.7938 107.73 28.7501 107.687 28.7063 107.599C28.6188 107.511 28.575 107.38 28.4437 107.249C28.3124 107.118 28.1811 106.899 28.0498 106.68C27.9185 106.461 27.7434 106.198 27.5683 105.936C27.4808 105.805 27.3932 105.629 27.3057 105.498C27.2182 105.323 27.1306 105.148 27.0431 105.017C26.868 104.667 26.7367 104.273 26.5616 103.879C26.2553 103.047 25.9927 102.128 25.7738 101.165C25.5987 100.158 25.5112 99.2393 25.4674 98.3639C25.4674 97.9262 25.4674 97.5323 25.5112 97.1384C25.5112 96.9633 25.5112 96.7445 25.555 96.5694C25.555 96.3943 25.5987 96.2193 25.5987 96.0442C25.6425 95.7378 25.6863 95.4314 25.73 95.1688C25.7738 94.9062 25.8176 94.6874 25.8614 94.5123C25.9051 94.3372 25.9489 94.2059 25.9489 94.1184C25.9927 94.0308 25.9927 93.9871 25.9927 93.9871C25.9927 93.9871 25.9927 94.0308 25.9927 94.1184C25.9927 94.2059 25.9489 94.381 25.9051 94.5123C25.8614 94.6874 25.8176 94.9062 25.7738 95.1688C25.73 95.4314 25.6863 95.7378 25.6425 96.0442C25.6425 96.2193 25.5987 96.3943 25.5987 96.5694C25.5987 96.7445 25.5987 96.9195 25.555 97.1384C25.5112 97.5323 25.555 97.9262 25.555 98.3639C25.5987 99.2393 25.6863 100.158 25.8614 101.165C26.0802 102.128 26.3428 103.047 26.6492 103.879C26.8243 104.273 26.9556 104.667 27.1306 105.017C27.2182 105.192 27.3057 105.367 27.3495 105.498C27.437 105.673 27.5246 105.805 27.6121 105.936C27.7434 106.242 27.9185 106.461 28.0498 106.68C28.1811 106.899 28.3124 107.074 28.3999 107.249C28.4875 107.38 28.575 107.511 28.6188 107.599C28.7938 107.687 28.7938 107.73 28.7938 107.73Z" fill="#B1B1B1"/>
<path d="M37.5913 97.0508C37.5913 97.0508 37.4162 96.9633 37.1974 96.7445C36.9785 96.5256 36.7159 96.1317 36.6721 95.6503C36.6284 95.1688 36.7597 94.7311 36.9348 94.4685C37.1098 94.2059 37.2411 94.0746 37.2849 94.0746C37.2849 94.0746 37.1536 94.2497 37.0223 94.5123C36.891 94.7749 36.7597 95.2126 36.8035 95.6503C36.8472 96.0879 37.0661 96.4819 37.2849 96.7007C37.46 96.9195 37.6351 97.0071 37.5913 97.0508Z" fill="#B1B1B1"/>
<path d="M39.6046 91.8862C39.5609 91.8862 39.5171 91.6673 39.4733 91.4047C39.4295 91.1421 39.4295 90.8795 39.4733 90.8795C39.5171 90.8795 39.5609 91.0983 39.6046 91.361C39.6484 91.6673 39.6484 91.8862 39.6046 91.8862Z" fill="#B1B1B1"/>
<path d="M40.2174 84.9708C40.2174 84.9708 40.0861 85.0145 39.8235 85.0145C39.6922 85.0145 39.5609 85.0583 39.342 85.0583C39.167 85.1021 38.9481 85.1021 38.7293 85.1458C38.5104 85.1896 38.2478 85.2334 37.9852 85.2772C37.7226 85.3209 37.46 85.4085 37.1536 85.496C36.5846 85.6711 35.9281 85.8899 35.3153 86.1963C34.7026 86.5027 34.0898 86.8528 33.6084 87.1592C33.3458 87.3343 33.1269 87.5093 32.9081 87.6844C32.6892 87.8595 32.5142 87.9908 32.3391 88.1659C32.164 88.2972 32.0327 88.4722 31.9014 88.6035C31.7701 88.7349 31.6388 88.8224 31.5513 88.9537C31.3762 89.1288 31.2886 89.2601 31.2449 89.2163C31.2449 89.2163 31.3324 89.085 31.5075 88.9099C31.595 88.8224 31.6826 88.6911 31.8139 88.5598C31.9452 88.4285 32.0765 88.2972 32.2515 88.1221C32.4266 87.947 32.6017 87.8157 32.8205 87.6406C33.0394 87.4656 33.2582 87.2905 33.5208 87.1154C34.046 86.7653 34.615 86.4151 35.2278 86.1087C35.8843 85.8024 36.4971 85.5835 37.0661 85.4085C37.3724 85.3209 37.6351 85.2334 37.8977 85.1896C38.1603 85.1458 38.4229 85.1021 38.6417 85.0583C38.8606 85.0145 39.0794 85.0145 39.2545 84.9708C39.4296 84.9708 39.6046 84.927 39.7359 84.927C40.0423 84.9708 40.2174 84.9708 40.2174 84.9708Z" fill="#B1B1B1"/>
<path d="M45.7322 113.026C45.7322 113.026 45.6446 113.07 45.4696 113.158C45.2945 113.245 45.0319 113.333 44.6817 113.42C44.0252 113.639 43.0623 113.814 42.0119 113.858C40.9614 113.902 39.9985 113.814 39.2982 113.683C38.9481 113.639 38.6855 113.552 38.5104 113.508C38.3353 113.464 38.204 113.42 38.204 113.42C38.204 113.42 38.2915 113.42 38.5104 113.464C38.6855 113.508 38.9918 113.552 39.2982 113.595C39.9985 113.683 40.9176 113.77 41.9681 113.727C43.0185 113.683 43.9814 113.508 44.638 113.289C44.9881 113.201 45.2507 113.114 45.4258 113.07C45.6446 113.026 45.7322 112.983 45.7322 113.026Z" fill="#B1B1B1"/>
<path d="M31.2449 168.7C28.3562 167.212 24.9422 166.993 21.7034 167.562C19.9526 167.868 18.1581 168.35 16.9764 169.663C15.7946 170.976 15.5758 173.252 16.9326 174.346C17.7204 175.002 18.8584 175.09 19.9089 175.09C22.4474 175.046 25.2048 174.608 27.2182 176.14C28.3562 177.016 29.144 178.46 30.5008 178.854C31.8576 179.292 33.3458 178.46 34.0898 177.278C34.7901 176.053 34.8339 174.565 34.4837 173.164C34.5275 173.164 34.1774 170.188 31.2449 168.7Z" fill="#E8505B"/>
<path d="M37.8977 155.876C36.1032 158.414 32.6892 157.583 31.0698 156.007C29.4504 154.475 28.7938 152.199 28.1811 150.098C26.7805 145.196 25.3799 140.075 26.3866 135.129C26.693 133.641 27.262 132.153 28.3124 131.059C29.3628 129.965 30.9823 129.308 32.4266 129.702C34.1774 130.14 35.2278 131.847 36.0156 133.466C38.2916 138.237 39.5171 143.489 39.5609 148.785C39.5609 151.236 39.2983 153.818 37.8977 155.876Z" fill="#E8505B"/>
<path d="M42.756 159.508C40.8302 157.232 40.48 153.906 41.3116 151.017C42.187 148.172 44.1128 145.721 46.345 143.752C48.9711 141.432 52.0349 139.594 55.3613 138.456C56.6743 138.018 58.0311 137.624 59.388 137.755C60.7448 137.887 62.1454 138.587 62.8019 139.813C63.7648 141.607 62.8457 143.795 61.839 145.59C60.0883 148.741 58.1187 151.761 55.9303 154.606C54.1795 156.882 52.1224 159.158 49.4525 160.165C46.7389 161.215 43.9377 161.084 42.5371 159.202" fill="#EBEBEB"/>
<path d="M37.9852 194.042C37.9414 194.042 37.8977 193.648 37.8101 192.904C37.7226 192.072 37.6351 191.022 37.5038 189.752C37.3724 188.439 37.1536 186.864 36.8035 185.157C36.4533 183.45 35.8843 181.611 35.1403 179.729C34.3962 177.847 33.4333 176.184 32.3829 174.827C31.2886 173.47 30.0631 172.464 28.8814 171.895C27.6996 171.326 26.6492 171.063 25.9051 170.976C25.1611 170.888 24.7672 170.844 24.7672 170.801C24.7672 170.757 25.1611 170.757 25.9489 170.801C26.693 170.844 27.7872 171.019 29.0127 171.588C30.2382 172.157 31.595 173.12 32.733 174.521C33.871 175.921 34.8339 177.628 35.6217 179.554C36.3658 181.48 36.9348 183.318 37.2849 185.069C37.6351 186.82 37.8101 188.395 37.8977 189.752C37.9852 191.065 38.029 192.16 38.0727 192.904C38.029 193.648 38.029 194.042 37.9852 194.042Z" fill="#3F3F3F"/>
<path d="M37.8102 191.634C37.8102 191.634 37.7664 191.459 37.7664 191.109C37.7664 190.715 37.7664 190.19 37.7664 189.577C37.7664 188.264 37.7664 186.338 37.6789 183.975C37.5475 179.248 37.1536 174.127 36.3658 166.949C35.6217 160.209 34.6151 152.33 33.5646 147.209C33.3458 146.028 33.1269 145.021 32.9081 144.102C32.6893 143.183 32.5142 142.395 32.3391 141.738C32.2078 141.126 32.0765 140.644 31.989 140.25C31.9014 139.9 31.9014 139.725 31.9014 139.725C31.9014 139.725 31.989 139.9 32.0765 140.206C32.2078 140.6 32.3391 141.082 32.5142 141.651C32.6893 142.307 32.9081 143.051 33.1269 143.971C33.3458 144.89 33.6084 145.94 33.871 147.078C34.9214 151.718 36.0157 158.195 36.8035 165.373C37.5913 172.595 37.9415 179.117 37.9852 183.887C38.029 186.251 37.9415 188.177 37.8977 189.49C37.8539 190.102 37.8102 190.628 37.8102 191.022C37.8102 191.459 37.8102 191.634 37.8102 191.634Z" fill="#3F3F3F"/>
<path d="M37.7664 178.985C37.7226 178.985 37.7226 178.416 37.7664 177.41C37.8101 176.403 37.9852 174.915 38.2478 173.077C38.5542 171.282 38.9919 169.137 39.6484 166.774C39.9548 165.723 40.6113 163.141 42.2745 159.333C44.4629 154.169 47.4392 149.923 50.0215 147.297C50.6343 146.597 51.2908 146.115 51.8598 145.59C52.1224 145.371 52.385 145.109 52.6476 144.933C52.9102 144.758 53.1291 144.583 53.3479 144.452C54.1795 143.883 54.661 143.577 54.7047 143.577C54.7923 143.664 52.8227 144.846 50.2841 147.516C47.7893 150.186 44.9006 154.387 42.756 159.508C41.5305 162.31 40.6989 164.761 40.0861 166.905C39.3858 169.225 38.9481 171.326 38.598 173.12C38.2478 174.915 38.0728 176.403 37.9414 177.41C37.8539 178.416 37.8101 178.985 37.7664 178.985Z" fill="#B1B1B1"/>
<path d="M51.5534 192.335L50.2841 209.711H27.9622L26.693 192.335H51.5534Z" fill="#B1B1B1"/>
<path d="M53.6981 185.507H24.0231V192.335H53.6981V185.507Z" fill="#B1B1B1"/>
<path d="M53.6981 209.054V210.936H52.2975H24.5483V209.054H53.6981Z" fill="#EBEBEB"/>
<path d="M50.9407 214.263L52.2975 210.936H25.5988L27.1744 214.263H50.9407Z" fill="#B1B1B1"/>
<path d="M27.1306 198.025C27.1306 198.025 27.1744 198.068 27.2182 198.2C27.3057 198.331 27.437 198.462 27.5683 198.637C27.8747 199.031 28.3124 199.6 28.8814 200.3L28.9251 200.388L28.9689 200.3C29.8005 199.162 30.8947 197.674 32.164 195.88H31.9889C32.9518 197.237 34.0023 198.725 35.1403 200.344L35.2278 200.476L35.3591 200.344C36.5409 198.944 37.7664 197.456 39.0794 195.924H38.8606C38.9043 196.011 38.9919 196.099 39.0794 196.186C40.2174 197.631 41.3554 199.031 42.4058 200.344L42.5371 200.476L42.6247 200.344C43.7626 198.725 44.8131 197.237 45.776 195.88H45.6009C47.1328 197.631 48.4459 199.162 49.4525 200.3L49.5401 200.388L49.5838 200.3C50.1091 199.425 50.503 198.769 50.8093 198.243C50.9406 198.025 51.0282 197.849 51.1157 197.718C51.2033 197.587 51.2033 197.543 51.2033 197.543C51.2033 197.543 51.1595 197.587 51.072 197.718C50.9844 197.849 50.8531 198.025 50.7218 198.243C50.4154 198.725 49.9777 199.381 49.4525 200.257H49.5838C48.5772 199.075 47.3079 197.587 45.776 195.792L45.6884 195.661L45.6009 195.792C44.638 197.149 43.5876 198.637 42.4496 200.213H42.6684C41.618 198.9 40.48 197.499 39.342 196.011C39.2545 195.924 39.2107 195.836 39.1232 195.749L39.0356 195.617L38.9481 195.749C37.6351 197.324 36.4095 198.812 35.2278 200.213H35.4466C34.3087 198.593 33.2145 197.105 32.2515 195.792L32.164 195.661L32.0765 195.792C30.8072 197.587 29.7567 199.119 28.9689 200.257H29.1002C28.5312 199.556 28.0936 199.031 27.7434 198.637C27.6121 198.462 27.4808 198.331 27.3933 198.2C27.1744 198.068 27.1306 198.025 27.1306 198.025Z" fill="#F5F5F5"/>
<path d="M26.3866 192.247C26.3866 192.335 31.989 192.378 38.8606 192.378C45.776 192.378 51.3346 192.335 51.3346 192.247C51.3346 192.16 45.7322 192.116 38.8606 192.116C31.989 192.072 26.3866 192.16 26.3866 192.247Z" fill="#F5F5F5"/>
<path d="M25.2486 211.111C25.2486 211.199 31.3324 211.243 38.8168 211.243C46.3012 211.243 52.385 211.199 52.385 211.111C52.385 211.024 46.3012 210.98 38.8168 210.98C31.3324 210.98 25.2486 211.067 25.2486 211.111Z" fill="#F5F5F5"/>
<path d="M192.067 116.31C206.596 115.498 217.715 103.062 216.903 88.533C216.091 74.0043 203.655 62.8848 189.127 63.6968C174.598 64.5088 163.478 76.9448 164.29 91.4734C165.102 106.002 177.538 117.122 192.067 116.31Z" fill="#D81E05"/>
<g opacity="0.1">
<path d="M186.491 63.9621C172.092 66.2381 162.287 79.7625 164.563 94.1185C164.563 94.1185 182.99 92.0176 186.229 83.9643C189.468 75.9546 186.491 63.9621 186.491 63.9621Z" fill="white"/>
</g>
<path d="M209.951 86.5466C211.702 97.4887 204.218 107.73 193.275 109.481C182.333 111.232 172.092 103.748 170.341 92.8055C168.59 81.8634 176.074 71.6216 187.017 69.8708C197.959 68.1639 208.2 75.6045 209.951 86.5466Z" fill="#D81E05"/>
<g opacity="0.2">
<path d="M209.951 86.5466C211.702 97.4887 204.218 107.73 193.275 109.481C182.333 111.232 172.092 103.748 170.341 92.8055C168.59 81.8634 176.074 71.6216 187.017 69.8708C197.959 68.1639 208.2 75.6045 209.951 86.5466Z" fill="black"/>
</g>
<path d="M210.651 87.2906C212.358 98.0577 205.005 108.212 194.238 109.919C183.471 111.626 173.317 104.273 171.61 93.5058C169.903 82.7387 177.256 72.5845 188.023 70.8775C198.79 69.1268 208.901 76.4799 210.651 87.2906Z" fill="#D81E05"/>
<g opacity="0.2">
<path d="M210.651 87.2906C212.358 98.0577 205.005 108.212 194.238 109.919C183.471 111.626 173.317 104.273 171.61 93.5058C169.903 82.7387 177.256 72.5845 188.023 70.8775C198.79 69.1268 208.901 76.4799 210.651 87.2906Z" fill="white"/>
</g>
<path d="M191.612 88.5599L190.824 83.5703C190.824 83.5703 190.824 83.5703 190.868 83.5703C191.744 83.5266 192.706 83.6141 193.626 83.8329C194.413 84.0956 194.982 84.4019 194.982 84.4019L195.026 84.2269L195.508 82.3011L195.639 81.8634L194.588 81.0755L194.195 81.3381C193.013 80.9442 191.7 80.7254 190.43 80.8567L189.993 78.0993L189.03 77.5303L189.161 78.2306L187.979 78.4057L188.417 81.2068C184.609 82.1697 183.121 84.6645 183.515 87.2031C184.04 90.6608 187.148 91.0547 189.993 91.3173L190.781 96.2632C188.855 96.3945 186.885 95.9568 185.528 95.169L184.828 97.8388C186.272 98.758 188.767 99.1519 191.218 98.933L191.568 100.99L190.606 101.165L191.656 101.647L193.669 101.34L193.232 98.5829C197.039 97.5762 198.571 95.0814 198.177 92.5866C197.608 89.1727 194.457 88.7788 191.612 88.5599ZM189.511 88.3411C188.023 88.166 186.841 87.7721 186.666 86.5904C186.491 85.4961 187.104 84.4895 188.811 83.9205L189.511 88.3411ZM192.794 95.913L192.094 91.5362C193.626 91.7113 194.807 92.1052 195.026 93.3307C195.157 94.4249 194.545 95.3878 192.794 95.913Z" fill="#D81E05"/>
<g opacity="0.3">
<path d="M191.612 88.5599L190.824 83.5703C190.824 83.5703 190.824 83.5703 190.868 83.5703C191.744 83.5266 192.706 83.6141 193.626 83.8329C194.413 84.0956 194.982 84.4019 194.982 84.4019L195.026 84.2269L195.508 82.3011L195.639 81.8634L194.588 81.0755L194.195 81.3381C193.013 80.9442 191.7 80.7254 190.43 80.8567L189.993 78.0993L189.03 77.5303L189.161 78.2306L187.979 78.4057L188.417 81.2068C184.609 82.1697 183.121 84.6645 183.515 87.2031C184.04 90.6608 187.148 91.0547 189.993 91.3173L190.781 96.2632C188.855 96.3945 186.885 95.9568 185.528 95.169L184.828 97.8388C186.272 98.758 188.767 99.1519 191.218 98.933L191.568 100.99L190.606 101.165L191.656 101.647L193.669 101.34L193.232 98.5829C197.039 97.5762 198.571 95.0814 198.177 92.5866C197.608 89.1727 194.457 88.7788 191.612 88.5599ZM189.511 88.3411C188.023 88.166 186.841 87.7721 186.666 86.5904C186.491 85.4961 187.104 84.4895 188.811 83.9205L189.511 88.3411ZM192.794 95.913L192.094 91.5362C193.626 91.7113 194.807 92.1052 195.026 93.3307C195.157 94.4249 194.545 95.3878 192.794 95.913Z" fill="black"/>
</g>
<path d="M192.269 98.1014L192.706 100.859L190.693 101.165L190.255 98.4078C187.804 98.6267 185.31 98.2327 183.865 97.3136L184.566 94.6437C185.922 95.4316 187.892 95.8692 189.818 95.7379L189.03 90.7921C186.185 90.5733 183.077 90.1356 182.552 86.6779C182.158 84.1393 183.646 81.6445 187.454 80.6816L187.017 77.8804L189.03 77.5741L189.468 80.3315C191.306 80.1564 193.275 80.3752 194.72 81.0318L194.107 83.7016C192.663 83.1326 191.218 82.9576 189.905 83.0013L190.693 87.9909C193.538 88.2098 196.689 88.6037 197.215 92.0614C197.609 94.6 196.077 97.051 192.269 98.1014ZM188.548 87.8159L187.848 83.3953C186.141 83.9642 185.528 84.9709 185.704 86.0651C185.879 87.2469 187.06 87.597 188.548 87.8159ZM194.063 92.8055C193.888 91.5799 192.706 91.186 191.131 91.011L191.831 95.3878C193.582 94.8188 194.238 93.8559 194.063 92.8055Z" fill="#D81E05"/>
<path d="M193.888 110.138C193.888 110.138 193.932 110.138 194.063 110.094C194.195 110.05 194.326 110.05 194.545 110.006C194.764 109.963 195.026 109.919 195.289 109.831C195.595 109.744 195.945 109.7 196.295 109.569C196.689 109.437 197.083 109.306 197.565 109.175C197.784 109.131 198.046 109 198.265 108.912C198.528 108.825 198.747 108.693 199.009 108.562C199.272 108.431 199.534 108.343 199.797 108.212C200.06 108.081 200.322 107.906 200.629 107.774C200.891 107.599 201.198 107.468 201.504 107.293C201.767 107.118 202.073 106.899 202.379 106.68C203.561 105.892 204.699 104.798 205.837 103.572C206.1 103.266 206.362 102.916 206.625 102.566C206.756 102.391 206.887 102.216 207.019 102.041C207.15 101.866 207.281 101.69 207.369 101.472C207.588 101.078 207.894 100.728 208.113 100.334C208.332 99.9397 208.551 99.502 208.769 99.1081L208.945 98.8017C208.988 98.7142 209.032 98.5829 209.076 98.4954C209.163 98.2765 209.251 98.0577 209.338 97.8388C209.426 97.62 209.514 97.4011 209.601 97.1823C209.689 96.9635 209.732 96.7009 209.82 96.482C209.951 96.0006 210.126 95.5191 210.258 95.0377C210.345 94.5562 210.433 94.031 210.564 93.5495C210.87 91.5362 210.914 89.3915 210.564 87.2469C210.214 85.1022 209.514 83.0889 208.594 81.2506C208.332 80.8129 208.113 80.3752 207.85 79.9376C207.588 79.4999 207.281 79.106 207.019 78.712C206.887 78.4932 206.756 78.3181 206.581 78.0993C206.406 77.9242 206.275 77.7491 206.1 77.5303C205.925 77.3552 205.793 77.1802 205.618 77.0051C205.531 76.9175 205.487 76.83 205.399 76.7425L205.137 76.4799C204.787 76.1735 204.48 75.8233 204.13 75.517C203.78 75.2106 203.43 74.948 203.08 74.6416C202.905 74.5103 202.729 74.379 202.554 74.2477C202.379 74.1164 202.204 73.9851 202.029 73.8975C201.679 73.6787 201.329 73.4161 200.979 73.1972C199.534 72.4094 198.09 71.7091 196.733 71.3152C196.383 71.2277 196.077 71.0963 195.726 71.0088C195.42 70.9213 195.07 70.8775 194.764 70.79C194.457 70.7462 194.151 70.6587 193.844 70.6149C193.538 70.5274 193.275 70.5274 192.969 70.5274C192.706 70.4836 192.4 70.4836 192.137 70.4398C191.875 70.3961 191.612 70.3961 191.393 70.3961C190.912 70.3961 190.474 70.3961 190.08 70.3961C189.686 70.3961 189.336 70.4398 189.03 70.4398C188.724 70.4836 188.461 70.4836 188.242 70.5274C188.023 70.5274 187.892 70.5711 187.761 70.5711C187.673 70.5711 187.586 70.5711 187.586 70.5711C187.586 70.5711 187.629 70.5711 187.761 70.5274C187.892 70.5274 188.023 70.4836 188.242 70.4836C188.461 70.4398 188.724 70.4398 189.03 70.3961C189.336 70.3523 189.686 70.3085 190.08 70.3085C190.474 70.3085 190.912 70.3085 191.393 70.3085C191.656 70.3085 191.875 70.3085 192.137 70.3523C192.4 70.396 192.663 70.3961 192.969 70.4398C193.232 70.4836 193.538 70.4836 193.844 70.5274C194.151 70.5711 194.457 70.6587 194.764 70.7024C195.07 70.79 195.42 70.79 195.726 70.9213C196.033 71.0088 196.383 71.0963 196.733 71.2276C198.134 71.6216 199.534 72.2781 201.022 73.1097C201.373 73.3285 201.723 73.5911 202.117 73.81C202.292 73.9413 202.467 74.0288 202.686 74.1601C202.861 74.2914 203.036 74.4227 203.211 74.5978C203.561 74.8604 203.911 75.1668 204.261 75.4732C204.611 75.7796 204.918 76.1297 205.268 76.4361L205.531 76.6987C205.618 76.7862 205.706 76.8738 205.749 76.9613C205.925 77.1364 206.056 77.3115 206.231 77.5303C206.406 77.7054 206.537 77.8804 206.712 78.0993C206.887 78.2744 207.019 78.4932 207.15 78.712C207.413 79.106 207.719 79.5436 207.982 79.9376C208.244 80.3752 208.463 80.8129 208.726 81.2944C209.645 83.1327 210.345 85.1898 210.695 87.3344C211.002 89.5228 211.002 91.6675 210.652 93.6808C210.564 94.2061 210.433 94.6875 210.345 95.169C210.214 95.6504 210.039 96.1319 209.907 96.6133C209.82 96.8322 209.776 97.0948 209.689 97.3136C209.601 97.5325 209.514 97.7513 209.426 97.9701C209.338 98.189 209.251 98.4078 209.163 98.6267C209.12 98.758 209.076 98.8455 209.032 98.9768L208.857 99.2832C208.638 99.7209 208.419 100.115 208.2 100.509C207.982 100.903 207.719 101.297 207.456 101.647C207.325 101.822 207.194 102.041 207.106 102.216C206.975 102.391 206.844 102.566 206.712 102.741C206.45 103.091 206.187 103.397 205.925 103.748C204.787 104.973 203.605 106.067 202.423 106.855C202.117 107.074 201.854 107.249 201.548 107.468C201.285 107.643 200.979 107.818 200.672 107.949C200.41 108.124 200.103 108.256 199.841 108.387C199.578 108.562 199.315 108.65 199.053 108.737C198.79 108.868 198.528 108.956 198.309 109.044C198.046 109.131 197.827 109.262 197.609 109.306C197.127 109.437 196.733 109.569 196.339 109.7C195.945 109.831 195.595 109.875 195.289 109.963C194.982 110.006 194.72 110.094 194.545 110.094C194.326 110.138 194.195 110.182 194.063 110.182C193.932 110.138 193.888 110.138 193.888 110.138Z" fill="#263238"/>
<path d="M170.385 105.761C170.385 105.761 170.341 105.717 170.21 105.586C170.122 105.455 169.947 105.279 169.816 105.061C169.641 104.842 169.422 104.535 169.203 104.185C168.984 103.835 168.721 103.441 168.459 102.96C168.328 102.741 168.196 102.478 168.065 102.216C167.934 101.953 167.802 101.69 167.671 101.428C167.365 100.859 167.146 100.246 166.883 99.5896C166.402 98.2765 165.92 96.7884 165.614 95.2127C165.307 93.6371 165.176 92.0614 165.132 90.6608C165.132 89.9605 165.132 89.304 165.176 88.6912C165.176 88.3849 165.22 88.0785 165.22 87.7721C165.264 87.4657 165.264 87.2031 165.308 86.9405C165.351 86.4153 165.439 85.9338 165.526 85.5399C165.614 85.1022 165.658 84.7521 165.745 84.4895C165.833 84.2269 165.876 84.008 165.92 83.8329C165.964 83.7016 165.964 83.6141 166.008 83.6141C166.008 83.6141 166.008 83.7016 165.964 83.8329C165.92 84.008 165.876 84.2269 165.833 84.4895C165.789 84.7959 165.701 85.146 165.658 85.5399C165.614 85.9338 165.526 86.4153 165.483 86.9405C165.439 87.2031 165.439 87.4657 165.395 87.7721C165.351 88.0785 165.351 88.3411 165.351 88.6475C165.307 89.2602 165.307 89.9168 165.351 90.617C165.395 92.0176 165.57 93.5495 165.876 95.1252C166.183 96.7009 166.664 98.189 167.146 99.4583C167.408 100.115 167.627 100.728 167.934 101.297C168.065 101.559 168.196 101.866 168.328 102.084C168.459 102.347 168.59 102.566 168.721 102.828C168.94 103.31 169.203 103.704 169.422 104.054C169.641 104.404 169.816 104.71 169.991 104.973C170.166 105.192 170.253 105.411 170.385 105.542C170.341 105.673 170.385 105.761 170.385 105.761Z" fill="white"/>
<path d="M184.566 88.5162C184.566 88.5162 184.259 88.3849 183.909 88.0347C183.559 87.6846 183.165 87.028 183.034 86.2402C182.946 85.4524 183.165 84.7521 183.428 84.3144C183.69 83.8767 183.953 83.6579 183.953 83.7016C183.997 83.7454 183.778 83.9643 183.559 84.4019C183.34 84.8396 183.121 85.4961 183.253 86.2402C183.34 86.9843 183.69 87.597 183.997 87.9472C184.303 88.2973 184.566 88.4724 184.566 88.5162Z" fill="white"/>
<path d="M187.761 80.2439C187.717 80.2439 187.586 79.8938 187.542 79.4561C187.454 79.0184 187.454 78.6245 187.498 78.6245C187.542 78.6245 187.673 78.9747 187.717 79.4123C187.804 79.85 187.848 80.2002 187.761 80.2439Z" fill="white"/>
<path d="M188.724 69.083C188.724 69.083 188.505 69.1268 188.067 69.1705C187.848 69.1705 187.629 69.2143 187.323 69.2581C187.017 69.3018 186.71 69.3456 186.316 69.3894C185.966 69.4331 185.572 69.5207 185.135 69.6082C184.697 69.6958 184.259 69.8271 183.778 69.9584C182.859 70.2647 181.852 70.6149 180.802 71.0963C179.795 71.5778 178.876 72.1468 178.044 72.672C177.65 72.9346 177.256 73.1972 176.95 73.5036C176.6 73.7662 176.293 74.0288 176.031 74.2914C175.724 74.5103 175.506 74.7729 175.287 74.948C175.068 75.1668 174.893 75.3419 174.761 75.4732C174.455 75.7796 174.324 75.9109 174.28 75.9109C174.28 75.9109 174.411 75.7358 174.674 75.4294C174.805 75.2543 174.98 75.0793 175.199 74.8604C175.418 74.6416 175.637 74.4227 175.899 74.1601C176.162 73.8975 176.468 73.6349 176.819 73.3723C177.169 73.1097 177.519 72.8033 177.913 72.5407C178.744 71.9717 179.664 71.4465 180.67 70.9213C181.677 70.4398 182.727 70.0459 183.646 69.7833C184.128 69.652 184.566 69.5207 185.003 69.4331C185.441 69.3456 185.835 69.2581 186.185 69.2143C186.535 69.1705 186.885 69.1268 187.192 69.083C187.498 69.0392 187.761 69.0392 187.936 69.0392C188.461 69.083 188.724 69.083 188.724 69.083Z" fill="white"/>
<path d="M197.696 114.208C197.696 114.208 197.521 114.296 197.258 114.427C196.952 114.558 196.558 114.69 195.989 114.865C194.895 115.171 193.407 115.521 191.656 115.609C189.949 115.696 188.373 115.565 187.279 115.346C186.71 115.259 186.273 115.127 185.966 115.04C185.66 114.952 185.485 114.909 185.485 114.909C185.485 114.909 185.66 114.909 185.966 114.996C186.273 115.04 186.71 115.127 187.279 115.215C188.373 115.39 189.905 115.521 191.612 115.434C193.319 115.346 194.807 115.04 195.902 114.777C196.427 114.646 196.865 114.515 197.171 114.427C197.521 114.252 197.696 114.208 197.696 114.208Z" fill="white"/>
<path d="M216.648 85.8901C216.648 85.8901 216.604 85.7588 216.56 85.4524C216.517 85.1898 216.429 84.7521 216.298 84.2269C216.079 83.1327 215.641 81.557 214.81 79.6312C214.372 78.6683 213.89 77.6178 213.234 76.5236C212.577 75.4294 211.79 74.2914 210.827 73.1535C208.901 70.8775 206.362 68.6015 203.036 66.807C201.373 65.9317 199.578 65.1876 197.609 64.6186C195.639 64.0934 193.538 63.7433 191.35 63.6995C189.161 63.6557 186.885 63.8308 184.609 64.3998C183.471 64.6624 182.333 65.0125 181.195 65.4502C180.057 65.8879 178.963 66.4131 177.869 66.9821C173.536 69.3456 169.684 73.1535 167.233 77.968C166.621 79.1497 166.095 80.419 165.658 81.6883C165.22 83.0013 164.87 84.3144 164.651 85.6712C164.17 88.4286 164.213 91.2736 164.607 94.0748C165.089 96.8759 165.964 99.5896 167.233 102.041C167.54 102.653 167.89 103.266 168.24 103.835C168.634 104.404 168.984 104.973 169.422 105.542C170.253 106.636 171.129 107.687 172.092 108.606C175.899 112.414 180.758 114.821 185.572 115.74C186.798 115.959 187.98 116.134 189.205 116.178C190.387 116.222 191.612 116.222 192.75 116.134C195.07 115.959 197.302 115.434 199.403 114.69C201.46 113.946 203.386 112.983 205.093 111.845C206.8 110.707 208.288 109.437 209.601 108.081C212.183 105.367 213.934 102.391 215.028 99.6333C215.597 98.2765 215.991 96.9197 216.254 95.6942C216.56 94.4687 216.692 93.2869 216.823 92.2802C216.998 90.1794 216.91 88.5599 216.823 87.4657C216.779 86.8967 216.692 86.5028 216.692 86.2402C216.692 86.0214 216.648 85.8901 216.648 85.8901C216.648 85.8901 216.735 86.4591 216.867 87.5533C216.998 88.6475 217.086 90.2669 216.91 92.3678C216.823 93.4182 216.648 94.5562 216.385 95.8255C216.123 97.051 215.729 98.4078 215.16 99.8084C214.065 102.566 212.315 105.586 209.732 108.299C208.463 109.656 206.931 110.969 205.224 112.064C203.517 113.202 201.591 114.208 199.534 114.909C197.434 115.653 195.201 116.178 192.838 116.353C191.656 116.484 190.474 116.484 189.249 116.44C188.023 116.397 186.798 116.222 185.616 116.003C180.758 115.084 175.856 112.633 172.004 108.825C171.041 107.862 170.166 106.855 169.334 105.717C168.897 105.148 168.546 104.579 168.152 104.01C167.802 103.397 167.452 102.828 167.146 102.172C165.833 99.6771 164.957 96.9635 164.52 94.1185C164.082 91.2736 164.082 88.4286 164.563 85.6712C164.782 84.2706 165.132 82.9576 165.57 81.6445C166.008 80.3315 166.533 79.0622 167.146 77.8804C169.641 73.0659 173.492 69.2581 177.869 66.8508C178.963 66.2381 180.057 65.7566 181.195 65.3189C182.333 64.8812 183.471 64.5311 184.609 64.2685C186.885 63.7433 189.205 63.5244 191.393 63.5682C193.626 63.612 195.727 63.9621 197.696 64.5311C199.666 65.1001 201.504 65.8441 203.167 66.7195C206.494 68.514 209.076 70.8337 210.958 73.1097C211.921 74.2477 212.709 75.4294 213.365 76.5236C214.022 77.6178 214.503 78.6683 214.941 79.6312C215.729 81.557 216.166 83.1327 216.385 84.2269C216.604 85.3211 216.648 85.8901 216.648 85.8901Z" fill="#263238"/>
<path d="M180.451 214.131C180.451 214.131 190.299 216.057 191.35 200.738C192.4 185.419 194.457 160.953 194.457 160.953H174.718L157.56 203.014L168.634 211.286L180.451 214.131Z" fill="#B1B1B1"/>
<path d="M97.5102 82.0821C93.8337 82.2571 90.376 88.3847 89.9383 91.7111L75.1446 201.745C74.2254 208.485 80.0466 214.35 87.4872 214.219H162.9C166.839 214.219 170.078 211.505 170.472 207.916L182.859 89.654C183.296 85.4522 179.532 81.8632 174.893 82.0383L97.5102 82.0821Z" fill="white"/>
<path d="M171.041 200.738L164.432 214.131H180.626C180.626 214.131 169.64 212.468 171.041 200.738Z" fill="white"/>
<path d="M131.912 113.026H90.8574L92.6957 91.0546H133.444L131.912 113.026Z" fill="#FF725E"/>
<path d="M172.398 96.1317C172.398 96.1755 165.045 96.2193 155.985 96.2193C146.925 96.2193 139.572 96.1755 139.572 96.1317C139.572 96.088 146.925 96.0442 155.985 96.0442C165.089 96.0442 172.442 96.088 172.398 96.1317Z" fill="#263238"/>
<path d="M172.179 100.071C172.179 100.115 164.826 100.158 155.766 100.158C146.706 100.158 139.353 100.115 139.353 100.071C139.353 100.027 146.706 99.9833 155.766 99.9833C164.826 99.9833 172.179 100.027 172.179 100.071Z" fill="#263238"/>
<path d="M171.96 104.01C171.96 104.054 164.607 104.098 155.503 104.098C146.443 104.098 139.046 104.054 139.09 104.01C139.09 103.966 146.443 103.923 155.547 103.923C164.607 103.923 171.96 103.966 171.96 104.01Z" fill="#263238"/>
<path d="M158.611 107.949C158.611 107.993 154.147 108.037 148.675 108.037C143.204 108.037 138.784 107.993 138.784 107.949C138.784 107.905 143.248 107.862 148.719 107.862C154.19 107.862 158.611 107.905 158.611 107.949Z" fill="#263238"/>
<path d="M172.442 117.491C172.442 117.534 154.19 117.578 131.693 117.578C109.196 117.578 90.9449 117.534 90.9887 117.491C90.9887 117.447 109.24 117.403 131.737 117.403C154.19 117.403 172.442 117.447 172.442 117.491Z" fill="#263238"/>
<path d="M172.267 119.942C172.267 119.986 154.19 120.029 131.956 120.029C109.678 120.029 91.6452 119.986 91.6452 119.942C91.6452 119.898 109.678 119.854 131.956 119.854C154.234 119.81 172.267 119.854 172.267 119.942Z" fill="#263238"/>
<path d="M171.785 128.52H90.0696L90.4635 123.837H172.048L171.785 128.52Z" fill="#E0E0E0"/>
<path d="M168.371 171.545H85.649L86.0429 166.861H168.634L168.371 171.545Z" fill="#E0E0E0"/>
<path d="M121.189 148.435H88.4501L88.8003 143.752H121.539L121.189 148.435Z" fill="#E0E0E0"/>
<path d="M169.728 148.435H128.761L129.067 143.752H169.991L169.728 148.435Z" fill="#E0E0E0"/>
<path d="M136.989 132.678C136.989 132.722 126.485 132.766 113.529 132.766C100.574 132.766 90.0696 132.722 90.0696 132.678C90.0696 132.635 100.574 132.591 113.529 132.591C126.485 132.591 136.989 132.635 136.989 132.678Z" fill="#263238"/>
<path d="M170.866 136.355C170.866 136.399 152.702 136.442 130.293 136.442C107.883 136.442 89.7195 136.399 89.7195 136.355C89.7195 136.311 107.883 136.267 130.293 136.267C152.702 136.267 170.866 136.311 170.866 136.355Z" fill="#263238"/>
<path d="M170.647 139.856C170.647 139.9 152.44 139.944 130.03 139.944C107.577 139.944 89.4131 139.9 89.4131 139.856C89.4131 139.813 107.621 139.769 130.03 139.769C152.483 139.769 170.647 139.813 170.647 139.856Z" fill="#263238"/>
<path d="M120.707 151.28C120.707 151.324 113.354 151.367 104.294 151.367C95.2343 151.367 87.9249 151.324 87.9249 151.28C87.9249 151.236 95.278 151.192 104.338 151.192C113.398 151.192 120.707 151.236 120.707 151.28Z" fill="#263238"/>
<path d="M120.445 154.913C120.445 154.956 113.223 155 104.294 155C95.3656 155 88.1438 154.956 88.1875 154.913C88.1875 154.869 95.4093 154.825 104.338 154.825C113.223 154.781 120.445 154.825 120.445 154.913Z" fill="#263238"/>
<path d="M120.051 158.545C120.051 158.589 112.742 158.633 103.769 158.633C94.7528 158.633 87.4872 158.589 87.4872 158.545C87.4872 158.502 94.7966 158.458 103.769 158.458C112.785 158.458 120.051 158.502 120.051 158.545Z" fill="#263238"/>
<path d="M119.788 162.091C119.788 162.134 112.479 162.178 103.463 162.178C94.4464 162.178 87.1809 162.134 87.1809 162.091C87.1809 162.047 94.4902 162.003 103.506 162.003C112.523 162.003 119.788 162.047 119.788 162.091Z" fill="#263238"/>
<path d="M168.896 152.155C168.896 152.199 161.281 152.243 151.914 152.243C142.548 152.243 134.932 152.199 134.932 152.155C134.932 152.112 142.548 152.068 151.914 152.068C161.281 152.024 168.896 152.068 168.896 152.155Z" fill="#263238"/>
<path d="M132.219 153.293C132.219 153.293 132.219 153.031 132.219 152.637C132.219 152.243 132.262 151.674 132.306 151.017L132.394 151.105C131.693 151.105 130.905 151.105 130.074 151.105C130.03 151.105 130.293 150.93 130.161 151.017V151.061V151.149V151.324C130.161 151.411 130.161 151.543 130.118 151.63C130.118 151.849 130.074 152.024 130.074 152.243C130.03 152.637 130.03 152.987 129.986 153.337L129.899 153.249C130.599 153.249 131.168 153.293 131.562 153.293C132 153.249 132.219 153.293 132.219 153.293C132.219 153.293 132 153.337 131.606 153.337C131.212 153.337 130.599 153.381 129.899 153.381H129.811V153.293C129.811 152.943 129.855 152.593 129.899 152.199C129.899 152.024 129.943 151.805 129.943 151.586C129.943 151.499 129.943 151.367 129.943 151.28V151.105V151.017V150.974C129.855 151.061 130.074 150.842 130.03 150.886C130.862 150.886 131.693 150.886 132.35 150.886H132.437V150.974C132.394 151.674 132.306 152.287 132.262 152.68C132.262 153.074 132.262 153.293 132.219 153.293Z" fill="#263238"/>
<path d="M168.634 156.532C168.634 156.576 161.018 156.62 151.608 156.62C142.198 156.62 134.626 156.576 134.626 156.532C134.626 156.488 142.242 156.445 151.652 156.445C161.018 156.445 168.634 156.488 168.634 156.532Z" fill="#263238"/>
<path d="M131.912 157.714C131.912 157.714 131.912 157.451 131.912 157.057C131.912 156.663 131.956 156.094 132 155.438L132.087 155.525C131.387 155.525 130.599 155.525 129.767 155.525C129.724 155.525 129.986 155.35 129.855 155.438V155.482V155.569V155.744C129.855 155.832 129.855 155.963 129.811 156.051C129.811 156.27 129.767 156.445 129.767 156.663C129.724 157.057 129.724 157.407 129.68 157.758L129.592 157.67C130.293 157.67 130.862 157.714 131.256 157.714C131.693 157.67 131.912 157.67 131.912 157.714C131.912 157.714 131.693 157.758 131.299 157.758C130.905 157.758 130.293 157.801 129.592 157.801H129.505V157.714C129.505 157.364 129.549 157.014 129.592 156.62C129.592 156.445 129.636 156.226 129.636 156.007C129.636 155.919 129.636 155.788 129.636 155.701V155.525V155.438V155.394C129.549 155.482 129.767 155.263 129.724 155.307C130.555 155.307 131.387 155.307 132.043 155.307H132.131V155.394C132.087 156.094 132 156.707 131.956 157.101C131.956 157.495 131.956 157.714 131.912 157.714Z" fill="#263238"/>
<path d="M168.371 160.953C168.371 160.996 160.755 161.04 151.345 161.04C141.935 161.04 134.319 160.996 134.319 160.953C134.319 160.909 141.935 160.865 151.345 160.865C160.755 160.865 168.371 160.909 168.371 160.953Z" fill="#263238"/>
<path d="M131.606 162.091C131.606 162.091 131.606 161.828 131.606 161.434C131.606 161.04 131.65 160.471 131.693 159.815L131.781 159.902C131.081 159.902 130.293 159.902 129.417 159.902C129.374 159.902 129.636 159.727 129.505 159.815V159.859V159.946V160.121C129.505 160.209 129.505 160.34 129.461 160.428C129.461 160.646 129.417 160.821 129.417 161.04C129.374 161.434 129.374 161.784 129.33 162.134L129.242 162.047C129.943 162.047 130.512 162.091 130.905 162.091C131.387 162.091 131.606 162.091 131.606 162.091C131.606 162.091 131.387 162.134 130.993 162.134C130.599 162.134 129.986 162.178 129.242 162.178H129.155V162.091C129.155 161.741 129.199 161.39 129.242 160.996C129.242 160.821 129.286 160.603 129.286 160.384C129.286 160.296 129.286 160.165 129.286 160.077V159.902V159.815V159.771C129.199 159.859 129.417 159.64 129.374 159.683C130.205 159.683 131.037 159.683 131.737 159.683H131.825V159.771C131.781 160.471 131.693 161.084 131.65 161.478C131.65 161.916 131.65 162.134 131.606 162.091Z" fill="#263238"/>
<path d="M167.19 181.174C167.19 181.217 148.938 181.261 126.441 181.261C103.944 181.261 85.7365 181.217 85.7365 181.174C85.7365 181.13 103.988 181.086 126.485 181.086C148.938 181.086 167.19 181.13 167.19 181.174Z" fill="#263238"/>
<path d="M166.839 186.601C166.839 186.645 148.588 186.689 126.047 186.689C103.506 186.689 85.2551 186.645 85.2551 186.601C85.2551 186.557 103.506 186.513 126.047 186.513C148.588 186.47 166.839 186.513 166.839 186.601Z" fill="#263238"/>
<path d="M166.533 192.028C166.533 192.072 148.238 192.116 125.697 192.116C103.113 192.116 84.8612 192.072 84.8612 192.028C84.8612 191.985 103.156 191.941 125.697 191.941C148.238 191.941 166.533 191.985 166.533 192.028Z" fill="#263238"/>
<path d="M93.7024 197.631C93.6586 197.631 94.0088 192.729 94.4902 186.645C94.9717 180.561 95.4094 175.659 95.4531 175.659C95.4969 175.659 95.1467 180.561 94.6653 186.645C94.1838 192.729 93.7462 197.631 93.7024 197.631Z" fill="#263238"/>
<path d="M121.495 196.974C121.452 196.974 121.714 192.291 122.152 186.513C122.546 180.736 122.94 176.009 122.983 176.009C123.027 176.009 122.765 180.692 122.327 186.513C121.933 192.291 121.539 196.974 121.495 196.974Z" fill="#263238"/>
<path d="M150.645 197.981C150.601 197.981 150.864 193.122 151.214 187.17C151.608 181.217 151.958 176.359 152.002 176.359C152.046 176.359 151.783 181.217 151.433 187.17C151.039 193.122 150.689 197.981 150.645 197.981Z" fill="#263238"/>
<path d="M148.238 202.314C148.238 202.358 133.882 202.401 116.199 202.401C98.5169 202.401 84.1609 202.358 84.1609 202.314C84.1609 202.27 98.5169 202.226 116.199 202.226C133.882 202.226 148.238 202.27 148.238 202.314Z" fill="#263238"/>
<path d="M148.019 205.465C148.019 205.509 133.663 205.553 115.937 205.553C98.2105 205.553 83.8545 205.509 83.8545 205.465C83.8545 205.421 98.2105 205.378 115.937 205.378C133.663 205.378 148.019 205.421 148.019 205.465Z" fill="#263238"/>
<path d="M112.873 208.617C112.873 208.66 106.308 208.704 98.2543 208.704C90.2009 208.704 83.6357 208.66 83.6357 208.617C83.6357 208.573 90.2009 208.529 98.2543 208.529C106.308 208.485 112.873 208.529 112.873 208.617Z" fill="#263238"/>
<path d="M101.406 98.8891H97.8166L97.9479 97.1822H107.096L106.964 98.8891H103.375L102.675 107.949H100.662L101.406 98.8891Z" fill="white"/>
<path d="M114.492 105.498H109.065L107.796 107.993H105.739L111.429 97.2259H113.398L117.469 107.993H115.368L114.492 105.498ZM113.923 103.922L112.26 99.1955L109.897 103.922H113.923Z" fill="white"/>
<path d="M125.128 107.949L122.502 103.879L119.307 107.949H117.031L121.452 102.478L118.038 97.1822H120.314L122.808 101.034L125.828 97.1822H128.017L123.859 102.391L127.535 107.949H125.128Z" fill="white"/>
<path d="M144.124 81.9945L135.107 177.103C134.582 182.443 138.74 187.039 144.124 187.039C148.632 187.039 152.483 183.712 153.096 179.204L162.506 81.9945H144.124Z" fill="#B1B1B1"/>
<path d="M59.3442 44.4413C56.6743 44.4413 54.4421 46.4546 54.1357 49.0807L41.1365 172.157C40.2174 179.511 45.0757 187.258 52.4725 187.126H134.801L150.076 50.1749C150.426 47.1549 148.15 44.4413 145.086 44.4413H59.3442Z" fill="white"/>
<path d="M135.939 175.134L134.801 186.864L143.948 187.17L145.962 186.864C146.006 186.864 134.582 186.864 135.939 175.134Z" fill="white"/>
<path d="M161.368 96.2193C161.368 96.2193 161.5 81.338 174.455 81.9945H162.2L161.368 96.2193Z" fill="#B1B1B1"/>
<path d="M173.974 81.9945C173.974 81.9945 173.799 81.9945 173.448 81.9945C173.273 81.9945 173.054 81.9945 172.792 81.9945C172.529 81.9945 172.223 82.0383 171.873 82.0383C171.172 82.1258 170.341 82.2571 169.378 82.5635C168.415 82.8699 167.365 83.3514 166.314 84.1392C165.264 84.927 164.301 86.0212 163.469 87.4218C162.681 88.7786 162.069 90.4418 161.675 92.2363C161.587 92.674 161.5 93.1555 161.456 93.6369C161.412 94.1184 161.368 94.5998 161.325 95.0813C161.237 96.088 161.106 97.0946 161.018 98.1451C160.799 100.246 160.58 102.478 160.362 104.798C158.48 123.487 155.897 149.267 153.009 177.76C152.921 178.635 152.877 179.554 152.658 180.43C152.483 181.305 152.133 182.18 151.652 182.924C150.733 184.456 149.244 185.638 147.669 186.338C146.049 187.082 144.299 187.345 142.548 187.301C140.841 187.301 139.134 187.301 137.427 187.301C130.687 187.301 124.165 187.301 117.95 187.301C105.564 187.301 94.3589 187.301 84.9925 187.258C75.626 187.258 68.0103 187.214 62.7581 187.214C68.0103 187.214 75.5822 187.214 84.9925 187.17C94.3589 187.17 105.564 187.17 117.95 187.126C124.165 187.126 130.687 187.126 137.427 187.126C139.134 187.126 140.797 187.126 142.548 187.126C144.255 187.17 146.006 186.907 147.537 186.163C149.113 185.463 150.514 184.325 151.433 182.837C151.871 182.093 152.221 181.261 152.396 180.43C152.571 179.554 152.615 178.679 152.746 177.804C155.635 149.31 158.261 123.531 160.187 104.842C160.405 102.522 160.668 100.29 160.887 98.1888C160.974 97.1384 161.106 96.1317 161.193 95.1251C161.237 94.6436 161.281 94.1184 161.325 93.6807C161.368 93.1992 161.456 92.7178 161.543 92.2801C161.937 90.4418 162.55 88.7786 163.338 87.4218C164.169 86.0212 165.176 84.927 166.183 84.1392C167.233 83.3514 168.327 82.8699 169.29 82.5635C170.253 82.2571 171.129 82.1258 171.785 82.0383C172.135 82.0383 172.442 81.9945 172.704 81.9945C172.967 81.9945 173.186 81.9945 173.361 81.9945C173.799 81.9945 173.974 81.9945 173.974 81.9945Z" fill="#263238"/>
<path d="M54.092 48.6868L53.3479 55.9961L149.42 56.215L150.12 49.9123C150.514 46.8485 148.15 44.1786 145.043 44.1786H59.3004C56.6305 44.1349 54.4421 46.1045 54.092 48.6868Z" fill="#E0E0E0"/>
<path d="M62.3204 52.4509C63.7466 52.4509 64.9028 51.2947 64.9028 49.8685C64.9028 48.4424 63.7466 47.2862 62.3204 47.2862C60.8942 47.2862 59.7381 48.4424 59.7381 49.8685C59.7381 51.2947 60.8942 52.4509 62.3204 52.4509Z" fill="#D81E05"/>
<path d="M69.8924 52.4509C71.3185 52.4509 72.4747 51.2947 72.4747 49.8685C72.4747 48.4424 71.3185 47.2862 69.8924 47.2862C68.4662 47.2862 67.31 48.4424 67.31 49.8685C67.31 51.2947 68.4662 52.4509 69.8924 52.4509Z" fill="#D81E05"/>
<path d="M77.5081 52.4509C78.9342 52.4509 80.0904 51.2947 80.0904 49.8685C80.0904 48.4424 78.9342 47.2862 77.5081 47.2862C76.0819 47.2862 74.9257 48.4424 74.9257 49.8685C74.9257 51.2947 76.0819 52.4509 77.5081 52.4509Z" fill="#D81E05"/>
<path d="M97.7291 81.9508H56.6743L58.4688 59.979H99.261L97.7291 81.9508Z" fill="#D81E05"/>
<path d="M138.215 65.0562C138.215 65.0999 130.862 65.1437 121.802 65.1437C112.742 65.1437 105.389 65.0999 105.389 65.0562C105.389 65.0124 112.742 64.9686 121.802 64.9686C130.862 64.9249 138.215 64.9686 138.215 65.0562Z" fill="#263238"/>
<path d="M137.996 68.9953C137.996 69.0391 130.643 69.0829 121.583 69.0829C112.523 69.0829 105.17 69.0391 105.17 68.9953C105.17 68.9516 112.523 68.9078 121.583 68.9078C130.643 68.9078 137.996 68.9516 137.996 68.9953Z" fill="#263238"/>
<path d="M137.733 72.9345C137.733 72.9782 130.38 73.022 121.276 73.022C112.216 73.022 104.82 72.9782 104.863 72.9345C104.863 72.8907 112.216 72.8469 121.32 72.8469C130.38 72.8469 137.733 72.8907 137.733 72.9345Z" fill="#263238"/>
<path d="M124.428 76.8736C124.428 76.9174 119.963 76.9612 114.492 76.9612C109.021 76.9612 104.601 76.9174 104.601 76.8736C104.601 76.8299 109.065 76.7861 114.536 76.7861C120.007 76.7861 124.428 76.8299 124.428 76.8736Z" fill="#263238"/>
<path d="M138.215 86.4151C138.215 86.4589 119.963 86.5027 97.4665 86.5027C74.9695 86.5027 56.7181 86.4589 56.7619 86.4151C56.7619 86.3714 75.0133 86.3276 97.5102 86.3276C120.007 86.2838 138.215 86.3276 138.215 86.4151Z" fill="#263238"/>
<path d="M138.084 88.8224C138.084 88.8662 120.007 88.9099 97.7728 88.9099C75.4947 88.9099 57.4622 88.8662 57.4622 88.8224C57.4622 88.7786 75.4947 88.7349 97.7728 88.7349C120.051 88.7349 138.084 88.7786 138.084 88.8224Z" fill="#263238"/>
<path d="M137.558 97.4448H55.8427L56.2366 92.7616H137.865L137.558 97.4448Z" fill="#E0E0E0"/>
<path d="M134.144 140.425H51.4659L51.816 135.742H134.451L134.144 140.425Z" fill="#E0E0E0"/>
<path d="M87.0058 117.316H54.2233L54.6172 112.632H87.356L87.0058 117.316Z" fill="#E0E0E0"/>
<path d="M135.501 117.316H94.534L94.8841 112.632H135.808L135.501 117.316Z" fill="#E0E0E0"/>
<path d="M102.806 101.603C102.806 101.647 92.3018 101.69 79.3463 101.69C66.3909 101.69 55.8865 101.647 55.8865 101.603C55.8865 101.559 66.3909 101.515 79.3463 101.515C92.3018 101.471 102.806 101.515 102.806 101.603Z" fill="#263238"/>
<path d="M136.639 105.279C136.639 105.323 118.475 105.367 96.0659 105.367C73.6565 105.367 55.4926 105.323 55.4926 105.279C55.4926 105.236 73.6565 105.192 96.0659 105.192C118.475 105.192 136.639 105.236 136.639 105.279Z" fill="#263238"/>
<path d="M136.464 108.781C136.464 108.825 118.256 108.868 95.847 108.868C73.3938 108.868 55.2299 108.825 55.2299 108.781C55.2299 108.737 73.4376 108.693 95.847 108.693C118.256 108.693 136.464 108.737 136.464 108.781Z" fill="#263238"/>
<path d="M86.5244 120.204C86.5244 120.248 79.1713 120.292 70.1112 120.292C61.0512 120.292 53.7419 120.248 53.7419 120.204C53.7419 120.161 61.0949 120.117 70.155 120.117C79.1713 120.117 86.5244 120.161 86.5244 120.204Z" fill="#263238"/>
<path d="M86.2618 123.793C86.2618 123.837 79.04 123.881 70.1112 123.881C61.1825 123.881 53.9607 123.837 54.0045 123.793C54.0045 123.75 61.2263 123.706 70.155 123.706C79.04 123.706 86.2618 123.75 86.2618 123.793Z" fill="#263238"/>
<path d="M85.8679 127.47C85.8679 127.514 78.5585 127.557 69.586 127.557C60.5697 127.557 53.3042 127.514 53.3042 127.47C53.3042 127.426 60.6135 127.382 69.586 127.382C78.5585 127.339 85.8679 127.426 85.8679 127.47Z" fill="#263238"/>
<path d="M85.6052 131.015C85.6052 131.059 78.2959 131.103 69.2796 131.103C60.2633 131.103 52.9978 131.059 52.9978 131.015C52.9978 130.971 60.3071 130.928 69.3234 130.928C78.2959 130.928 85.6052 130.971 85.6052 131.015Z" fill="#263238"/>
<path d="M134.67 121.036C134.67 121.08 127.054 121.123 117.687 121.123C108.321 121.123 100.705 121.08 100.705 121.036C100.705 120.992 108.321 120.948 117.687 120.948C127.098 120.948 134.67 120.992 134.67 121.036Z" fill="#263238"/>
<path d="M98.0354 122.174C98.0354 122.174 98.0354 121.911 98.0354 121.517C98.0354 121.123 98.0792 120.554 98.123 119.898L98.2105 119.986C97.5102 119.986 96.7224 119.986 95.8908 119.986C95.847 119.986 96.1096 119.81 95.9783 119.898V119.942V120.029V120.204C95.9783 120.292 95.9783 120.423 95.9346 120.511C95.9346 120.73 95.8908 120.905 95.8908 121.123C95.847 121.517 95.847 121.868 95.8032 122.218L95.7157 122.13C96.416 122.13 96.985 122.174 97.3789 122.174C97.7728 122.174 98.0354 122.174 98.0354 122.174C98.0354 122.174 97.8166 122.218 97.4227 122.218C97.0288 122.218 96.416 122.261 95.7157 122.261H95.6282V122.174C95.6282 121.824 95.6719 121.474 95.7157 121.08C95.7157 120.905 95.7595 120.686 95.7595 120.467C95.7595 120.379 95.7595 120.248 95.7595 120.161V119.986V119.898V119.854C95.6719 119.942 95.8908 119.723 95.847 119.767C96.6786 119.767 97.5102 119.767 98.1667 119.767H98.2543V119.854C98.2105 120.554 98.123 121.167 98.0792 121.561C98.0792 121.999 98.0354 122.218 98.0354 122.174Z" fill="#263238"/>
<path d="M134.407 125.457C134.407 125.5 126.791 125.544 117.381 125.544C107.971 125.544 100.399 125.5 100.399 125.457C100.399 125.413 108.015 125.369 117.425 125.369C126.791 125.369 134.407 125.413 134.407 125.457Z" fill="#263238"/>
<path d="M97.7291 126.595C97.7291 126.595 97.7291 126.332 97.7291 125.938C97.7291 125.544 97.7729 124.975 97.8166 124.319L97.9042 124.406C97.2039 124.406 96.416 124.406 95.5844 124.406C95.5407 124.406 95.8033 124.231 95.672 124.319V124.362V124.45V124.625C95.672 124.712 95.672 124.844 95.6282 124.931C95.6282 125.15 95.5844 125.325 95.5844 125.544C95.5407 125.938 95.5407 126.288 95.4969 126.638L95.4094 126.551C96.1097 126.551 96.6787 126.595 97.0726 126.595C97.4665 126.595 97.7291 126.595 97.7291 126.595C97.7291 126.595 97.5103 126.638 97.1163 126.638C96.7224 126.638 96.1097 126.682 95.4094 126.682H95.3218V126.595C95.3218 126.244 95.3656 125.894 95.4094 125.5C95.4094 125.325 95.4531 125.106 95.4531 124.888C95.4531 124.8 95.4531 124.669 95.4531 124.581V124.406V124.319V124.275C95.3656 124.362 95.5844 124.143 95.5407 124.187C96.3723 124.187 97.2039 124.187 97.8604 124.187H97.9479V124.275C97.9042 124.975 97.8166 125.588 97.7729 125.982C97.7729 126.376 97.7291 126.595 97.7291 126.595Z" fill="#263238"/>
<path d="M134.144 129.877C134.144 129.921 126.529 129.965 117.118 129.965C107.708 129.965 100.093 129.921 100.093 129.877C100.093 129.833 107.708 129.79 117.118 129.79C126.529 129.746 134.144 129.79 134.144 129.877Z" fill="#263238"/>
<path d="M97.4227 131.015C97.4227 131.015 97.4227 130.753 97.4227 130.359C97.4227 129.965 97.4664 129.396 97.5102 128.739L97.5978 128.827C96.8975 128.827 96.1096 128.827 95.2343 128.827C95.1905 128.827 95.4531 128.652 95.3218 128.739V128.783V128.87V129.046C95.3218 129.133 95.3218 129.264 95.278 129.352C95.278 129.571 95.2343 129.746 95.2343 129.965C95.1905 130.359 95.1905 130.709 95.1467 131.059L95.0592 130.971C95.7595 130.971 96.3285 131.015 96.7224 131.015C97.1601 130.971 97.4227 131.015 97.4227 131.015C97.4227 131.015 97.2038 131.059 96.8099 131.059C96.416 131.059 95.8032 131.103 95.0592 131.103H94.9716V131.015C94.9716 130.665 95.0154 130.315 95.0592 129.921C95.0592 129.746 95.103 129.527 95.103 129.308C95.103 129.221 95.103 129.089 95.103 129.002V128.827V128.739V128.695C95.0154 128.783 95.2343 128.564 95.1905 128.608C96.0221 128.608 96.8537 128.608 97.554 128.608H97.6415V128.695C97.5978 129.396 97.5102 130.008 97.4664 130.402C97.4664 130.796 97.4227 131.015 97.4227 131.015Z" fill="#263238"/>
<path d="M132 166.336C132 166.336 132 166.205 132 165.942C132 165.68 132.043 165.33 132.043 164.848C132.087 163.885 132.175 162.441 132.262 160.603C132.481 156.882 132.788 151.455 133.181 144.583L133.225 144.627C114.536 144.627 84.9487 144.671 51.6847 144.671L51.816 144.583C51.2033 152.068 50.5905 159.333 50.0215 166.292L49.934 166.205C73.3938 166.205 93.8774 166.249 108.54 166.249C115.849 166.249 121.714 166.249 125.741 166.292C127.754 166.292 129.33 166.292 130.38 166.292C130.905 166.292 131.299 166.292 131.562 166.292C131.868 166.336 132 166.336 132 166.336C132 166.336 131.868 166.336 131.606 166.336C131.343 166.336 130.949 166.336 130.424 166.336C129.374 166.336 127.842 166.336 125.828 166.336C121.802 166.336 115.937 166.336 108.627 166.38C93.965 166.38 73.4376 166.424 49.9777 166.424H49.8902V166.336C50.4592 159.377 51.0719 152.068 51.6847 144.627V144.54H51.7722C85.0362 144.54 114.624 144.583 133.313 144.583H133.357V144.627C132.919 151.499 132.612 156.926 132.394 160.646C132.262 162.485 132.175 163.929 132.131 164.892C132.087 165.373 132.087 165.723 132.043 165.986C132 166.249 132 166.336 132 166.336Z" fill="#263238"/>
<path d="M132.963 150.098C132.963 150.142 114.711 150.186 92.2142 150.186C69.7173 150.186 51.5096 150.142 51.5096 150.098C51.5096 150.054 69.7611 150.011 92.258 150.011C114.755 150.011 132.963 150.054 132.963 150.098Z" fill="#263238"/>
<path d="M132.656 155.482C132.656 155.525 114.405 155.569 91.8641 155.569C69.3234 155.569 51.072 155.525 51.072 155.482C51.072 155.438 69.3234 155.394 91.8641 155.394C114.405 155.394 132.656 155.438 132.656 155.482Z" fill="#263238"/>
<path d="M132.306 160.953C132.306 160.996 114.011 161.04 91.4702 161.04C68.8857 161.04 50.6343 160.996 50.6343 160.953C50.6343 160.909 68.9295 160.865 91.4702 160.865C114.055 160.865 132.306 160.909 132.306 160.953Z" fill="#263238"/>
<path d="M59.4755 166.555C59.4317 166.555 59.7818 161.653 60.2633 155.569C60.7447 149.485 61.1824 144.583 61.2262 144.583C61.27 144.583 60.9198 149.485 60.4384 155.569C59.9569 161.609 59.5192 166.555 59.4755 166.555Z" fill="#263238"/>
<path d="M87.2684 165.899C87.2246 165.899 87.4873 161.215 87.9249 155.438C88.3189 149.66 88.7128 144.933 88.7565 144.933C88.8003 144.933 88.5377 149.617 88.1 155.438C87.7061 161.172 87.3122 165.899 87.2684 165.899Z" fill="#263238"/>
<path d="M116.462 166.861C116.418 166.861 116.681 162.003 117.031 156.051C117.425 150.098 117.775 145.24 117.819 145.24C117.863 145.24 117.6 150.098 117.25 156.051C116.856 162.047 116.506 166.861 116.462 166.861Z" fill="#263238"/>
<path d="M114.011 171.238C114.011 171.282 99.6549 171.326 81.9725 171.326C64.29 171.326 49.934 171.282 49.934 171.238C49.934 171.195 64.29 171.151 81.9725 171.151C99.6987 171.107 114.055 171.151 114.011 171.238Z" fill="#263238"/>
<path d="M113.836 174.346C113.836 174.39 99.4798 174.433 81.7536 174.433C64.0274 174.433 49.6714 174.39 49.6714 174.346C49.6714 174.302 64.0274 174.258 81.7536 174.258C99.4798 174.258 113.836 174.302 113.836 174.346Z" fill="#263238"/>
<path d="M78.6461 177.497C78.6461 177.541 72.0808 177.585 64.0274 177.585C55.974 177.585 49.4088 177.541 49.4088 177.497C49.4088 177.453 55.974 177.41 64.0274 177.41C72.1246 177.41 78.6461 177.453 78.6461 177.497Z" fill="#263238"/>
<path d="M82.8478 95.6503C82.8478 95.694 77.5081 95.7816 70.899 95.7816C64.29 95.7816 58.9503 95.7378 58.9503 95.6503C58.9503 95.6065 64.29 95.519 70.899 95.519C77.5081 95.5627 82.8478 95.6065 82.8478 95.6503Z" fill="#263238"/>
<path d="M52.5163 186.864C52.5163 186.864 52.2099 186.864 51.5534 186.82C51.3783 186.82 51.2032 186.82 51.0282 186.776C50.8531 186.732 50.6343 186.689 50.3716 186.645C49.8902 186.601 49.4087 186.426 48.796 186.207C47.658 185.769 46.3012 185.025 44.9881 183.756C43.7188 182.487 42.5371 180.692 41.7493 178.504C41.5742 177.935 41.3991 177.366 41.2678 176.753C41.2241 176.447 41.1365 176.14 41.0927 175.834C41.049 175.528 41.0052 175.221 41.0052 174.871C40.9614 174.565 40.9614 174.215 40.9614 173.864C40.9614 173.514 40.9177 173.208 40.9614 172.858C41.0052 172.508 41.0052 172.157 41.049 171.807C41.0927 171.457 41.1365 171.107 41.1803 170.757C41.4867 167.912 41.793 164.848 42.1432 161.565C42.8435 154.956 43.6313 147.428 44.5067 139.156C46.2574 122.524 48.3583 102.741 50.6343 80.769C51.2032 75.2542 51.816 69.6519 52.4288 63.8744C52.7351 60.9857 53.0415 58.097 53.3479 55.1645C53.523 53.6764 53.6543 52.232 53.8293 50.7439C53.9169 49.9998 53.9607 49.2558 54.092 48.5117C54.2233 47.7677 54.4859 47.0236 54.9236 46.3671C55.3612 45.7105 55.9302 45.1853 56.543 44.7914C57.1995 44.3975 57.9436 44.1349 58.7314 44.0473C59.1253 44.0036 59.5192 44.0036 59.8694 44.0036H61.0074C61.7514 44.0036 62.5393 44.0036 63.2833 44.0036C66.3471 44.0036 69.4109 44.0036 72.5184 44.0036C78.7336 44.0036 85.0362 44.0036 91.3826 44.0036C104.119 44.0036 116.593 44.0036 128.63 44.0036C131.65 44.0036 134.626 44.0036 137.558 44.0036C139.046 44.0036 140.491 44.0036 141.979 44.0036C142.723 44.0036 143.423 44.0036 144.167 44.0036C144.868 44.0036 145.655 43.9598 146.356 44.1786C147.8 44.5288 149.026 45.5792 149.682 46.8485C150.032 47.505 150.207 48.2053 150.251 48.9494C150.295 49.6935 150.164 50.3938 150.12 51.0941C149.813 53.8952 149.507 56.6964 149.201 59.41C146.75 81.3818 144.517 101.165 142.679 117.753C140.797 134.342 139.309 147.778 138.259 157.101C137.733 161.741 137.339 165.33 137.033 167.781C136.902 169.006 136.77 169.925 136.727 170.582C136.639 171.195 136.595 171.545 136.595 171.545C136.595 171.545 136.639 171.238 136.683 170.582C136.77 169.969 136.858 169.006 136.989 167.781C137.252 165.33 137.646 161.741 138.171 157.101C139.178 147.822 140.666 134.385 142.504 117.753C144.342 101.165 146.531 81.3818 148.982 59.41C149.288 56.6526 149.595 53.8952 149.901 51.0941C149.989 50.3938 150.076 49.6935 150.032 48.9932C149.988 48.2929 149.813 47.5926 149.507 46.9798C148.894 45.7105 147.713 44.7476 146.312 44.3975C145.612 44.2224 144.911 44.2662 144.167 44.2662C143.423 44.2662 142.723 44.2662 141.979 44.2662C140.535 44.2662 139.046 44.2662 137.558 44.2662C134.626 44.2662 131.65 44.2662 128.63 44.2662C116.593 44.2662 104.163 44.2662 91.3826 44.2662C84.9924 44.2662 78.6898 44.2662 72.5184 44.2662C69.4109 44.2662 66.3471 44.2662 63.2833 44.2662C62.5393 44.2662 61.7514 44.2662 61.0074 44.2662H59.8694C59.4755 44.2662 59.1253 44.2662 58.7314 44.31C57.9873 44.3975 57.2871 44.6601 56.6743 45.054C56.0615 45.4479 55.4925 45.9732 55.0986 46.5859C54.7047 47.1987 54.4421 47.899 54.3108 48.643C54.2233 49.3871 54.1357 50.1311 54.0482 50.8752C53.8731 52.3633 53.7418 53.8515 53.5667 55.2958C53.2604 58.2283 52.954 61.117 52.6476 64.0057C52.0348 69.7394 51.4221 75.3855 50.8531 80.9003C48.5334 102.872 46.4325 122.655 44.6818 139.287C43.8064 147.603 43.0186 155.132 42.2745 161.697C41.9243 164.979 41.5742 168.087 41.3116 170.888C41.2678 171.238 41.224 171.588 41.1803 171.939C41.1365 172.289 41.1365 172.639 41.0927 172.945C41.049 173.295 41.049 173.602 41.0927 173.952C41.0927 174.302 41.0927 174.608 41.1365 174.915C41.1803 175.221 41.224 175.571 41.224 175.878C41.2678 176.184 41.3554 176.49 41.3991 176.797C41.4867 177.41 41.7055 177.979 41.8806 178.548C42.6246 180.78 43.8064 182.531 45.0757 183.8C46.345 185.069 47.7018 185.813 48.8397 186.295C49.4087 186.47 49.934 186.689 50.4154 186.732C50.6343 186.776 50.8531 186.82 51.0282 186.864C51.2032 186.907 51.3783 186.907 51.5534 186.907C52.1661 186.82 52.5163 186.864 52.5163 186.864Z" fill="#263238"/>
<path d="M176.731 161.04C176.731 161.04 176.819 161.04 177.037 161.04C177.256 161.04 177.563 161.04 177.956 161.04C178.788 161.04 179.97 161.04 181.502 160.996C184.566 160.953 189.074 160.953 194.632 160.909H194.72V160.996C194.326 167.08 193.844 174.608 193.188 183.056C192.882 187.301 192.531 191.722 192.094 196.361C191.875 198.681 191.656 201.045 191.35 203.452C191.262 204.065 191.131 204.634 191.043 205.246C190.868 205.859 190.737 206.428 190.562 206.997C190.168 208.179 189.643 209.317 188.942 210.367C188.286 211.374 187.454 212.293 186.448 212.906C185.528 213.606 184.434 214 183.34 214.219C182.246 214.394 181.108 214.394 180.014 214.219C177.825 213.869 175.856 212.818 174.28 211.33C172.748 209.842 171.785 207.916 171.304 205.903C170.822 203.933 170.778 201.92 170.91 199.994C170.997 199.031 171.085 198.068 171.216 197.149C171.304 196.23 171.435 195.311 171.523 194.392C171.741 192.597 171.916 190.803 172.135 189.14C172.529 185.726 172.879 182.574 173.186 179.686C173.842 173.908 174.367 169.269 174.761 166.074C174.936 164.454 175.112 163.229 175.199 162.397C175.243 161.959 175.287 161.653 175.33 161.434C175.374 161.215 175.374 161.128 175.374 161.128C175.374 161.128 175.374 161.259 175.33 161.434C175.287 161.653 175.287 161.959 175.243 162.397C175.155 163.229 175.024 164.498 174.849 166.074C174.499 169.269 173.974 173.952 173.361 179.686C173.054 182.574 172.704 185.726 172.31 189.14C172.135 190.847 171.916 192.597 171.741 194.392C171.654 195.311 171.523 196.23 171.435 197.149C171.347 198.068 171.216 199.031 171.129 199.994C170.997 201.92 171.041 203.889 171.523 205.859C172.004 207.785 172.967 209.667 174.455 211.155C175.943 212.599 177.913 213.606 180.057 213.956C181.108 214.131 182.202 214.175 183.296 213.956C184.39 213.781 185.397 213.343 186.316 212.687C187.235 212.118 188.067 211.243 188.724 210.236C189.424 209.229 189.905 208.091 190.299 206.953C190.518 206.384 190.649 205.772 190.781 205.203C190.912 204.59 191.043 204.021 191.087 203.408C191.437 201.045 191.656 198.681 191.875 196.361C192.313 191.722 192.663 187.258 192.969 183.056C193.626 174.608 194.151 167.124 194.545 160.996L194.632 161.084C189.03 161.084 184.566 161.128 181.502 161.128C179.97 161.128 178.788 161.128 177.956 161.128C177.563 161.128 177.256 161.128 177.037 161.128C176.819 161.084 176.731 161.04 176.731 161.04Z" fill="#263238"/>
<path d="M77.0704 187.608C77.0704 187.608 77.0704 187.739 77.0266 187.958C76.9828 188.177 76.9391 188.483 76.8953 188.921C76.764 189.796 76.6327 191.022 76.4139 192.641C76.195 194.26 75.9324 196.23 75.626 198.506C75.4947 199.644 75.2759 200.869 75.1446 202.183C75.0133 203.452 75.1446 204.852 75.5823 206.253C76.4576 209.01 78.6461 211.593 81.7536 212.993C83.2855 213.694 85.0362 214.131 86.8307 214.131C88.6252 214.175 90.5073 214.131 92.4331 214.131C100.136 214.131 108.584 214.131 117.425 214.131C135.151 214.131 151.214 214.175 162.856 214.175C168.678 214.175 173.361 214.219 176.643 214.219C178.263 214.219 179.532 214.219 180.408 214.219C180.845 214.219 181.152 214.219 181.37 214.219C181.152 214.219 180.801 214.219 180.408 214.219C179.532 214.219 178.307 214.219 176.643 214.219C173.405 214.219 168.678 214.219 162.856 214.263C151.214 214.263 135.151 214.263 117.425 214.306C108.54 214.306 100.093 214.306 92.4331 214.306C90.5073 214.306 88.6252 214.306 86.8307 214.263C84.9925 214.219 83.2417 213.781 81.6661 213.081C78.5147 211.636 76.2826 209.01 75.4072 206.209C74.9695 204.809 74.8382 203.408 74.9695 202.095C75.1008 200.782 75.3196 199.556 75.451 198.418C75.7573 196.142 76.0199 194.173 76.2388 192.553C76.4576 190.934 76.6327 189.709 76.764 188.833C76.8078 188.395 76.8515 188.089 76.8953 187.87C77.0266 187.695 77.0704 187.608 77.0704 187.608Z" fill="#263238"/>
<path d="M175.374 161.04C175.374 161.04 175.374 160.953 175.374 160.821C175.374 160.646 175.418 160.471 175.418 160.165C175.462 159.596 175.549 158.764 175.637 157.714C175.856 155.569 176.162 152.462 176.556 148.654C177.344 140.994 178.438 130.446 179.663 118.76C180.276 112.939 180.889 107.38 181.414 102.303C181.677 99.7645 181.939 97.3572 182.202 95.1251C182.333 93.9871 182.421 92.9366 182.552 91.8862C182.596 91.361 182.684 90.8358 182.727 90.3543C182.771 90.0917 182.771 89.8728 182.815 89.6102C182.815 89.3476 182.815 89.1288 182.859 88.9099C182.815 87.947 182.552 87.0717 182.158 86.3276C181.764 85.5835 181.239 84.927 180.67 84.4456C179.532 83.4389 178.307 82.8699 177.3 82.5635C176.775 82.3885 176.337 82.3009 175.899 82.2134C175.505 82.1696 175.155 82.0821 174.849 82.0821C174.586 82.0821 174.368 82.0383 174.192 82.0383C174.368 82.0383 174.543 82.0383 174.849 82.0383C175.112 82.0383 175.462 82.0821 175.899 82.1696C176.293 82.2571 176.775 82.3447 177.3 82.5198C178.307 82.8261 179.576 83.3951 180.714 84.4018C181.283 84.8833 181.808 85.5398 182.246 86.3276C182.684 87.0717 182.946 87.9908 182.99 88.9975C182.99 89.2601 182.99 89.4789 182.946 89.7415C182.946 90.0042 182.902 90.223 182.859 90.4856C182.815 90.9671 182.771 91.4923 182.684 92.0175C182.596 93.0679 182.465 94.1622 182.333 95.2564C182.115 97.4885 181.852 99.8958 181.589 102.434C181.064 107.512 180.495 113.07 179.882 118.891C178.657 130.577 177.519 141.126 176.687 148.785C176.25 152.593 175.943 155.701 175.681 157.845C175.549 158.896 175.462 159.727 175.418 160.296C175.374 160.559 175.374 160.778 175.33 160.953C175.374 160.996 175.374 161.04 175.374 161.04Z" fill="#263238"/>
<path d="M77.8732 70.0853L78.1218 67.794C78.5329 67.8709 78.9191 68.0408 79.2971 68.2417C79.6047 68.457 79.8194 68.6473 79.8194 68.6473L79.8669 68.5937L80.308 67.8152L80.4198 67.6459L80.0463 67.1805L79.8272 67.2546C79.342 66.9586 78.8175 66.6852 78.2121 66.5894L78.35 65.3311L77.9826 64.967L77.9616 65.2935L77.4099 65.2453L77.2637 66.5345C75.4743 66.52 74.533 67.4301 74.42 68.5954C74.2611 70.1801 75.5436 70.723 76.7891 71.1564L76.5488 73.4167C75.6956 73.2545 74.8778 72.8361 74.3887 72.3066L73.7634 73.401C74.3061 73.9782 75.3408 74.4547 76.4502 74.6523L76.3644 75.5924L75.914 75.5381L76.3206 75.8795L77.2607 75.9654L77.3986 74.7071C79.188 74.7217 80.1603 73.8199 80.2733 72.6546C80.4405 71.0389 79.1187 70.5186 77.8732 70.0853ZM76.9685 69.7432C76.3427 69.4759 75.8575 69.1799 75.9367 68.6365C75.9992 68.1551 76.3717 67.7567 77.1817 67.7081L76.9685 69.7432ZM77.5365 73.4489L77.7414 71.4448C78.3982 71.7204 78.8834 72.0165 78.7959 72.5908C78.7643 73.0805 78.3775 73.4086 77.5365 73.4489Z" fill="white"/>
</svg>
