<svg width="110" height="94" viewBox="0 0 110 94" fill="none" xmlns="http://www.w3.org/2000/svg">
<circle opacity="0.1" cx="50.5059" cy="46.8821" r="46.8821" fill="#D81E05"/>
<path d="M90.2568 77.8621C85.6037 74.5977 84.5318 68.5804 84.7267 63.1479C84.7511 62.2465 84.6536 61.2964 85.0922 60.4925C85.5307 59.6886 86.5295 59.1526 87.3334 59.5424C88.0155 59.8591 88.3079 60.6387 88.6733 61.2964C89.1849 62.1491 89.9157 62.8799 90.7927 63.3184C91.3774 63.6107 92.0839 63.8056 92.6442 63.4889C93.4237 63.0504 93.5212 61.9785 93.5212 61.0772C93.5212 59.3962 93.4968 57.7153 93.4968 56.0344C93.4968 55.133 93.4968 54.2073 93.7648 53.3546C94.0571 52.502 94.6662 51.698 95.5188 51.4544C96.3715 51.2108 97.4434 51.698 97.6139 52.5994C97.687 52.9648 97.6139 53.3546 97.6382 53.72C97.6626 54.0854 97.8331 54.4996 98.1986 54.6214C98.564 54.7188 98.9294 54.4752 99.1974 54.2073C100.123 53.3059 100.757 52.1365 101.341 50.9672C101.926 49.7978 102.511 48.6041 103.339 47.6053C104.191 46.6065 105.361 45.8269 106.652 45.7539C107.943 45.6808 109.307 46.4847 109.648 47.7515C109.965 49.0183 109.234 50.3094 108.43 51.3326C107.237 52.8674 105.824 54.2073 104.24 55.3279C103.948 55.5228 103.656 55.742 103.534 56.0831C103.339 56.6921 103.899 57.2768 104.508 57.4717C105.19 57.6909 105.897 57.6178 106.603 57.7153C107.31 57.7884 108.065 58.1051 108.333 58.7628C108.698 59.6886 107.943 60.6386 107.164 61.272C105.653 62.5388 103.923 63.5377 102.072 64.2198C101.414 64.4634 100.708 64.6826 100.172 65.1455C99.6359 65.6084 99.3192 66.4123 99.6359 67.0457C99.9526 67.6791 100.781 67.874 101.487 67.7522C102.169 67.6304 102.803 67.2406 103.461 66.997C104.703 66.5341 106.287 66.6072 107.09 67.6791C107.602 68.3856 107.651 69.36 107.383 70.2127C107.115 71.0409 106.579 71.7718 106.019 72.4295C104.045 74.7682 101.487 76.6441 98.6127 77.6185C95.7868 78.6417 93.1314 78.9097 90.2568 77.8621Z" fill="#E8505B"/>
<path d="M90.1834 81.8819C90.3783 79.7381 90.8412 77.1802 91.6451 74.4517C92.449 71.7232 93.5697 68.7755 94.8608 65.7547C95.1775 64.9995 95.4942 64.2443 95.8109 63.5134C96.1276 62.7826 96.4443 62.0518 96.7854 61.3696C97.4918 59.981 98.2471 58.6899 99.0266 57.4962C99.8062 56.3025 100.586 55.2062 101.317 54.1587C102.047 53.1355 102.754 52.1854 103.436 51.3571C104.776 49.6762 106.043 48.4581 106.92 47.6786C107.358 47.2888 107.724 46.9721 107.967 46.7772C108.089 46.6798 108.186 46.6067 108.235 46.5579C108.308 46.5092 108.333 46.4849 108.333 46.4849C108.333 46.4849 108.308 46.5092 108.235 46.5823C108.162 46.631 108.089 46.7285 107.967 46.8259C107.724 47.0452 107.383 47.3375 106.944 47.7517C106.067 48.5556 104.849 49.798 103.509 51.4789C102.827 52.3072 102.145 53.2573 101.414 54.2805C100.683 55.3037 99.9036 56.4243 99.1484 57.618C98.3932 58.8117 97.6137 60.0785 96.9315 61.4671C96.5905 62.1492 96.2738 62.88 95.9571 63.6109C95.6404 64.3417 95.3237 65.0969 95.007 65.8521C93.7158 68.8729 92.5952 71.7963 91.7913 74.5248C90.9874 77.2532 90.5001 79.7868 90.2809 81.9306" fill="#263238"/>
<path d="M96.8586 61.3733C96.8586 61.3733 96.8099 61.2272 96.7612 60.9835C96.7124 60.7399 96.6637 60.3745 96.5906 59.9116C96.4688 59.0103 96.3227 57.7678 96.1765 56.4036C96.0303 55.0394 95.8842 53.7969 95.738 52.8956C95.6649 52.4571 95.6162 52.0916 95.5675 51.848C95.5187 51.6044 95.4944 51.4583 95.5187 51.4583C95.5187 51.4583 95.5675 51.5801 95.6405 51.848C95.7136 52.0916 95.7867 52.4571 95.8598 52.8956C96.0303 53.7969 96.2009 55.0394 96.347 56.4036C96.4932 57.7678 96.615 58.9859 96.7125 59.9116C96.7612 60.3258 96.7855 60.6912 96.8343 60.9835C96.8586 61.2272 96.8586 61.3733 96.8586 61.3733Z" fill="#263238"/>
<path d="M108.455 59.1985C108.455 59.1985 108.284 59.2228 107.992 59.2472C107.699 59.2716 107.261 59.3203 106.725 59.369C105.653 59.4908 104.191 59.6857 102.608 60.0024C101 60.3191 99.5627 60.6358 98.5396 60.9281C98.028 61.05 97.6138 61.1718 97.3215 61.2692C97.0291 61.3423 96.883 61.391 96.8586 61.391C96.8586 61.391 97.0048 61.3179 97.2971 61.2205C97.5895 61.123 98.0036 60.9769 98.5152 60.8307C99.5384 60.5384 100.976 60.1729 102.584 59.8562C104.191 59.5639 105.653 59.369 106.725 59.2716C107.261 59.2228 107.699 59.1985 107.992 59.1985C108.284 59.1985 108.455 59.1985 108.455 59.1985Z" fill="#263238"/>
<path d="M91.8155 74.2602C91.8155 74.2602 91.7912 74.2115 91.7424 74.1141C91.6937 73.9923 91.6206 73.8705 91.5476 73.6999C91.377 73.3345 91.1334 72.7986 90.8654 72.1408C90.3051 70.8253 89.5986 68.9495 88.8191 66.9031C88.0639 64.8324 87.3574 62.9809 86.8215 61.6411C86.5535 60.9833 86.3586 60.4474 86.1881 60.0576C86.115 59.887 86.0663 59.7409 86.0175 59.6191C85.9688 59.5216 85.9688 59.4729 85.9688 59.4729C85.9688 59.4729 85.9932 59.5216 86.0419 59.6191C86.0906 59.7409 86.1637 59.8627 86.2368 60.0332C86.4073 60.3986 86.6509 60.9346 86.9189 61.5923C87.4792 62.9078 88.1857 64.7837 88.9653 66.83C89.7205 68.9007 90.4269 70.7522 90.9629 72.0921C91.2309 72.7498 91.4258 73.2858 91.5963 73.6756C91.6694 73.8461 91.7181 73.9923 91.7668 74.1141C91.7912 74.1872 91.8155 74.2602 91.8155 74.2602Z" fill="#263238"/>
<path d="M107.212 69.2922C107.212 69.2922 107.164 69.3166 107.066 69.3653C106.944 69.414 106.798 69.4628 106.628 69.5115C106.214 69.6333 105.653 69.8282 104.971 70.0474C103.583 70.5103 101.658 71.1437 99.5386 71.8502C97.4191 72.5567 95.4946 73.1901 94.106 73.6286C93.3995 73.8478 92.8392 73.994 92.4494 74.1158C92.2545 74.1645 92.1083 74.2132 91.9865 74.2376C91.8891 74.262 91.816 74.262 91.816 74.262C91.816 74.262 91.8647 74.2376 91.9622 74.1889C92.084 74.1401 92.2302 74.0914 92.4007 74.0427C92.8148 73.9209 93.3751 73.726 94.0572 73.5068C95.4458 73.0439 97.3704 72.4105 99.4898 71.704C101.609 70.9975 103.534 70.3641 104.922 69.9256C105.629 69.7064 106.189 69.5602 106.579 69.4384C106.774 69.3897 106.92 69.341 107.042 69.3166C107.139 69.2922 107.212 69.2922 107.212 69.2922Z" fill="#263238"/>
<path d="M93.626 88.7885H11.0315C9.25961 88.7885 7.79776 87.2051 7.79776 85.2318V27.5685C7.79776 25.6196 9.23746 24.0117 11.0315 24.0117H93.626C95.398 24.0117 96.8598 25.5952 96.8598 27.5685V85.2318C96.8377 87.2051 95.398 88.7885 93.626 88.7885Z" fill="#737373"/>
<path d="M96.6164 89.6633H8.01947C5.84884 89.6633 4.0769 87.7143 4.0769 85.3269V83.9871H100.559V85.3269C100.559 87.7387 98.787 89.6633 96.6164 89.6633Z" fill="#737373"/>
<path d="M94.2021 26.5938H10.19V81.285H94.2021V26.5938Z" fill="#455A64"/>
<path d="M43.5468 84.0142L44.7429 86.1092H61.5763L62.7059 84.0142H43.5468Z" fill="#455A64"/>
<path d="M91.9205 81.1087H12.6484C12.2497 81.1087 11.9174 80.7433 11.9174 80.3048V29.2434C11.9174 28.8049 12.2497 28.4395 12.6484 28.4395H91.9205C92.3192 28.4395 92.6514 28.8049 92.6514 29.2434V80.3291C92.6514 80.7676 92.3192 81.1087 91.9205 81.1087Z" fill="#EBEBEB"/>
<path d="M92.6514 32.3157H11.9174V81.1358H92.6514V32.3157Z" fill="#FAFAFA"/>
<path d="M18.5399 30.4907C18.5399 30.8804 18.252 31.1971 17.8976 31.1971C17.5432 31.1971 17.2553 30.8804 17.2553 30.4907C17.2553 30.1009 17.5432 29.7842 17.8976 29.7842C18.252 29.7842 18.5399 30.1009 18.5399 30.4907Z" fill="#737373"/>
<path d="M14.642 30.4907C14.642 30.8804 14.3541 31.1971 13.9997 31.1971C13.6453 31.1971 13.3574 30.8804 13.3574 30.4907C13.3574 30.1009 13.6453 29.7842 13.9997 29.7842C14.3541 29.7842 14.642 30.1009 14.642 30.4907Z" fill="#737373"/>
<path d="M16.5025 30.4907C16.5025 30.8804 16.2145 31.1971 15.8601 31.1971C15.5057 31.1971 15.2178 30.8804 15.2178 30.4907C15.2178 30.1009 15.5057 29.7842 15.8601 29.7842C16.2145 29.7842 16.5025 30.1009 16.5025 30.4907Z" fill="#737373"/>
<path d="M96.0847 84.0123C96.0847 84.0367 76.3276 84.0854 51.9413 84.0854C27.555 84.061 7.79788 84.0367 7.79788 84.0123C7.79788 83.9879 27.555 83.9392 51.9413 83.9392C76.3055 83.9392 96.0847 83.9636 96.0847 84.0123Z" fill="#455A64"/>
<path d="M35.9495 56.8945H17.5213V58.2588H35.9495V56.8945Z" fill="#E0E0E0"/>
<path d="M59.7379 38.0879H41.3098V39.4521H59.7379V38.0879Z" fill="#E0E0E0"/>
<path d="M87.1365 43.129C87.1365 43.1534 76.8814 43.2021 64.2342 43.2021C51.587 43.2021 41.3319 43.1777 41.3319 43.129C41.3319 43.1046 51.587 43.0559 64.2342 43.0559C76.8814 43.0559 87.1365 43.0803 87.1365 43.129Z" fill="#E0E0E0"/>
<path d="M87.1365 46.0792C87.1365 46.1035 76.8814 46.1523 64.2342 46.1523C51.5869 46.1523 41.3318 46.1279 41.3318 46.0792C41.3318 46.0305 51.5869 46.0061 64.2342 46.0061C76.8814 46.0305 87.1365 46.0548 87.1365 46.0792Z" fill="#E0E0E0"/>
<path d="M87.1365 49.0533C87.1365 49.0777 76.8814 49.1264 64.2342 49.1264C51.5869 49.1264 41.3318 49.102 41.3318 49.0533C41.3318 49.0046 51.5869 48.9802 64.2342 48.9802C76.8814 48.9802 87.1365 49.0046 87.1365 49.0533Z" fill="#E0E0E0"/>
<path d="M87.1365 52.0011C87.1365 52.0254 76.8814 52.0741 64.2342 52.0741C51.5869 52.0741 41.3318 52.0498 41.3318 52.0011C41.3318 51.9523 51.5869 51.928 64.2342 51.928C76.8814 51.9523 87.1365 51.9767 87.1365 52.0011Z" fill="#E0E0E0"/>
<path d="M87.1365 54.9718C87.1365 54.9961 76.8814 55.0448 64.2342 55.0448C51.5869 55.0448 41.3318 55.0205 41.3318 54.9718C41.3318 54.9474 51.5869 54.8987 64.2342 54.8987C76.8814 54.8987 87.1365 54.923 87.1365 54.9718Z" fill="#E0E0E0"/>
<path d="M59.1841 57.9161C59.1841 57.9405 55.1751 57.9892 50.2358 57.9892C45.2965 57.9892 41.2875 57.9648 41.2875 57.9161C41.2875 57.8917 45.2965 57.843 50.2358 57.843C55.1973 57.8674 59.1841 57.8917 59.1841 57.9161Z" fill="#E0E0E0"/>
<path d="M86.8042 63.671C86.8042 63.6953 80.0708 63.7441 71.7427 63.7441C63.4146 63.7441 56.6812 63.7197 56.6812 63.671C56.6812 63.6223 63.4146 63.5979 71.7427 63.5979C80.0487 63.5979 86.8042 63.6466 86.8042 63.671Z" fill="#E0E0E0"/>
<path d="M86.8042 66.8128C86.8042 66.8372 80.0708 66.8859 71.7427 66.8859C63.4146 66.8859 56.6812 66.8616 56.6812 66.8128C56.6812 66.7641 63.4146 66.7397 71.7427 66.7397C80.0487 66.7397 86.8042 66.7885 86.8042 66.8128Z" fill="#E0E0E0"/>
<path d="M86.8042 69.9542C86.8042 69.9786 80.0708 70.0273 71.7427 70.0273C63.4146 70.0273 56.6812 70.0029 56.6812 69.9542C56.6812 69.9055 63.4146 69.8811 71.7427 69.8811C80.0487 69.8811 86.8042 69.9298 86.8042 69.9542Z" fill="#E0E0E0"/>
<path d="M86.8042 73.0941C86.8042 73.1184 80.0708 73.1672 71.7427 73.1672C63.4146 73.1672 56.6812 73.1428 56.6812 73.0941C56.6812 73.0454 63.4146 73.021 71.7427 73.021C80.0487 73.021 86.8042 73.0697 86.8042 73.0941Z" fill="#E0E0E0"/>
<path d="M35.9719 63.3758C35.9719 63.4002 31.9629 63.4489 27.0014 63.4489C22.04 63.4489 18.031 63.4245 18.031 63.3758C18.031 63.3515 22.04 63.3027 27.0014 63.3027C31.9629 63.3027 35.9719 63.3271 35.9719 63.3758Z" fill="#E0E0E0"/>
<path d="M35.9719 65.8319C35.9719 65.8562 31.9629 65.905 27.0014 65.905C22.04 65.905 18.031 65.8806 18.031 65.8319C18.031 65.7832 22.04 65.7588 27.0014 65.7588C31.9629 65.7588 35.9719 65.8075 35.9719 65.8319Z" fill="#E0E0E0"/>
<path d="M35.9719 68.2948C35.9719 68.3191 31.9629 68.3678 27.0014 68.3678C22.04 68.3678 18.031 68.3435 18.031 68.2948C18.031 68.246 22.04 68.2217 27.0014 68.2217C31.9629 68.246 35.9719 68.2704 35.9719 68.2948Z" fill="#E0E0E0"/>
<path d="M35.9719 70.7777C35.9719 70.802 31.9629 70.8508 27.0014 70.8508C22.04 70.8508 18.031 70.8264 18.031 70.7777C18.031 70.7289 22.04 70.7046 27.0014 70.7046C31.9629 70.7046 35.9719 70.7289 35.9719 70.7777Z" fill="#E0E0E0"/>
<path d="M35.9719 73.2406C35.9719 73.2649 31.9629 73.3137 27.0014 73.3137C22.04 73.3137 18.031 73.2893 18.031 73.2406C18.031 73.1918 22.04 73.1675 27.0014 73.1675C31.9629 73.1675 35.9719 73.1918 35.9719 73.2406Z" fill="#E0E0E0"/>
<path d="M54.3556 62.1743H41.2875V76.0846H54.3556V62.1743Z" fill="#F5F5F5"/>
<path d="M42.3062 74.9L45.9165 67.7378L48.8845 72.3177L50.6786 69.8816L53.3587 74.9H42.3062Z" fill="#EBEBEB"/>
<path d="M50.1474 66.3495C50.1474 66.9098 49.7265 67.3727 49.2171 67.3727C48.7077 67.3727 48.2868 66.9098 48.2868 66.3495C48.2868 65.7892 48.7077 65.3264 49.2171 65.3264C49.7265 65.302 50.1474 65.7649 50.1474 66.3495Z" fill="#EBEBEB"/>
<path d="M53.3589 74.9133C53.3589 74.9133 53.3589 74.8889 53.3589 74.8646C53.3589 74.8159 53.3589 74.7671 53.3589 74.694C53.3589 74.5479 53.3589 74.3286 53.3589 74.0607C53.3589 73.5003 53.3589 72.7208 53.3368 71.6976C53.3368 69.6756 53.3146 66.7766 53.3146 63.2929L53.3589 63.3417C50.1694 63.3417 46.3598 63.3417 42.3064 63.3417C42.2843 63.366 42.4172 63.2199 42.3729 63.2686V63.2929V63.3173V63.366V63.4635V63.6584V64.0481C42.3729 64.3161 42.3729 64.5841 42.3729 64.8277C42.3729 65.3393 42.3729 65.8752 42.3729 66.3868C42.3729 67.41 42.3729 68.4088 42.3729 69.3833C42.3729 71.3322 42.3729 73.1836 42.3729 74.8646L42.3286 74.8159C45.6288 74.8402 48.3753 74.8402 50.3245 74.8402C51.299 74.8402 52.0521 74.8402 52.5837 74.8646C52.8495 74.8646 53.0488 74.8646 53.1817 74.8646C53.2482 74.8646 53.2925 74.8646 53.3368 74.8646C53.3368 74.9133 53.3589 74.9133 53.3589 74.9133C53.3589 74.9133 53.3368 74.9133 53.3146 74.9133C53.2703 74.9133 53.226 74.9133 53.1596 74.9133C53.0267 74.9133 52.8273 74.9133 52.5837 74.9133C52.0521 74.9133 51.299 74.9133 50.3466 74.9377C48.3975 74.9377 45.6288 74.962 42.3286 74.962H42.2843V74.9133C42.2843 73.208 42.2843 71.3809 42.2843 69.432C42.2843 68.4575 42.2843 67.4587 42.2843 66.4356C42.2843 65.924 42.2843 65.4124 42.2843 64.8764C42.2843 64.6085 42.2843 64.3648 42.2843 64.0969V63.7071V63.5122V63.4147V63.366V63.3417V63.3173C42.2178 63.366 42.3507 63.2199 42.3507 63.2442C46.404 63.2442 50.1916 63.2442 53.4032 63.2442H53.4475V63.2929C53.4254 66.7766 53.4254 69.6756 53.4254 71.722C53.4254 72.7208 53.4254 73.5247 53.4032 74.0607C53.4032 74.3286 53.4032 74.5235 53.4032 74.6697C53.4032 74.7428 53.4032 74.7915 53.4032 74.8159C53.3589 74.9133 53.3589 74.9133 53.3589 74.9133Z" fill="#EBEBEB"/>
<path d="M35.5729 35.7827H17.8535V54.6384H35.5729V35.7827Z" fill="#F5F5F5"/>
<path d="M19.2267 53.0234L24.1438 43.3032L28.1529 49.5154L30.5893 46.2266L34.2217 53.0234H19.2267Z" fill="#E0E0E0"/>
<path d="M29.8584 41.4303C29.8584 42.2099 29.2825 42.8433 28.5737 42.8433C27.865 42.8433 27.2891 42.2099 27.2891 41.4303C27.2891 40.6507 27.865 40.0173 28.5737 40.0173C29.2825 40.0173 29.8584 40.6507 29.8584 41.4303Z" fill="#E0E0E0"/>
<path d="M34.2219 53.0763C34.2219 53.0763 34.2219 53.0519 34.2219 53.0032C34.2219 52.9544 34.2219 52.8814 34.2219 52.7839C34.2219 52.589 34.2219 52.2967 34.2219 51.9313C34.2219 51.1761 34.2219 50.1042 34.1997 48.7156C34.1997 45.9627 34.1776 42.0406 34.1554 37.3145L34.2219 37.3875C29.8806 37.3875 24.742 37.3875 19.249 37.4119C19.2268 37.4363 19.404 37.2414 19.3376 37.3145V37.3388V37.3632V37.4363V37.5824V37.8504V38.3864C19.3376 38.7518 19.3376 39.0928 19.3376 39.4583C19.3376 40.1647 19.3376 40.8712 19.3376 41.5533C19.3376 42.9419 19.3376 44.3062 19.3376 45.6217C19.3376 48.2527 19.3376 50.7619 19.3376 53.0519L19.2711 52.9788C23.7453 53.0032 27.4664 53.0032 30.1021 53.0275C31.4089 53.0275 32.4499 53.0519 33.1587 53.0519C33.5131 53.0519 33.7789 53.0519 33.9782 53.0519C34.0668 53.0519 34.1333 53.0519 34.1776 53.0519C34.1776 53.0763 34.2219 53.0763 34.2219 53.0763C34.2219 53.0763 34.1997 53.0763 34.1554 53.0763C34.1111 53.0763 34.0447 53.0763 33.9561 53.0763C33.7789 53.0763 33.5131 53.0763 33.1587 53.0763C32.4499 53.0763 31.4311 53.0763 30.1243 53.1006C27.4885 53.1006 23.7453 53.125 19.249 53.1493H19.1825V53.0763C19.1825 50.7863 19.1825 48.2771 19.1825 45.646C19.1825 44.3305 19.1825 42.9663 19.1825 41.5777C19.1825 40.8956 19.1825 40.1891 19.1825 39.4826C19.1825 39.1172 19.1825 38.7761 19.1825 38.4107V37.8748V37.6068V37.4606V37.3875V37.3632V37.3388C19.1161 37.4119 19.2933 37.217 19.2711 37.2414C24.7641 37.2414 29.9028 37.2414 34.244 37.2657H34.3105V37.3388C34.2883 42.0649 34.2883 46.0115 34.2662 48.7887C34.2662 50.1529 34.244 51.2248 34.244 51.98C34.244 52.3454 34.244 52.6134 34.244 52.8083C34.244 52.9057 34.244 52.9545 34.244 53.0275C34.2219 53.0519 34.2219 53.0763 34.2219 53.0763Z" fill="#E0E0E0"/>
<path d="M61.408 50.7692L59.8461 50.7496L59.9047 46.4934C59.9047 43.3696 57.347 40.8119 54.2232 40.8119C51.0798 40.8119 48.5417 43.3696 48.5417 46.4934L48.4831 50.7496L46.9212 50.7301L46.9797 46.4739C46.9797 42.491 50.2403 39.2305 54.2232 39.2305C58.2256 39.2305 61.4666 42.491 61.4666 46.4739L61.408 50.7692Z" fill="#263238"/>
<path d="M61.5642 69.8438H47.0578C45.0859 69.8438 43.4849 68.2428 43.4849 66.2708V52.2721C43.4849 50.3002 45.0859 48.6992 47.0578 48.6992H61.5642C63.5361 48.6992 65.1371 50.3002 65.1371 52.2721V66.2708C65.1371 68.2428 63.5361 69.8438 61.5642 69.8438Z" fill="#D81E05"/>
<g opacity="0.3">
<path d="M56.4684 58.1489C56.4684 56.9579 55.5117 55.9817 54.3012 55.9817C53.0907 55.9817 52.1341 56.9384 52.1341 58.1489C52.1341 58.9298 52.5441 59.5936 53.1493 59.9841L52.6026 62.5418H56.1365C56.1365 62.5418 55.746 60.9408 55.4922 59.9451C56.0779 59.5546 56.4684 58.8908 56.4684 58.1489Z" fill="black"/>
</g>
<g opacity="0.2">
<path d="M44.8711 63.4156C44.7345 63.4156 44.6759 60.9361 44.7345 57.9098C44.793 54.8641 44.9688 52.4041 45.1054 52.4041C45.2421 52.4041 45.3007 54.8641 45.2421 57.9098C45.1835 60.9556 45.0078 63.4156 44.8711 63.4156Z" fill="white"/>
</g>
<g opacity="0.2">
<path d="M44.8907 65.8802C44.754 65.8802 44.6369 65.6459 44.6369 65.3531C44.6369 65.0602 44.7345 64.8064 44.8907 64.8064C45.0273 64.8064 45.1445 65.0407 45.1445 65.3335C45.1445 65.6264 45.0273 65.8607 44.8907 65.8802Z" fill="white"/>
</g>
<g opacity="0.2">
<path d="M51.6849 62.8694C51.5678 62.8304 51.8411 61.7175 52.2902 60.2142L52.3488 60.468C52.134 60.2532 51.9192 60.0385 51.7045 59.8042C51.3335 59.3746 51.1383 58.8475 51.1187 58.3594C51.0992 57.8713 51.2359 57.4418 51.4116 57.1489C51.5873 56.8365 51.8021 56.6413 51.9583 56.5241C52.1145 56.407 52.2316 56.3875 52.2511 56.407C52.3097 56.4656 51.9778 56.7389 51.7435 57.3051C51.6264 57.5784 51.5483 57.9494 51.6068 58.3203C51.6459 58.7108 51.8216 59.1208 52.0949 59.4527C52.3097 59.687 52.5245 59.9018 52.7197 60.1166L52.8173 60.2337L52.7783 60.3704C52.2316 61.8542 51.7826 62.9085 51.6849 62.8694Z" fill="white"/>
</g>
<g opacity="0.2">
<path d="M60.6073 50.1561C60.6073 50.2342 59.7482 50.2928 58.3425 50.3123C56.9368 50.3514 55.0234 50.3709 52.8758 50.3514C51.8019 50.3514 50.7867 50.3318 49.8691 50.3123C48.9514 50.2928 48.1119 50.2342 47.4481 50.3123C46.7843 50.3709 46.2766 50.6052 45.9643 50.82C45.6519 51.0347 45.5347 51.2104 45.4957 51.1909C45.4762 51.1714 45.5347 50.9566 45.8471 50.6638C46.14 50.3904 46.6867 50.078 47.409 49.9609C47.7605 49.9023 48.151 49.8828 48.5805 49.8633C48.9905 49.8633 49.4395 49.8633 49.8886 49.8438C50.8062 49.8438 51.8215 49.8438 52.8953 49.8438C55.0234 49.8633 56.9563 49.9023 58.3425 49.9609C59.7287 50.0195 60.6073 50.078 60.6073 50.1561Z" fill="white"/>
</g>
<line x1="0.49997" y1="89.6394" x2="104.588" y2="89.6394" stroke="#3F3F3F" stroke-linecap="round"/>
</svg>
