<svg width="238" height="217" viewBox="0 0 238 217" fill="none" xmlns="http://www.w3.org/2000/svg">
<circle opacity="0.1" cx="121.5" cy="103.5" r="103.5" fill="#D81E05"/>
<path d="M96.8919 64.7657L91.5607 64.7943L91.7023 91.1785L97.0335 91.15L96.8919 64.7657Z" fill="#E0E0E0"/>
<path d="M59.3191 64.8382L45.5627 64.9117L45.6406 79.4587L59.397 79.3852L59.3191 64.8382Z" fill="#EBEBEB"/>
<path d="M72.9803 64.7433L59.2239 64.8168L59.3018 79.3638L73.0582 79.2903L72.9803 64.7433Z" fill="#F5F5F5"/>
<path d="M45.5533 68.9155C54.6925 69.0106 63.8317 68.9155 72.9709 68.7729C73.1613 68.7729 73.1613 68.4877 72.9709 68.4877C63.8317 68.4401 54.6925 68.4877 45.5533 68.6778C45.4105 68.6778 45.4105 68.9155 45.5533 68.9155Z" fill="#E0E0E0"/>
<path d="M61.9918 79.1651L37.0018 79.2988L37.0656 91.1836L62.0556 91.0499L61.9918 79.1651Z" fill="#EBEBEB"/>
<path d="M86.8392 79.0226L61.8492 79.1563L61.913 91.0411L86.903 90.9074L86.8392 79.0226Z" fill="#F5F5F5"/>
<path d="M36.9853 82.6068C53.5977 82.797 70.2577 82.6068 86.8225 82.3691C87.0129 82.3691 87.0129 82.0839 86.8225 82.0839C70.2101 81.9888 53.5501 81.9888 36.9853 82.3691C36.8425 82.3216 36.8425 82.6068 36.9853 82.6068Z" fill="#E0E0E0"/>
<path d="M124.426 91.1639H27.6556V95.3948H124.426V91.1639Z" fill="#E0E0E0"/>
<path d="M47.4573 93.208H43.5065V107.707H47.4573V93.208Z" fill="#E0E0E0"/>
<path d="M106.1 93.208H102.15V107.707H106.1V93.208Z" fill="#E0E0E0"/>
<path d="M102.054 54.9252L96.7225 54.9537L96.9172 91.2261L102.248 91.1975L102.054 54.9252Z" fill="#EBEBEB"/>
<path d="M110.307 61.6681L102.072 61.7122L102.23 91.139L110.465 91.0948L110.307 61.6681Z" fill="#F5F5F5"/>
<path d="M110.289 67.3467C110.289 67.4418 108.433 67.4894 106.148 67.4894C103.863 67.4894 102.007 67.4418 102.007 67.3467C102.007 67.2517 103.863 67.2041 106.148 67.2041C108.433 67.2041 110.289 67.2517 110.289 67.3467Z" fill="#E0E0E0"/>
<path d="M110.289 66.1107C110.289 66.2058 108.433 66.2533 106.148 66.2533C103.863 66.2533 102.007 66.2058 102.007 66.1107C102.007 66.0156 103.863 65.9681 106.148 65.9681C108.433 65.9681 110.289 66.0156 110.289 66.1107Z" fill="#E0E0E0"/>
<path d="M110.289 86.6476C110.289 86.7427 108.433 86.7903 106.148 86.7903C103.863 86.7903 102.007 86.7427 102.007 86.6476C102.007 86.5526 103.863 86.505 106.148 86.505C108.433 86.505 110.289 86.6001 110.289 86.6476Z" fill="#E0E0E0"/>
<path d="M110.289 85.4116C110.289 85.5067 108.433 85.5542 106.148 85.5542C103.863 85.5542 102.007 85.5067 102.007 85.4116C102.007 85.3166 103.863 85.269 106.148 85.269C108.433 85.269 110.289 85.3641 110.289 85.4116Z" fill="#E0E0E0"/>
<path d="M106.291 82.7494C106.196 82.7494 106.148 79.802 106.148 76.1415C106.148 72.481 106.196 69.5335 106.291 69.5335C106.386 69.5335 106.434 72.481 106.434 76.1415C106.434 79.7545 106.386 82.7494 106.291 82.7494Z" fill="#E0E0E0"/>
<path d="M119.381 68.9155H110.384V91.1163H119.381V68.9155Z" fill="#EBEBEB"/>
<path d="M100.817 61.1191C100.817 61.9748 100.15 62.6404 99.2936 62.6404C98.4368 62.6404 97.7704 61.9748 97.7704 61.1191C97.7704 60.2634 98.4368 59.5979 99.2936 59.5979C100.15 59.5979 100.817 60.2634 100.817 61.1191Z" fill="#E0E0E0"/>
<path d="M99.7696 65.3026H98.8176V86.8853H99.7696V65.3026Z" fill="#E0E0E0"/>
<path d="M35.3668 162.14C37.842 160.856 40.7932 160.666 43.554 161.142C45.0296 161.379 46.6004 161.807 47.6 162.948C48.5996 164.041 48.79 166.038 47.6476 166.989C46.9336 167.559 45.9816 167.654 45.0772 167.654C42.9352 167.607 40.5076 167.227 38.794 168.558C37.7944 169.318 37.128 170.554 35.9856 170.887C34.8432 171.267 33.5104 170.554 32.9392 169.508C32.3204 168.463 32.3204 167.179 32.606 165.991C32.5584 165.991 32.844 163.423 35.3668 162.14Z" fill="#E8505B"/>
<path d="M29.6548 151.111C31.178 153.298 34.1292 152.584 35.5096 151.253C36.89 149.922 37.4612 148.021 37.9848 146.167C39.1748 141.983 40.4124 137.562 39.508 133.331C39.2224 132.048 38.7464 130.764 37.842 129.861C36.9376 128.91 35.5572 128.339 34.3196 128.672C32.844 129.053 31.892 130.526 31.2256 131.905C29.274 135.993 28.2268 140.51 28.1792 145.026C28.1792 147.165 28.4648 149.352 29.6548 151.111Z" fill="#E8505B"/>
<path d="M25.466 154.248C27.132 152.299 27.4176 149.447 26.7036 146.975C25.9896 144.503 24.3236 142.411 22.372 140.747C20.1348 138.751 17.4692 137.182 14.6608 136.183C13.566 135.803 12.376 135.47 11.186 135.613C9.99596 135.708 8.80596 136.326 8.28236 137.372C7.47316 138.941 8.23476 140.795 9.09156 142.316C10.5672 145.026 12.2808 147.593 14.1848 150.017C15.708 151.966 17.4692 153.916 19.754 154.771C22.0864 155.675 24.4664 155.532 25.704 153.963" fill="#E8505B"/>
<path d="M29.5596 183.913C29.6072 183.913 29.6548 183.58 29.7024 182.914C29.75 182.201 29.8452 181.298 29.988 180.205C30.1308 179.064 30.2736 177.733 30.6068 176.259C30.94 174.785 31.416 173.216 32.0348 171.6C32.7012 169.984 33.5104 168.558 34.4148 167.369C35.3192 166.181 36.414 165.372 37.4136 164.85C38.4132 164.374 39.3176 164.136 39.9364 164.041C40.5552 163.994 40.936 163.946 40.936 163.899C40.936 163.851 40.6028 163.851 39.9364 163.899C39.3176 163.946 38.3656 164.089 37.2708 164.564C36.2236 165.04 35.0812 165.895 34.0816 167.084C33.082 168.272 32.2728 169.746 31.6064 171.41C30.94 173.026 30.464 174.643 30.1784 176.164C29.8928 177.638 29.75 179.016 29.6548 180.157C29.5596 181.298 29.5596 182.249 29.512 182.867C29.512 183.532 29.512 183.913 29.5596 183.913Z" fill="#263238"/>
<path d="M29.7023 181.821C29.7023 181.821 29.7023 181.678 29.7499 181.346C29.7499 181.013 29.7499 180.585 29.7499 180.015C29.7499 178.874 29.7499 177.21 29.7975 175.213C29.8927 171.172 30.2259 166.799 30.9399 160.619C31.5587 154.819 32.4631 148.068 33.3675 143.695C33.5579 142.696 33.7483 141.793 33.9387 141.032C34.1291 140.224 34.2719 139.559 34.4147 139.036C34.5575 138.513 34.6527 138.085 34.7003 137.752C34.7479 137.467 34.7955 137.324 34.7955 137.277C34.7955 137.277 34.7479 137.419 34.6527 137.705C34.5575 138.037 34.4147 138.465 34.2719 138.941C34.0815 139.464 33.9387 140.177 33.7483 140.937C33.5579 141.698 33.3199 142.601 33.1295 143.6C32.2251 147.593 31.2731 153.107 30.6067 159.287C29.9403 165.468 29.6071 171.077 29.6071 175.166C29.5595 177.21 29.6071 178.874 29.6547 179.967C29.7023 180.49 29.7023 180.918 29.7499 181.298C29.7023 181.678 29.7023 181.821 29.7023 181.821Z" fill="#263238"/>
<path d="M29.7499 170.982C29.7975 170.982 29.7499 170.507 29.7499 169.603C29.7023 168.748 29.5595 167.464 29.3215 165.895C29.0359 164.327 28.7027 162.52 28.1315 160.476C27.8935 159.573 27.2747 157.386 25.8467 154.106C23.9903 149.685 21.4199 146.024 19.1827 143.79C18.6591 143.172 18.0879 142.744 17.6119 142.316C17.3739 142.126 17.1835 141.888 16.9455 141.746C16.7075 141.603 16.5171 141.46 16.3267 141.318C15.6127 140.842 15.1843 140.557 15.1843 140.557C15.1367 140.652 16.8027 141.65 18.9447 143.932C21.0867 146.214 23.5619 149.827 25.4183 154.201C26.4655 156.578 27.1795 158.717 27.7031 160.523C28.2743 162.52 28.7027 164.327 28.9883 165.895C29.2739 167.417 29.4167 168.7 29.5119 169.556C29.6547 170.507 29.7023 170.982 29.7499 170.982Z" fill="#263238"/>
<path d="M19.2303 190.093L20.3251 205.02H39.5079L40.6027 190.093H19.2303Z" fill="#263238"/>
<path d="M42.8875 184.246H17.4215V190.093H42.8875V184.246Z" fill="#263238"/>
<path d="M17.4215 204.45V206.066H18.6115H42.4591V204.45H17.4215Z" fill="#455A64"/>
<path d="M19.754 208.918L18.6116 206.066H41.5548L40.1744 208.918H19.754Z" fill="#455A64"/>
<path d="M40.222 194.989C40.222 194.989 40.1744 195.037 40.1268 195.132C40.0316 195.227 39.9364 195.37 39.8412 195.512C39.5556 195.845 39.1748 196.32 38.7464 196.938L38.6988 196.986L38.6512 196.938C37.9372 195.988 37.0328 194.657 35.8904 193.135H36.0332C35.224 194.276 34.3196 195.56 33.32 196.938L33.2248 197.081L33.1296 196.986C32.13 195.798 31.0352 194.514 29.9404 193.183H30.1308C30.0832 193.23 30.0356 193.326 29.9404 193.421C28.9408 194.657 27.9888 195.845 27.0844 196.986L26.9892 197.129L26.894 196.986C25.942 195.607 25.0376 194.324 24.1808 193.183H24.3236C22.9908 194.704 21.8484 195.988 20.9916 196.986L20.944 197.034L20.8964 196.938C20.468 196.225 20.0872 195.607 19.8492 195.18C19.754 194.989 19.6588 194.847 19.5636 194.704C19.6588 194.799 19.754 194.989 19.8492 195.132C20.1348 195.56 20.468 196.13 20.944 196.843H20.8488C21.7056 195.845 22.8004 194.562 24.1332 192.993L24.2284 192.898L24.3236 192.993C25.1328 194.134 26.0848 195.417 27.0368 196.796H26.8464C27.7508 195.655 28.7028 194.466 29.7024 193.183C29.75 193.088 29.8452 193.04 29.8928 192.945L29.988 192.85L30.0832 192.945C31.2256 194.276 32.2728 195.56 33.2724 196.748H33.082C34.0816 195.37 34.986 194.086 35.7952 192.945L35.8904 192.85L35.9856 192.945C37.0804 194.466 37.9848 195.798 38.6512 196.796H38.556C39.032 196.225 39.4128 195.75 39.6984 195.417C39.8412 195.275 39.9364 195.132 40.0316 195.037C40.1744 195.037 40.222 194.989 40.222 194.989Z" fill="#E0E0E0"/>
<path d="M40.8408 189.998C40.8408 190.045 36.0332 190.14 30.1308 190.14C24.2284 190.14 19.4208 190.093 19.4208 189.998C19.4208 189.95 24.2284 189.855 30.1308 189.855C36.0332 189.903 40.8408 189.95 40.8408 189.998Z" fill="#455A64"/>
<path d="M41.8404 206.209C41.8404 206.256 36.6044 206.351 30.1784 206.351C23.7524 206.351 18.5164 206.304 18.5164 206.209C18.5164 206.161 23.7524 206.066 30.1784 206.066C36.6044 206.114 41.8404 206.161 41.8404 206.209Z" fill="#263238"/>
<path d="M224.529 209.204H165.648V153.298C165.648 149.304 168.885 146.119 172.836 146.119H217.342C221.34 146.119 224.529 149.352 224.529 153.298V209.204Z" fill="#455A64"/>
<path d="M219.579 146.404C219.626 146.404 219.722 160.476 219.722 177.78C219.722 195.132 219.674 209.156 219.579 209.156C219.531 209.156 219.436 195.132 219.436 177.78C219.484 160.476 219.531 146.404 219.579 146.404Z" fill="#263238"/>
<path d="M190.59 77.5677C195.969 85.269 199.158 94.4916 199.539 103.857C199.825 110.18 198.968 116.93 201.967 122.492C206.298 130.479 215.58 130.193 218.436 138.846C219.674 142.601 217.389 150.825 216.77 154.724C216.056 159.145 218.77 162.9 218.103 167.322C217.437 171.362 214.438 174.31 210.773 176.164C207.536 177.828 204.49 177.875 201.11 176.497C194.636 173.834 189.305 171.03 184.688 165.753C178.214 158.384 176.263 148.163 175.168 138.465C172.74 117.025 173.216 95.2522 176.644 73.9071" fill="#263238"/>
<path d="M204.347 177.447C204.347 177.447 204.394 177.447 204.537 177.4C204.68 177.352 204.87 177.352 205.156 177.257C205.68 177.115 206.489 176.877 207.393 176.354C208.298 175.879 209.392 175.118 210.344 173.977C210.82 173.407 211.249 172.741 211.487 171.933C211.725 171.125 211.82 170.269 211.868 169.318C211.963 167.464 211.677 165.42 211.249 163.281C210.82 161.141 210.249 158.812 210.154 156.34C210.106 155.104 210.154 153.82 210.44 152.537C210.725 151.253 211.154 150.017 211.63 148.734C212.106 147.498 212.629 146.214 213.01 144.883C213.343 143.552 213.581 142.126 213.343 140.747C213.153 139.369 212.582 138.037 211.82 136.897C211.058 135.756 210.106 134.757 209.107 133.854C207.155 132 205.013 130.526 203.204 128.815C199.539 125.44 197.064 121.589 195.493 118.214C194.732 116.502 194.113 114.933 193.732 113.46C193.494 112.747 193.351 112.081 193.208 111.463C193.066 110.845 192.97 110.275 192.875 109.752C192.732 108.706 192.637 107.898 192.59 107.375C192.59 107.089 192.542 106.899 192.542 106.757C192.542 106.614 192.542 106.567 192.542 106.567C192.542 106.567 192.542 106.662 192.59 106.757C192.59 106.899 192.637 107.137 192.685 107.375C192.732 107.945 192.875 108.706 193.018 109.752C193.113 110.275 193.256 110.845 193.351 111.463C193.542 112.081 193.637 112.747 193.875 113.46C194.303 114.886 194.874 116.455 195.684 118.166C197.254 121.541 199.73 125.344 203.395 128.672C205.204 130.336 207.346 131.857 209.297 133.711C210.297 134.615 211.249 135.613 212.058 136.801C212.82 137.942 213.438 139.321 213.629 140.747C213.867 142.173 213.629 143.647 213.296 144.978C212.915 146.309 212.391 147.593 211.915 148.876C211.439 150.112 210.963 151.348 210.725 152.632C210.44 153.868 210.392 155.152 210.44 156.388C210.582 158.86 211.106 161.141 211.534 163.328C211.963 165.468 212.248 167.559 212.106 169.413C212.058 170.364 211.915 171.267 211.677 172.075C211.392 172.884 210.963 173.597 210.487 174.167C209.535 175.308 208.393 176.021 207.488 176.544C206.536 177.02 205.775 177.257 205.204 177.4C204.68 177.447 204.347 177.447 204.347 177.447Z" fill="#455A64"/>
<path d="M115.763 194.419L138.611 183.58C138.611 183.58 147.512 140.462 149.178 137.182C150.844 133.949 157.889 131.144 157.889 131.144L156.699 189.617L154.605 203.071L122.38 206.114L115.763 194.419Z" fill="#D81E05"/>
<path d="M96.2472 204.64C96.1044 204.64 95.4856 205.02 96.0092 206.018C96.5328 207.017 100.388 210.344 101.531 209.156C102.673 208.015 100.912 206.589 100.912 206.589L96.2472 204.64Z" fill="#FFBE9D"/>
<path d="M101.102 206.684C101.102 206.684 105.767 207.254 107.576 207.968C109.528 208.728 111.908 208.205 113.526 207.112C115.144 206.018 116.049 205.068 116.049 205.068L121.999 204.973C121.999 204.973 124.855 202.025 123.141 197.604C122.856 196.843 122.522 196.225 121.761 195.275C121.047 194.514 119.952 193.896 118 193.563L110.908 195.084C110.908 195.084 99.96 194.324 98.0084 195.227C98.0084 195.227 95.5808 196.701 94.8192 197.271C94.5336 197.509 93.6768 200.266 95.438 201.74C95.438 201.74 93.8672 202.976 94.724 204.069L95.1048 204.545C95.1048 204.545 94.0576 205.876 94.5812 206.494C95.1048 207.064 99.8172 209.822 101.483 209.156C103.244 208.538 101.864 206.969 101.102 206.684Z" fill="#FFBE9D"/>
<path d="M96.6756 199.315C96.6756 199.315 96.866 199.363 97.2468 199.506C97.6276 199.648 98.1512 199.838 98.8176 200.076C99.1508 200.171 99.5316 200.314 99.9124 200.409C100.293 200.504 100.769 200.599 101.198 200.742C101.626 200.884 102.15 201.122 102.483 201.502C102.816 201.883 103.054 202.501 102.816 203.071C102.721 203.356 102.483 203.546 102.245 203.689C102.007 203.832 101.721 203.879 101.483 203.927C100.96 203.974 100.484 203.927 100.008 203.832C99.0556 203.689 98.2464 203.451 97.58 203.214C96.9136 202.976 96.39 202.738 96.0092 202.596C95.6284 202.453 95.438 202.358 95.438 202.31C95.438 202.31 95.6284 202.358 96.0092 202.501C96.39 202.643 96.9136 202.833 97.58 203.071C98.2464 203.309 99.0556 203.546 99.96 203.641C100.436 203.689 100.912 203.737 101.388 203.689C101.626 203.641 101.864 203.594 102.102 203.499C102.292 203.404 102.483 203.214 102.578 202.976C102.768 202.501 102.578 201.978 102.292 201.597C101.959 201.217 101.531 201.027 101.102 200.884C100.674 200.742 100.246 200.646 99.8172 200.551C99.4364 200.456 99.0556 200.314 98.7224 200.219C98.056 199.981 97.5324 199.743 97.1516 199.601C96.866 199.458 96.628 199.315 96.6756 199.315Z" fill="#D81E05"/>
<path d="M97.0564 195.94C97.0564 195.94 97.2468 195.988 97.6276 196.13C98.0084 196.273 98.532 196.463 99.1984 196.701C99.8648 196.938 100.674 197.176 101.578 197.366C102.007 197.461 102.53 197.556 102.959 197.937C103.149 198.127 103.34 198.365 103.387 198.65C103.435 198.935 103.387 199.22 103.244 199.506C103.006 200.028 102.53 200.361 102.007 200.551C101.531 200.742 101.007 200.742 100.531 200.647C99.5792 200.504 98.8176 200.171 98.1512 199.933C97.5324 199.696 96.9612 199.506 96.5804 199.363C96.1996 199.22 96.0092 199.125 96.0092 199.125C96.0092 199.125 96.2472 199.173 96.5804 199.268C97.0088 199.41 97.5324 199.553 98.1988 199.743C98.8652 199.933 99.6744 200.266 100.579 200.409C101.055 200.456 101.531 200.456 101.959 200.266C102.435 200.124 102.864 199.791 103.054 199.315C103.292 198.84 103.197 198.27 102.816 197.984C102.435 197.652 101.959 197.556 101.531 197.461C100.626 197.224 99.8172 196.986 99.1508 196.748C98.4844 196.511 97.9608 196.273 97.58 196.13C97.2468 196.083 97.0564 195.988 97.0564 195.94Z" fill="#D81E05"/>
<path d="M99.3412 196.938C99.2936 196.938 99.246 196.511 99.1508 195.988C99.008 195.465 98.8652 195.084 98.9128 195.037C98.9604 194.989 99.1984 195.37 99.3412 195.94C99.4364 196.463 99.3888 196.938 99.3412 196.938Z" fill="#D81E05"/>
<path d="M115.811 197.081L111.67 195.465C111.67 195.465 100.103 190.093 99.9123 190.378C99.7219 190.663 99.1031 190.616 99.2459 192.042C99.3887 193.468 106.1 196.273 106.338 196.796C106.529 197.271 106.196 199.743 108.671 201.502C111.146 203.261 112.955 203.309 112.955 203.309" fill="#FFBE9D"/>
<path d="M112.907 203.261C112.907 203.261 112.86 203.261 112.812 203.261C112.764 203.261 112.669 203.261 112.526 203.214C112.288 203.166 111.908 203.119 111.432 202.976C110.956 202.833 110.432 202.596 109.813 202.263C109.194 201.93 108.528 201.55 107.909 200.932C107.29 200.361 106.767 199.506 106.481 198.507C106.338 198.032 106.291 197.461 106.243 196.938C106.243 196.891 106.243 196.796 106.196 196.748C106.196 196.701 106.148 196.701 106.1 196.653C106.005 196.558 105.862 196.511 105.767 196.416C105.529 196.273 105.291 196.13 105.053 195.988C104.054 195.465 103.006 194.894 101.912 194.276C101.388 193.991 100.817 193.658 100.293 193.278C100.055 193.088 99.7695 192.898 99.5315 192.66C99.4363 192.565 99.2935 192.422 99.1983 192.28C99.1507 192.185 99.1031 192.137 99.1031 192.042C99.1031 191.947 99.1031 191.852 99.0555 191.804C99.0555 191.471 99.0555 191.139 99.2459 190.806C99.3411 190.663 99.4839 190.521 99.6267 190.426C99.6743 190.378 99.7695 190.331 99.7695 190.283C99.7695 190.283 99.7695 190.283 99.8171 190.235C99.8647 190.188 99.8647 190.235 99.9123 190.188C99.9599 190.188 99.9599 190.188 100.008 190.188C100.055 190.188 100.103 190.188 100.15 190.235C100.769 190.426 101.34 190.663 101.912 190.901C103.054 191.376 104.149 191.852 105.196 192.327C107.29 193.278 109.147 194.134 110.67 194.847C111.051 195.037 111.432 195.227 111.765 195.37C112.146 195.512 112.479 195.655 112.764 195.75C113.383 195.988 113.954 196.225 114.383 196.416C114.811 196.606 115.144 196.748 115.43 196.843C115.525 196.891 115.62 196.938 115.716 196.938C115.62 196.891 115.573 196.891 115.43 196.843C115.192 196.748 114.811 196.606 114.383 196.463C113.907 196.273 113.383 196.083 112.717 195.845C112.384 195.702 112.05 195.607 111.67 195.465C111.289 195.322 110.956 195.132 110.527 194.942C108.956 194.229 107.1 193.373 105.006 192.47C103.958 191.994 102.864 191.519 101.721 191.044C101.15 190.806 100.579 190.568 99.9599 190.378C99.9123 190.378 99.8647 190.378 99.8647 190.331H99.8171C99.8171 190.283 99.8171 190.283 99.8171 190.283C99.9599 190.378 99.8647 190.331 99.8647 190.331C99.8171 190.426 99.7219 190.473 99.6743 190.521C99.5315 190.616 99.4363 190.711 99.3411 190.853C99.1983 191.091 99.1983 191.424 99.1983 191.757C99.1983 191.947 99.1983 192.042 99.2935 192.185C99.3887 192.327 99.4839 192.422 99.5791 192.565C99.8171 192.803 100.055 192.993 100.293 193.183C100.817 193.563 101.34 193.896 101.864 194.181C102.911 194.799 104.006 195.322 105.006 195.893C105.244 196.035 105.482 196.178 105.767 196.32C105.91 196.416 106.005 196.463 106.1 196.558C106.148 196.606 106.243 196.653 106.243 196.748C106.291 196.843 106.291 196.891 106.291 196.986C106.338 197.509 106.386 198.032 106.529 198.507C106.767 199.458 107.29 200.314 107.909 200.884C108.528 201.455 109.194 201.883 109.766 202.215C110.337 202.548 110.908 202.786 111.336 202.928C111.812 203.071 112.146 203.166 112.384 203.214C112.526 203.261 112.622 203.261 112.669 203.261C112.907 203.261 112.907 203.261 112.907 203.261Z" fill="#D81E05"/>
<path d="M100.15 203.832C100.15 203.832 100.293 203.832 100.579 203.974C100.864 204.069 101.245 204.259 101.674 204.592C101.864 204.782 102.102 204.973 102.292 205.21C102.483 205.448 102.673 205.781 102.626 206.161C102.578 206.541 102.245 206.874 101.864 206.969C101.483 207.112 101.055 207.017 100.674 206.922C99.1032 206.446 97.7704 205.876 96.8184 205.4C96.3424 205.163 96.0092 204.925 95.7236 204.782C95.4856 204.64 95.3428 204.497 95.3428 204.497C95.3428 204.497 95.4856 204.545 95.7712 204.687C96.0092 204.83 96.39 205.02 96.866 205.258C97.818 205.733 99.1508 206.256 100.674 206.732C101.055 206.827 101.436 206.874 101.769 206.779C102.102 206.684 102.388 206.399 102.435 206.114C102.483 205.781 102.34 205.495 102.15 205.258C101.959 205.02 101.769 204.83 101.578 204.64C100.817 204.022 100.15 203.879 100.15 203.832Z" fill="#D81E05"/>
<g opacity="0.3">
<path d="M154.462 203.071C150.702 190.473 147.417 174.215 143.657 161.617C142.276 173.264 143.99 188.619 146.132 200.124C146.37 201.455 146.513 202.786 147.56 203.689L154.462 203.071Z" fill="black"/>
</g>
<path d="M148.322 194.419C148.274 194.419 148.131 193.611 147.608 192.327C147.37 191.709 146.989 190.996 146.513 190.188C146.037 189.427 145.466 188.619 144.752 187.858C144.038 187.098 143.276 186.48 142.562 185.957C141.848 185.434 141.134 185.006 140.515 184.721C139.278 184.103 138.468 183.913 138.468 183.865C138.468 183.865 138.659 183.913 139.04 184.008C139.23 184.055 139.468 184.103 139.706 184.246C139.944 184.341 140.277 184.436 140.563 184.578C141.182 184.864 141.896 185.244 142.657 185.767C143.419 186.29 144.18 186.955 144.894 187.716C145.608 188.476 146.18 189.285 146.656 190.093C147.132 190.901 147.465 191.614 147.703 192.28C147.846 192.612 147.893 192.898 147.988 193.183C148.084 193.421 148.131 193.658 148.179 193.848C148.322 194.229 148.322 194.419 148.322 194.419Z" fill="#263238"/>
<path d="M155.462 130.574C155.462 130.574 143.514 157.291 143.514 162.187C143.514 167.084 152.463 201.122 152.463 201.122C152.368 202.453 152.034 209.251 152.034 209.251L202.3 209.441L203.062 198.65L199.158 188.381L203.062 159.335C203.062 159.335 205.68 142.459 205.918 137.752C206.203 131.857 186.164 125.012 186.735 124.204L183.26 119.592L163.458 135.66L159.555 124.346L154.843 128.767L155.462 130.574Z" fill="#D81E05"/>
<path d="M188.353 137.705C182.927 146.88 172.978 163.661 172.978 163.661L155.128 183.96C155.128 183.96 153.938 194.276 156.318 197.461C158.698 200.646 162.649 202.786 162.649 202.786C162.649 202.786 167.362 202.786 173.359 197.794C179.357 192.803 195.826 172.171 195.826 172.171L201.491 165.325C201.491 165.325 208.25 148.734 206.965 140.319C206.489 137.087 205.108 135.708 203.252 134.234C198.587 130.431 191.4 132.57 188.353 137.705Z" fill="#D81E05"/>
<path d="M203.585 159.525C203.585 159.525 203.538 159.573 203.49 159.715C203.442 159.858 203.347 160.048 203.204 160.238C202.966 160.714 202.586 161.427 202.11 162.282C201.11 164.041 199.587 166.513 197.588 169.508C196.588 170.982 195.446 172.598 194.256 174.357C193.018 176.069 191.638 177.875 190.448 179.919C189.258 181.964 188.258 184.246 186.973 186.527C185.688 188.809 184.212 191.044 182.451 193.135C180.69 195.227 178.643 197.081 176.453 198.46C174.264 199.838 171.836 200.742 169.504 201.169C167.124 201.597 164.839 201.455 162.744 200.884C161.697 200.599 160.745 200.219 159.888 199.743C159.032 199.268 158.222 198.745 157.556 198.174C156.842 197.604 156.271 196.986 155.795 196.32C155.319 195.655 154.938 194.989 154.605 194.324C154.034 192.993 153.796 191.804 153.653 190.806C153.558 189.808 153.558 188.999 153.558 188.476C153.558 188.239 153.605 188.001 153.605 187.858C153.605 188.001 153.605 188.191 153.605 188.476C153.605 188.999 153.605 189.808 153.748 190.758C153.891 191.757 154.129 192.945 154.748 194.229C155.033 194.847 155.414 195.512 155.938 196.178C156.414 196.843 156.985 197.461 157.699 198.032C158.365 198.602 159.174 199.125 160.031 199.601C160.888 200.076 161.84 200.456 162.84 200.742C164.886 201.265 167.171 201.407 169.504 200.979C171.836 200.599 174.216 199.696 176.358 198.317C178.548 196.938 180.547 195.132 182.308 193.04C184.069 190.949 185.545 188.714 186.83 186.48C188.068 184.246 189.115 181.964 190.305 179.872C191.495 177.78 192.923 176.021 194.113 174.31C195.35 172.598 196.493 170.982 197.492 169.508C199.492 166.513 201.062 164.089 202.062 162.33C202.586 161.474 202.966 160.761 203.204 160.333C203.347 160.096 203.442 159.953 203.49 159.81C203.538 159.62 203.585 159.525 203.585 159.525Z" fill="#263238"/>
<path d="M154.224 183.057C154.224 183.105 153.986 183.247 153.653 183.627C153.32 184.008 152.986 184.578 152.891 185.339C152.844 186.052 153.082 186.718 153.32 187.145C153.558 187.573 153.796 187.763 153.796 187.811C153.796 187.811 153.51 187.668 153.177 187.24C152.891 186.813 152.558 186.1 152.653 185.291C152.748 184.483 153.177 183.865 153.558 183.485C153.938 183.105 154.224 183.009 154.224 183.057Z" fill="#263238"/>
<path d="M157.508 188.429C157.508 188.429 157.604 188.429 157.794 188.476C157.889 188.476 157.984 188.524 158.127 188.572C158.27 188.619 158.413 188.619 158.603 188.667C159.317 188.762 160.317 188.762 161.554 188.381C162.744 188.001 164.077 187.24 165.362 186.147C166.6 185.054 167.742 183.58 168.932 182.011C170.122 180.49 171.265 179.016 172.598 177.923C173.264 177.4 173.883 176.877 174.406 176.402C174.93 175.879 175.358 175.356 175.596 174.785C176.025 173.597 175.739 172.503 175.311 171.98C174.882 171.41 174.406 171.362 174.454 171.362C174.454 171.362 174.549 171.362 174.74 171.457C174.93 171.553 175.168 171.695 175.406 171.98C175.882 172.503 176.215 173.644 175.787 174.928C175.549 175.546 175.12 176.116 174.597 176.639C174.073 177.162 173.407 177.685 172.788 178.208C171.503 179.301 170.36 180.728 169.17 182.249C167.98 183.77 166.838 185.244 165.553 186.385C164.268 187.478 162.887 188.239 161.65 188.619C160.412 188.999 159.365 188.952 158.651 188.809C158.46 188.762 158.318 188.714 158.175 188.714C158.032 188.667 157.937 188.619 157.842 188.619C157.604 188.476 157.508 188.429 157.508 188.429Z" fill="#263238"/>
<path d="M190.781 134.852C190.781 134.852 190.733 134.947 190.59 135.138C190.448 135.328 190.257 135.613 189.972 135.946C189.448 136.611 188.686 137.61 187.782 138.893C185.973 141.413 183.688 145.026 181.451 149.209C179.214 153.393 177.358 157.243 175.93 160.001C175.216 161.379 174.644 162.473 174.216 163.233C174.026 163.614 173.835 163.899 173.74 164.089C173.645 164.279 173.55 164.374 173.55 164.374C173.55 164.374 173.597 164.279 173.692 164.041C173.788 163.804 173.93 163.518 174.121 163.138C174.502 162.33 175.073 161.237 175.739 159.858C177.12 157.101 178.976 153.202 181.213 149.019C183.45 144.836 185.783 141.223 187.639 138.751C188.591 137.515 189.353 136.516 189.924 135.851C190.21 135.518 190.4 135.28 190.59 135.09C190.686 134.947 190.781 134.852 190.781 134.852Z" fill="#263238"/>
<g opacity="0.3">
<path d="M153.653 187.621C155.985 188.857 158.508 188.762 161.126 188.239C163.696 187.716 166.124 186.29 167.79 184.246C167.362 186.527 166.362 188.714 164.744 190.331C163.078 191.947 160.698 192.898 158.46 192.47C156.128 192.042 153.843 189.903 153.653 187.621Z" fill="black"/>
</g>
<g opacity="0.3">
<path d="M175.596 173.882C177.072 176.116 177.596 178.921 177.024 181.536C178.976 178.541 179.452 174.738 178.928 171.172C178.405 167.607 176.977 164.279 175.358 161.046C175.358 161.046 173.597 164.041 173.55 164.374C173.454 166.086 174.121 169.366 174.454 171.03C175.358 171.885 175.787 173.169 175.549 174.405" fill="black"/>
</g>
<g opacity="0.3">
<path d="M161.507 200.028C166.219 203.689 173.264 203.879 178.452 200.837C183.45 197.937 186.497 192.66 189.353 187.668C193.78 179.919 199.158 170.317 202.3 161.95C202.3 161.95 193.446 173.977 190.828 179.159C188.829 183.057 187.258 185.672 184.783 189.285C179.833 196.606 170.836 200.979 161.983 200.361" fill="black"/>
</g>
<path d="M152.034 209.156C152.034 209.061 152.034 208.918 152.034 208.728C152.034 208.348 152.082 207.777 152.082 207.064C152.13 205.638 152.225 203.594 152.368 201.169V201.217C151.511 198.365 150.511 194.894 149.464 191.186C148.084 186.242 146.941 181.726 146.18 178.446C145.799 176.829 145.466 175.498 145.275 174.548C145.18 174.12 145.132 173.739 145.037 173.502C144.99 173.264 144.99 173.121 144.99 173.121C144.99 173.121 145.037 173.264 145.085 173.502C145.132 173.787 145.228 174.12 145.37 174.548C145.608 175.498 145.942 176.782 146.322 178.398C147.132 181.678 148.322 186.147 149.702 191.091C150.749 194.847 151.701 198.27 152.558 201.169C152.415 203.594 152.272 205.638 152.177 207.064C152.13 207.777 152.082 208.3 152.082 208.728C152.082 208.918 152.034 209.061 152.034 209.156Z" fill="#263238"/>
<path d="M202.3 133.902C202.3 133.949 201.776 133.759 200.967 133.569C200.158 133.379 198.968 133.141 197.683 133.093C196.398 133.046 195.208 133.188 194.398 133.331C193.542 133.474 193.066 133.616 193.018 133.616C193.018 133.616 193.113 133.569 193.351 133.474C193.589 133.379 193.922 133.284 194.351 133.188C195.208 132.998 196.398 132.808 197.683 132.856C199.016 132.903 200.158 133.141 201.015 133.379C201.443 133.521 201.776 133.616 201.967 133.711C202.205 133.806 202.3 133.902 202.3 133.902Z" fill="#263238"/>
<path d="M186.402 125.154C186.402 125.154 186.354 125.249 186.259 125.392C186.164 125.582 186.021 125.82 185.83 126.058C185.45 126.628 184.926 127.484 184.26 128.53C182.927 130.574 180.975 133.379 178.69 136.374C176.834 138.798 175.073 140.937 173.645 142.649L173.55 142.791L173.502 142.649C172.788 141.127 172.217 139.891 171.836 138.988C171.646 138.56 171.503 138.228 171.408 137.99C171.312 137.752 171.265 137.61 171.265 137.61C171.265 137.61 171.36 137.705 171.455 137.942C171.598 138.18 171.741 138.513 171.931 138.941C172.36 139.844 172.978 141.08 173.692 142.601H173.55C174.978 140.89 176.739 138.703 178.548 136.326C180.832 133.331 182.784 130.574 184.164 128.53C184.831 127.531 185.402 126.723 185.783 126.105C185.973 125.82 186.116 125.63 186.211 125.44C186.306 125.202 186.402 125.107 186.402 125.154Z" fill="#263238"/>
<path d="M197.968 201.787C197.921 201.787 198.111 199.315 198.444 196.273C198.778 193.23 199.111 190.758 199.158 190.806C199.206 190.806 199.016 193.278 198.682 196.32C198.349 199.315 198.016 201.787 197.968 201.787Z" fill="#263238"/>
<path d="M163.506 201.122C163.554 201.122 163.839 202.976 164.077 205.258C164.315 207.54 164.458 209.441 164.41 209.441C164.363 209.441 164.077 207.587 163.839 205.305C163.601 203.023 163.458 201.169 163.506 201.122Z" fill="#263238"/>
<path d="M188.924 146.832C188.877 146.452 188.306 146.214 188.02 146.452L187.972 146.499C187.687 146.785 187.782 147.355 188.163 147.45C188.544 147.593 188.972 147.213 188.924 146.832Z" fill="white"/>
<path d="M183.974 134.757C183.926 134.377 183.355 134.139 183.07 134.377L183.022 134.424C182.736 134.71 182.832 135.28 183.212 135.375C183.593 135.518 184.022 135.138 183.974 134.757Z" fill="white"/>
<path d="M172.598 144.503C172.55 144.122 171.979 143.885 171.693 144.122L171.646 144.17C171.36 144.455 171.455 145.026 171.836 145.121C172.169 145.263 172.645 144.883 172.598 144.503Z" fill="white"/>
<path d="M160.269 139.606C160.222 139.226 159.65 138.988 159.365 139.226L159.317 139.273C159.032 139.559 159.127 140.129 159.508 140.224C159.888 140.367 160.317 139.987 160.269 139.606Z" fill="white"/>
<path d="M158.08 134.805C158.032 134.424 157.461 134.187 157.175 134.424L157.128 134.472C156.842 134.757 156.937 135.328 157.318 135.423C157.699 135.565 158.127 135.185 158.08 134.805Z" fill="white"/>
<path d="M159.032 129.243C158.984 128.862 158.413 128.625 158.127 128.862L158.08 128.91C157.794 129.195 157.889 129.766 158.27 129.861C158.651 130.003 159.079 129.623 159.032 129.243Z" fill="white"/>
<path d="M152.225 136.897C152.177 136.516 151.606 136.278 151.32 136.516L151.273 136.564C150.987 136.849 151.082 137.419 151.463 137.515C151.844 137.657 152.272 137.277 152.225 136.897Z" fill="white"/>
<path d="M168.028 139.083C167.98 138.703 167.409 138.465 167.124 138.703L167.076 138.751C166.79 139.036 166.886 139.606 167.266 139.701C167.6 139.844 168.076 139.464 168.028 139.083Z" fill="white"/>
<path d="M154.652 149.019C154.605 148.639 154.034 148.401 153.748 148.639L153.7 148.686C153.415 148.971 153.51 149.542 153.891 149.637C154.224 149.78 154.7 149.399 154.652 149.019Z" fill="white"/>
<path d="M142.372 177.542C142.324 177.162 141.753 176.924 141.467 177.162L141.42 177.21C141.134 177.495 141.229 178.065 141.61 178.16C141.991 178.303 142.467 177.923 142.372 177.542Z" fill="white"/>
<path d="M146.751 161.094C146.703 160.714 146.132 160.476 145.846 160.714L145.799 160.761C145.513 161.046 145.608 161.617 145.989 161.712C146.37 161.855 146.798 161.474 146.751 161.094Z" fill="white"/>
<path d="M178.976 132.19C178.928 131.81 178.357 131.572 178.072 131.81L178.024 131.857C177.738 132.143 177.834 132.713 178.214 132.808C178.548 132.951 179.024 132.57 178.976 132.19Z" fill="white"/>
<path d="M194.303 164.945C194.256 164.564 193.684 164.327 193.399 164.564L193.351 164.612C193.066 164.897 193.161 165.468 193.542 165.563C193.922 165.705 194.398 165.325 194.303 164.945Z" fill="white"/>
<path d="M200.301 136.754C200.253 136.374 199.682 136.136 199.396 136.374L199.349 136.421C199.063 136.706 199.158 137.277 199.539 137.372C199.92 137.515 200.348 137.134 200.301 136.754Z" fill="white"/>
<path d="M197.968 155.199C197.921 154.819 197.35 154.581 197.064 154.819L197.016 154.866C196.731 155.152 196.826 155.722 197.207 155.817C197.588 156.007 198.016 155.627 197.968 155.199Z" fill="white"/>
<path d="M184.545 168.558C184.498 168.177 183.926 167.94 183.641 168.177L183.593 168.225C183.308 168.51 183.403 169.081 183.784 169.176C184.164 169.318 184.593 168.938 184.545 168.558Z" fill="white"/>
<path d="M185.116 157.433C185.069 157.053 184.498 156.815 184.212 157.053L184.164 157.101C183.879 157.386 183.974 157.956 184.355 158.051C184.688 158.242 185.164 157.861 185.116 157.433Z" fill="white"/>
<path d="M193.208 136.849C193.161 136.469 192.59 136.231 192.304 136.469L192.256 136.516C191.971 136.801 192.066 137.372 192.447 137.467C192.828 137.61 193.256 137.229 193.208 136.849Z" fill="white"/>
<path d="M182.308 126.105C182.26 125.725 181.689 125.487 181.404 125.725L181.356 125.772C181.07 126.058 181.166 126.628 181.546 126.723C181.88 126.866 182.356 126.485 182.308 126.105Z" fill="white"/>
<path d="M181.88 143.409C181.832 143.029 181.261 142.791 180.975 143.029L180.928 143.077C180.642 143.362 180.737 143.932 181.118 144.027C181.499 144.218 181.975 143.837 181.88 143.409Z" fill="white"/>
<path d="M167.98 196.32C167.933 195.94 167.362 195.702 167.076 195.94L167.028 195.988C166.743 196.273 166.838 196.843 167.219 196.938C167.6 197.081 168.028 196.701 167.98 196.32Z" fill="white"/>
<path d="M151.987 187.621C151.939 187.24 151.368 187.003 151.082 187.24L151.035 187.288C150.749 187.573 150.844 188.144 151.225 188.239C151.606 188.381 152.082 188.001 151.987 187.621Z" fill="white"/>
<path d="M139.087 191.899C139.04 191.519 138.468 191.281 138.183 191.519L138.135 191.567C137.85 191.852 137.945 192.422 138.326 192.517C138.706 192.66 139.135 192.28 139.087 191.899Z" fill="white"/>
<path d="M137.707 199.22C137.659 198.84 137.088 198.602 136.802 198.84L136.755 198.888C136.469 199.173 136.564 199.743 136.945 199.838C137.326 199.981 137.754 199.601 137.707 199.22Z" fill="white"/>
<path d="M149.797 201.692C149.75 201.312 149.178 201.074 148.893 201.312L148.845 201.36C148.56 201.645 148.655 202.215 149.036 202.31C149.416 202.453 149.892 202.073 149.797 201.692Z" fill="white"/>
<path d="M145.751 185.244C145.704 184.864 145.132 184.626 144.847 184.864L144.799 184.911C144.514 185.196 144.609 185.767 144.99 185.862C145.37 186.004 145.846 185.624 145.751 185.244Z" fill="white"/>
<path d="M160.602 189.427C160.555 189.047 159.984 188.809 159.698 189.047L159.65 189.094C159.365 189.38 159.46 189.95 159.841 190.045C160.222 190.14 160.698 189.808 160.602 189.427Z" fill="white"/>
<path d="M195.922 185.196C195.874 184.816 195.303 184.578 195.017 184.816L194.97 184.864C194.684 185.149 194.779 185.719 195.16 185.814C195.541 186.004 195.969 185.624 195.922 185.196Z" fill="white"/>
<path d="M174.073 206.114C174.026 205.733 173.454 205.496 173.169 205.733L173.121 205.781C172.836 206.066 172.931 206.636 173.312 206.732C173.692 206.874 174.168 206.494 174.073 206.114Z" fill="white"/>
<path d="M183.403 194.466C183.355 194.086 182.784 193.848 182.498 194.086L182.451 194.134C182.165 194.419 182.26 194.989 182.641 195.084C183.022 195.227 183.45 194.894 183.403 194.466Z" fill="white"/>
<path d="M188.924 203.927C188.877 203.546 188.306 203.309 188.02 203.546L187.972 203.594C187.687 203.879 187.782 204.45 188.163 204.545C188.544 204.735 189.02 204.355 188.924 203.927Z" fill="white"/>
<path d="M173.55 154.391C173.502 154.011 172.931 153.773 172.645 154.011L172.598 154.058C172.312 154.343 172.407 154.914 172.788 155.009C173.169 155.152 173.597 154.771 173.55 154.391Z" fill="white"/>
<path d="M186.068 178.541C186.021 178.16 185.45 177.923 185.164 178.16L185.116 178.208C184.831 178.493 184.926 179.064 185.307 179.159C185.688 179.301 186.116 178.921 186.068 178.541Z" fill="white"/>
<path d="M182.022 187.716C181.975 187.336 181.404 187.098 181.118 187.336L181.07 187.383C180.785 187.668 180.88 188.239 181.261 188.334C181.594 188.476 182.07 188.096 182.022 187.716Z" fill="white"/>
<path d="M195.35 195.037C195.303 194.657 194.732 194.419 194.446 194.657L194.398 194.704C194.113 194.989 194.208 195.56 194.589 195.655C194.97 195.798 195.446 195.417 195.35 195.037Z" fill="white"/>
<path d="M158.794 205.638C158.746 205.258 158.175 205.02 157.889 205.258L157.842 205.305C157.556 205.591 157.651 206.161 158.032 206.256C158.413 206.446 158.889 206.066 158.794 205.638Z" fill="white"/>
<path d="M128.33 202.881C128.282 202.501 127.711 202.263 127.425 202.501L127.378 202.548C127.092 202.833 127.187 203.404 127.568 203.499C127.949 203.641 128.377 203.261 128.33 202.881Z" fill="white"/>
<path d="M155.176 197.889C155.128 197.509 154.557 197.271 154.272 197.509L154.224 197.556C153.938 197.842 154.034 198.412 154.414 198.507C154.795 198.65 155.224 198.27 155.176 197.889Z" fill="white"/>
<path d="M129.472 192.47C129.424 192.089 128.853 191.852 128.568 192.089L128.52 192.137C128.234 192.422 128.33 192.993 128.71 193.088C129.091 193.23 129.52 192.85 129.472 192.47Z" fill="white"/>
<path d="M172.407 175.213C172.36 174.833 171.788 174.595 171.503 174.833L171.455 174.88C171.17 175.166 171.265 175.736 171.646 175.831C172.026 175.974 172.455 175.593 172.407 175.213Z" fill="white"/>
<path d="M163.411 149.019C163.363 148.639 162.792 148.401 162.506 148.639L162.459 148.686C162.173 148.971 162.268 149.542 162.649 149.637C163.03 149.78 163.506 149.399 163.411 149.019Z" fill="white"/>
<path d="M161.174 171.695C161.126 171.315 160.555 171.077 160.269 171.315L160.222 171.362C159.936 171.648 160.031 172.218 160.412 172.313C160.793 172.408 161.221 172.123 161.174 171.695Z" fill="white"/>
<path d="M157.508 164.327C157.461 163.946 156.89 163.709 156.604 163.946L156.556 163.994C156.271 164.279 156.366 164.85 156.747 164.945C157.128 165.087 157.604 164.707 157.508 164.327Z" fill="white"/>
<path d="M173.692 187.573C173.645 187.193 173.074 186.955 172.788 187.193L172.74 187.24C172.455 187.526 172.55 188.096 172.931 188.191C173.312 188.286 173.74 188.001 173.692 187.573Z" fill="white"/>
<path d="M162.268 183.009C162.221 182.629 161.65 182.391 161.364 182.629L161.316 182.677C161.031 182.962 161.126 183.532 161.507 183.627C161.888 183.77 162.364 183.437 162.268 183.009Z" fill="white"/>
<path d="M167.171 157.956C167.124 157.576 166.552 157.338 166.267 157.576L166.219 157.624C165.934 157.909 166.029 158.479 166.41 158.574C166.79 158.717 167.219 158.337 167.171 157.956Z" fill="white"/>
<path d="M149.797 175.688C149.75 175.308 149.178 175.07 148.893 175.308L148.845 175.356C148.56 175.641 148.655 176.211 149.036 176.306C149.416 176.449 149.892 176.116 149.797 175.688Z" fill="white"/>
<path d="M176.596 167.559C176.548 167.179 175.977 166.941 175.692 167.179L175.644 167.226C175.358 167.512 175.454 168.082 175.834 168.177C176.215 168.32 176.644 167.94 176.596 167.559Z" fill="white"/>
<path d="M201.443 146.262C201.396 145.881 200.824 145.644 200.539 145.881L200.491 145.929C200.206 146.214 200.301 146.785 200.682 146.88C201.062 147.022 201.491 146.69 201.443 146.262Z" fill="white"/>
<path d="M191.352 130.146C191.304 129.766 190.733 129.528 190.448 129.766L190.4 129.813C190.114 130.098 190.21 130.669 190.59 130.764C190.971 130.954 191.4 130.574 191.352 130.146Z" fill="white"/>
<path d="M171.788 132.19C171.741 131.81 171.17 131.572 170.884 131.81L170.836 131.857C170.551 132.143 170.646 132.713 171.027 132.808C171.408 132.951 171.884 132.57 171.788 132.19Z" fill="white"/>
<path d="M151.892 74.335C148.131 76.7119 146.656 81.7036 147.37 84.651C147.75 86.1247 148.417 87.646 148.131 89.1197C147.893 90.4032 146.941 91.4491 146.227 92.59C143.895 96.3456 144.323 101.575 147.179 104.903C150.083 108.23 155.224 109.419 159.27 107.612" fill="#263238"/>
<path d="M149.654 93.826C140.515 73.8121 162.221 63.7338 174.073 67.0615C185.212 70.1991 189.924 75.7136 191.78 83.1773C193.589 90.5934 193.542 98.675 190.59 105.758C189.162 109.229 186.544 112.794 182.784 113.222" fill="#263238"/>
<path d="M160.317 142.744C160.174 133.188 160.031 120.02 160.031 120.068C160.031 120.068 151.796 118.689 150.083 107.945C149.226 102.621 149.512 93.8736 149.94 86.6952C150.368 80.2774 154.605 72.3384 161.031 73.0514L181.07 78.1381C183.022 78.3283 184.498 79.9922 184.45 81.9888L183.165 123.443" fill="#FFBE9D"/>
<path d="M153.558 93.3031C153.51 94.0162 154.129 94.6342 154.843 94.6818C155.604 94.7293 156.223 94.2064 156.271 93.4457C156.318 92.7326 155.7 92.1146 154.986 92.0671C154.272 92.0196 153.605 92.59 153.558 93.3031Z" fill="#263238"/>
<path d="M167.838 93.3031C167.79 94.0162 168.409 94.6342 169.123 94.6818C169.884 94.7293 170.503 94.2064 170.551 93.4457C170.598 92.7326 169.98 92.1146 169.266 92.0671C168.504 92.0196 167.838 92.59 167.838 93.3031Z" fill="#263238"/>
<path d="M152.082 90.7835C152.225 90.9737 153.32 90.2131 154.795 90.3081C156.271 90.3557 157.318 91.1163 157.508 90.9737C157.604 90.8786 157.413 90.5458 156.985 90.2131C156.509 89.8328 155.747 89.5 154.843 89.4524C153.938 89.4049 153.129 89.7377 152.653 90.0705C152.177 90.4032 152.034 90.736 152.082 90.7835Z" fill="#263238"/>
<path d="M166.172 91.1639C166.362 91.354 167.409 90.5458 168.885 90.5458C170.36 90.4983 171.455 91.2589 171.598 91.1163C171.693 91.0212 171.503 90.736 171.027 90.3557C170.551 90.0229 169.742 89.6901 168.837 89.6901C167.933 89.6901 167.124 90.0229 166.695 90.4032C166.219 90.736 166.076 91.0688 166.172 91.1639Z" fill="#263238"/>
<path d="M161.078 102.573C161.078 102.478 160.174 102.336 158.651 102.145C158.27 102.098 157.937 102.05 157.842 101.765C157.746 101.48 157.889 101.1 158.08 100.624C158.413 99.7209 158.794 98.7701 159.222 97.7242C160.793 93.6359 161.888 90.2606 161.745 90.2131C161.602 90.1655 160.174 93.4457 158.651 97.5341C158.27 98.5324 157.937 99.5307 157.556 100.434C157.413 100.862 157.175 101.337 157.366 101.908C157.461 102.193 157.746 102.383 157.984 102.478C158.222 102.573 158.46 102.573 158.651 102.573C160.126 102.668 161.078 102.668 161.078 102.573Z" fill="#263238"/>
<path d="M160.079 120.115C160.079 120.115 167.314 120.591 174.454 116.265C174.454 116.265 170.836 123.728 160.079 122.73V120.115Z" fill="#EB996E"/>
<path d="M165.791 89.0721C165.934 89.4524 167.409 89.2623 169.17 89.5C170.932 89.6901 172.312 90.1655 172.55 89.8328C172.645 89.6426 172.407 89.2623 171.836 88.882C171.265 88.5017 170.36 88.1213 169.313 88.0263C168.266 87.9312 167.314 88.0738 166.695 88.359C166.076 88.5492 165.743 88.882 165.791 89.0721Z" fill="#263238"/>
<path d="M152.415 87.0755C152.653 87.4083 153.7 87.0755 154.938 87.0279C156.176 86.9804 157.223 87.2656 157.461 86.8853C157.556 86.6952 157.413 86.3624 156.937 86.0772C156.509 85.7444 155.747 85.5067 154.89 85.5067C154.034 85.5542 153.32 85.8395 152.891 86.1722C152.463 86.5525 152.32 86.9329 152.415 87.0755Z" fill="#263238"/>
<path d="M182.689 96.1079C182.832 96.0128 188.448 93.5408 188.496 100.006C188.544 106.424 182.07 105.188 182.07 104.998C182.07 104.808 182.689 96.1079 182.689 96.1079Z" fill="#FFBE9D"/>
<path d="M184.022 102.526C184.069 102.526 184.117 102.621 184.307 102.668C184.498 102.763 184.831 102.811 185.164 102.668C185.831 102.431 186.402 101.337 186.402 100.149C186.402 99.5783 186.307 99.0078 186.069 98.5324C185.878 98.057 185.545 97.7242 185.212 97.6767C184.879 97.5816 184.641 97.8193 184.545 98.0095C184.45 98.1996 184.498 98.2947 184.45 98.3423C184.45 98.3423 184.307 98.2472 184.355 97.9619C184.403 97.8193 184.45 97.6767 184.593 97.5341C184.736 97.3915 184.974 97.3439 185.212 97.3439C185.688 97.3915 186.164 97.8193 186.402 98.3423C186.64 98.8652 186.83 99.4832 186.83 100.149C186.783 101.432 186.164 102.668 185.212 102.954C184.783 103.096 184.403 102.954 184.165 102.811C184.022 102.668 184.022 102.526 184.022 102.526Z" fill="#EB996E"/>
<path d="M158.936 69.9138C155.366 71.7679 153.891 79.0889 155.366 82.797C156.842 86.5526 160.84 88.359 164.791 89.2147C168.742 90.0704 172.598 90.1655 176.453 89.1197C176.739 91.7343 178.31 94.3965 180.832 95.1096C184.164 96.0128 187.544 92.9703 188.306 89.5475C189.067 86.1722 187.925 82.6543 186.83 79.3741" fill="#263238"/>
<path d="M187.354 93.2556C187.354 93.2556 187.211 93.4457 186.878 93.731C186.544 94.0162 186.068 94.3965 185.402 94.8719C184.736 95.2998 183.926 95.7752 182.879 96.0604C181.88 96.3456 180.642 96.4407 179.452 96.0129C178.262 95.585 177.405 94.6818 176.882 93.7785C176.31 92.8753 176.072 91.9245 175.977 91.1639C175.834 90.4032 175.834 89.7377 175.882 89.3098C175.882 88.882 175.93 88.6443 175.977 88.6443C176.025 88.6443 175.977 89.6426 176.263 91.1163C176.406 91.877 176.691 92.7802 177.215 93.5884C177.738 94.4441 178.548 95.2522 179.642 95.6325C180.737 96.0604 181.88 95.9653 182.832 95.6801C183.784 95.3948 184.64 94.967 185.307 94.5867C186.544 93.7785 187.306 93.208 187.354 93.2556Z" fill="#263238"/>
<path d="M161.507 106.709C161.745 107.232 161.935 107.803 162.316 108.278C162.697 108.753 163.22 109.086 163.792 109.134C164.41 109.181 165.029 108.801 165.362 108.278C165.696 107.755 165.838 107.089 165.791 106.471C165.743 105.901 165.505 105.235 164.934 105.14C164.696 105.093 164.458 105.188 164.268 105.283C163.268 105.663 162.316 106.091 161.316 106.471" fill="#EB996E"/>
<path d="M162.697 109.134C162.697 109.039 163.363 109.324 164.268 108.943C164.696 108.753 165.172 108.421 165.458 107.85C165.743 107.327 165.791 106.567 165.505 105.901C165.458 105.758 165.362 105.568 165.267 105.473C165.172 105.331 165.172 105.378 165.029 105.378C164.886 105.426 164.696 105.521 164.553 105.568C164.41 105.616 164.22 105.711 164.077 105.758C163.458 105.996 162.887 106.234 162.364 106.424C161.412 106.804 160.793 106.994 160.745 106.899C160.698 106.852 161.269 106.519 162.221 106.091C162.697 105.853 163.268 105.616 163.887 105.331C164.03 105.283 164.22 105.188 164.363 105.093C164.553 105.045 164.648 104.95 164.886 104.855C164.982 104.808 165.172 104.808 165.315 104.855C165.458 104.903 165.553 105.045 165.648 105.093C165.791 105.283 165.886 105.473 165.981 105.663C166.314 106.471 166.267 107.375 165.886 108.04C165.505 108.706 164.886 109.086 164.363 109.276C163.839 109.419 163.363 109.419 163.078 109.324C162.84 109.276 162.697 109.134 162.697 109.134Z" fill="#263238"/>
<path d="M189.924 91.7343C189.258 91.6868 183.974 92.3523 184.355 102.24C184.736 111.463 191.209 109.419 193.304 105.949C195.255 102.668 196.35 92.1622 189.924 91.7343Z" fill="#455A64"/>
<path d="M193.208 92.8753C193.208 92.8753 193.208 92.7802 193.161 92.6376C193.161 92.4474 193.161 92.2097 193.113 91.8769C193.113 91.2114 193.066 90.2606 193.018 89.0721C192.97 86.6476 192.923 83.2723 192.828 79.3741L192.97 79.4692C192.114 79.4692 191.162 79.4692 190.21 79.4692L190.352 79.3266C190.352 80.0397 190.4 80.8478 190.4 81.6085C190.495 85.3165 190.59 88.7393 190.638 91.6392V91.7343H190.543C189.305 92.0195 188.353 92.7326 187.734 93.5408C187.116 94.349 186.782 95.2047 186.592 95.9178C186.402 96.6308 186.354 97.2013 186.306 97.5816C186.306 97.7718 186.259 97.9144 186.259 98.0095C186.259 97.9144 186.259 97.7718 186.259 97.5341C186.259 97.1538 186.306 96.5358 186.497 95.8227C186.687 95.1096 186.973 94.2063 187.592 93.3506C188.21 92.4949 189.21 91.7343 190.495 91.4491L190.4 91.5442C190.305 88.6443 190.21 85.2214 190.114 81.5134C190.114 80.7052 190.067 79.9446 190.067 79.2315V79.0889H190.21C191.162 79.0889 192.066 79.0889 192.97 79.0889H193.066V79.184C193.113 83.0822 193.161 86.4575 193.161 88.882C193.161 90.0704 193.161 91.0212 193.161 91.6868C193.161 92.0195 193.161 92.2572 193.161 92.4474C193.208 92.7802 193.208 92.8753 193.208 92.8753Z" fill="#455A64"/>
<path d="M189.924 79.3742C189.924 79.3742 187.163 72.8613 180.499 69.6762C177.31 68.1074 174.882 67.2992 172.55 66.7287C172.55 66.7287 176.406 65.8255 182.689 68.5828C185.545 69.8663 188.401 71.4827 190.305 73.9547C191.495 75.5235 193.018 78.566 193.018 79.3742H189.924Z" fill="#455A64"/>
<path d="M172.74 158.051C172.74 158.051 172.788 158.004 172.836 157.909C172.931 157.814 173.026 157.719 173.216 157.529C173.55 157.196 173.978 156.72 174.502 156.007C175.025 155.294 175.596 154.438 176.215 153.345C176.834 152.252 177.5 151.016 178.167 149.589C179.547 146.737 181.213 143.314 182.879 139.369C183.736 137.419 184.593 135.28 185.45 133.093C185.64 132.523 185.878 132 186.068 131.43C186.259 130.859 186.497 130.289 186.83 129.766C187.163 129.243 187.639 128.767 188.21 128.435C188.496 128.292 188.829 128.197 189.162 128.197C189.353 128.197 189.543 128.292 189.686 128.387C189.829 128.482 189.924 128.672 190.019 128.815V128.862V128.91C189.972 129.148 189.924 129.338 189.781 129.528C189.638 129.718 189.4 129.861 189.21 129.908C188.734 130.003 188.306 129.861 187.877 129.671C187.02 129.29 186.497 128.292 186.687 127.389C186.782 126.913 187.068 126.485 187.449 126.248C187.83 125.963 188.306 125.82 188.782 125.867C189.258 125.915 189.781 126.105 190.019 126.533C190.162 126.771 190.162 127.103 189.972 127.294C189.829 127.531 189.591 127.626 189.353 127.721C188.544 128.054 187.592 127.769 187.068 127.056C186.83 126.723 186.687 126.248 186.782 125.867C186.83 125.44 187.02 125.059 187.258 124.727C187.544 124.394 187.925 124.204 188.353 124.156C188.782 124.108 189.21 124.251 189.496 124.536C189.638 124.679 189.734 124.917 189.734 125.154C189.734 125.392 189.638 125.582 189.448 125.725C189.115 126.01 188.686 126.105 188.306 126.058C187.877 125.963 187.592 125.63 187.401 125.297C187.211 124.964 187.116 124.584 187.068 124.204C186.973 123.443 186.973 122.682 187.306 121.969C187.496 121.636 187.734 121.304 188.115 121.161C188.496 121.018 188.877 121.066 189.258 121.209C189.591 121.351 189.924 121.684 189.972 122.112C190.019 122.54 189.734 122.872 189.353 123.063C189.02 123.205 188.591 123.253 188.258 123.063C187.925 122.872 187.687 122.587 187.592 122.207C187.449 121.874 187.496 121.494 187.544 121.161C187.592 120.828 187.639 120.496 187.782 120.163C187.877 119.83 188.068 119.545 188.353 119.307C188.639 119.117 188.924 118.927 189.258 118.879C189.4 118.832 189.591 118.832 189.781 118.879C189.972 118.927 190.114 119.022 190.21 119.164C190.352 119.307 190.448 119.402 190.495 119.592C190.543 119.735 190.59 119.925 190.495 120.115C190.352 120.496 189.972 120.591 189.638 120.591C189.305 120.591 189.02 120.448 188.734 120.305C188.21 119.925 187.877 119.402 187.782 118.832C187.639 118.261 187.734 117.643 187.972 117.12C188.115 116.883 188.258 116.645 188.496 116.455C188.734 116.265 188.972 116.169 189.258 116.122C189.543 116.074 189.829 116.074 190.067 116.217C190.305 116.36 190.495 116.597 190.495 116.883C190.495 117.453 190.067 117.881 189.591 118.023C189.067 118.166 188.591 117.881 188.306 117.548C188.02 117.215 187.83 116.74 187.83 116.312C187.782 115.456 188.115 114.696 188.306 114.03C188.496 113.365 188.686 112.699 188.829 112.176C189.162 111.083 189.4 110.18 189.591 109.609C189.686 109.324 189.734 109.086 189.781 108.944C189.829 108.801 189.876 108.706 189.876 108.706C189.876 108.706 189.876 108.801 189.829 108.944C189.781 109.086 189.734 109.324 189.638 109.609C189.496 110.227 189.258 111.083 188.924 112.224C188.782 112.794 188.591 113.412 188.401 114.078C188.258 114.743 187.925 115.504 187.972 116.312C188.02 116.692 188.163 117.12 188.448 117.453C188.734 117.786 189.162 118.023 189.591 117.881C190.019 117.786 190.4 117.358 190.352 116.883C190.352 116.645 190.21 116.455 190.019 116.36C189.829 116.265 189.543 116.217 189.305 116.265C189.067 116.312 188.829 116.407 188.639 116.55C188.448 116.692 188.258 116.93 188.163 117.168C187.925 117.643 187.877 118.214 187.972 118.737C188.068 119.259 188.401 119.782 188.877 120.115C189.115 120.258 189.353 120.4 189.638 120.353C189.924 120.353 190.21 120.258 190.305 120.02C190.4 119.782 190.257 119.497 190.067 119.307C189.972 119.212 189.829 119.117 189.734 119.069C189.591 119.022 189.448 119.069 189.305 119.069C188.734 119.212 188.163 119.592 187.972 120.21C187.877 120.496 187.83 120.828 187.782 121.161C187.734 121.494 187.734 121.779 187.83 122.112C187.925 122.397 188.115 122.682 188.401 122.825C188.686 122.968 189.02 122.968 189.305 122.825C189.591 122.682 189.781 122.397 189.781 122.112C189.781 121.827 189.496 121.541 189.21 121.446C188.924 121.304 188.544 121.304 188.258 121.399C187.972 121.494 187.734 121.779 187.592 122.112C187.306 122.73 187.258 123.49 187.354 124.204C187.401 124.536 187.496 124.917 187.687 125.202C187.877 125.487 188.115 125.772 188.448 125.82C188.782 125.867 189.162 125.772 189.4 125.582C189.638 125.345 189.638 124.964 189.448 124.727C189.21 124.489 188.829 124.394 188.496 124.394C188.163 124.441 187.83 124.631 187.592 124.917C187.116 125.44 186.973 126.343 187.401 126.913C187.83 127.484 188.686 127.769 189.4 127.484C189.591 127.389 189.781 127.294 189.876 127.151C189.972 127.008 190.019 126.818 189.924 126.628C189.734 126.295 189.305 126.105 188.877 126.058C188.02 126.01 187.163 126.581 187.02 127.389C186.83 128.197 187.306 129.1 188.068 129.433C188.448 129.623 188.877 129.718 189.258 129.671C189.638 129.623 189.876 129.243 189.924 128.862V128.91C189.829 128.625 189.591 128.482 189.305 128.435C189.02 128.435 188.734 128.53 188.448 128.672C187.925 128.957 187.449 129.385 187.163 129.908C186.83 130.431 186.64 131.002 186.402 131.572C186.164 132.143 185.973 132.713 185.735 133.236C184.878 135.423 184.022 137.562 183.165 139.511C181.451 143.457 179.833 146.88 178.405 149.732C177.691 151.158 177.024 152.442 176.406 153.488C175.787 154.581 175.168 155.437 174.644 156.15C173.502 157.433 172.74 158.051 172.74 158.051Z" fill="white"/>
<path d="M195.684 87.0755C195.636 87.0755 195.684 86.4099 195.255 85.3165C194.827 84.2707 193.732 82.797 191.828 81.8937C190.876 81.4659 189.781 81.1806 188.544 81.0856C187.306 80.9905 186.021 81.1331 184.64 81.3708C181.927 81.8937 179.024 83.0347 175.834 83.5101C174.216 83.7002 172.645 83.7002 171.122 83.5101C169.599 83.3199 168.171 82.8921 166.886 82.3691C164.268 81.3233 162.221 79.802 160.698 78.2808C159.222 76.7595 158.222 75.3333 157.699 74.2875C157.556 74.0498 157.413 73.8121 157.366 73.5744C157.27 73.3842 157.223 73.1941 157.128 73.0514C157.08 72.9088 157.032 72.8138 156.985 72.7187C156.937 72.6236 156.937 72.6236 156.937 72.6236C156.937 72.6236 156.985 72.6711 156.985 72.7187C157.032 72.8138 157.08 72.9088 157.128 73.0514C157.175 73.1941 157.27 73.3842 157.366 73.5744C157.461 73.7645 157.556 74.0022 157.746 74.2399C158.318 75.2858 159.27 76.6644 160.793 78.1381C162.268 79.6119 164.363 81.0856 166.933 82.1314C168.218 82.6068 169.646 83.0347 171.122 83.2724C172.598 83.4625 174.168 83.4625 175.787 83.2724C178.976 82.797 181.832 81.6085 184.593 81.1331C185.973 80.8954 187.306 80.7528 188.544 80.8479C189.781 80.9429 190.924 81.2282 191.876 81.7036C193.827 82.6544 194.874 84.1281 195.303 85.2215C195.541 85.7919 195.588 86.2198 195.636 86.5526C195.636 86.6952 195.636 86.7903 195.636 86.8853C195.684 87.028 195.684 87.0755 195.684 87.0755Z" fill="#455A64"/>
<path d="M188.496 76.8546C188.496 76.8546 188.401 76.9021 188.163 76.9021C187.925 76.9496 187.592 76.9972 187.163 77.0447C186.306 77.1873 185.116 77.4726 183.593 77.8054C182.118 78.1857 180.309 78.6135 178.262 78.8512C176.215 79.0889 173.978 79.0414 171.646 78.7086C169.313 78.3758 167.124 77.7578 165.22 76.9972C163.316 76.2366 161.697 75.3333 160.412 74.4776C159.793 74.0498 159.222 73.6219 158.698 73.2416C158.222 72.8613 157.794 72.5285 157.508 72.2433C157.223 71.958 156.985 71.7203 156.794 71.5777C156.652 71.4351 156.556 71.34 156.556 71.34C156.556 71.34 156.652 71.3876 156.842 71.5302C157.032 71.6728 157.27 71.9105 157.604 72.1957C157.937 72.481 158.365 72.7662 158.841 73.1465C159.317 73.5268 159.888 73.9071 160.555 74.335C163.125 75.9989 167.076 77.8053 171.741 78.4709C174.073 78.8037 176.31 78.8512 178.31 78.6135C180.309 78.4234 182.118 77.9955 183.593 77.6627C185.116 77.33 186.306 77.0447 187.163 76.9496C187.592 76.9021 187.925 76.8546 188.163 76.8546C188.353 76.8546 188.496 76.8546 188.496 76.8546Z" fill="#455A64"/>
<path d="M189.21 108.706C189.21 108.706 189.162 108.706 189.02 108.658C188.924 108.611 188.734 108.516 188.544 108.421C188.115 108.183 187.592 107.707 187.163 106.947C186.735 106.186 186.402 105.188 186.306 104.047C186.211 102.906 186.211 101.67 186.306 100.339C186.402 99.0553 186.64 97.8193 186.925 96.7259C187.211 95.6325 187.544 94.6342 187.972 93.9211C188.401 93.1605 188.972 92.6851 189.353 92.4474C189.543 92.3048 189.734 92.2572 189.829 92.2097C189.972 92.1622 190.019 92.1622 190.019 92.1622C190.019 92.1622 189.781 92.2573 189.4 92.5425C189.02 92.8277 188.496 93.3031 188.115 94.0162C187.687 94.7293 187.401 95.7276 187.116 96.821C186.83 97.9144 186.64 99.1504 186.544 100.434C186.449 101.718 186.449 102.954 186.544 104.094C186.64 105.188 186.925 106.186 187.306 106.947C187.734 107.707 188.21 108.183 188.591 108.421C188.972 108.563 189.21 108.658 189.21 108.706Z" fill="#263238"/>
<path d="M168.361 110.084L163.458 111.035C162.744 111.178 162.03 110.702 161.888 109.989L161.84 109.752C161.697 109.039 162.173 108.325 162.887 108.183L167.79 107.232C168.504 107.089 169.218 107.565 169.361 108.278L169.408 108.468C169.551 109.181 169.075 109.894 168.361 110.084Z" fill="#455A64"/>
<path d="M168.742 107.945L191.304 100.862C191.876 100.672 192.447 101.004 192.637 101.575C192.828 102.145 192.494 102.763 191.923 102.906L168.837 109.134L168.742 107.945Z" fill="#455A64"/>
<path d="M185.402 104.855C185.402 104.855 185.688 104.76 186.164 104.57C186.687 104.427 187.401 104.19 188.21 103.952C189.067 103.667 190.162 103.381 191.257 103.049C191.542 102.954 191.78 102.811 192.018 102.573C192.209 102.383 192.352 102.098 192.352 101.765C192.352 101.48 192.161 101.195 191.876 101.1C191.59 101.004 191.257 101.052 190.924 101.147C188.306 102.003 185.926 102.763 184.164 103.334C183.308 103.572 182.641 103.809 182.118 103.952C181.642 104.095 181.356 104.19 181.356 104.142C181.356 104.142 181.594 103.999 182.07 103.857C182.594 103.667 183.26 103.429 184.117 103.144C185.83 102.573 188.21 101.765 190.876 100.909C191.209 100.814 191.59 100.767 191.971 100.909C192.352 101.004 192.59 101.432 192.59 101.765C192.59 102.145 192.447 102.478 192.209 102.716C191.971 102.954 191.685 103.096 191.4 103.239C190.21 103.619 189.21 103.857 188.306 104.095C187.449 104.332 186.735 104.522 186.211 104.665C185.688 104.808 185.45 104.855 185.402 104.855Z" fill="#263238"/>
<path d="M148.512 87.5509C149.274 90.2606 146.513 92.59 145.561 95.2522C144.609 97.8193 145.418 100.672 146.56 103.144C147.703 105.616 149.226 107.945 149.845 110.607C151.32 117.168 145.37 124.251 146.513 130.859C146.941 133.284 147.893 135.803 148.75 138.085C149.607 140.367 149.512 142.506 148.75 144.788C147.465 148.591 145.275 150.35 143.752 154.058C142.99 155.96 143.038 158.051 143.086 160.096C143.133 162.14 143.133 164.279 142.181 166.133C141.277 167.987 139.182 169.366 137.183 168.843C139.278 171.267 143.086 171.98 145.894 170.507C148.512 169.128 149.94 166.323 151.225 163.614C157.27 150.683 160.46 149.589 160.269 135.328C160.269 134.424 160.079 120.115 160.079 120.115C160.079 120.115 157.842 119.497 156.509 118.594C149.75 113.935 149.512 105.663 149.559 99.2455" fill="#263238"/>
<path d="M161.983 130.859V136.231C161.983 136.231 157.842 157.338 156.604 169.081C155.366 180.823 155.128 183.913 155.128 183.913C155.128 183.913 158.127 188.572 164.315 180.68C170.551 172.789 171.646 171.553 174.121 171.41C174.121 171.41 171.074 138.418 171.217 137.182C171.36 135.946 172.312 134.852 172.312 134.852L161.983 130.859Z" fill="#FFBE9D"/>
<path d="M170.123 118.737C170.123 118.737 163.363 127.721 162.792 128.957C162.221 130.193 161.983 130.907 161.983 130.907L172.36 134.9L182.451 123.871L186.164 114.078L185.069 102.478C185.069 102.478 182.879 102.336 182.451 104.285C182.023 106.234 182.165 107.993 182.165 107.993L179.071 105.521L174.073 103.999C174.073 103.999 172.883 105.949 174.835 106.899C176.787 107.85 177.31 107.85 177.31 107.85L179.071 110.893L178.31 114.315L174.787 110.988C174.073 110.322 172.979 110.275 172.217 110.845L169.932 112.509L167.79 111.558L163.649 115.219L161.983 116.74C161.983 116.74 163.078 118.832 165.315 117.833C167.505 116.883 167.505 116.883 167.505 116.883L170.123 118.737Z" fill="#FFBE9D"/>
<path d="M161.983 132.666C161.983 132.666 161.983 132.57 161.983 132.38C161.983 132.19 161.983 131.905 162.03 131.525C162.078 131.144 162.126 130.716 162.268 130.193C162.411 129.671 162.602 129.053 162.982 128.435C164.553 126.058 166.981 122.73 170.027 118.641V118.784C169.218 118.166 168.314 117.548 167.409 116.835H167.504C167.076 117.025 166.6 117.215 166.124 117.453C165.648 117.643 165.22 117.881 164.648 118.023C164.125 118.166 163.554 118.119 163.03 117.833C162.506 117.596 162.126 117.168 161.792 116.692L161.745 116.645L161.792 116.597C163.554 114.933 165.553 113.222 167.6 111.416L167.647 111.368L167.695 111.416C168.266 111.748 168.885 112.129 169.551 112.509H169.408C170.122 112.034 170.836 111.558 171.55 111.083C171.931 110.845 172.264 110.607 172.645 110.37C173.074 110.132 173.645 110.18 174.026 110.512C175.406 111.653 176.786 112.842 178.214 114.03L178.024 114.078C178.262 113.032 178.5 111.938 178.738 110.845V110.94C178.167 109.989 177.596 108.943 176.977 107.898L177.072 107.945C176.739 107.898 176.501 107.803 176.215 107.707C175.93 107.612 175.692 107.47 175.406 107.375C175.12 107.232 174.882 107.137 174.597 106.994C174.454 106.947 174.311 106.852 174.216 106.757C174.121 106.662 173.978 106.567 173.835 106.424C173.502 106.091 173.312 105.616 173.359 105.14C173.359 104.665 173.502 104.237 173.74 103.857L173.788 103.762L173.883 103.809C175.549 104.332 177.215 104.808 178.881 105.331C179.928 106.186 180.975 106.994 181.975 107.803L181.784 107.898C181.737 106.662 181.784 105.426 182.07 104.237C182.165 103.619 182.546 103.049 183.07 102.716C183.593 102.383 184.212 102.24 184.831 102.288H184.926V102.383C185.307 106.519 185.688 110.37 186.021 113.983V114.03C184.64 117.643 183.403 120.923 182.26 123.823C178.928 127.436 176.263 130.336 174.406 132.333C173.502 133.331 172.788 134.092 172.264 134.615C172.026 134.852 171.836 135.042 171.693 135.185C171.55 135.328 171.503 135.375 171.503 135.375C171.503 135.375 171.55 135.28 171.693 135.185C171.836 135.042 171.979 134.852 172.217 134.567C172.693 134.044 173.407 133.236 174.311 132.238C176.168 130.193 178.786 127.294 182.07 123.681V123.728C183.165 120.828 184.402 117.548 185.783 113.935V113.983C185.45 110.37 185.069 106.519 184.64 102.383L184.736 102.478C184.164 102.478 183.593 102.573 183.117 102.906C182.641 103.191 182.308 103.714 182.213 104.285C181.975 105.473 181.88 106.662 181.975 107.898V108.183L181.784 107.993C180.785 107.185 179.738 106.329 178.69 105.521H178.738C177.12 105.045 175.454 104.522 173.74 103.999L173.883 103.952C173.692 104.285 173.55 104.713 173.55 105.14C173.55 105.568 173.692 105.949 173.978 106.234C174.073 106.329 174.168 106.424 174.311 106.519C174.454 106.567 174.549 106.662 174.692 106.709C174.978 106.852 175.216 106.947 175.501 107.089C176.025 107.327 176.596 107.565 177.072 107.612H177.167L177.215 107.66C177.834 108.706 178.405 109.752 178.976 110.702V110.75V110.798C178.738 111.938 178.5 113.032 178.262 114.03L178.214 114.22L178.072 114.078C176.644 112.889 175.263 111.701 173.883 110.56C173.55 110.322 173.121 110.275 172.74 110.465C172.407 110.655 172.026 110.94 171.646 111.178C170.932 111.653 170.218 112.129 169.504 112.604L169.456 112.652L169.408 112.604C168.79 112.224 168.123 111.843 167.552 111.511H167.695C165.648 113.317 163.649 114.981 161.888 116.645V116.502C162.173 116.93 162.554 117.358 163.03 117.596C163.506 117.833 164.03 117.881 164.506 117.786C164.982 117.691 165.458 117.453 165.934 117.215C166.41 117.025 166.838 116.835 167.314 116.597H167.362L167.409 116.645C168.314 117.31 169.218 117.976 170.027 118.594L170.075 118.641L170.027 118.689C166.981 122.777 164.506 126.058 162.935 128.435C162.554 129.005 162.364 129.623 162.173 130.146C162.03 130.669 161.935 131.144 161.888 131.477C161.84 131.857 161.792 132.143 161.792 132.333C161.983 132.57 161.983 132.666 161.983 132.666Z" fill="#EB996E"/>
<path d="M174.835 120.781C174.787 120.781 174.978 120.068 175.025 118.879C175.073 118.309 175.025 117.596 174.692 116.883C174.359 116.169 173.74 115.599 173.026 115.029C171.598 113.935 170.218 113.032 169.171 112.414C168.695 112.129 168.266 111.891 167.933 111.701C167.647 111.511 167.505 111.416 167.505 111.416C167.505 111.416 167.695 111.463 167.981 111.606C168.266 111.748 168.695 111.986 169.218 112.271C170.265 112.842 171.693 113.745 173.121 114.838C173.835 115.409 174.502 116.027 174.835 116.787C175.168 117.548 175.168 118.309 175.121 118.879C175.073 119.497 174.978 119.973 174.883 120.258C174.883 120.638 174.835 120.781 174.835 120.781Z" fill="#EB996E"/>
<path d="M182.07 116.502C182.023 116.502 182.118 116.027 182.261 115.266C182.356 114.506 182.499 113.46 182.451 112.271C182.451 111.083 182.308 110.037 182.165 109.276C182.023 108.516 181.927 108.04 181.975 108.04C182.023 108.04 182.165 108.468 182.356 109.229C182.546 109.989 182.689 111.083 182.689 112.271C182.689 113.46 182.546 114.553 182.403 115.314C182.261 116.027 182.118 116.502 182.07 116.502Z" fill="#EB996E"/>
<path d="M229.432 209.346C229.432 209.394 181.023 209.489 121.38 209.489C61.6896 209.489 13.2804 209.441 13.2804 209.346C13.2804 209.251 61.642 209.204 121.38 209.204C181.07 209.204 229.432 209.251 229.432 209.346Z" fill="#263238"/>
<path d="M168.314 209.441C168.314 209.441 171.55 203.927 178.5 203.689C185.45 203.451 188.924 209.441 188.924 209.441H168.314Z" fill="#455A64"/>
<path d="M181.594 209.299C181.546 209.299 181.546 208.871 181.404 208.253C181.261 207.635 180.975 206.779 180.404 205.971C179.833 205.163 179.166 204.545 178.643 204.212C178.119 203.832 177.738 203.689 177.738 203.641C177.738 203.594 178.167 203.689 178.738 204.022C179.309 204.355 180.071 204.925 180.642 205.781C181.213 206.636 181.499 207.54 181.594 208.205C181.737 208.871 181.642 209.299 181.594 209.299Z" fill="#263238"/>
<path d="M163.982 209.204C163.934 207.682 162.792 206.541 161.316 206.541H102.15C100.674 206.541 99.484 207.73 99.484 209.204H163.982Z" fill="#455A64"/>
<path d="M50.694 105.663C50.694 106.899 51.646 181.155 51.646 181.155L106.862 194.419H111.432L108.528 90.7836H104.387L50.694 105.663Z" fill="#263238"/>
<path d="M62.356 178.018L45.2676 209.346H60.928C58.1196 209.061 85.68 209.346 85.68 209.346L60.928 202.786L68.6868 185.196L68.0204 178.018H62.356Z" fill="#263238"/>
<path d="M62.7368 183.818L60.8804 125.44L77.6832 123.823L79.7776 186.147L73.78 186.48L62.7368 183.818Z" fill="#263238"/>
<path d="M82.11 188.477C82.11 188.477 82.11 188.381 82.11 188.191C82.11 188.001 82.11 187.716 82.11 187.383C82.11 186.67 82.11 185.624 82.11 184.293C82.11 181.583 82.11 177.638 82.0624 172.693C82.0624 162.758 82.0148 148.829 82.0148 132.618L82.11 132.713C75.8744 132.713 69.2104 132.713 62.2608 132.713L62.4036 132.57C62.4036 133.426 62.4036 134.329 62.4036 135.28C62.4036 151.063 62.4036 165.753 62.4036 178.018V178.065C57.2628 187.478 52.9788 195.322 49.98 200.789C48.5044 203.499 47.3144 205.638 46.5052 207.112C46.1244 207.825 45.7912 208.395 45.6008 208.776C45.4104 209.156 45.2676 209.346 45.2676 209.346C45.2676 209.346 45.3628 209.156 45.5532 208.776C45.7436 208.395 46.0768 207.825 46.4576 207.112C47.2668 205.638 48.4092 203.499 49.8848 200.742C52.836 195.275 57.12 187.431 62.2132 177.97V178.018C62.2132 165.753 62.2132 151.063 62.2132 135.28C62.2132 134.377 62.2132 133.426 62.2132 132.57V132.428H62.356C69.258 132.428 75.9696 132.428 82.2052 132.428H82.3004V132.523C82.3004 148.734 82.2528 162.663 82.2528 172.598C82.2528 177.542 82.2052 181.488 82.2052 184.198C82.2052 185.529 82.2052 186.575 82.2052 187.288C82.2052 187.621 82.2052 187.906 82.2052 188.096C82.11 188.381 82.11 188.477 82.11 188.477Z" fill="#455A64"/>
<path d="M68.6391 185.244C68.6867 185.291 66.3067 190.758 63.3079 197.509C60.3091 204.26 57.8339 209.727 57.7863 209.679C57.7387 209.631 60.1187 204.164 63.1175 197.414C66.0687 190.663 68.5439 185.196 68.6391 185.244Z" fill="#455A64"/>
<path d="M106.814 194.134C106.814 193.944 106.814 193.706 106.814 193.373C106.814 192.66 106.814 191.662 106.767 190.378C106.767 187.763 106.672 183.96 106.576 179.301C106.386 169.936 105.958 157.006 105.434 142.744C104.91 128.482 104.53 115.551 104.387 106.186C104.339 101.527 104.292 97.7243 104.292 95.1096C104.292 93.8261 104.292 92.7802 104.292 92.1147C104.292 91.7819 104.292 91.4966 104.292 91.354C104.292 91.5442 104.292 91.7819 104.292 92.1147C104.292 92.8277 104.292 93.8261 104.339 95.1096C104.339 97.7243 104.434 101.527 104.53 106.186C104.72 115.551 105.148 128.482 105.672 142.744C106.196 157.006 106.576 169.936 106.719 179.301C106.767 183.96 106.814 187.763 106.814 190.378C106.814 191.662 106.814 192.707 106.814 193.373C106.814 193.706 106.814 193.991 106.814 194.134Z" fill="#455A64"/>
<path d="M79.1112 132.19C79.1588 132.19 79.254 144.598 79.254 159.905C79.254 175.213 79.2064 187.621 79.1112 187.621C79.0636 187.621 78.9684 175.213 78.9684 159.905C78.9684 144.598 79.016 132.19 79.1112 132.19Z" fill="#455A64"/>
<path d="M49.3612 204.45C49.3612 204.45 49.266 204.355 49.1232 204.117C49.028 204.022 48.9328 203.879 48.8376 203.689C48.7424 203.546 48.5996 203.356 48.5044 203.119C47.9808 202.263 47.4096 200.884 46.9812 199.078C46.5528 197.319 46.4576 195.132 46.6956 192.707C46.9812 190.331 47.6 187.716 48.7424 185.196C49.3136 183.913 50.0752 182.772 50.8844 181.773C51.0748 181.536 51.3128 181.251 51.5032 181.013C51.7412 180.775 51.9316 180.537 52.1696 180.3C52.6456 179.872 53.074 179.444 53.55 179.064C54.4544 178.256 55.4064 177.638 56.3108 177.067C56.7868 176.829 57.2152 176.544 57.6912 176.306C58.1672 176.116 58.548 175.879 58.9764 175.736C60.6424 175.07 62.118 174.738 63.1176 174.643C63.6412 174.548 64.022 174.595 64.3076 174.595C64.5932 174.595 64.736 174.595 64.736 174.595C64.736 174.595 64.5932 174.643 64.3076 174.643C64.022 174.69 63.6412 174.643 63.1652 174.738C62.1656 174.833 60.7376 175.213 59.0716 175.926C58.6432 176.069 58.2148 176.306 57.7864 176.544C57.358 176.782 56.9296 177.02 56.4536 177.305C55.5492 177.875 54.6448 178.493 53.7404 179.301C53.2644 179.682 52.836 180.11 52.4076 180.537C52.1696 180.775 51.9792 181.013 51.7888 181.251C51.5508 181.488 51.3604 181.726 51.17 181.964C50.3608 182.962 49.5992 184.103 49.028 185.339C47.8856 187.858 47.2668 190.426 46.9812 192.755C46.7432 195.132 46.8384 197.271 47.2192 199.03C47.6 200.789 48.1712 202.168 48.6472 203.023C48.7424 203.261 48.8852 203.451 48.9804 203.594C49.0756 203.737 49.1708 203.879 49.2184 204.022C49.3136 204.355 49.3612 204.45 49.3612 204.45Z" fill="#455A64"/>
<line x1="2.5" y1="209.5" x2="233.5" y2="209.5" stroke="#3F3F3F" stroke-linecap="round"/>
</svg>
