<svg width="86" height="86" viewBox="0 0 86 86" fill="none" xmlns="http://www.w3.org/2000/svg">
<circle opacity="0.4" cx="43" cy="43" r="43" fill="#FFBDB4"/>
<path d="M31.6926 66.8935C31.3868 66.7081 31.0252 66.6803 30.6915 66.5598C28.7449 65.8275 27.4194 63.9921 27.3452 61.9157C27.3359 61.7581 27.3359 61.6005 27.3359 61.4337C27.3359 50.236 27.3359 39.0476 27.3359 27.8499C27.3359 25.7828 28.1609 24.1884 29.9222 23.1039C30.7564 22.5941 31.6834 22.3901 32.6567 22.3901C34.9185 22.3994 37.171 22.3901 39.4328 22.3901C46.385 22.3901 53.3371 22.3901 60.2801 22.3901C61.2441 22.3901 61.4295 22.5755 61.4295 23.521C61.4295 34.6445 61.4295 45.7588 61.4295 56.8823C61.4295 57.7722 61.2256 57.9947 60.3357 57.9761C59.9927 57.9668 59.9371 58.0781 59.9371 58.3932C59.9464 60.8868 59.9371 63.371 59.9556 65.8645C59.9556 66.328 59.8259 66.6617 59.418 66.8842C50.1762 66.8935 40.9344 66.8935 31.6926 66.8935ZM28.8191 58.0595C30.0983 56.8081 31.5814 56.493 33.2221 56.493C41.9726 56.5208 50.7139 56.5022 59.4644 56.5115C59.8537 56.5115 59.9649 56.4188 59.9649 56.0202C59.9556 46.4169 59.9556 36.8136 59.9556 27.2196C59.9556 26.2185 59.9464 25.2174 59.9649 24.2255C59.9742 23.9382 59.8815 23.864 59.6034 23.8733C58.8618 23.8918 58.1295 23.9011 57.388 23.8733C57.0543 23.864 56.9894 23.9567 56.9894 24.2811C57.0079 26.8117 56.9986 29.3516 56.9986 31.8822C56.9986 32.2252 56.9245 32.5218 56.6 32.6887C56.2663 32.8648 55.9604 32.7628 55.6731 32.5403C54.9593 31.9934 54.2363 31.4651 53.5225 30.9182C53.3464 30.7791 53.2259 30.7699 53.0498 30.9182C52.3731 31.4465 51.6872 31.9378 51.0105 32.4569C50.6953 32.6979 50.3802 32.8926 49.9816 32.6887C49.5922 32.494 49.583 32.1325 49.583 31.7524C49.5922 29.2774 49.5737 26.8025 49.5922 24.3275C49.5922 23.966 49.5088 23.8733 49.1473 23.8733C44.5032 23.8825 39.8499 23.8918 35.2058 23.8733C34.8258 23.8733 34.7423 23.966 34.7423 24.346C34.7516 33.9864 34.7516 43.636 34.7516 53.2764C34.7516 54.2868 34.7516 54.2683 33.7227 54.3054C33.3148 54.3146 33.2685 54.1848 33.2685 53.8233C33.2777 44.0161 33.2777 34.2181 33.2777 24.4109C33.2777 24.3089 33.2685 24.207 33.2777 24.105C33.2963 23.9382 33.2407 23.8825 33.0645 23.8733C32.323 23.864 31.5907 23.9196 30.914 24.2719C29.4587 25.032 28.8098 26.2463 28.8098 27.8499C28.8191 37.7684 28.8098 47.6869 28.8098 57.6053C28.8191 57.7258 28.8191 57.8371 28.8191 58.0595ZM45.1706 57.9947C42.1117 57.9947 39.062 57.9947 36.003 57.9947C34.7331 57.9947 33.4539 57.9668 32.1839 58.0317C29.6348 58.1708 28.0219 61.1 29.2362 63.3617C29.9963 64.78 31.2106 65.4011 32.7865 65.4011C35.901 65.4011 39.0156 65.4011 42.1302 65.4011C47.4417 65.4011 52.7624 65.4011 58.0739 65.4103C58.3891 65.4103 58.491 65.3454 58.4818 65.0117C58.454 64.3165 58.454 63.6213 58.4818 62.9261C58.5003 62.546 58.4076 62.4255 57.9998 62.4255C49.8425 62.4348 41.6945 62.4348 33.5373 62.4348C32.5176 62.4348 32.5362 62.4348 32.5084 61.4337C32.4991 61.0351 32.6103 60.9331 33.0089 60.9424C38.3668 60.9517 43.7246 60.9517 49.0824 60.9517C52.0765 60.9517 55.0798 60.9424 58.0739 60.9609C58.4076 60.9609 58.491 60.8775 58.4725 60.5531C58.4447 59.8486 58.4447 59.1348 58.4725 58.4211C58.491 58.0595 58.3891 57.9761 58.0276 57.9761C53.745 58.0039 49.4532 57.9947 45.1706 57.9947ZM55.5062 30.5567C55.5062 28.369 55.497 26.2926 55.5155 24.207C55.5155 23.9289 55.4321 23.8733 55.1725 23.8825C53.9397 23.8918 52.7161 23.9011 51.4832 23.8825C51.1588 23.8733 51.0476 23.9474 51.0568 24.2997C51.0754 26.237 51.0661 28.1744 51.0661 30.1117C51.0661 30.2322 51.0661 30.3527 51.0661 30.5567C51.6501 30.121 52.1692 29.7317 52.6883 29.3516C53.1703 28.9994 53.4113 28.9994 53.8933 29.3609C54.4032 29.7317 54.9223 30.121 55.5062 30.5567Z" fill="#D81E05"/>
<path d="M47.3772 43.1635C44.5129 43.1635 41.6485 43.1635 38.775 43.1635C37.9314 43.1635 37.6904 42.9317 37.6904 42.0789C37.6904 39.8171 37.6904 37.5646 37.6904 35.3028C37.6904 34.5149 37.9407 34.2646 38.7286 34.2646C44.4758 34.2646 50.2229 34.2646 55.9701 34.2646C56.7487 34.2646 56.9805 34.5057 56.9805 35.275C56.9805 37.5646 56.9805 39.8542 56.9805 42.1345C56.9805 42.9225 56.7394 43.1542 55.933 43.1542C53.0872 43.1635 50.2322 43.1635 47.3772 43.1635ZM47.3493 35.7571C44.7724 35.7571 42.1955 35.7571 39.6185 35.7478C39.3033 35.7478 39.1643 35.7941 39.1736 36.1649C39.1921 37.8705 39.1921 39.5761 39.1736 41.291C39.1736 41.6154 39.2477 41.6989 39.5814 41.6989C44.7631 41.6896 49.9448 41.6896 55.1265 41.6989C55.4788 41.6989 55.5159 41.5784 55.5159 41.2817C55.5066 39.5854 55.4973 37.8983 55.5159 36.202C55.5159 35.859 55.4602 35.7478 55.0802 35.7478C52.5032 35.7663 49.9263 35.7571 47.3493 35.7571Z" fill="#D81E05"/>
<path d="M47.3294 50.5698C50.1659 50.5698 53.0023 50.5791 55.8388 50.5605C56.154 50.5605 56.256 50.6254 56.256 50.9591C56.2467 52.053 56.256 52.053 55.1529 52.053C49.7395 52.053 44.3353 52.053 38.9218 52.0622C38.5511 52.0622 38.4305 51.9973 38.4491 51.5987C38.4769 50.5698 38.4584 50.5698 39.4873 50.5698C42.092 50.5698 44.7153 50.5698 47.3294 50.5698Z" fill="#D81E05"/>
<path d="M47.2943 47.6033C45.4589 47.6033 43.6235 47.594 41.7789 47.6125C41.51 47.6125 41.3803 47.5662 41.4174 47.2695C41.4452 47.01 41.4452 46.7504 41.4174 46.4909C41.3803 46.1665 41.5193 46.1201 41.8067 46.1201C45.496 46.1294 49.1853 46.1294 52.8746 46.1201C53.1805 46.1201 53.3288 46.1665 53.2824 46.5094C53.2361 46.8617 53.4307 47.3344 53.199 47.5384C53.0043 47.7145 52.5409 47.6033 52.1979 47.6033C50.5572 47.6125 48.9257 47.6033 47.2943 47.6033Z" fill="#D81E05"/>
</svg>
