<svg width="97" height="61" viewBox="0 0 97 61" fill="none" xmlns="http://www.w3.org/2000/svg">
<path d="M15.2136 54.5875C15.2136 54.5875 12.2988 49.9431 6.98164 47.1884C1.69654 44.4337 -0.57766 41.7431 2.177 41.9033C5.50821 42.0955 13.0675 44.754 16.4948 54.075C17.9682 58.0789 15.2136 54.5875 15.2136 54.5875Z" fill="#E8505B" stroke="#263238" stroke-miterlimit="10" stroke-linecap="round" stroke-linejoin="round"/>
<path d="M15.0216 53.3704C15.0216 53.3704 12.363 48.0853 7.36621 45.5228" stroke="#263238" stroke-miterlimit="10" stroke-linecap="round" stroke-linejoin="round"/>
<path d="M18.384 57.7908C18.384 57.7908 16.7184 53.1143 17.7113 47.8292C18.7043 42.5441 18.0637 39.405 16.6223 41.455C14.8926 43.9214 12.5544 50.776 17.2629 58.4314C19.3129 61.7306 18.384 57.7908 18.384 57.7908Z" fill="#E8505B" stroke="#263238" stroke-miterlimit="10" stroke-linecap="round" stroke-linejoin="round"/>
<path d="M17.6155 56.99C17.6155 56.99 15.3413 52.1533 16.3022 47.1565" stroke="#263238" stroke-miterlimit="10" stroke-linecap="round" stroke-linejoin="round"/>
<path d="M15.4367 52.2494C15.4367 52.2494 13.7711 47.5729 14.7641 42.2878C15.757 37.0027 15.1164 33.8636 13.675 35.9136C11.9454 38.38 9.60711 45.2346 14.3157 52.89C16.3656 56.1572 15.4367 52.2494 15.4367 52.2494Z" fill="#E8505B" stroke="#263238" stroke-miterlimit="10" stroke-linecap="round" stroke-linejoin="round"/>
<path d="M15.0205 53.3705C15.0205 53.3705 12.3619 46.6119 13.3549 41.6151" stroke="#263238" stroke-miterlimit="10" stroke-linecap="round" stroke-linejoin="round"/>
<path d="M81.9315 48.7901C81.9315 48.7901 84.8463 44.1456 90.1635 41.3909C95.4486 38.6362 97.7228 35.9457 94.9681 36.1058C91.6369 36.298 84.0776 38.9566 80.6503 48.2776C79.1449 52.2814 81.9315 48.7901 81.9315 48.7901Z" fill="#A33840" stroke="#263238" stroke-miterlimit="10" stroke-linecap="round" stroke-linejoin="round"/>
<path d="M82.0908 47.5729C82.0908 47.5729 84.7494 42.2878 89.7462 39.7253" stroke="#263238" stroke-miterlimit="10" stroke-linecap="round" stroke-linejoin="round"/>
<path d="M78.7295 51.9933C78.7295 51.9933 80.3951 47.3168 79.4021 42.0317C78.4092 36.7466 79.0498 33.6075 80.4912 35.6575C82.2208 38.1239 84.5591 44.9785 79.8506 52.6339C77.8006 55.9331 78.7295 51.9933 78.7295 51.9933Z" fill="#A33840" stroke="#263238" stroke-miterlimit="10" stroke-linecap="round" stroke-linejoin="round"/>
<path d="M79.4971 51.1925C79.4971 51.1925 81.7713 46.3558 80.8103 41.359" stroke="#263238" stroke-miterlimit="10" stroke-linecap="round" stroke-linejoin="round"/>
<path d="M81.706 46.4518C81.706 46.4518 83.3716 41.7753 82.3787 36.4902C81.3857 31.2051 82.0263 28.0661 83.4677 30.1161C85.1974 32.5825 87.5357 39.4371 82.8271 47.0925C80.7771 50.3596 81.706 46.4518 81.706 46.4518Z" fill="#A33840" stroke="#263238" stroke-miterlimit="10" stroke-linecap="round" stroke-linejoin="round"/>
<path d="M82.0898 47.5729C82.0898 47.5729 84.7484 40.8143 83.7554 35.8175" stroke="#263238" stroke-miterlimit="10" stroke-linecap="round" stroke-linejoin="round"/>
<path d="M83.2772 32.198H52.8158L35.7754 5.1319H66.2368L83.2772 32.198Z" fill="#263238" stroke="#263238" stroke-miterlimit="10" stroke-linecap="round" stroke-linejoin="round"/>
<path d="M48.5565 31.2692H17.3584V58.8478H48.5565V31.2692Z" fill="#C7C7C7" stroke="#263238" stroke-miterlimit="10" stroke-linecap="round" stroke-linejoin="round"/>
<path d="M79.787 58.8478H48.5889V31.2692L64.4442 6.06085L79.787 31.2692V58.8478Z" fill="white" stroke="#263238" stroke-miterlimit="10" stroke-linecap="round" stroke-linejoin="round"/>
<path d="M55.314 36.234H52.207V45.587H55.314V36.234Z" fill="#C7C7C7" stroke="#263238" stroke-miterlimit="10" stroke-linecap="round" stroke-linejoin="round"/>
<path d="M58.4537 36.234H55.3467V45.587H58.4537V36.234Z" fill="#263238" stroke="#263238" stroke-miterlimit="10" stroke-linecap="round" stroke-linejoin="round"/>
<path d="M61.5601 36.234H58.4531V45.587H61.5601V36.234Z" fill="#C7C7C7" stroke="#263238" stroke-miterlimit="10" stroke-linecap="round" stroke-linejoin="round"/>
<path d="M41.0271 36.2341H38.4326V45.5871H41.0271V36.2341Z" fill="#919191" stroke="#263238" stroke-miterlimit="10" stroke-linecap="round" stroke-linejoin="round"/>
<path d="M43.6219 36.2341H41.0273V45.5871H43.6219V36.2341Z" fill="#263238" stroke="#263238" stroke-miterlimit="10" stroke-linecap="round" stroke-linejoin="round"/>
<path d="M46.2156 36.2341H43.6211V45.5871H46.2156V36.2341Z" fill="#919191" stroke="#263238" stroke-miterlimit="10" stroke-linecap="round" stroke-linejoin="round"/>
<path d="M21.7791 36.2339H19.1846V45.5869H21.7791V36.2339Z" fill="#919191" stroke="#263238" stroke-miterlimit="10" stroke-linecap="round" stroke-linejoin="round"/>
<path d="M24.3738 36.2339H21.7793V45.5869H24.3738V36.2339Z" fill="#263238" stroke="#263238" stroke-miterlimit="10" stroke-linecap="round" stroke-linejoin="round"/>
<path d="M26.9998 36.2339H24.4053V45.5869H26.9998V36.2339Z" fill="#919191" stroke="#263238" stroke-miterlimit="10" stroke-linecap="round" stroke-linejoin="round"/>
<path d="M71.2008 36.2339H68.0938V45.587H71.2008V36.2339Z" fill="#C7C7C7" stroke="#263238" stroke-miterlimit="10" stroke-linecap="round" stroke-linejoin="round"/>
<path d="M74.3072 36.2339H71.2002V45.587H74.3072V36.2339Z" fill="#263238" stroke="#263238" stroke-miterlimit="10" stroke-linecap="round" stroke-linejoin="round"/>
<path d="M77.4468 36.2339H74.3398V45.587H77.4468V36.2339Z" fill="#C7C7C7" stroke="#263238" stroke-miterlimit="10" stroke-linecap="round" stroke-linejoin="round"/>
<path d="M63.9316 20.8911H61.8496V26.6246H63.9316V20.8911Z" fill="#C7C7C7" stroke="#263238" stroke-miterlimit="10" stroke-linecap="round" stroke-linejoin="round"/>
<path d="M66.0137 20.8911H63.9316V26.6246H66.0137V20.8911Z" fill="#263238" stroke="#263238" stroke-miterlimit="10" stroke-linecap="round" stroke-linejoin="round"/>
<path d="M68.0957 20.8911H66.0137V26.6246H68.0957V20.8911Z" fill="#C7C7C7" stroke="#263238" stroke-miterlimit="10" stroke-linecap="round" stroke-linejoin="round"/>
<path d="M15.6289 32.198H49.1333L66.1737 5.1319H32.6694L15.6289 32.198Z" fill="#D81E05" stroke="#263238" stroke-miterlimit="10" stroke-linecap="round" stroke-linejoin="round"/>
<path d="M41.7981 17.3677H28.5693V26.1122H41.7981V17.3677Z" fill="#C7C7C7" stroke="#263238" stroke-miterlimit="10" stroke-linecap="round" stroke-linejoin="round"/>
<path d="M41.7979 17.3677L50.9587 11.0897L41.7979 26.1122V17.3677Z" fill="white" stroke="#263238" stroke-miterlimit="10" stroke-linecap="round" stroke-linejoin="round"/>
<path d="M27.5117 17.656H41.3811L50.9584 11.0897H37.089L27.5117 17.656Z" fill="#D81E05" stroke="#263238" stroke-miterlimit="10" stroke-linecap="round" stroke-linejoin="round"/>
<path d="M33.8857 19.2256H31.8037V24.9591H33.8857V19.2256Z" fill="#919191" stroke="#263238" stroke-miterlimit="10" stroke-linecap="round" stroke-linejoin="round"/>
<path d="M35.9687 19.2256H33.8867V24.9592H35.9687V19.2256Z" fill="#263238" stroke="#263238" stroke-miterlimit="10" stroke-linecap="round" stroke-linejoin="round"/>
<path d="M38.0498 19.2256H35.9678V24.9592H38.0498V19.2256Z" fill="#919191" stroke="#263238" stroke-miterlimit="10" stroke-linecap="round" stroke-linejoin="round"/>
<path d="M58.1033 1H56.9502V9.52023L58.1033 7.6304V1Z" fill="white" stroke="#263238" stroke-miterlimit="10" stroke-linecap="round" stroke-linejoin="round"/>
<path d="M56.982 1H53.5547V9.48819H56.982V1Z" fill="#C7C7C7" stroke="#263238" stroke-miterlimit="10" stroke-linecap="round" stroke-linejoin="round"/>
<path d="M36.9931 37.8034H28.9854V58.8477H36.9931V37.8034Z" fill="#263238" stroke="#263238" stroke-miterlimit="10" stroke-linecap="round" stroke-linejoin="round"/>
<path d="M36.5441 48.3095C36.5441 47.9252 36.2238 47.6049 35.8394 47.6049C35.4551 47.6049 35.1348 47.9252 35.1348 48.3095C35.1348 48.6939 35.4551 49.0142 35.8394 49.0142C36.2558 49.0142 36.5441 48.6939 36.5441 48.3095Z" fill="white" stroke="#263238" stroke-miterlimit="10" stroke-linecap="round" stroke-linejoin="round"/>
<line x1="1.69453" y1="59.45" x2="95.5945" y2="59.45" stroke="black" stroke-width="1.1" stroke-linecap="round"/>
</svg>
