<svg width="26" height="26" viewBox="0 0 26 26" fill="none" xmlns="http://www.w3.org/2000/svg">
<path fill-rule="evenodd" clip-rule="evenodd" d="M12.6928 2.56836e-06C19.6875 0.00441285 25.3694 5.70397 25.3599 12.706C25.3503 19.6868 19.6537 25.3658 12.6671 25.3599C5.67237 25.354 -0.0102767 19.653 1.39544e-05 12.6531C0.0110397 5.67163 5.70472 -0.00440772 12.6928 2.56836e-06ZM12.6891 23.5958C18.7129 23.5891 23.6061 18.6849 23.5958 12.6634C23.5855 6.64924 18.6982 1.76706 12.6847 1.76338C6.66322 1.75971 1.76339 6.6588 1.76413 12.681C1.7656 18.7033 6.66984 23.6024 12.6891 23.5958Z" fill="#D81E05"/>
<path fill-rule="evenodd" clip-rule="evenodd" d="M11.7991 10.2966C11.7991 9.2866 11.7984 8.27738 11.7991 7.26743C11.7999 6.68086 12.1564 6.2854 12.6797 6.28467C13.2009 6.28467 13.5618 6.68306 13.5618 7.26669C13.5632 9.06609 13.5662 10.8647 13.5574 12.6634C13.5566 12.8648 13.6206 12.9699 13.7904 13.0721C14.9694 13.7799 16.1432 14.4981 17.3156 15.217C17.7207 15.4654 17.8897 15.8462 17.7861 16.2357C17.6302 16.8208 16.99 17.073 16.4431 16.7473C15.6317 16.2644 14.829 15.766 14.0226 15.2743C13.4508 14.9259 12.8826 14.5731 12.307 14.2305C11.9586 14.0232 11.794 13.7322 11.7969 13.3242C11.8043 12.3165 11.7991 11.3065 11.7991 10.2966Z" fill="#D81E05"/>
</svg>
